<svg width="234" height="550" viewBox="0 0 234 550" fill="none" xmlns="http://www.w3.org/2000/svg">
<path d="M151.193 342.174C151.215 342.078 151.296 341.945 151.259 341.886L148.409 322.501L150.215 323.422C151.963 324.381 153.895 324.977 155.857 325.228L159.921 332.121C159.958 332.18 159.995 332.239 160.091 332.261L161.728 333.043C161.861 333.124 162.016 333.109 162.193 332.998C162.311 332.925 162.355 332.733 162.34 332.578L159.654 325.396L162.147 325.315C162.648 325.329 163.157 325.093 163.4 324.695C163.621 324.393 163.806 324.031 163.835 323.685L170.28 322.445C170.434 322.43 170.575 322.26 170.56 322.105C170.641 321.973 170.53 321.796 170.397 321.715L165.973 319.231C165.936 319.172 165.877 319.208 165.781 319.186L159.579 318.716L161.105 315.382C161.208 315.154 161.098 314.977 160.928 314.837L159.519 314.159C159.387 314.078 159.232 314.092 159.114 314.166L155.361 317.087C153.252 315.945 150.686 314.596 147.986 313.166L149.997 301.161C149.982 301.006 149.967 300.851 149.835 300.77C148.795 300.025 147.379 300.254 146.598 301.235L143.59 305.085L140.618 303.743C140.293 303.618 139.829 303.662 139.379 303.862C139.025 304.083 138.686 304.459 138.384 304.894C138.177 305.351 138.008 305.868 138.052 306.332C138.045 306.583 138.133 306.856 138.244 307.033C138.355 307.21 138.524 307.35 138.657 307.431L141.002 308.426L140.42 309.2C137.492 307.667 134.926 306.318 133.311 305.441C131.504 304.52 129.432 304.092 127.515 304.307C126.836 304.403 126.158 304.499 125.553 304.713C124.735 304.978 124.138 305.598 123.998 306.424C123.806 307.036 123.924 307.618 124.256 308.149C124.367 308.326 124.477 308.503 124.647 308.643C125.775 309.66 127.022 310.604 128.194 311.43C129.463 312.277 130.731 313.125 132.044 313.781L139.323 317.68L141.677 323.675L140.364 323.019C140.002 322.835 139.538 322.879 139.125 323.137C138.771 323.358 138.432 323.734 138.13 324.17C137.702 324.929 137.717 325.74 138.049 326.271C138.16 326.448 138.329 326.588 138.462 326.669L143.742 328.947L148.302 340.7C148.376 340.818 148.427 341.032 148.501 341.15C148.981 341.916 149.873 342.425 150.839 342.395C151.053 342.344 151.171 342.27 151.193 342.174ZM161.219 331.966L160.533 331.657L155.643 323.311C156.424 323.642 157.604 324.217 158.629 324.807L161.219 331.966ZM165.7 319.975L169.1 321.87L162.441 323.162L155.59 319.159L165.7 319.975ZM160.294 315.397L158.827 318.694L158.134 318.635C157.544 318.347 156.88 317.942 156.158 317.574L159.475 315.007L160.294 315.397ZM139.158 306.789C138.989 306.649 138.915 306.531 138.863 306.317C138.834 306.008 138.959 305.683 139.084 305.359C139.269 304.997 139.527 304.754 139.763 304.606C139.94 304.496 140.153 304.444 140.286 304.525C140.323 304.584 140.382 304.547 140.419 304.606C140.456 304.665 140.53 304.783 140.544 304.938C140.574 305.248 140.449 305.572 140.323 305.897C139.918 306.56 139.446 306.855 139.158 306.789ZM140.169 307.224C140.464 307.04 140.744 306.7 140.928 306.339C141.134 305.882 141.245 305.402 141.238 304.997L143.066 305.822L141.54 307.843L140.169 307.224ZM147.239 301.736C147.681 301.132 148.537 300.925 149.201 301.33L147.264 312.797C145.191 311.714 143.119 310.63 141.143 309.569L147.239 301.736ZM124.661 306.829C124.683 306.733 124.647 306.674 124.706 306.637C124.838 306.062 125.177 305.686 125.723 305.509C125.915 305.553 125.988 305.671 126.062 305.789C126.32 306.202 126.21 306.681 125.797 306.939C125.443 307.161 124.942 307.146 124.661 306.829ZM132.45 313.117C131.137 312.461 129.868 311.614 128.637 310.825C127.464 309.999 126.218 309.056 125.126 308.097C125.089 308.038 124.957 307.957 124.92 307.898C125.303 307.987 125.731 307.883 126.144 307.625C126.91 307.146 127.19 306.15 126.711 305.383C126.674 305.324 126.674 305.324 126.637 305.265C127.006 305.199 127.316 305.169 127.625 305.14C127.684 305.103 127.721 305.162 127.78 305.125C127.589 305.737 127.795 306.592 128.422 307.595C128.57 307.831 128.754 308.126 128.998 308.384C129.108 308.561 129.359 308.568 129.536 308.458C129.713 308.347 129.72 308.096 129.609 307.919C128.4 306.378 128.422 305.626 128.488 305.339C128.569 305.206 128.65 305.073 128.746 305.095C130.214 305.08 131.629 305.508 133.038 306.186C137.677 308.618 149.727 315.031 156.15 318.481L153.975 318.282C153.783 318.238 153.643 318.407 153.562 318.54C153.54 318.636 153.555 318.791 153.592 318.85C153.629 318.909 153.665 318.968 153.761 318.99L162.228 323.87C162.323 323.892 162.419 323.914 162.515 323.936L163.098 323.818C163.076 323.914 162.995 324.046 162.913 324.179C162.714 324.386 162.478 324.533 162.228 324.526L159.485 324.6L159.47 324.445C159.433 324.386 159.359 324.268 159.322 324.209C158.791 323.885 155.982 322.278 154.957 322.345C154.802 322.359 154.684 322.433 154.662 322.529C154.581 322.662 154.595 322.817 154.669 322.935L155.495 324.387C153.844 324.107 152.258 323.54 150.776 322.744L148.438 321.498L148.408 321.188C148.43 321.093 148.357 320.975 148.261 320.952C148.054 320.753 143.327 316.736 139.529 315.911C139.433 315.888 139.219 315.94 139.138 316.073C139.057 316.206 139.035 316.301 139.05 316.456L139.087 316.515L132.45 313.117ZM138.904 326.065C138.543 325.88 138.543 325.224 138.889 324.597C139.074 324.236 139.332 323.992 139.568 323.845C139.745 323.734 139.958 323.683 140.091 323.764C140.128 323.823 140.187 323.786 140.224 323.845C140.371 324.081 140.394 324.641 140.069 325.172C139.723 325.799 139.192 326.131 138.904 326.065ZM139.974 326.463C140.269 326.278 140.549 325.939 140.733 325.577C140.939 325.12 141.05 324.641 141.042 324.235L142.127 324.788L143.403 328.01L139.974 326.463ZM149.083 340.375L139.942 316.965C143.098 317.945 146.793 320.968 147.472 321.528L150.418 341.592C149.806 341.4 149.297 340.98 149.083 340.375Z" fill="#475566" fill-opacity="0.6"/>
<mask id="path-2-inside-1_405_5591" fill="white">
<path d="M183.202 121.191C181.694 120.212 180.183 119.351 178.425 118.956C176.078 118.546 173.364 118.717 171.155 117.486C169.644 116.625 166.684 112.312 170.443 112.756C173.028 113.053 178.095 113.057 179.909 111.097C184.505 106.141 190.22 118.414 195.315 117.24C198.04 116.598 198.713 113.079 201.5 114.796C203.241 115.898 205.086 117.591 206.341 119.271C208.169 121.671 206.843 122.936 204.123 123.342C201.642 123.636 199.174 123.341 196.584 123.279C194.229 123.223 191.868 123.402 189.507 123.581C187.146 123.76 185.176 122.417 183.202 121.191ZM210.658 106.296C210.658 106.296 211.824 111.744 213.691 112.496C215.44 113.244 216.36 114.209 217.597 111.764C218.831 109.438 216.148 108.313 214.191 106.381C212.234 104.449 209.165 99.78 210.658 106.296ZM201.3 137.884C197.925 136.154 199.627 133.956 198.543 130.042C197.458 126.128 194.892 129.954 191.39 133.523C187.887 137.092 184.633 130.298 182.909 128.489C181.185 126.68 182.842 126.367 173.795 125.325C164.868 124.169 165.58 123.95 161.466 128.447C157.353 132.943 164.799 131.943 169.967 132.656C175.134 133.369 175.178 136.434 174.631 139.602C174.084 142.77 164.582 141.011 155.658 139.736C146.734 138.462 147.51 140.484 142.87 142.376C138.23 144.267 128.701 138.737 124.728 137.346C120.755 135.955 93.3963 136.949 89.3925 136.853C85.3888 136.757 83.0781 139.765 79.9826 141.105C76.8871 142.444 78.0498 148.01 77.87 150.598C77.6902 153.185 71.8588 150.689 68.7971 150.616C65.7355 150.543 66.5174 152.329 66.2283 154.56C65.9392 156.792 67.2289 157.059 70.885 156.911C74.5411 156.763 76.0578 157.388 76.1163 159.864C76.1748 162.339 71.3778 160.928 68.4339 160.858C65.49 160.787 66.5435 165.997 67.0278 170.368C67.5122 174.739 70.3553 174.1 71.9757 175.317C73.5961 176.534 75.9117 178.239 61.8754 183.794C47.8391 189.349 61.3254 187.08 63.7031 186.194C66.0808 185.309 76.5195 182.378 79.5811 182.451C82.6428 182.524 87.4377 179.105 91.4026 175.901C95.3676 172.696 107.46 174.518 116.171 174.844C124.882 175.171 131.961 194.428 136.13 197.473C140.299 200.519 140.197 224.435 139.91 231.497C139.623 238.56 144.689 243.512 146.99 245.806C149.292 248.099 154.754 261.073 160.907 269.822C167.057 278.688 164.376 267.666 162.61 262.675C160.847 257.567 164.388 262.247 164.388 262.247C164.388 262.247 175.382 275.471 177.475 281.53C179.569 287.589 189.104 292.884 195.569 293.51C202.034 294.136 201.874 295.9 201.874 295.9C201.874 295.9 201.462 298.364 209.211 299.492C216.842 300.618 215.403 306.592 218.526 309.024C221.649 311.455 226.536 314.046 230.893 314.151C235.25 314.255 233.73 313.747 234.475 317.064C235.221 320.381 232.052 324.782 229.758 327.084C227.464 329.386 227.099 334.797 226.947 341.155C226.794 347.514 229.236 348.869 229.236 348.869C229.236 348.869 242.136 371.093 245.267 373.171C248.398 375.249 247.826 379.477 247.826 379.477C247.826 379.477 247.053 411.742 246.876 414.212C246.699 416.682 246.463 416.677 244.273 419.57C242.083 422.463 242.281 428.948 242.281 428.948C242.281 428.948 241.242 457.554 241.192 459.674C241.141 461.793 244.373 464.581 254.951 470.608C265.528 476.634 257.962 467.852 256.833 465.822C255.703 463.792 256.651 458.63 256.745 454.744C256.838 450.858 260.183 448.936 261.535 446.612C262.886 444.287 261.751 442.493 261.85 438.371C261.949 434.25 266.592 432.24 266.592 432.24C266.592 432.24 292.407 407.173 294.465 404.866C296.523 402.559 296.986 397.975 296.813 395.379C296.64 392.782 304.592 385.432 309.025 382.357C313.458 379.282 317.088 370.415 317.371 368.418C317.655 366.422 317.882 361.832 320.88 359.666C323.877 357.499 323.875 352.668 325.174 347.633C326.473 342.597 317.067 341.783 311.502 337.997C305.937 334.211 297.013 332.937 296.306 332.92C295.6 332.903 291.585 333.278 291.891 330.34C292.197 327.402 289.845 322.279 288.492 319.772C287.138 317.265 284.898 317.33 282.189 317.265C279.481 317.2 271.421 309.348 267.945 306.908C264.469 304.469 257.24 306.181 252.561 304.773C247.882 303.364 250.237 303.421 246.026 302.142C241.815 300.863 239.672 306.702 237.656 307.243C235.64 307.784 229.169 307.393 226.823 306.984C224.476 306.574 222.808 302.41 222.31 298.628C221.811 294.846 220.556 293.166 217.419 291.323C214.281 289.481 213.906 285.466 214.327 282.648C214.748 279.831 212.752 279.547 210.4 279.373C208.048 279.199 208.143 280.144 207.506 282.131C206.869 284.119 204.963 285.016 199.919 284.07C194.878 283.007 192.902 276.951 192.429 272.109C191.956 267.266 192.139 264.561 195.503 261.814C198.868 259.067 199.774 260.62 204.231 261.434C208.689 262.247 211.81 259.848 214.827 256.857C217.845 253.866 221.253 259.132 221.253 259.132C221.253 259.132 221.253 259.132 225.901 266.784C230.548 274.436 230.143 266.767 229.14 259.438C228.137 252.109 251.185 229.45 254.679 226.235C258.172 223.02 257.785 224.424 263.684 224.094C269.584 223.764 271.965 217.812 275.439 215.421C278.913 213.03 271.021 212.959 267.533 210.99C264.046 209.021 269.945 208.691 272.09 207.682C274.235 206.673 278.723 206.192 284.603 206.686C290.482 207.18 276.377 186.106 273.96 183.691C271.544 181.277 272.335 177.761 271.239 174.318C270.144 170.875 266.005 176.431 262.973 180.011C259.942 183.591 260.147 179.943 260.672 177.717C261.196 175.491 258.898 173.08 257.911 169.993C256.925 166.906 249.366 167.667 246.66 167.484C243.955 167.302 244.42 167.549 243.486 172.121C242.551 176.694 243.776 179.669 244.499 183.928C245.222 188.187 240.373 193.844 237.594 196.723C234.815 199.602 234.193 196.052 234.146 193.106C234.099 190.159 232.675 190.596 229.389 190.046C226.103 189.496 225.87 189.373 224.648 186.28C223.426 183.187 219.131 180.492 215.015 180.158C210.9 179.824 212.367 172.672 212.561 169.495C212.758 166.201 218.884 166.23 220.9 165.689C222.916 165.148 226.264 163.108 229.471 166.955C232.68 170.684 235.947 167.11 235.947 167.11C235.947 167.11 241.104 163.345 241.16 160.99C241.217 158.635 240.14 159.316 236.961 159.24C233.781 159.164 233.31 159.153 233.375 156.444C233.44 153.736 233.446 153.5 239.101 153.518C244.756 153.536 242.289 148.292 245.057 145.884C247.825 143.476 250.37 145.422 249.778 150.475C249.185 155.527 255.166 151.782 258.432 153.156C261.699 154.531 260.128 156.143 257.288 156.664C254.448 157.185 256.309 158.172 257.06 161.253C257.811 164.335 257.478 163.502 266.41 164.423C275.343 165.344 267.799 160.568 267.232 159.612C266.666 158.656 264.014 156.236 272.128 156.901C280.242 157.567 275.336 150.851 275.336 150.851C275.336 150.851 269.918 140.942 263.501 138.314C257.084 135.686 258.847 135.846 255.534 131.525C252.22 127.204 239.101 128.893 235.221 128.564C231.341 128.236 231.514 130.832 229.453 133.257C227.51 135.684 232.161 138.27 232.443 146.171C232.725 154.072 227.71 147 227.71 147C227.71 147 224.966 143.518 223.744 140.425C222.522 137.332 222.09 135.672 224.028 133.48C225.966 131.288 226.849 128.835 223.082 123.796C219.314 118.757 216.18 116.797 214.537 116.522C212.894 116.247 213.286 119.555 213.454 122.387C213.622 125.219 215.282 124.787 217.244 126.484C219.089 128.178 218.191 131.22 217.644 134.388C217.097 137.556 217.032 135.316 214.204 130.417C211.376 125.519 209.43 128.064 206.76 131.299C204.091 134.534 211.108 136.705 211.202 142.599C211.297 148.492 208.115 143.585 208.115 143.585C208.115 143.585 204.676 139.615 201.3 137.884ZM91.4198 248.952C91.4198 248.952 93.7029 261.849 97.0142 261.339C103.637 260.32 98.7925 255.962 93.1861 248.994C92.732 248.276 90.7838 245.991 91.4198 248.952ZM232.156 281.072C232.857 281.325 233.561 281.46 234.141 281.827C235.069 282.438 235.75 283.515 236.802 283.894C238.201 284.516 241.061 283.171 242.482 282.851C248.522 281.582 232.631 276.017 229.822 275.243C227.013 274.469 226.202 273.86 219.776 276.534C213.349 279.208 225.119 279.726 225.119 279.726C227.584 280.138 229.933 280.43 232.156 281.072ZM246.32 284.946C246.303 285.653 246.286 286.36 246.401 286.48C246.959 287.79 248.619 287.358 249.797 287.386C250.856 287.412 257.459 287.216 254.426 285.965C252.559 285.214 250.588 283.87 248.485 283.113C245.449 281.98 246.354 283.533 246.32 284.946ZM223.4 115.438C224.294 117.463 225.715 117.143 226.879 117.76C228.042 118.377 228.362 119.799 228.633 123.222C228.905 126.645 239.769 125.61 247.191 125.67C254.612 125.73 249.877 121.728 240.451 121.738C236.327 121.757 235.873 121.039 234.749 118.773C233.625 116.508 231.744 116.345 229.061 115.22C226.378 114.096 226.647 112.688 224.121 109.918C220.676 106.183 222.388 113.411 222.388 113.411C222.388 113.411 222.506 113.414 223.4 115.438ZM252.785 118.381C258.084 118.508 261.573 110.579 261.84 109.29C262.106 108 265.339 105.839 269.579 105.94C273.818 106.042 276.055 106.096 277.993 103.903C279.931 101.711 277.903 102.723 284.063 101.339C290.223 99.9547 290.151 98.0678 290.089 95.7098C290.028 93.3519 280.134 93.2327 277.422 93.2855C274.711 93.3384 274.907 94.9926 271.918 96.8062C268.929 98.6198 251.19 96.4274 245.541 96.1742C244.952 96.1601 244.363 96.146 243.887 96.3703C244.568 97.447 247.035 97.7417 248.084 98.2382C249.6 98.8636 250.396 100.061 251.672 100.916C252.95 101.654 254.478 101.808 255.889 101.96C270.689 103.846 259.236 104.868 258.055 104.957C256.875 105.047 255.008 104.295 254.581 107.348C254.155 110.402 250.305 108.778 248.301 108.847C246.296 108.917 247.011 108.581 247.101 104.813C247.192 101.045 238.461 101.542 234.69 101.57C230.919 101.597 232.373 104.813 232.05 108.458C231.727 112.103 232.672 112.008 236.55 112.454C240.309 112.898 238.992 113.809 239.409 116.057C239.826 118.306 245.723 118.094 245.723 118.094C245.723 118.094 247.486 118.254 252.785 118.381ZM296.125 99.507C296.125 99.507 292.733 98.4831 290.907 100.914C289.082 103.344 290.96 103.625 286.836 103.644C282.712 103.663 282.941 103.904 281.94 106.354C280.939 108.805 278.881 111.112 275.937 111.041C272.993 110.971 268.308 109.798 268.725 112.047C269.14 114.413 273 120.515 274.999 120.68C276.998 120.846 293.882 119.365 295.488 126.12C297.09 132.992 293.993 144.229 297.128 146.189C300.262 148.149 298.795 150.353 297.721 150.916C296.647 151.48 295.03 150.145 294.948 153.56C294.866 156.975 295.963 155.469 297.779 158.341C299.595 161.212 300.563 160.175 300.461 164.414C300.36 168.653 299.849 170.29 303.017 170.838C306.186 171.385 308.832 174.04 309.266 175.582C309.701 177.125 312.914 175.788 313.783 173.923C314.653 172.059 324.745 158.987 327.695 158.822C330.644 158.657 335.699 159.131 335.879 156.543C336.059 153.956 334.501 150.148 338.154 150.118C341.807 150.087 348.752 150.372 351.896 147.03C355.039 143.688 361.485 140.19 355.62 139.107C352.923 138.571 350.506 136.157 351.987 133.365C352.113 133.014 356.226 133.466 356.818 133.363C358.237 133.161 360.132 132.735 360.99 131.342C362.345 128.9 363.699 126.458 365.172 124.019C366.515 122.048 370.859 117.793 365.582 116.724C363.942 116.331 363.163 114.427 365.566 112.482C365.566 112.482 369.288 104.677 372.82 104.761C373.88 104.787 383.901 104.556 382.527 102.873C381.61 101.791 381.611 101.791 374.556 101.15C373.617 101.01 373.048 100.172 372.232 99.7987C371.063 99.4172 369.53 99.4983 368.352 99.4701C361.985 99.671 364.101 99.8395 361.447 97.5373C358.792 95.235 356.201 95.1729 344.776 95.017C333.233 94.8583 328.904 93.5764 326.019 95.9815C323.134 98.3867 324.392 99.9486 318.387 99.8047C312.381 99.6608 296.125 99.507 296.125 99.507ZM356.228 162.922C356.219 163.275 356.208 163.746 356.199 164.1C356.177 165.042 356.135 166.808 357.43 166.839C359.314 166.884 361.201 166.812 363.088 166.739C364.033 166.644 365.081 167.14 365.802 166.568C367.479 165.43 368.222 163.916 370.468 163.617C371.413 163.522 373.992 164.055 374.144 162.644C374.158 162.056 373.592 156.151 372.667 155.422C370.354 153.599 364.385 156.873 360.381 156.777C358.968 156.743 357.566 156.238 356.03 156.437C354.729 156.642 355.163 158.184 355.376 159.131C355.931 160.559 356.141 161.624 356.228 162.922ZM386.167 191.917C386.167 191.917 381.375 195.219 381.19 198.043C381.007 200.748 380.061 205.792 383.409 203.751C386.875 201.713 389.461 197.063 389.461 197.063C389.461 197.063 390.511 187.662 386.167 191.917ZM393.608 191.153C394.166 192.462 394.365 193.999 394.684 195.42C395.211 198.025 393.627 200.226 392.168 202.076C390.834 203.694 389.016 205.771 391.332 207.476C394.461 209.672 398.821 204.71 401.816 202.661C404.211 201.068 403.104 198.096 401.736 196.178C400.031 193.545 397.965 191.257 396.976 188.288C396.102 185.439 394.148 183.389 392.438 180.992C391.182 179.312 389.399 179.977 388.619 183.021C387.965 185.716 389.816 187.174 391.43 188.626C392.355 189.355 393.16 190.2 393.608 191.153ZM433.541 196.469C429.164 197.189 426.787 198.075 422.573 196.913C420.232 196.268 421.447 189.817 418.985 189.287C418.167 189.031 416.891 188.176 416.282 188.986C415.918 189.449 416.122 190.75 416.108 191.338C416.198 192.519 416.834 195.48 415.062 195.673C412.698 195.97 413.795 194.464 412.263 199.376C410.732 204.288 405.617 206.286 403.946 207.189C402.275 208.091 399.628 210.385 395.624 210.289C391.623 210.075 391.004 211.356 394.129 213.67C396.56 215.495 396.851 218.094 397.019 220.926C397.019 220.926 397.019 220.926 397.016 221.044C397.106 222.224 397.596 226.36 395.821 226.671C393.693 226.973 386.636 226.451 383.692 226.38C380.748 226.31 381.816 230.93 381.63 233.754C381.445 236.577 382.129 237.536 383.065 237.794C383.999 238.17 386.211 239.283 387.326 241.902C388.442 244.521 392.359 243.319 396.357 243.65C400.355 243.982 399.761 239.255 400.392 237.502C401.023 235.75 399.636 234.656 403.642 234.635C407.531 234.61 409.006 232.053 409.548 229.12C410.092 226.07 412.968 228.967 416.913 226.587C420.858 224.207 426.807 231.655 429.467 233.722C430.74 234.695 434.09 237.485 433.838 238.186C432.974 239.815 426.781 237.663 428.583 241.123C430.943 245.893 433.584 243.835 437.348 239.212C441.226 234.71 432.608 230.498 430.99 229.163C429.376 227.71 425.434 225.024 428.342 221.677C431.247 218.447 437.65 226.613 437.65 226.613C440.537 229.038 444.745 235.384 446.034 240.599C447.443 245.699 448.021 246.184 452.605 246.647C457.189 247.111 453.8 241.02 453.15 238.648C452.379 236.391 452.393 235.803 455.334 235.991C458.275 236.179 459.668 241.986 461.266 244.145C462.863 246.304 468.597 247.973 470.974 247.087C473.47 246.205 474.199 245.28 476.957 248.173C479.716 251.067 473.073 257.86 471.063 258.165C469.052 258.47 465.345 260.738 460.694 258.152C456.046 255.449 455.211 255.9 449.934 254.831C444.658 253.762 445.417 256.49 444.046 259.639C442.674 262.787 440.14 260.37 438.996 258.928C437.853 257.487 428.192 252.543 424.721 249.868C421.25 247.192 421.901 244.616 420.668 241.994C419.435 239.372 415.257 241.629 414.531 242.436C413.804 243.243 410.387 243.279 407.207 243.203C404.028 243.127 402.864 242.51 400.921 244.938C398.978 247.366 399.129 245.955 395.54 248.226C391.951 250.496 388.438 249.587 383.24 250.17C378.042 250.752 379.335 260.68 379.293 262.447C379.251 264.213 378.379 266.195 376.27 265.673C374.162 265.152 370.258 275.662 367.731 277.84C365.205 280.018 366.454 286.882 366.515 289.24C366.577 291.598 364.53 293.434 363.223 293.874C361.917 294.314 363.376 302.243 362.386 304.222C361.396 306.202 368.195 307.661 368.195 307.661C368.764 308.499 373.202 310.137 376.041 314.565C379.562 320.069 383.103 319.8 383.103 319.8C383.103 319.8 407.246 320.261 412.781 320.393C415.136 320.45 417.353 321.328 418.839 323.249C420.207 325.167 421.547 328.262 420.198 330.468C418.969 332.56 418.29 336.314 420.009 338.358C420.925 339.44 422.439 340.184 423.597 341.036C427.312 343.364 428.373 353.169 428.252 358.232C428.173 361.529 427.738 364.936 426.716 368.21C426.456 369.264 426.077 370.316 425.348 371.241C424.372 372.631 423.999 373.447 424.077 375.099C424.015 377.689 423.476 380.504 426.277 381.632C428.027 382.381 430.54 390.571 430.54 390.571C430.54 390.571 437.025 410.049 437.866 414.311C438.706 418.573 440.714 418.385 442.009 418.416C443.304 418.447 444.712 418.716 445.107 416.959C445.5 415.318 447.022 415.708 447.022 415.708C447.022 415.708 448.43 415.978 454.559 415.889C460.805 415.803 465.514 406.136 467.082 404.642C468.649 403.148 468.778 402.68 468.734 399.615C468.575 396.43 469.169 396.209 472.236 396.047C475.421 395.888 475.013 393.286 475.277 387.165C475.541 381.045 478.648 379.234 482.986 375.214C487.324 371.194 484.778 354.52 484.586 347.799C484.393 341.079 488.826 338.004 488.826 338.004C488.826 338.004 503.818 317.155 509.255 311.512C514.693 305.869 506.063 307.076 506.063 307.076C506.063 307.076 498.167 307.122 494.528 306.564C490.886 306.123 487.184 298.376 485.465 296.331C483.747 294.287 479.71 290.656 479.102 286.518C478.494 282.379 477.054 278.574 477.054 278.574C476.72 277.741 473.042 273.883 472.679 269.397C471.859 259.362 475.441 267.225 475.441 267.225C475.441 267.225 476.789 269.967 481.765 273.739C486.738 277.628 489.251 290.767 491.603 295.889C493.954 301.012 493.601 301.004 501.37 301.308C509.136 301.729 520.008 290.561 523.238 288.518C526.468 286.474 525.473 283.74 524.246 280.883C523.018 278.026 520.296 278.55 515.14 277.366C509.981 276.3 508.367 269.899 503.727 266.842C499.088 263.785 503.439 264.125 506.728 264.557C510.016 264.989 510.327 266.764 511.928 268.806C513.526 270.965 516.088 272.204 521.281 271.857C526.471 271.628 529.838 273.712 530.978 275.271C532.119 276.83 535.621 278.21 535.621 278.21C535.621 278.21 544.453 278.422 545.484 279.625C546.516 280.828 545.851 283.993 551.607 284.72C557.363 285.447 559.915 296.937 559.915 296.937C559.915 296.937 561.214 311.578 565.158 314.147C572.815 319.161 571.199 302.981 571.626 299.927C572.053 296.874 580.879 292.373 583.975 291.033C585.284 290.475 585.907 289.076 586.059 287.666C586.199 286.727 585.543 284.59 586.267 283.901C586.867 283.444 589.219 283.618 589.923 283.753C591.448 284.025 594.302 282.915 594.93 286.229C595.557 289.543 599.698 293.766 599.698 293.766C600.962 295.093 602.594 295.839 604.352 296.234C605.877 296.506 607.778 295.845 609.171 296.703C611.145 297.929 609.754 301.901 609.593 303.665C609.548 305.549 609.032 307.422 609.22 309.429C609.404 311.555 610.657 313.352 611.078 315.483C611.397 316.904 611.602 318.205 611.686 319.621C611.686 319.621 616.203 332.69 623.064 331.558C627.676 330.844 619.855 322.88 616.525 319.266C613.195 315.651 613.044 312.113 614.662 308.499C616.28 304.885 619.114 309.548 624.101 312.849C629.089 316.15 627.115 314.924 631.361 309.842C635.604 304.877 632.1 298.666 630.835 297.34C629.571 296.014 624.324 288.819 630.736 286.734C637.031 284.646 643.165 284.321 646.592 283.932C650.018 283.543 649.752 279.884 655.596 272.012C661.44 264.14 656.266 253.883 654.01 249.705C651.636 245.525 651.215 243.394 654.847 239.357C658.478 235.32 661.715 242.821 661.715 242.821C661.715 242.821 665.104 248.911 669.673 254.911C674.243 260.912 675.494 252.93 676.364 251.066C677.236 249.084 674.233 246.537 672.532 243.787C670.831 241.036 672.934 236.845 673.442 235.325C673.949 233.806 682.644 229.89 685.378 228.895C688.112 227.9 691.048 223.375 692.465 213.394C693.883 203.413 695.976 214.421 695.976 214.421C695.976 214.421 695.79 236.921 695.573 241.04C695.357 245.158 695.55 246.93 690.41 249.988C685.271 253.046 684.699 252.326 681.976 252.85C679.254 253.374 678.289 254.293 677.899 260.764C677.508 267.235 680.772 263.778 681.162 262.256C681.552 260.734 682.837 256.287 686.243 256.722C689.65 257.157 695.16 253.401 698.395 251.122C701.631 248.843 700.37 242.451 700.34 238.797C700.31 235.144 699.931 236.195 703.116 236.036C706.301 235.877 705.129 235.613 705.671 232.68C706.212 229.748 704.808 229.361 701.867 229.172C698.926 228.984 699.582 226.172 699.582 226.172C699.582 226.172 700.518 211.702 699.893 208.27C699.266 204.956 695.263 199.912 686.652 200.295C678.042 200.677 691.395 189.215 695.618 185.074C699.724 180.931 703.66 183.853 703.66 183.853C703.66 183.853 708.431 186.324 715.109 187.898C721.788 189.472 718.735 184.097 719.644 180.584C720.553 177.071 723.463 178.554 728.907 182.455C734.352 186.356 723.823 193.055 722.476 195.144C721.13 197.232 724.059 202.84 727.325 209.163C730.59 215.486 730.185 207.818 730.715 205.356C731.128 202.892 730.946 200.649 733.464 198.824C735.982 196.999 734.648 193.668 734.769 188.605C734.89 183.541 738.406 184.332 743.941 184.465C749.472 184.715 750.227 182.73 751.542 181.937C752.857 181.144 752.195 179.243 760.464 178.38C768.729 177.636 752.042 156.146 750.666 154.581C749.289 153.016 725.118 153.733 719.236 153.357C713.354 152.98 713.68 149.217 712.536 147.776C711.392 146.335 698.058 147.194 695.587 147.017C693.117 146.84 690.651 141.596 688.537 141.31C686.423 141.024 685.548 143.124 683.383 144.957C681.218 146.79 681.326 142.315 681.135 140.426C680.945 138.536 679.664 137.916 677.325 137.153C674.987 136.39 674.838 142.631 674.669 144.748C674.501 146.865 655.559 145.704 651.911 145.499C648.264 145.294 647.182 141.262 646.577 137.006C645.972 132.75 642.097 137.134 642.097 137.134L633.136 137.391C633.136 137.391 618.074 136.558 614.057 137.051C610.157 137.547 614.172 132.223 616.351 129.801C618.533 127.261 608.849 123.259 607.697 122.171C606.545 121.083 598.624 122.189 596.99 121.561C595.473 120.936 594.358 118.317 593.867 119.13C593.376 119.943 592.728 122.401 590.931 123.654C589.133 124.907 587.496 124.397 585.132 124.694C582.769 124.991 584.156 126.084 576.16 125.421C568.161 124.876 567.681 130.167 565.138 133.052C562.477 135.933 558.243 135.596 556.238 135.666C554.231 135.854 554.841 139.874 553.84 142.325C552.839 144.775 549.206 139.032 547.81 138.292C546.417 137.434 546.778 142.038 546.778 142.038C546.778 142.038 546.333 155.694 545.71 157.093C545.087 158.492 540.895 146.61 540.96 143.901C541.142 141.196 539.046 135.254 538.6 134.183C538.27 133.233 537.055 134.735 535.474 136.818C533.892 138.901 534.733 143.163 534.309 146.098C533.885 149.034 532.273 147.463 527.681 147.353C523.088 147.243 522.227 148.754 520.301 150.476C518.374 152.197 511.438 151.559 507.434 151.463C503.431 151.367 501.375 153.557 497.671 155.707C493.967 157.857 494.994 154.347 492.715 151.111C490.321 147.754 489.367 153.151 488.015 155.475C486.663 157.8 479.983 151.395 476.751 148.607C473.519 145.82 471.469 147.774 469.702 147.732C467.936 147.689 465.917 148.348 464.106 145.241C462.296 142.134 457.342 142.369 452.085 140.476C446.828 138.582 445.086 142.429 439.386 144.295C433.686 146.162 432.194 149.425 432.194 149.425C432.194 149.425 432.194 149.425 431.764 152.596C431.335 155.767 427.364 159.207 424.818 162.209C422.272 165.211 417.556 165.334 414.932 166.685C412.307 168.036 413.873 176.439 413.909 179.857C413.948 183.157 419.421 180.932 422.954 181.016C426.369 181.098 424.414 183.997 423.909 185.399C423.648 186.453 421.887 186.175 421.517 186.873C421.397 186.988 421.391 187.223 421.5 187.579C421.943 188.768 423.216 189.741 423.894 190.936C426.044 194.64 427.789 190.676 427.789 190.676C427.789 190.676 431.311 186.283 434.485 181.646C437.292 177.589 432.423 174.291 435.46 170.476C438.012 167.238 441.144 164.368 444.262 162.086C449.66 158.091 450.425 160.584 451.899 162.976C453.374 165.367 444.11 168.445 441.375 174.388C438.641 180.332 447.568 176.539 444.971 181.661C439.741 193.436 438.274 195.64 433.541 196.469ZM509.429 141.967C511.047 143.302 512.785 144.522 514.644 145.627C515.224 145.995 517.893 147.708 517.231 145.807C516.791 144.5 515.763 143.18 514.964 142.1C513.366 139.941 513.635 138.534 513.703 135.707C513.771 132.881 519.479 130.662 519.479 130.662C539.141 121.471 520.876 126.453 518.042 126.739C515.328 126.91 512.611 127.198 511.186 127.635C509.762 128.072 506.492 131.764 504.885 134.907C504.392 135.838 504.599 137.021 504.93 137.972C505.266 138.687 505.723 139.287 506.418 139.775C507.461 140.506 508.622 141.241 509.429 141.967ZM494.925 373.615C493.366 374.756 493.631 378.415 493.364 384.653C493.322 386.419 495.26 398.955 498.308 394.668C498.311 394.551 502.333 388.992 502.527 385.815C502.723 382.521 505.511 379.288 506.624 377.076C507.738 374.864 507.219 371.906 505.098 367.025C502.976 362.143 500.191 370.206 500.191 370.206C499.453 371.485 496.484 372.474 494.925 373.615ZM615.302 340.798C616.905 342.722 618.506 344.763 620.109 346.687C620.911 347.649 621.713 348.61 622.515 349.572C623.434 350.537 624.589 351.507 625.032 352.696C625.475 353.885 625.317 355.531 626.237 356.495C627.041 357.339 628.337 357.37 629.399 357.278C633.995 357.27 638.582 357.616 643.292 357.729C670.376 358.377 649.931 356.002 648.759 355.739C647.588 355.475 645.1 356.004 642.903 354.302C640.705 352.6 630.566 352.829 630.566 352.829C630.566 352.829 627.031 352.862 627.573 349.929C628.114 346.996 626.695 347.198 622.398 339.672C618.101 332.146 618.213 337.333 611.32 329.981C604.426 322.628 608.608 330.034 609.954 332.894C611.299 335.754 614.391 339.48 614.391 339.48C614.615 339.957 614.957 340.437 615.302 340.798ZM653.973 344.67C653.466 346.19 653.432 347.603 655.184 348.234C658.458 349.255 657.895 348.181 661.243 346.141C661.84 345.801 663.632 344.784 663.534 343.957C663.433 343.247 661.902 343.211 661.322 342.843C660.745 342.358 660.17 341.755 659.463 341.738C658.524 341.598 657.582 341.576 656.637 341.671C655.457 341.76 654.86 342.099 654.484 343.033C654.237 343.498 654.105 344.084 653.973 344.67ZM643.527 343.006C644.587 343.032 645.764 343.06 646.835 342.614C647.786 342.283 648.394 341.473 649.115 340.901C650.436 339.873 650.699 338.701 650.963 337.529C651.746 334.366 651.592 330.946 651.668 327.766C651.804 322.114 650.954 323.154 650.068 320.776C649.628 319.47 645.588 320.905 643.908 322.161C642.229 323.416 643.117 325.676 642.96 327.322C642.909 329.442 640.781 329.744 639.343 330.77C637.545 332.023 635.863 333.397 634.18 334.77C632.018 336.486 633.975 338.418 634.872 340.325C635.096 340.801 635.435 341.398 635.898 341.763C636.705 342.489 637.762 342.632 638.702 342.773C638.819 342.776 638.819 342.776 638.937 342.778C640.465 342.933 641.996 342.97 643.527 343.006ZM663.109 317.436C663.891 319.222 665.026 321.017 666.047 322.691C666.613 323.647 667.871 325.209 669.072 324.295C670.631 323.154 670.325 321.144 670.362 319.613C670.447 316.08 670.924 310.908 669.57 308.401C668.099 305.891 665.306 304.411 663.596 302.013C662.226 300.213 661.042 300.42 659.434 293.784C657.708 287.144 658.099 295.401 657.647 299.514C657.195 303.627 660.884 307.015 660.884 307.015C663.519 310.141 661.663 313.867 663.109 317.436ZM691.178 350.746C692.588 350.898 693.872 351.4 694.786 352.6C695.93 354.041 696.243 355.698 697.149 357.251C697.712 358.325 698.62 359.761 700.16 359.444C701.584 359.007 703.031 357.628 704.172 359.187C705.77 361.346 706.616 360.424 706.616 360.424C707.096 360.082 710.8 357.932 712.532 359.387C722.577 367.994 718.37 361.648 715.858 358.289C713.346 354.93 706.868 349.944 703.994 346.929C701.121 343.915 695.053 346.361 691.767 345.811C688.481 345.261 689.612 342.343 687.893 340.299C686.175 338.255 679.059 340.205 677.43 339.341C675.801 338.477 674.985 338.104 675.039 335.867C675.047 335.514 674.411 332.553 673.562 333.593C673.197 334.055 673.402 335.356 673.388 335.945C673.365 336.887 673.342 337.829 673.438 338.774C673.737 341.02 675.526 340.12 678.428 341.957C681.332 343.676 682.321 346.646 682.851 349.133C683.274 351.146 685.75 351.087 687.639 350.897C688.82 350.807 690 350.718 691.178 350.746ZM705.096 438.622C704.51 438.491 703.336 438.345 703.083 439.045C702.831 439.746 704.106 440.602 704.092 441.19C704.07 442.133 703.764 445.071 706.584 445.374C709.287 445.674 709.797 444.037 710.451 441.343C710.58 440.875 710.591 440.404 710.367 439.927C710.028 439.33 709.207 439.192 708.618 439.178C708.032 439.046 707.443 439.032 706.739 438.897C706.153 438.766 705.682 438.754 705.096 438.622ZM674.686 370.263C671.498 370.54 668.506 372.471 665.761 373.937C663.972 374.837 662.06 375.97 661.188 377.952C660.442 379.583 660.492 382.412 660.214 384.173C659.81 386.284 654.321 384.267 652.193 384.57C650.064 384.872 650.72 387.009 649.997 387.699C649.155 388.385 646.231 387.491 643.747 387.902C640.789 388.421 642.078 393.636 641.795 395.632C641.511 397.628 640.757 399.613 640.238 401.604C639.205 405.349 641.451 405.05 643.313 406.037C645.174 407.024 643.278 412.398 643.561 415.351C643.849 418.068 647.32 420.743 649.535 421.738C651.049 422.482 652.941 422.174 654.59 422.213C656.474 422.258 658.355 422.421 660.133 421.992C661.91 421.564 663.239 420.182 664.796 419.159C667.193 417.449 669.804 416.686 672.742 416.992C675.798 417.301 678.733 417.725 681.792 417.916C683.441 417.956 686.281 417.435 686.701 419.566C687.018 421.105 686.743 422.748 687.059 424.287C687.687 427.601 689.952 426.477 692.661 426.542C695.369 426.607 695.436 428.729 696.095 430.748C697.19 434.191 699.669 434.015 702.731 434.088C704.85 434.139 706.97 434.19 709.092 434.123C712.751 433.857 715.076 430.26 715.076 430.26C715.076 430.26 720.102 422.133 722.536 418.892C724.97 415.652 726.09 408.256 726.228 402.486C726.366 396.715 718.553 388.398 718.553 388.398C718.553 388.398 708.156 374.835 706.32 372.788C704.484 370.741 705.721 368.297 705.068 366.042C704.533 363.791 702.679 367.399 700.663 367.94C698.647 368.481 699.515 376.513 699.487 377.691C699.459 378.869 696.991 378.574 695.736 376.894C694.48 375.215 693.647 375.548 691.788 374.443C689.93 373.338 688.8 371.308 688.641 368.123C688.599 364.941 685.276 365.922 681.511 365.714C677.746 365.506 679.248 366.72 678.494 368.705C677.992 369.989 676.576 370.073 675.395 370.162C675.042 370.154 674.804 370.266 674.686 370.263ZM753.992 448.513L753.871 448.628C752.539 450.128 748.529 455.216 750.876 455.625C753.105 456.032 755.9 457.395 757.35 455.898C758.805 454.166 758.368 452.741 762.647 451.194C764.786 450.421 766.707 443.987 766.707 443.987C766.707 443.987 766.057 441.615 764.678 440.168C763.526 439.08 760.604 443.016 759.519 444.05C757.713 445.656 755.562 446.901 753.992 448.513ZM773.238 436.956C774.122 434.503 775.854 435.958 775.897 434.192C775.939 432.425 770.834 429.122 769.104 427.549C765.642 424.52 768.79 430.84 767.926 432.469C766.821 434.328 766.703 434.325 767.474 436.582C767.695 437.177 768.216 440.017 768.8 440.266C772.186 441.526 772.352 439.527 773.238 436.956Z"/>
</mask>
<path d="M183.202 121.191C181.694 120.212 180.183 119.351 178.425 118.956C176.078 118.546 173.364 118.717 171.155 117.486C169.644 116.625 166.684 112.312 170.443 112.756C173.028 113.053 178.095 113.057 179.909 111.097C184.505 106.141 190.22 118.414 195.315 117.24C198.04 116.598 198.713 113.079 201.5 114.796C203.241 115.898 205.086 117.591 206.341 119.271C208.169 121.671 206.843 122.936 204.123 123.342C201.642 123.636 199.174 123.341 196.584 123.279C194.229 123.223 191.868 123.402 189.507 123.581C187.146 123.76 185.176 122.417 183.202 121.191ZM210.658 106.296C210.658 106.296 211.824 111.744 213.691 112.496C215.44 113.244 216.36 114.209 217.597 111.764C218.831 109.438 216.148 108.313 214.191 106.381C212.234 104.449 209.165 99.78 210.658 106.296ZM201.3 137.884C197.925 136.154 199.627 133.956 198.543 130.042C197.458 126.128 194.892 129.954 191.39 133.523C187.887 137.092 184.633 130.298 182.909 128.489C181.185 126.68 182.842 126.367 173.795 125.325C164.868 124.169 165.58 123.95 161.466 128.447C157.353 132.943 164.799 131.943 169.967 132.656C175.134 133.369 175.178 136.434 174.631 139.602C174.084 142.77 164.582 141.011 155.658 139.736C146.734 138.462 147.51 140.484 142.87 142.376C138.23 144.267 128.701 138.737 124.728 137.346C120.755 135.955 93.3963 136.949 89.3925 136.853C85.3888 136.757 83.0781 139.765 79.9826 141.105C76.8871 142.444 78.0498 148.01 77.87 150.598C77.6902 153.185 71.8588 150.689 68.7971 150.616C65.7355 150.543 66.5174 152.329 66.2283 154.56C65.9392 156.792 67.2289 157.059 70.885 156.911C74.5411 156.763 76.0578 157.388 76.1163 159.864C76.1748 162.339 71.3778 160.928 68.4339 160.858C65.49 160.787 66.5435 165.997 67.0278 170.368C67.5122 174.739 70.3553 174.1 71.9757 175.317C73.5961 176.534 75.9117 178.239 61.8754 183.794C47.8391 189.349 61.3254 187.08 63.7031 186.194C66.0808 185.309 76.5195 182.378 79.5811 182.451C82.6428 182.524 87.4377 179.105 91.4026 175.901C95.3676 172.696 107.46 174.518 116.171 174.844C124.882 175.171 131.961 194.428 136.13 197.473C140.299 200.519 140.197 224.435 139.91 231.497C139.623 238.56 144.689 243.512 146.99 245.806C149.292 248.099 154.754 261.073 160.907 269.822C167.057 278.688 164.376 267.666 162.61 262.675C160.847 257.567 164.388 262.247 164.388 262.247C164.388 262.247 175.382 275.471 177.475 281.53C179.569 287.589 189.104 292.884 195.569 293.51C202.034 294.136 201.874 295.9 201.874 295.9C201.874 295.9 201.462 298.364 209.211 299.492C216.842 300.618 215.403 306.592 218.526 309.024C221.649 311.455 226.536 314.046 230.893 314.151C235.25 314.255 233.73 313.747 234.475 317.064C235.221 320.381 232.052 324.782 229.758 327.084C227.464 329.386 227.099 334.797 226.947 341.155C226.794 347.514 229.236 348.869 229.236 348.869C229.236 348.869 242.136 371.093 245.267 373.171C248.398 375.249 247.826 379.477 247.826 379.477C247.826 379.477 247.053 411.742 246.876 414.212C246.699 416.682 246.463 416.677 244.273 419.57C242.083 422.463 242.281 428.948 242.281 428.948C242.281 428.948 241.242 457.554 241.192 459.674C241.141 461.793 244.373 464.581 254.951 470.608C265.528 476.634 257.962 467.852 256.833 465.822C255.703 463.792 256.651 458.63 256.745 454.744C256.838 450.858 260.183 448.936 261.535 446.612C262.886 444.287 261.751 442.493 261.85 438.371C261.949 434.25 266.592 432.24 266.592 432.24C266.592 432.24 292.407 407.173 294.465 404.866C296.523 402.559 296.986 397.975 296.813 395.379C296.64 392.782 304.592 385.432 309.025 382.357C313.458 379.282 317.088 370.415 317.371 368.418C317.655 366.422 317.882 361.832 320.88 359.666C323.877 357.499 323.875 352.668 325.174 347.633C326.473 342.597 317.067 341.783 311.502 337.997C305.937 334.211 297.013 332.937 296.306 332.92C295.6 332.903 291.585 333.278 291.891 330.34C292.197 327.402 289.845 322.279 288.492 319.772C287.138 317.265 284.898 317.33 282.189 317.265C279.481 317.2 271.421 309.348 267.945 306.908C264.469 304.469 257.24 306.181 252.561 304.773C247.882 303.364 250.237 303.421 246.026 302.142C241.815 300.863 239.672 306.702 237.656 307.243C235.64 307.784 229.169 307.393 226.823 306.984C224.476 306.574 222.808 302.41 222.31 298.628C221.811 294.846 220.556 293.166 217.419 291.323C214.281 289.481 213.906 285.466 214.327 282.648C214.748 279.831 212.752 279.547 210.4 279.373C208.048 279.199 208.143 280.144 207.506 282.131C206.869 284.119 204.963 285.016 199.919 284.07C194.878 283.007 192.902 276.951 192.429 272.109C191.956 267.266 192.139 264.561 195.503 261.814C198.868 259.067 199.774 260.62 204.231 261.434C208.689 262.247 211.81 259.848 214.827 256.857C217.845 253.866 221.253 259.132 221.253 259.132C221.253 259.132 221.253 259.132 225.901 266.784C230.548 274.436 230.143 266.767 229.14 259.438C228.137 252.109 251.185 229.45 254.679 226.235C258.172 223.02 257.785 224.424 263.684 224.094C269.584 223.764 271.965 217.812 275.439 215.421C278.913 213.03 271.021 212.959 267.533 210.99C264.046 209.021 269.945 208.691 272.09 207.682C274.235 206.673 278.723 206.192 284.603 206.686C290.482 207.18 276.377 186.106 273.96 183.691C271.544 181.277 272.335 177.761 271.239 174.318C270.144 170.875 266.005 176.431 262.973 180.011C259.942 183.591 260.147 179.943 260.672 177.717C261.196 175.491 258.898 173.08 257.911 169.993C256.925 166.906 249.366 167.667 246.66 167.484C243.955 167.302 244.42 167.549 243.486 172.121C242.551 176.694 243.776 179.669 244.499 183.928C245.222 188.187 240.373 193.844 237.594 196.723C234.815 199.602 234.193 196.052 234.146 193.106C234.099 190.159 232.675 190.596 229.389 190.046C226.103 189.496 225.87 189.373 224.648 186.28C223.426 183.187 219.131 180.492 215.015 180.158C210.9 179.824 212.367 172.672 212.561 169.495C212.758 166.201 218.884 166.23 220.9 165.689C222.916 165.148 226.264 163.108 229.471 166.955C232.68 170.684 235.947 167.11 235.947 167.11C235.947 167.11 241.104 163.345 241.16 160.99C241.217 158.635 240.14 159.316 236.961 159.24C233.781 159.164 233.31 159.153 233.375 156.444C233.44 153.736 233.446 153.5 239.101 153.518C244.756 153.536 242.289 148.292 245.057 145.884C247.825 143.476 250.37 145.422 249.778 150.475C249.185 155.527 255.166 151.782 258.432 153.156C261.699 154.531 260.128 156.143 257.288 156.664C254.448 157.185 256.309 158.172 257.06 161.253C257.811 164.335 257.478 163.502 266.41 164.423C275.343 165.344 267.799 160.568 267.232 159.612C266.666 158.656 264.014 156.236 272.128 156.901C280.242 157.567 275.336 150.851 275.336 150.851C275.336 150.851 269.918 140.942 263.501 138.314C257.084 135.686 258.847 135.846 255.534 131.525C252.22 127.204 239.101 128.893 235.221 128.564C231.341 128.236 231.514 130.832 229.453 133.257C227.51 135.684 232.161 138.27 232.443 146.171C232.725 154.072 227.71 147 227.71 147C227.71 147 224.966 143.518 223.744 140.425C222.522 137.332 222.09 135.672 224.028 133.48C225.966 131.288 226.849 128.835 223.082 123.796C219.314 118.757 216.18 116.797 214.537 116.522C212.894 116.247 213.286 119.555 213.454 122.387C213.622 125.219 215.282 124.787 217.244 126.484C219.089 128.178 218.191 131.22 217.644 134.388C217.097 137.556 217.032 135.316 214.204 130.417C211.376 125.519 209.43 128.064 206.76 131.299C204.091 134.534 211.108 136.705 211.202 142.599C211.297 148.492 208.115 143.585 208.115 143.585C208.115 143.585 204.676 139.615 201.3 137.884ZM91.4198 248.952C91.4198 248.952 93.7029 261.849 97.0142 261.339C103.637 260.32 98.7925 255.962 93.1861 248.994C92.732 248.276 90.7838 245.991 91.4198 248.952ZM232.156 281.072C232.857 281.325 233.561 281.46 234.141 281.827C235.069 282.438 235.75 283.515 236.802 283.894C238.201 284.516 241.061 283.171 242.482 282.851C248.522 281.582 232.631 276.017 229.822 275.243C227.013 274.469 226.202 273.86 219.776 276.534C213.349 279.208 225.119 279.726 225.119 279.726C227.584 280.138 229.933 280.43 232.156 281.072ZM246.32 284.946C246.303 285.653 246.286 286.36 246.401 286.48C246.959 287.79 248.619 287.358 249.797 287.386C250.856 287.412 257.459 287.216 254.426 285.965C252.559 285.214 250.588 283.87 248.485 283.113C245.449 281.98 246.354 283.533 246.32 284.946ZM223.4 115.438C224.294 117.463 225.715 117.143 226.879 117.76C228.042 118.377 228.362 119.799 228.633 123.222C228.905 126.645 239.769 125.61 247.191 125.67C254.612 125.73 249.877 121.728 240.451 121.738C236.327 121.757 235.873 121.039 234.749 118.773C233.625 116.508 231.744 116.345 229.061 115.22C226.378 114.096 226.647 112.688 224.121 109.918C220.676 106.183 222.388 113.411 222.388 113.411C222.388 113.411 222.506 113.414 223.4 115.438ZM252.785 118.381C258.084 118.508 261.573 110.579 261.84 109.29C262.106 108 265.339 105.839 269.579 105.94C273.818 106.042 276.055 106.096 277.993 103.903C279.931 101.711 277.903 102.723 284.063 101.339C290.223 99.9547 290.151 98.0678 290.089 95.7098C290.028 93.3519 280.134 93.2327 277.422 93.2855C274.711 93.3384 274.907 94.9926 271.918 96.8062C268.929 98.6198 251.19 96.4274 245.541 96.1742C244.952 96.1601 244.363 96.146 243.887 96.3703C244.568 97.447 247.035 97.7417 248.084 98.2382C249.6 98.8636 250.396 100.061 251.672 100.916C252.95 101.654 254.478 101.808 255.889 101.96C270.689 103.846 259.236 104.868 258.055 104.957C256.875 105.047 255.008 104.295 254.581 107.348C254.155 110.402 250.305 108.778 248.301 108.847C246.296 108.917 247.011 108.581 247.101 104.813C247.192 101.045 238.461 101.542 234.69 101.57C230.919 101.597 232.373 104.813 232.05 108.458C231.727 112.103 232.672 112.008 236.55 112.454C240.309 112.898 238.992 113.809 239.409 116.057C239.826 118.306 245.723 118.094 245.723 118.094C245.723 118.094 247.486 118.254 252.785 118.381ZM296.125 99.507C296.125 99.507 292.733 98.4831 290.907 100.914C289.082 103.344 290.96 103.625 286.836 103.644C282.712 103.663 282.941 103.904 281.94 106.354C280.939 108.805 278.881 111.112 275.937 111.041C272.993 110.971 268.308 109.798 268.725 112.047C269.14 114.413 273 120.515 274.999 120.68C276.998 120.846 293.882 119.365 295.488 126.12C297.09 132.992 293.993 144.229 297.128 146.189C300.262 148.149 298.795 150.353 297.721 150.916C296.647 151.48 295.03 150.145 294.948 153.56C294.866 156.975 295.963 155.469 297.779 158.341C299.595 161.212 300.563 160.175 300.461 164.414C300.36 168.653 299.849 170.29 303.017 170.838C306.186 171.385 308.832 174.04 309.266 175.582C309.701 177.125 312.914 175.788 313.783 173.923C314.653 172.059 324.745 158.987 327.695 158.822C330.644 158.657 335.699 159.131 335.879 156.543C336.059 153.956 334.501 150.148 338.154 150.118C341.807 150.087 348.752 150.372 351.896 147.03C355.039 143.688 361.485 140.19 355.62 139.107C352.923 138.571 350.506 136.157 351.987 133.365C352.113 133.014 356.226 133.466 356.818 133.363C358.237 133.161 360.132 132.735 360.99 131.342C362.345 128.9 363.699 126.458 365.172 124.019C366.515 122.048 370.859 117.793 365.582 116.724C363.942 116.331 363.163 114.427 365.566 112.482C365.566 112.482 369.288 104.677 372.82 104.761C373.88 104.787 383.901 104.556 382.527 102.873C381.61 101.791 381.611 101.791 374.556 101.15C373.617 101.01 373.048 100.172 372.232 99.7987C371.063 99.4172 369.53 99.4983 368.352 99.4701C361.985 99.671 364.101 99.8395 361.447 97.5373C358.792 95.235 356.201 95.1729 344.776 95.017C333.233 94.8583 328.904 93.5764 326.019 95.9815C323.134 98.3867 324.392 99.9486 318.387 99.8047C312.381 99.6608 296.125 99.507 296.125 99.507ZM356.228 162.922C356.219 163.275 356.208 163.746 356.199 164.1C356.177 165.042 356.135 166.808 357.43 166.839C359.314 166.884 361.201 166.812 363.088 166.739C364.033 166.644 365.081 167.14 365.802 166.568C367.479 165.43 368.222 163.916 370.468 163.617C371.413 163.522 373.992 164.055 374.144 162.644C374.158 162.056 373.592 156.151 372.667 155.422C370.354 153.599 364.385 156.873 360.381 156.777C358.968 156.743 357.566 156.238 356.03 156.437C354.729 156.642 355.163 158.184 355.376 159.131C355.931 160.559 356.141 161.624 356.228 162.922ZM386.167 191.917C386.167 191.917 381.375 195.219 381.19 198.043C381.007 200.748 380.061 205.792 383.409 203.751C386.875 201.713 389.461 197.063 389.461 197.063C389.461 197.063 390.511 187.662 386.167 191.917ZM393.608 191.153C394.166 192.462 394.365 193.999 394.684 195.42C395.211 198.025 393.627 200.226 392.168 202.076C390.834 203.694 389.016 205.771 391.332 207.476C394.461 209.672 398.821 204.71 401.816 202.661C404.211 201.068 403.104 198.096 401.736 196.178C400.031 193.545 397.965 191.257 396.976 188.288C396.102 185.439 394.148 183.389 392.438 180.992C391.182 179.312 389.399 179.977 388.619 183.021C387.965 185.716 389.816 187.174 391.43 188.626C392.355 189.355 393.16 190.2 393.608 191.153ZM433.541 196.469C429.164 197.189 426.787 198.075 422.573 196.913C420.232 196.268 421.447 189.817 418.985 189.287C418.167 189.031 416.891 188.176 416.282 188.986C415.918 189.449 416.122 190.75 416.108 191.338C416.198 192.519 416.834 195.48 415.062 195.673C412.698 195.97 413.795 194.464 412.263 199.376C410.732 204.288 405.617 206.286 403.946 207.189C402.275 208.091 399.628 210.385 395.624 210.289C391.623 210.075 391.004 211.356 394.129 213.67C396.56 215.495 396.851 218.094 397.019 220.926C397.019 220.926 397.019 220.926 397.016 221.044C397.106 222.224 397.596 226.36 395.821 226.671C393.693 226.973 386.636 226.451 383.692 226.38C380.748 226.31 381.816 230.93 381.63 233.754C381.445 236.577 382.129 237.536 383.065 237.794C383.999 238.17 386.211 239.283 387.326 241.902C388.442 244.521 392.359 243.319 396.357 243.65C400.355 243.982 399.761 239.255 400.392 237.502C401.023 235.75 399.636 234.656 403.642 234.635C407.531 234.61 409.006 232.053 409.548 229.12C410.092 226.07 412.968 228.967 416.913 226.587C420.858 224.207 426.807 231.655 429.467 233.722C430.74 234.695 434.09 237.485 433.838 238.186C432.974 239.815 426.781 237.663 428.583 241.123C430.943 245.893 433.584 243.835 437.348 239.212C441.226 234.71 432.608 230.498 430.99 229.163C429.376 227.71 425.434 225.024 428.342 221.677C431.247 218.447 437.65 226.613 437.65 226.613C440.537 229.038 444.745 235.384 446.034 240.599C447.443 245.699 448.021 246.184 452.605 246.647C457.189 247.111 453.8 241.02 453.15 238.648C452.379 236.391 452.393 235.803 455.334 235.991C458.275 236.179 459.668 241.986 461.266 244.145C462.863 246.304 468.597 247.973 470.974 247.087C473.47 246.205 474.199 245.28 476.957 248.173C479.716 251.067 473.073 257.86 471.063 258.165C469.052 258.47 465.345 260.738 460.694 258.152C456.046 255.449 455.211 255.9 449.934 254.831C444.658 253.762 445.417 256.49 444.046 259.639C442.674 262.787 440.14 260.37 438.996 258.928C437.853 257.487 428.192 252.543 424.721 249.868C421.25 247.192 421.901 244.616 420.668 241.994C419.435 239.372 415.257 241.629 414.531 242.436C413.804 243.243 410.387 243.279 407.207 243.203C404.028 243.127 402.864 242.51 400.921 244.938C398.978 247.366 399.129 245.955 395.54 248.226C391.951 250.496 388.438 249.587 383.24 250.17C378.042 250.752 379.335 260.68 379.293 262.447C379.251 264.213 378.379 266.195 376.27 265.673C374.162 265.152 370.258 275.662 367.731 277.84C365.205 280.018 366.454 286.882 366.515 289.24C366.577 291.598 364.53 293.434 363.223 293.874C361.917 294.314 363.376 302.243 362.386 304.222C361.396 306.202 368.195 307.661 368.195 307.661C368.764 308.499 373.202 310.137 376.041 314.565C379.562 320.069 383.103 319.8 383.103 319.8C383.103 319.8 407.246 320.261 412.781 320.393C415.136 320.45 417.353 321.328 418.839 323.249C420.207 325.167 421.547 328.262 420.198 330.468C418.969 332.56 418.29 336.314 420.009 338.358C420.925 339.44 422.439 340.184 423.597 341.036C427.312 343.364 428.373 353.169 428.252 358.232C428.173 361.529 427.738 364.936 426.716 368.21C426.456 369.264 426.077 370.316 425.348 371.241C424.372 372.631 423.999 373.447 424.077 375.099C424.015 377.689 423.476 380.504 426.277 381.632C428.027 382.381 430.54 390.571 430.54 390.571C430.54 390.571 437.025 410.049 437.866 414.311C438.706 418.573 440.714 418.385 442.009 418.416C443.304 418.447 444.712 418.716 445.107 416.959C445.5 415.318 447.022 415.708 447.022 415.708C447.022 415.708 448.43 415.978 454.559 415.889C460.805 415.803 465.514 406.136 467.082 404.642C468.649 403.148 468.778 402.68 468.734 399.615C468.575 396.43 469.169 396.209 472.236 396.047C475.421 395.888 475.013 393.286 475.277 387.165C475.541 381.045 478.648 379.234 482.986 375.214C487.324 371.194 484.778 354.52 484.586 347.799C484.393 341.079 488.826 338.004 488.826 338.004C488.826 338.004 503.818 317.155 509.255 311.512C514.693 305.869 506.063 307.076 506.063 307.076C506.063 307.076 498.167 307.122 494.528 306.564C490.886 306.123 487.184 298.376 485.465 296.331C483.747 294.287 479.71 290.656 479.102 286.518C478.494 282.379 477.054 278.574 477.054 278.574C476.72 277.741 473.042 273.883 472.679 269.397C471.859 259.362 475.441 267.225 475.441 267.225C475.441 267.225 476.789 269.967 481.765 273.739C486.738 277.628 489.251 290.767 491.603 295.889C493.954 301.012 493.601 301.004 501.37 301.308C509.136 301.729 520.008 290.561 523.238 288.518C526.468 286.474 525.473 283.74 524.246 280.883C523.018 278.026 520.296 278.55 515.14 277.366C509.981 276.3 508.367 269.899 503.727 266.842C499.088 263.785 503.439 264.125 506.728 264.557C510.016 264.989 510.327 266.764 511.928 268.806C513.526 270.965 516.088 272.204 521.281 271.857C526.471 271.628 529.838 273.712 530.978 275.271C532.119 276.83 535.621 278.21 535.621 278.21C535.621 278.21 544.453 278.422 545.484 279.625C546.516 280.828 545.851 283.993 551.607 284.72C557.363 285.447 559.915 296.937 559.915 296.937C559.915 296.937 561.214 311.578 565.158 314.147C572.815 319.161 571.199 302.981 571.626 299.927C572.053 296.874 580.879 292.373 583.975 291.033C585.284 290.475 585.907 289.076 586.059 287.666C586.199 286.727 585.543 284.59 586.267 283.901C586.867 283.444 589.219 283.618 589.923 283.753C591.448 284.025 594.302 282.915 594.93 286.229C595.557 289.543 599.698 293.766 599.698 293.766C600.962 295.093 602.594 295.839 604.352 296.234C605.877 296.506 607.778 295.845 609.171 296.703C611.145 297.929 609.754 301.901 609.593 303.665C609.548 305.549 609.032 307.422 609.22 309.429C609.404 311.555 610.657 313.352 611.078 315.483C611.397 316.904 611.602 318.205 611.686 319.621C611.686 319.621 616.203 332.69 623.064 331.558C627.676 330.844 619.855 322.88 616.525 319.266C613.195 315.651 613.044 312.113 614.662 308.499C616.28 304.885 619.114 309.548 624.101 312.849C629.089 316.15 627.115 314.924 631.361 309.842C635.604 304.877 632.1 298.666 630.835 297.34C629.571 296.014 624.324 288.819 630.736 286.734C637.031 284.646 643.165 284.321 646.592 283.932C650.018 283.543 649.752 279.884 655.596 272.012C661.44 264.14 656.266 253.883 654.01 249.705C651.636 245.525 651.215 243.394 654.847 239.357C658.478 235.32 661.715 242.821 661.715 242.821C661.715 242.821 665.104 248.911 669.673 254.911C674.243 260.912 675.494 252.93 676.364 251.066C677.236 249.084 674.233 246.537 672.532 243.787C670.831 241.036 672.934 236.845 673.442 235.325C673.949 233.806 682.644 229.89 685.378 228.895C688.112 227.9 691.048 223.375 692.465 213.394C693.883 203.413 695.976 214.421 695.976 214.421C695.976 214.421 695.79 236.921 695.573 241.04C695.357 245.158 695.55 246.93 690.41 249.988C685.271 253.046 684.699 252.326 681.976 252.85C679.254 253.374 678.289 254.293 677.899 260.764C677.508 267.235 680.772 263.778 681.162 262.256C681.552 260.734 682.837 256.287 686.243 256.722C689.65 257.157 695.16 253.401 698.395 251.122C701.631 248.843 700.37 242.451 700.34 238.797C700.31 235.144 699.931 236.195 703.116 236.036C706.301 235.877 705.129 235.613 705.671 232.68C706.212 229.748 704.808 229.361 701.867 229.172C698.926 228.984 699.582 226.172 699.582 226.172C699.582 226.172 700.518 211.702 699.893 208.27C699.266 204.956 695.263 199.912 686.652 200.295C678.042 200.677 691.395 189.215 695.618 185.074C699.724 180.931 703.66 183.853 703.66 183.853C703.66 183.853 708.431 186.324 715.109 187.898C721.788 189.472 718.735 184.097 719.644 180.584C720.553 177.071 723.463 178.554 728.907 182.455C734.352 186.356 723.823 193.055 722.476 195.144C721.13 197.232 724.059 202.84 727.325 209.163C730.59 215.486 730.185 207.818 730.715 205.356C731.128 202.892 730.946 200.649 733.464 198.824C735.982 196.999 734.648 193.668 734.769 188.605C734.89 183.541 738.406 184.332 743.941 184.465C749.472 184.715 750.227 182.73 751.542 181.937C752.857 181.144 752.195 179.243 760.464 178.38C768.729 177.636 752.042 156.146 750.666 154.581C749.289 153.016 725.118 153.733 719.236 153.357C713.354 152.98 713.68 149.217 712.536 147.776C711.392 146.335 698.058 147.194 695.587 147.017C693.117 146.84 690.651 141.596 688.537 141.31C686.423 141.024 685.548 143.124 683.383 144.957C681.218 146.79 681.326 142.315 681.135 140.426C680.945 138.536 679.664 137.916 677.325 137.153C674.987 136.39 674.838 142.631 674.669 144.748C674.501 146.865 655.559 145.704 651.911 145.499C648.264 145.294 647.182 141.262 646.577 137.006C645.972 132.75 642.097 137.134 642.097 137.134L633.136 137.391C633.136 137.391 618.074 136.558 614.057 137.051C610.157 137.547 614.172 132.223 616.351 129.801C618.533 127.261 608.849 123.259 607.697 122.171C606.545 121.083 598.624 122.189 596.99 121.561C595.473 120.936 594.358 118.317 593.867 119.13C593.376 119.943 592.728 122.401 590.931 123.654C589.133 124.907 587.496 124.397 585.132 124.694C582.769 124.991 584.156 126.084 576.16 125.421C568.161 124.876 567.681 130.167 565.138 133.052C562.477 135.933 558.243 135.596 556.238 135.666C554.231 135.854 554.841 139.874 553.84 142.325C552.839 144.775 549.206 139.032 547.81 138.292C546.417 137.434 546.778 142.038 546.778 142.038C546.778 142.038 546.333 155.694 545.71 157.093C545.087 158.492 540.895 146.61 540.96 143.901C541.142 141.196 539.046 135.254 538.6 134.183C538.27 133.233 537.055 134.735 535.474 136.818C533.892 138.901 534.733 143.163 534.309 146.098C533.885 149.034 532.273 147.463 527.681 147.353C523.088 147.243 522.227 148.754 520.301 150.476C518.374 152.197 511.438 151.559 507.434 151.463C503.431 151.367 501.375 153.557 497.671 155.707C493.967 157.857 494.994 154.347 492.715 151.111C490.321 147.754 489.367 153.151 488.015 155.475C486.663 157.8 479.983 151.395 476.751 148.607C473.519 145.82 471.469 147.774 469.702 147.732C467.936 147.689 465.917 148.348 464.106 145.241C462.296 142.134 457.342 142.369 452.085 140.476C446.828 138.582 445.086 142.429 439.386 144.295C433.686 146.162 432.194 149.425 432.194 149.425C432.194 149.425 432.194 149.425 431.764 152.596C431.335 155.767 427.364 159.207 424.818 162.209C422.272 165.211 417.556 165.334 414.932 166.685C412.307 168.036 413.873 176.439 413.909 179.857C413.948 183.157 419.421 180.932 422.954 181.016C426.369 181.098 424.414 183.997 423.909 185.399C423.648 186.453 421.887 186.175 421.517 186.873C421.397 186.988 421.391 187.223 421.5 187.579C421.943 188.768 423.216 189.741 423.894 190.936C426.044 194.64 427.789 190.676 427.789 190.676C427.789 190.676 431.311 186.283 434.485 181.646C437.292 177.589 432.423 174.291 435.46 170.476C438.012 167.238 441.144 164.368 444.262 162.086C449.66 158.091 450.425 160.584 451.899 162.976C453.374 165.367 444.11 168.445 441.375 174.388C438.641 180.332 447.568 176.539 444.971 181.661C439.741 193.436 438.274 195.64 433.541 196.469ZM509.429 141.967C511.047 143.302 512.785 144.522 514.644 145.627C515.224 145.995 517.893 147.708 517.231 145.807C516.791 144.5 515.763 143.18 514.964 142.1C513.366 139.941 513.635 138.534 513.703 135.707C513.771 132.881 519.479 130.662 519.479 130.662C539.141 121.471 520.876 126.453 518.042 126.739C515.328 126.91 512.611 127.198 511.186 127.635C509.762 128.072 506.492 131.764 504.885 134.907C504.392 135.838 504.599 137.021 504.93 137.972C505.266 138.687 505.723 139.287 506.418 139.775C507.461 140.506 508.622 141.241 509.429 141.967ZM494.925 373.615C493.366 374.756 493.631 378.415 493.364 384.653C493.322 386.419 495.26 398.955 498.308 394.668C498.311 394.551 502.333 388.992 502.527 385.815C502.723 382.521 505.511 379.288 506.624 377.076C507.738 374.864 507.219 371.906 505.098 367.025C502.976 362.143 500.191 370.206 500.191 370.206C499.453 371.485 496.484 372.474 494.925 373.615ZM615.302 340.798C616.905 342.722 618.506 344.763 620.109 346.687C620.911 347.649 621.713 348.61 622.515 349.572C623.434 350.537 624.589 351.507 625.032 352.696C625.475 353.885 625.317 355.531 626.237 356.495C627.041 357.339 628.337 357.37 629.399 357.278C633.995 357.27 638.582 357.616 643.292 357.729C670.376 358.377 649.931 356.002 648.759 355.739C647.588 355.475 645.1 356.004 642.903 354.302C640.705 352.6 630.566 352.829 630.566 352.829C630.566 352.829 627.031 352.862 627.573 349.929C628.114 346.996 626.695 347.198 622.398 339.672C618.101 332.146 618.213 337.333 611.32 329.981C604.426 322.628 608.608 330.034 609.954 332.894C611.299 335.754 614.391 339.48 614.391 339.48C614.615 339.957 614.957 340.437 615.302 340.798ZM653.973 344.67C653.466 346.19 653.432 347.603 655.184 348.234C658.458 349.255 657.895 348.181 661.243 346.141C661.84 345.801 663.632 344.784 663.534 343.957C663.433 343.247 661.902 343.211 661.322 342.843C660.745 342.358 660.17 341.755 659.463 341.738C658.524 341.598 657.582 341.576 656.637 341.671C655.457 341.76 654.86 342.099 654.484 343.033C654.237 343.498 654.105 344.084 653.973 344.67ZM643.527 343.006C644.587 343.032 645.764 343.06 646.835 342.614C647.786 342.283 648.394 341.473 649.115 340.901C650.436 339.873 650.699 338.701 650.963 337.529C651.746 334.366 651.592 330.946 651.668 327.766C651.804 322.114 650.954 323.154 650.068 320.776C649.628 319.47 645.588 320.905 643.908 322.161C642.229 323.416 643.117 325.676 642.96 327.322C642.909 329.442 640.781 329.744 639.343 330.77C637.545 332.023 635.863 333.397 634.18 334.77C632.018 336.486 633.975 338.418 634.872 340.325C635.096 340.801 635.435 341.398 635.898 341.763C636.705 342.489 637.762 342.632 638.702 342.773C638.819 342.776 638.819 342.776 638.937 342.778C640.465 342.933 641.996 342.97 643.527 343.006ZM663.109 317.436C663.891 319.222 665.026 321.017 666.047 322.691C666.613 323.647 667.871 325.209 669.072 324.295C670.631 323.154 670.325 321.144 670.362 319.613C670.447 316.08 670.924 310.908 669.57 308.401C668.099 305.891 665.306 304.411 663.596 302.013C662.226 300.213 661.042 300.42 659.434 293.784C657.708 287.144 658.099 295.401 657.647 299.514C657.195 303.627 660.884 307.015 660.884 307.015C663.519 310.141 661.663 313.867 663.109 317.436ZM691.178 350.746C692.588 350.898 693.872 351.4 694.786 352.6C695.93 354.041 696.243 355.698 697.149 357.251C697.712 358.325 698.62 359.761 700.16 359.444C701.584 359.007 703.031 357.628 704.172 359.187C705.77 361.346 706.616 360.424 706.616 360.424C707.096 360.082 710.8 357.932 712.532 359.387C722.577 367.994 718.37 361.648 715.858 358.289C713.346 354.93 706.868 349.944 703.994 346.929C701.121 343.915 695.053 346.361 691.767 345.811C688.481 345.261 689.612 342.343 687.893 340.299C686.175 338.255 679.059 340.205 677.43 339.341C675.801 338.477 674.985 338.104 675.039 335.867C675.047 335.514 674.411 332.553 673.562 333.593C673.197 334.055 673.402 335.356 673.388 335.945C673.365 336.887 673.342 337.829 673.438 338.774C673.737 341.02 675.526 340.12 678.428 341.957C681.332 343.676 682.321 346.646 682.851 349.133C683.274 351.146 685.75 351.087 687.639 350.897C688.82 350.807 690 350.718 691.178 350.746ZM705.096 438.622C704.51 438.491 703.336 438.345 703.083 439.045C702.831 439.746 704.106 440.602 704.092 441.19C704.07 442.133 703.764 445.071 706.584 445.374C709.287 445.674 709.797 444.037 710.451 441.343C710.58 440.875 710.591 440.404 710.367 439.927C710.028 439.33 709.207 439.192 708.618 439.178C708.032 439.046 707.443 439.032 706.739 438.897C706.153 438.766 705.682 438.754 705.096 438.622ZM674.686 370.263C671.498 370.54 668.506 372.471 665.761 373.937C663.972 374.837 662.06 375.97 661.188 377.952C660.442 379.583 660.492 382.412 660.214 384.173C659.81 386.284 654.321 384.267 652.193 384.57C650.064 384.872 650.72 387.009 649.997 387.699C649.155 388.385 646.231 387.491 643.747 387.902C640.789 388.421 642.078 393.636 641.795 395.632C641.511 397.628 640.757 399.613 640.238 401.604C639.205 405.349 641.451 405.05 643.313 406.037C645.174 407.024 643.278 412.398 643.561 415.351C643.849 418.068 647.32 420.743 649.535 421.738C651.049 422.482 652.941 422.174 654.59 422.213C656.474 422.258 658.355 422.421 660.133 421.992C661.91 421.564 663.239 420.182 664.796 419.159C667.193 417.449 669.804 416.686 672.742 416.992C675.798 417.301 678.733 417.725 681.792 417.916C683.441 417.956 686.281 417.435 686.701 419.566C687.018 421.105 686.743 422.748 687.059 424.287C687.687 427.601 689.952 426.477 692.661 426.542C695.369 426.607 695.436 428.729 696.095 430.748C697.19 434.191 699.669 434.015 702.731 434.088C704.85 434.139 706.97 434.19 709.092 434.123C712.751 433.857 715.076 430.26 715.076 430.26C715.076 430.26 720.102 422.133 722.536 418.892C724.97 415.652 726.09 408.256 726.228 402.486C726.366 396.715 718.553 388.398 718.553 388.398C718.553 388.398 708.156 374.835 706.32 372.788C704.484 370.741 705.721 368.297 705.068 366.042C704.533 363.791 702.679 367.399 700.663 367.94C698.647 368.481 699.515 376.513 699.487 377.691C699.459 378.869 696.991 378.574 695.736 376.894C694.48 375.215 693.647 375.548 691.788 374.443C689.93 373.338 688.8 371.308 688.641 368.123C688.599 364.941 685.276 365.922 681.511 365.714C677.746 365.506 679.248 366.72 678.494 368.705C677.992 369.989 676.576 370.073 675.395 370.162C675.042 370.154 674.804 370.266 674.686 370.263ZM753.992 448.513L753.871 448.628C752.539 450.128 748.529 455.216 750.876 455.625C753.105 456.032 755.9 457.395 757.35 455.898C758.805 454.166 758.368 452.741 762.647 451.194C764.786 450.421 766.707 443.987 766.707 443.987C766.707 443.987 766.057 441.615 764.678 440.168C763.526 439.08 760.604 443.016 759.519 444.05C757.713 445.656 755.562 446.901 753.992 448.513ZM773.238 436.956C774.122 434.503 775.854 435.958 775.897 434.192C775.939 432.425 770.834 429.122 769.104 427.549C765.642 424.52 768.79 430.84 767.926 432.469C766.821 434.328 766.703 434.325 767.474 436.582C767.695 437.177 768.216 440.017 768.8 440.266C772.186 441.526 772.352 439.527 773.238 436.956Z" stroke="#475566" stroke-opacity="0.3" stroke-width="2" mask="url(#path-2-inside-1_405_5591)"/>
<mask id="path-3-inside-2_405_5591" fill="white">
<path d="M253.604 285.828C256.638 287.079 250.035 287.274 248.975 287.249C247.798 287.22 246.138 287.652 245.58 286.342C245.583 286.225 245.482 285.515 245.499 284.809C245.536 283.278 244.627 281.842 247.549 282.855C249.766 283.733 251.855 285.079 253.604 285.828ZM768.398 427.532C764.936 424.503 768.083 430.823 767.22 432.452C766.115 434.311 765.997 434.308 766.768 436.565C766.989 437.16 767.51 440 768.093 440.249C771.362 441.506 771.648 439.392 772.532 436.939C773.415 434.486 775.148 435.941 775.19 434.175C775.233 432.408 770.245 429.108 768.398 427.532ZM90.7162 248.817C90.7162 248.817 93.117 261.717 96.3105 261.204C102.933 260.185 98.0889 255.827 92.4825 248.859C92.0256 248.259 90.0801 245.856 90.7162 248.817ZM359.91 156.766C358.497 156.732 357.095 156.227 355.559 156.426C354.258 156.63 354.692 158.172 354.905 159.12C355.227 160.424 355.437 161.489 355.524 162.787C355.516 163.141 355.504 163.612 355.496 163.965C355.473 164.907 355.431 166.673 356.726 166.704C358.61 166.75 360.497 166.677 362.384 166.604C363.329 166.509 364.378 167.006 365.098 166.434C366.775 165.296 367.518 163.782 369.764 163.482C370.709 163.387 373.288 163.92 373.44 162.51C373.454 161.921 372.889 156.016 371.963 155.287C369.88 153.705 363.793 156.976 359.91 156.766ZM382.826 203.502C386.292 201.464 388.878 196.813 388.878 196.813C388.878 196.813 389.807 187.527 385.464 191.782C385.464 191.782 380.671 195.084 380.489 197.79C380.421 200.616 379.358 205.657 382.826 203.502ZM505.832 139.643C506.755 140.489 507.915 141.224 508.723 141.95C510.34 143.285 512.078 144.505 513.937 145.61C514.517 145.977 517.186 147.691 516.525 145.79C516.085 144.483 515.056 143.163 514.257 142.083C512.66 139.924 512.929 138.517 512.997 135.69C513.064 132.864 518.773 130.645 518.773 130.645C538.434 121.454 520.17 126.436 517.335 126.722C514.621 126.893 511.904 127.181 510.48 127.618C509.056 128.055 505.786 131.747 504.179 134.89C503.685 135.821 503.893 137.004 504.223 137.954C504.683 138.437 505.258 139.04 505.832 139.643ZM390.844 188.494C391.652 189.221 392.456 190.065 392.905 191.018C393.462 192.327 393.661 193.864 393.981 195.285C394.507 197.89 392.923 200.091 391.465 201.941C390.13 203.559 388.313 205.636 390.628 207.341C393.757 209.537 398 204.572 401.112 202.526C403.507 200.934 402.4 197.961 401.032 196.044C399.328 193.411 397.262 191.122 396.272 188.153C395.398 185.304 393.444 183.255 391.734 180.857C390.478 179.178 388.695 179.842 387.915 182.887C387.264 185.463 389.115 186.921 390.844 188.494ZM219.069 276.517C212.643 279.191 224.413 279.708 224.413 279.708C226.762 280 229.112 280.292 231.335 280.935C232.036 281.187 232.74 281.322 233.32 281.689C234.248 282.301 234.929 283.377 235.98 283.756C237.379 284.379 240.239 283.033 241.661 282.714C247.7 281.445 231.81 275.88 229 275.105C226.191 274.331 225.496 273.843 219.069 276.517ZM653.78 342.898C653.53 343.481 653.399 344.067 653.152 344.533C652.644 346.052 652.61 347.465 654.362 348.096C657.637 349.117 657.074 348.044 660.422 346.003C661.019 345.664 662.811 344.646 662.713 343.819C662.612 343.11 661.081 343.073 660.501 342.706C659.923 342.221 659.349 341.618 658.642 341.601C657.703 341.461 656.761 341.438 655.816 341.533C654.756 341.508 654.159 341.847 653.78 342.898ZM758.694 444.03C757.006 445.639 754.859 446.766 753.288 448.378L753.168 448.493C751.836 449.993 747.826 455.081 750.172 455.491C752.401 455.897 755.196 457.261 756.646 455.764C758.101 454.031 757.664 452.607 761.943 451.06C764.082 450.286 766.004 443.852 766.004 443.852C766.004 443.852 765.354 441.48 763.975 440.033C762.584 439.057 759.659 443.111 758.694 444.03ZM677.839 341.943C680.743 343.662 681.733 346.631 682.262 349.118C682.685 351.131 685.161 351.073 687.051 350.883C688.231 350.793 689.414 350.586 690.471 350.729C691.882 350.881 693.166 351.383 694.079 352.583C695.223 354.024 695.537 355.681 696.442 357.234C697.006 358.308 697.914 359.744 699.453 359.427C700.877 358.99 702.324 357.611 703.465 359.17C705.063 361.329 705.91 360.407 705.91 360.407C706.389 360.065 710.094 357.915 711.826 359.37C721.87 367.976 717.663 361.631 715.151 358.272C712.64 354.913 706.161 349.927 703.288 346.912C700.414 343.898 694.347 346.344 691.061 345.794C687.775 345.244 688.905 342.326 687.187 340.282C685.469 338.238 678.352 340.188 676.723 339.324C675.095 338.46 674.279 338.087 674.333 335.85C674.341 335.497 673.705 332.536 672.855 333.576C672.491 334.038 672.695 335.339 672.681 335.928C672.658 336.87 672.636 337.812 672.731 338.757C673.148 341.006 674.937 340.106 677.839 341.943ZM610.527 304.041C610.056 304.029 609.467 304.015 608.996 304.004C608.994 304.122 608.994 304.122 608.991 304.239C608.946 306.124 608.429 307.996 608.617 310.004C608.802 312.129 610.055 313.926 610.475 316.057C610.794 317.479 610.999 318.78 611.083 320.196C611.083 320.196 615.6 333.265 622.461 332.133C627.074 331.419 619.252 323.455 615.922 319.84C612.592 316.226 612.441 312.688 614.059 309.074C615.677 305.46 618.511 310.123 623.499 313.424C628.486 316.724 626.512 315.499 630.758 310.416C634.154 306.374 632.618 301.624 631.144 299.232C624.591 302.257 617.595 304.092 610.527 304.041ZM668.866 308.266C667.395 305.757 664.603 304.276 662.893 301.878C661.522 300.078 660.339 300.285 658.73 293.649C657.004 287.009 657.396 295.266 656.944 299.379C656.492 303.492 660.181 306.88 660.181 306.88C662.813 310.124 660.956 313.85 662.52 317.422C663.302 319.208 664.438 321.003 665.458 322.677C666.024 323.633 667.283 325.195 668.483 324.281C670.042 323.14 669.737 321.13 669.773 319.599C669.864 315.831 670.223 310.655 668.866 308.266ZM638.639 330.635C636.842 331.888 635.159 333.262 633.477 334.635C631.315 336.351 633.272 338.283 634.168 340.19C634.393 340.666 634.732 341.264 635.194 341.628C636.002 342.354 637.059 342.498 637.998 342.638C638.116 342.641 638.116 342.641 638.233 342.644C639.762 342.798 641.292 342.835 642.823 342.871C643.883 342.897 645.061 342.925 646.132 342.479C647.082 342.149 647.691 341.338 648.411 340.767C649.732 339.738 649.996 338.566 650.259 337.394C651.042 334.232 650.888 330.811 650.965 327.632C651.1 321.979 650.25 323.019 649.365 320.642C648.925 319.335 644.884 320.77 643.205 322.026C641.525 323.282 642.414 325.541 642.256 327.187C642.206 329.307 640.077 329.609 638.639 330.635ZM648.053 355.722C646.878 355.576 644.394 355.987 642.196 354.285C639.998 352.583 629.86 352.811 629.86 352.811C629.86 352.811 626.325 352.845 626.866 349.912C627.408 346.979 625.989 347.181 621.692 339.655C617.395 332.129 617.506 337.316 610.613 329.964C603.72 322.611 607.902 330.017 609.247 332.877C610.593 335.737 613.684 339.463 613.684 339.463C614.027 339.943 614.371 340.305 614.713 340.784C616.317 342.708 617.917 344.749 619.521 346.673C620.323 347.634 621.124 348.596 621.926 349.558C622.845 350.523 624 351.493 624.443 352.682C624.886 353.871 624.729 355.516 625.648 356.481C626.453 357.325 627.748 357.356 628.811 357.264C633.406 357.256 637.993 357.601 642.703 357.714C669.554 358.24 649.228 355.868 648.053 355.722ZM499.372 369.951C498.747 371.468 495.78 372.339 494.221 373.48C492.662 374.621 492.928 378.28 492.661 384.518C492.618 386.284 494.557 398.82 497.605 394.534C497.608 394.416 501.629 388.857 501.823 385.68C502.02 382.386 504.807 379.154 505.921 376.942C507.034 374.73 506.516 371.772 504.394 366.89C502.272 362.008 499.372 369.951 499.372 369.951Z"/>
</mask>
<path d="M253.604 285.828C256.638 287.079 250.035 287.274 248.975 287.249C247.798 287.22 246.138 287.652 245.58 286.342C245.583 286.225 245.482 285.515 245.499 284.809C245.536 283.278 244.627 281.842 247.549 282.855C249.766 283.733 251.855 285.079 253.604 285.828ZM768.398 427.532C764.936 424.503 768.083 430.823 767.22 432.452C766.115 434.311 765.997 434.308 766.768 436.565C766.989 437.16 767.51 440 768.093 440.249C771.362 441.506 771.648 439.392 772.532 436.939C773.415 434.486 775.148 435.941 775.19 434.175C775.233 432.408 770.245 429.108 768.398 427.532ZM90.7162 248.817C90.7162 248.817 93.117 261.717 96.3105 261.204C102.933 260.185 98.0889 255.827 92.4825 248.859C92.0256 248.259 90.0801 245.856 90.7162 248.817ZM359.91 156.766C358.497 156.732 357.095 156.227 355.559 156.426C354.258 156.63 354.692 158.172 354.905 159.12C355.227 160.424 355.437 161.489 355.524 162.787C355.516 163.141 355.504 163.612 355.496 163.965C355.473 164.907 355.431 166.673 356.726 166.704C358.61 166.75 360.497 166.677 362.384 166.604C363.329 166.509 364.378 167.006 365.098 166.434C366.775 165.296 367.518 163.782 369.764 163.482C370.709 163.387 373.288 163.92 373.44 162.51C373.454 161.921 372.889 156.016 371.963 155.287C369.88 153.705 363.793 156.976 359.91 156.766ZM382.826 203.502C386.292 201.464 388.878 196.813 388.878 196.813C388.878 196.813 389.807 187.527 385.464 191.782C385.464 191.782 380.671 195.084 380.489 197.79C380.421 200.616 379.358 205.657 382.826 203.502ZM505.832 139.643C506.755 140.489 507.915 141.224 508.723 141.95C510.34 143.285 512.078 144.505 513.937 145.61C514.517 145.977 517.186 147.691 516.525 145.79C516.085 144.483 515.056 143.163 514.257 142.083C512.66 139.924 512.929 138.517 512.997 135.69C513.064 132.864 518.773 130.645 518.773 130.645C538.434 121.454 520.17 126.436 517.335 126.722C514.621 126.893 511.904 127.181 510.48 127.618C509.056 128.055 505.786 131.747 504.179 134.89C503.685 135.821 503.893 137.004 504.223 137.954C504.683 138.437 505.258 139.04 505.832 139.643ZM390.844 188.494C391.652 189.221 392.456 190.065 392.905 191.018C393.462 192.327 393.661 193.864 393.981 195.285C394.507 197.89 392.923 200.091 391.465 201.941C390.13 203.559 388.313 205.636 390.628 207.341C393.757 209.537 398 204.572 401.112 202.526C403.507 200.934 402.4 197.961 401.032 196.044C399.328 193.411 397.262 191.122 396.272 188.153C395.398 185.304 393.444 183.255 391.734 180.857C390.478 179.178 388.695 179.842 387.915 182.887C387.264 185.463 389.115 186.921 390.844 188.494ZM219.069 276.517C212.643 279.191 224.413 279.708 224.413 279.708C226.762 280 229.112 280.292 231.335 280.935C232.036 281.187 232.74 281.322 233.32 281.689C234.248 282.301 234.929 283.377 235.98 283.756C237.379 284.379 240.239 283.033 241.661 282.714C247.7 281.445 231.81 275.88 229 275.105C226.191 274.331 225.496 273.843 219.069 276.517ZM653.78 342.898C653.53 343.481 653.399 344.067 653.152 344.533C652.644 346.052 652.61 347.465 654.362 348.096C657.637 349.117 657.074 348.044 660.422 346.003C661.019 345.664 662.811 344.646 662.713 343.819C662.612 343.11 661.081 343.073 660.501 342.706C659.923 342.221 659.349 341.618 658.642 341.601C657.703 341.461 656.761 341.438 655.816 341.533C654.756 341.508 654.159 341.847 653.78 342.898ZM758.694 444.03C757.006 445.639 754.859 446.766 753.288 448.378L753.168 448.493C751.836 449.993 747.826 455.081 750.172 455.491C752.401 455.897 755.196 457.261 756.646 455.764C758.101 454.031 757.664 452.607 761.943 451.06C764.082 450.286 766.004 443.852 766.004 443.852C766.004 443.852 765.354 441.48 763.975 440.033C762.584 439.057 759.659 443.111 758.694 444.03ZM677.839 341.943C680.743 343.662 681.733 346.631 682.262 349.118C682.685 351.131 685.161 351.073 687.051 350.883C688.231 350.793 689.414 350.586 690.471 350.729C691.882 350.881 693.166 351.383 694.079 352.583C695.223 354.024 695.537 355.681 696.442 357.234C697.006 358.308 697.914 359.744 699.453 359.427C700.877 358.99 702.324 357.611 703.465 359.17C705.063 361.329 705.91 360.407 705.91 360.407C706.389 360.065 710.094 357.915 711.826 359.37C721.87 367.976 717.663 361.631 715.151 358.272C712.64 354.913 706.161 349.927 703.288 346.912C700.414 343.898 694.347 346.344 691.061 345.794C687.775 345.244 688.905 342.326 687.187 340.282C685.469 338.238 678.352 340.188 676.723 339.324C675.095 338.46 674.279 338.087 674.333 335.85C674.341 335.497 673.705 332.536 672.855 333.576C672.491 334.038 672.695 335.339 672.681 335.928C672.658 336.87 672.636 337.812 672.731 338.757C673.148 341.006 674.937 340.106 677.839 341.943ZM610.527 304.041C610.056 304.029 609.467 304.015 608.996 304.004C608.994 304.122 608.994 304.122 608.991 304.239C608.946 306.124 608.429 307.996 608.617 310.004C608.802 312.129 610.055 313.926 610.475 316.057C610.794 317.479 610.999 318.78 611.083 320.196C611.083 320.196 615.6 333.265 622.461 332.133C627.074 331.419 619.252 323.455 615.922 319.84C612.592 316.226 612.441 312.688 614.059 309.074C615.677 305.46 618.511 310.123 623.499 313.424C628.486 316.724 626.512 315.499 630.758 310.416C634.154 306.374 632.618 301.624 631.144 299.232C624.591 302.257 617.595 304.092 610.527 304.041ZM668.866 308.266C667.395 305.757 664.603 304.276 662.893 301.878C661.522 300.078 660.339 300.285 658.73 293.649C657.004 287.009 657.396 295.266 656.944 299.379C656.492 303.492 660.181 306.88 660.181 306.88C662.813 310.124 660.956 313.85 662.52 317.422C663.302 319.208 664.438 321.003 665.458 322.677C666.024 323.633 667.283 325.195 668.483 324.281C670.042 323.14 669.737 321.13 669.773 319.599C669.864 315.831 670.223 310.655 668.866 308.266ZM638.639 330.635C636.842 331.888 635.159 333.262 633.477 334.635C631.315 336.351 633.272 338.283 634.168 340.19C634.393 340.666 634.732 341.264 635.194 341.628C636.002 342.354 637.059 342.498 637.998 342.638C638.116 342.641 638.116 342.641 638.233 342.644C639.762 342.798 641.292 342.835 642.823 342.871C643.883 342.897 645.061 342.925 646.132 342.479C647.082 342.149 647.691 341.338 648.411 340.767C649.732 339.738 649.996 338.566 650.259 337.394C651.042 334.232 650.888 330.811 650.965 327.632C651.1 321.979 650.25 323.019 649.365 320.642C648.925 319.335 644.884 320.77 643.205 322.026C641.525 323.282 642.414 325.541 642.256 327.187C642.206 329.307 640.077 329.609 638.639 330.635ZM648.053 355.722C646.878 355.576 644.394 355.987 642.196 354.285C639.998 352.583 629.86 352.811 629.86 352.811C629.86 352.811 626.325 352.845 626.866 349.912C627.408 346.979 625.989 347.181 621.692 339.655C617.395 332.129 617.506 337.316 610.613 329.964C603.72 322.611 607.902 330.017 609.247 332.877C610.593 335.737 613.684 339.463 613.684 339.463C614.027 339.943 614.371 340.305 614.713 340.784C616.317 342.708 617.917 344.749 619.521 346.673C620.323 347.634 621.124 348.596 621.926 349.558C622.845 350.523 624 351.493 624.443 352.682C624.886 353.871 624.729 355.516 625.648 356.481C626.453 357.325 627.748 357.356 628.811 357.264C633.406 357.256 637.993 357.601 642.703 357.714C669.554 358.24 649.228 355.868 648.053 355.722ZM499.372 369.951C498.747 371.468 495.78 372.339 494.221 373.48C492.662 374.621 492.928 378.28 492.661 384.518C492.618 386.284 494.557 398.82 497.605 394.534C497.608 394.416 501.629 388.857 501.823 385.68C502.02 382.386 504.807 379.154 505.921 376.942C507.034 374.73 506.516 371.772 504.394 366.89C502.272 362.008 499.372 369.951 499.372 369.951Z" stroke="#475566" stroke-opacity="0.5" stroke-width="2" mask="url(#path-3-inside-2_405_5591)"/>
</svg>
