<svg width="22" height="23" viewBox="0 0 22 23" fill="none" xmlns="http://www.w3.org/2000/svg">
<g clip-path="url(#clip0_405_5400)">
<path d="M0.556962 22.5854C0.208861 22.5854 0 22.307 0 22.0285V1.14241C0.0696203 0.86393 0.278481 0.585449 0.556962 0.585449H21.3734C21.7215 0.585449 21.9304 0.86393 21.9304 1.14241V21.9589C21.9304 22.307 21.6519 22.5158 21.3734 22.5158H0.556962V22.5854ZM1.18354 21.4019H20.8861V1.69937H14.1329V8.38292C14.1329 8.6614 13.8544 8.93988 13.5759 8.93988C13.5063 8.93988 13.3671 8.93988 13.2975 8.87026L11.0696 7.68671L8.91139 8.87026C8.70253 8.93988 8.63291 8.93988 8.56329 8.93988C8.42405 8.93988 8.28481 8.87026 8.14557 8.80064C8.07595 8.73102 7.93671 8.59178 7.93671 8.38292V1.69937H1.18354V21.4019ZM11 6.57279C11.0696 6.57279 11.2089 6.57279 11.2785 6.64241L12.9494 7.54747V1.69937H9.05063V7.47785L10.7215 6.57279C10.8608 6.57279 10.9304 6.57279 11 6.57279ZM3.68987 18.6867C3.34177 18.6867 3.13291 18.4082 3.13291 18.1298C3.13291 17.8513 3.41139 17.5728 3.68987 17.5728H9.67721C10.0253 17.5728 10.2342 17.8513 10.2342 18.1298C10.2342 18.4082 10.0253 18.6867 9.67721 18.6867H3.68987ZM3.68987 16.1804C3.34177 16.1804 3.13291 15.9019 3.13291 15.6234C3.13291 15.3449 3.41139 15.0665 3.68987 15.0665H8.42405C8.77215 15.0665 8.98101 15.3449 8.98101 15.6234C8.98101 15.9019 8.70253 16.1804 8.42405 16.1804H3.68987Z" fill="#227CE4"/>
</g>
<defs>
<clipPath id="clip0_405_5400">
<rect width="22" height="22" fill="white" transform="translate(0 0.585449)"/>
</clipPath>
</defs>
</svg>
