<svg width="15" height="20" viewBox="0 0 15 20" fill="none" xmlns="http://www.w3.org/2000/svg">
<g clip-path="url(#clip0_405_5382)">
<path d="M6.95455 1.58547C3.35455 1.74911 0.409091 4.53093 0 8.04911C0 8.78547 0 9.44002 0.163636 10.0946C0.163636 10.0946 0.163636 10.1764 0.245455 10.34C0.327273 10.8309 0.490909 11.3218 0.736364 11.7309C1.47273 13.4491 3.10909 16.3127 6.87273 19.4218C7.11818 19.5855 7.44545 19.5855 7.69091 19.4218C11.4545 16.3127 13.0909 13.4491 13.8273 11.7309C14.0727 11.24 14.2364 10.8309 14.3182 10.34C14.3182 10.1764 14.4 10.0946 14.4 10.0946C14.4818 9.68547 14.5636 9.19456 14.5636 8.70365C14.4 4.69456 11.0455 1.42183 6.95455 1.58547ZM7.2 12.3037C5.23636 12.3037 3.68182 10.7491 3.68182 8.78547C3.68182 6.82183 5.23636 5.26729 7.2 5.26729C9.16364 5.26729 10.6364 6.90365 10.6364 8.86729C10.6364 10.8309 9.08182 12.3037 7.2 12.3037Z" fill="white"/>
</g>
<defs>
<clipPath id="clip0_405_5382">
<rect width="15" height="19" fill="white" transform="translate(0 0.585449)"/>
</clipPath>
</defs>
</svg>
