<svg width="432" height="540" viewBox="0 0 432 540" fill="none" xmlns="http://www.w3.org/2000/svg">
<g clip-path="url(#clip0_405_5369)">
<mask id="path-1-inside-1_405_5369" fill="white">
<path d="M-439.486 165.994C-441.074 165.151 -442.655 164.426 -444.441 164.186C-446.814 163.983 -449.503 164.391 -451.812 163.358C-453.392 162.633 -456.719 158.597 -452.935 158.709C-450.334 158.779 -445.287 158.338 -443.651 156.227C-439.507 150.887 -432.738 162.612 -427.766 160.996C-425.108 160.118 -424.745 156.554 -421.819 158.019C-419.988 158.964 -418.002 160.49 -416.604 162.053C-414.573 164.284 -415.783 165.659 -418.457 166.302C-420.903 166.813 -423.387 166.735 -425.973 166.901C-428.324 167.051 -430.66 167.436 -432.996 167.821C-435.332 168.207 -437.413 167.041 -439.486 165.994ZM-413.441 148.749C-413.441 148.749 -411.802 154.074 -409.877 154.659C-408.068 155.252 -407.068 156.132 -406.05 153.588C-405.025 151.162 -407.796 150.277 -409.914 148.524C-412.033 146.771 -415.5 142.389 -413.441 148.749ZM-419.994 181.036C-423.508 179.608 -422.005 177.27 -423.429 173.466C-424.852 169.662 -427.073 173.699 -430.249 177.56C-433.425 181.422 -437.262 174.94 -439.138 173.289C-441.014 171.639 -439.391 171.181 -448.495 170.936C-457.489 170.567 -456.798 170.287 -460.502 175.126C-464.206 179.966 -456.875 178.318 -451.665 178.575C-446.456 178.832 -446.143 181.881 -446.41 185.085C-446.678 188.289 -456.297 187.369 -465.298 186.882C-474.3 186.395 -473.349 188.34 -477.806 190.632C-482.263 192.923 -492.24 188.249 -496.319 187.211C-500.398 186.174 -527.565 189.562 -531.562 189.817C-535.558 190.073 -537.597 193.272 -540.563 194.878C-543.529 196.484 -541.883 201.926 -541.835 204.519C-541.787 207.113 -547.815 205.138 -550.871 205.333C-553.928 205.528 -552.992 207.239 -553.085 209.487C-553.177 211.736 -551.869 211.888 -548.24 211.42C-544.611 210.952 -543.045 211.443 -542.77 213.904C-542.495 216.365 -547.397 215.379 -550.336 215.567C-553.274 215.755 -551.768 220.852 -550.903 225.164C-550.037 229.476 -547.261 228.59 -545.54 229.661C-543.819 230.731 -541.363 232.226 -554.858 238.99C-568.354 245.754 -555.118 242.312 -552.827 241.221C-550.537 240.13 -540.395 236.296 -537.339 236.1C-534.282 235.905 -529.806 232.078 -526.137 228.539C-522.468 224.999 -510.263 225.754 -501.556 225.316C-492.85 224.877 -484.11 243.44 -479.691 246.108C-475.271 248.777 -473.276 272.609 -472.943 279.67C-472.61 286.73 -467.13 291.219 -464.636 293.303C-462.142 295.386 -455.564 307.831 -448.668 316.006C-441.764 324.299 -445.401 313.555 -447.598 308.738C-449.801 303.804 -445.864 308.155 -445.864 308.155C-445.864 308.155 -433.753 320.365 -431.137 326.217C-428.52 332.069 -418.558 336.508 -412.063 336.565C-405.568 336.622 -405.573 338.393 -405.573 338.393C-405.573 338.393 -405.767 340.884 -397.949 341.329C-390.248 341.781 -391.158 347.859 -387.834 350.007C-384.51 352.155 -379.415 354.308 -375.066 354.03C-370.716 353.752 -372.275 353.38 -371.242 356.619C-370.208 359.857 -372.979 364.52 -375.062 367.013C-377.146 369.507 -377.035 374.929 -376.63 381.277C-376.224 387.625 -373.673 388.76 -373.673 388.76C-373.673 388.76 -358.875 409.768 -355.574 411.564C-352.272 413.359 -352.472 417.621 -352.472 417.621C-352.472 417.621 -350.414 449.83 -350.374 452.306C-350.334 454.782 -350.569 454.797 -352.497 457.871C-354.425 460.945 -353.659 467.388 -353.659 467.388C-353.659 467.388 -352.187 495.975 -352.051 498.091C-351.916 500.207 -348.452 502.7 -337.387 507.777C-326.322 512.853 -334.628 504.768 -335.932 502.844C-337.235 500.921 -336.742 495.696 -336.99 491.817C-337.238 487.938 -334.074 485.729 -332.932 483.296C-331.789 480.862 -333.077 479.174 -333.34 475.06C-333.603 470.945 -329.153 468.537 -329.153 468.537C-329.153 468.537 -305.635 441.303 -303.787 438.825C-301.939 436.346 -301.879 431.739 -302.279 429.168C-302.68 426.597 -295.402 418.578 -291.256 415.126C-287.109 411.674 -284.271 402.523 -284.164 400.509C-284.056 398.496 -284.232 393.904 -281.436 391.483C-278.639 389.062 -279.065 384.249 -278.212 379.12C-277.36 373.99 -286.801 374.003 -292.677 370.72C-298.552 367.436 -307.553 366.949 -308.259 366.994C-308.964 367.039 -312.931 367.765 -312.883 364.811C-312.836 361.857 -315.628 356.96 -317.196 354.582C-318.764 352.203 -320.99 352.464 -323.694 352.636C-326.397 352.809 -335.114 345.694 -338.791 343.568C-342.468 341.443 -349.518 343.782 -354.303 342.789C-359.087 341.796 -356.736 341.646 -361.043 340.741C-365.35 339.836 -366.973 345.841 -368.934 346.557C-370.895 347.272 -377.375 347.45 -379.748 347.248C-382.122 347.045 -384.148 343.044 -384.976 339.32C-385.804 335.596 -387.202 334.032 -390.489 332.472C-393.775 330.912 -394.501 326.945 -394.329 324.101C-394.156 321.257 -396.17 321.15 -398.528 321.183C-400.887 321.215 -400.709 322.148 -401.169 324.184C-401.629 326.22 -403.45 327.281 -408.557 326.781C-413.672 326.163 -416.171 320.304 -417.066 315.522C-417.962 310.74 -418.017 308.028 -414.906 304.997C-411.795 301.965 -410.757 303.433 -406.245 303.853C-401.733 304.273 -398.835 301.609 -396.091 298.365C-393.348 295.121 -389.491 300.068 -389.491 300.068C-389.491 300.068 -389.491 300.068 -384.19 307.283C-378.89 314.499 -379.966 306.895 -381.607 299.682C-383.248 292.469 -362.276 267.877 -359.077 264.368C-355.879 260.859 -356.141 262.292 -350.294 261.446C-344.446 260.601 -342.596 254.463 -339.345 251.776C-336.094 249.09 -343.962 249.711 -347.609 248.055C-351.255 246.4 -345.408 245.554 -343.359 244.361C-341.311 243.168 -336.882 242.295 -330.982 242.272C-325.082 242.249 -340.98 222.491 -343.599 220.298C-346.217 218.105 -345.737 214.533 -347.131 211.199C-348.524 207.866 -352.16 213.763 -354.866 217.595C-357.572 221.427 -357.687 217.775 -357.36 215.512C-357.032 213.248 -359.534 211.048 -360.787 208.059C-362.04 205.07 -369.503 206.491 -372.214 206.547C-374.926 206.602 -374.44 206.807 -374.97 211.444C-375.5 216.081 -374.019 218.937 -372.926 223.116C-371.833 227.295 -376.167 233.356 -378.683 236.467C-381.199 239.579 -382.129 236.097 -382.435 233.166C-382.74 230.235 -384.12 230.795 -387.442 230.535C-390.763 230.276 -391.006 230.173 -392.494 227.199C-393.983 224.226 -398.497 221.917 -402.626 221.945C-406.756 221.973 -405.921 214.72 -406.006 211.538C-406.099 208.24 -399.994 207.731 -398.033 207.016C-396.072 206.301 -392.916 203.974 -389.384 207.526C-385.86 210.959 -382.919 207.113 -382.919 207.113C-382.919 207.113 -378.112 202.91 -378.262 200.559C-378.413 198.208 -379.426 198.981 -382.599 199.184C-385.773 199.387 -386.243 199.417 -386.416 196.713C-386.589 194.01 -386.604 193.775 -380.969 193.296C-375.334 192.818 -378.251 187.811 -375.705 185.17C-373.159 182.529 -370.453 184.244 -370.6 189.329C-370.747 194.414 -365.117 190.159 -361.743 191.242C-358.369 192.325 -359.792 194.068 -362.576 194.836C-365.36 195.604 -363.419 196.424 -362.401 199.428C-361.383 202.432 -361.788 201.631 -352.809 201.766C-343.83 201.9 -351.764 197.804 -352.411 196.901C-353.059 195.998 -355.913 193.82 -347.772 193.772C-339.631 193.724 -345.106 187.464 -345.106 187.464C-345.106 187.464 -351.372 178.068 -357.995 176.012C-364.618 173.957 -362.848 173.962 -366.527 169.948C-370.206 165.934 -383.127 168.766 -387.021 168.779C-390.915 168.792 -390.515 171.363 -392.355 173.959C-394.078 176.548 -389.219 178.716 -388.245 186.562C-387.272 194.407 -392.887 187.802 -392.887 187.802C-392.887 187.802 -395.926 184.574 -397.414 181.6C-398.903 178.626 -399.478 177.011 -397.74 174.657C-396.002 172.303 -395.337 169.782 -399.531 165.093C-403.726 160.404 -407.02 158.726 -408.681 158.596C-410.342 158.466 -409.661 161.727 -409.246 164.533C-408.83 167.34 -407.215 166.764 -405.111 168.282C-403.125 169.808 -403.753 172.917 -404.02 176.121C-404.288 179.324 -404.548 177.099 -407.794 172.467C-411.041 167.835 -412.757 170.541 -415.133 173.998C-417.508 177.455 -410.328 179.002 -409.717 184.865C-409.106 190.727 -412.706 186.118 -412.706 186.118C-412.706 186.118 -416.48 182.464 -419.994 181.036ZM-519.717 301.307C-519.717 301.307 -516.312 313.955 -513.058 313.157C-506.55 311.561 -511.758 307.644 -517.953 301.195C-518.469 300.519 -520.61 298.413 -519.717 301.307ZM-376.706 320.969C-375.986 321.159 -375.273 321.231 -374.663 321.546C-373.685 322.074 -372.912 323.087 -371.831 323.372C-370.383 323.87 -367.652 322.279 -366.264 321.836C-360.359 320.042 -376.677 315.891 -379.543 315.366C-382.409 314.841 -383.27 314.306 -389.437 317.533C-395.604 320.76 -383.834 320.244 -383.834 320.244C-381.343 320.439 -378.977 320.524 -376.706 320.969ZM-362.257 323.586C-362.212 324.292 -362.167 324.997 -362.042 325.107C-361.372 326.362 -359.756 325.787 -358.581 325.712C-357.523 325.644 -350.962 324.871 -354.094 323.891C-356.02 323.306 -358.101 322.14 -360.262 321.57C-363.386 320.708 -362.347 322.176 -362.257 323.586ZM-399.947 156.739C-398.879 158.678 -397.491 158.235 -396.278 158.748C-395.065 159.26 -394.622 160.648 -394.052 164.035C-393.481 167.421 -382.749 165.437 -375.351 164.846C-367.953 164.256 -373.02 160.684 -382.409 161.52C-386.516 161.901 -387.031 161.226 -388.35 159.067C-389.668 156.909 -391.556 156.911 -394.327 156.026C-397.099 155.141 -396.954 153.715 -399.712 151.177C-403.472 147.758 -401.133 154.809 -401.133 154.809C-401.133 154.809 -401.015 154.801 -399.947 156.739ZM-370.417 157.095C-365.127 156.757 -362.346 148.553 -362.194 147.245C-362.042 145.937 -359.01 143.501 -354.779 143.231C-350.547 142.96 -348.313 142.818 -346.575 140.464C-344.837 138.11 -346.768 139.296 -340.753 137.377C-334.738 135.458 -334.976 133.585 -335.243 131.242C-335.511 128.898 -345.378 129.647 -348.074 129.937C-350.77 130.227 -350.43 131.858 -353.249 133.927C-356.067 135.995 -373.93 135.366 -379.58 135.609C-380.168 135.647 -380.755 135.684 -381.21 135.949C-380.438 136.962 -377.954 137.039 -376.866 137.442C-375.3 137.932 -374.402 139.055 -373.057 139.795C-371.719 140.418 -370.183 140.438 -368.765 140.465C-353.856 141.047 -365.176 143.069 -366.344 143.261C-367.512 143.454 -369.437 142.869 -369.595 145.948C-369.752 149.027 -373.729 147.746 -375.72 147.992C-377.711 148.237 -377.028 147.839 -377.268 144.077C-377.509 140.316 -386.162 141.577 -389.916 141.935C-393.67 142.293 -391.939 145.369 -391.942 149.028C-391.944 152.687 -391.011 152.51 -387.109 152.614C-383.325 152.727 -384.558 153.75 -383.945 155.953C-383.332 158.156 -377.477 157.428 -377.477 157.428C-377.477 157.428 -375.707 157.433 -370.417 157.095ZM-328.898 134.495C-328.898 134.495 -332.367 133.773 -333.973 136.354C-335.578 138.935 -333.682 139.05 -337.789 139.43C-341.896 139.811 -341.646 140.031 -342.428 142.56C-343.211 145.088 -345.059 147.567 -347.998 147.755C-350.937 147.942 -355.706 147.185 -355.093 149.388C-354.473 151.709 -350.093 157.449 -348.087 157.439C-346.081 157.429 -329.392 154.474 -327.201 161.061C-325.002 167.767 -327.102 179.232 -323.808 180.91C-320.514 182.588 -321.782 184.911 -322.802 185.567C-323.822 186.222 -325.551 185.034 -325.333 188.443C-325.115 191.852 -324.155 190.256 -322.094 192.957C-320.033 195.658 -319.16 194.54 -318.889 198.772C-318.619 203.004 -318.984 204.68 -315.78 204.947C-312.576 205.215 -309.707 207.628 -309.14 209.126C-308.572 210.624 -305.488 209.011 -304.785 207.077C-304.083 205.144 -295.175 191.237 -292.251 190.814C-289.327 190.392 -284.25 190.421 -284.298 187.828C-284.345 185.234 -286.231 181.578 -282.595 181.227C-278.958 180.877 -272.015 180.551 -269.177 176.947C-266.338 173.343 -260.224 169.293 -266.161 168.728C-268.895 168.431 -271.514 166.238 -270.283 163.326C-270.188 162.966 -266.052 163.056 -265.471 162.901C-264.076 162.575 -262.225 161.985 -261.492 160.522C-260.357 157.971 -259.222 155.42 -257.969 152.861C-256.803 150.78 -252.849 146.16 -258.199 145.558C-259.868 145.31 -260.811 143.482 -258.587 141.333C-258.587 141.333 -255.564 133.232 -252.038 133.007C-250.98 132.939 -241.018 131.831 -242.534 130.275C-243.542 129.277 -243.542 129.277 -250.625 129.258C-251.573 129.2 -252.213 128.415 -253.058 128.115C-254.256 127.837 -255.777 128.053 -256.952 128.128C-263.278 128.886 -261.154 128.868 -264.001 126.808C-266.847 124.747 -269.433 124.912 -280.828 125.758C-292.34 126.612 -296.765 125.714 -299.428 128.363C-302.092 131.012 -300.701 132.457 -306.696 132.84C-312.691 133.224 -328.898 134.495 -328.898 134.495ZM-263.468 192.398C-263.446 192.751 -263.416 193.221 -263.393 193.574C-263.333 194.514 -263.221 196.277 -261.928 196.195C-260.047 196.075 -258.173 195.837 -256.3 195.599C-255.367 195.422 -254.279 195.824 -253.612 195.191C-252.041 193.911 -251.433 192.337 -249.222 191.842C-248.289 191.664 -245.673 191.969 -245.646 190.551C-245.683 189.964 -246.764 184.131 -247.75 183.486C-250.213 181.873 -255.873 185.657 -259.87 185.913C-261.28 186.003 -262.721 185.623 -264.234 185.956C-265.512 186.273 -264.944 187.771 -264.649 188.697C-263.971 190.07 -263.669 191.113 -263.468 192.398ZM-231.103 218.657C-231.103 218.657 -235.587 222.367 -235.524 225.196C-235.469 227.907 -235.969 233.014 -232.813 230.688C-229.539 228.354 -227.371 223.494 -227.371 223.494C-227.371 223.494 -227.149 214.038 -231.103 218.657ZM-223.757 217.244C-223.087 218.499 -222.754 220.012 -222.311 221.401C-221.558 223.949 -222.944 226.28 -224.234 228.251C-225.422 229.979 -227.05 232.208 -224.594 233.703C-221.285 235.617 -217.376 230.292 -214.573 227.988C-212.327 226.192 -213.69 223.328 -215.221 221.538C-217.149 219.064 -219.408 216.966 -220.654 214.095C-221.774 211.334 -223.9 209.463 -225.814 207.225C-227.212 205.662 -228.93 206.48 -229.44 209.581C-229.855 212.322 -227.884 213.613 -226.148 214.918C-225.163 215.563 -224.288 216.333 -223.757 217.244ZM-183.512 219.039C-187.809 220.14 -190.1 221.231 -194.399 220.443C-196.788 220.006 -196.143 213.473 -198.642 213.16C-199.48 212.978 -200.825 212.238 -201.36 213.098C-201.683 213.591 -201.365 214.869 -201.328 215.457C-201.135 216.625 -200.242 219.518 -201.99 219.866C-204.319 220.369 -203.358 218.773 -204.453 223.8C-205.549 228.828 -210.468 231.266 -212.054 232.312C-213.639 233.358 -216.075 235.874 -220.072 236.129C-224.076 236.267 -224.581 237.598 -221.265 239.628C-218.683 241.234 -218.166 243.797 -217.75 246.604C-217.75 246.604 -217.75 246.604 -217.743 246.721C-217.55 247.889 -216.699 251.966 -218.44 252.431C-220.533 252.919 -227.609 253.017 -230.548 253.205C-233.487 253.393 -232.018 257.902 -231.955 260.731C-231.893 263.559 -231.127 264.455 -230.172 264.63C-229.209 264.922 -226.908 265.837 -225.567 268.348C-224.226 270.859 -220.43 269.319 -216.418 269.298C-212.406 269.278 -213.412 264.621 -212.937 262.82C-212.462 261.019 -213.94 260.052 -209.951 259.679C-206.079 259.313 -204.834 256.637 -204.552 253.668C-204.277 250.582 -201.158 253.215 -197.436 250.499C-193.715 247.783 -187.136 254.68 -184.305 256.506C-182.952 257.363 -179.37 259.849 -179.56 260.57C-180.278 262.268 -186.636 260.668 -184.537 263.956C-181.768 268.501 -179.317 266.219 -175.974 261.285C-172.505 256.46 -181.459 253.019 -183.187 251.831C-184.923 250.526 -189.085 248.195 -186.482 244.606C-183.871 241.134 -176.777 248.707 -176.777 248.707C-173.688 250.87 -168.941 256.822 -167.2 261.904C-165.349 266.861 -164.731 267.294 -160.124 267.354C-155.517 267.413 -159.427 261.644 -160.282 259.338C-161.248 257.157 -161.285 256.569 -158.339 256.499C-155.393 256.429 -153.496 262.091 -151.716 264.102C-149.935 266.113 -144.077 267.273 -141.786 266.182C-139.378 265.084 -138.732 264.098 -135.731 266.739C-132.73 269.38 -138.752 276.729 -140.727 277.209C-142.703 277.69 -146.197 280.273 -151.057 278.105C-155.924 275.82 -156.717 276.342 -162.067 275.74C-167.417 275.138 -166.421 277.789 -167.511 281.045C-168.602 284.302 -171.338 282.116 -172.603 280.78C-173.869 279.445 -183.926 275.366 -187.618 273.005C-191.31 270.645 -190.887 268.021 -192.345 265.518C-193.804 263.014 -197.768 265.628 -198.421 266.496C-199.073 267.364 -202.475 267.699 -205.649 267.902C-208.822 268.105 -210.035 267.592 -211.759 270.181C-213.482 272.77 -213.454 271.351 -216.83 273.928C-220.207 276.504 -223.786 275.907 -228.913 276.942C-234.04 277.978 -231.881 287.755 -231.768 289.518C-231.656 291.281 -232.351 293.332 -234.497 292.997C-236.643 292.662 -239.611 303.475 -241.937 305.866C-244.263 308.257 -242.416 314.985 -242.149 317.328C-241.881 319.672 -243.759 321.68 -245.022 322.233C-246.285 322.786 -244.136 330.557 -244.949 332.615C-245.761 334.673 -238.861 335.531 -238.861 335.531C-238.221 336.316 -233.656 337.559 -230.439 341.72C-226.45 346.895 -222.946 346.317 -222.946 346.317C-222.946 346.317 -198.856 344.66 -193.331 344.307C-190.98 344.156 -188.694 344.836 -187.045 346.62C-185.515 348.41 -183.909 351.376 -185.059 353.693C-186.099 355.884 -186.447 359.683 -184.556 361.568C-183.548 362.566 -181.975 363.174 -180.746 363.922C-176.842 365.915 -174.926 375.589 -174.603 380.643C-174.392 383.935 -174.527 387.366 -175.257 390.718C-175.425 391.791 -175.71 392.871 -176.355 393.857C-177.205 395.327 -177.505 396.173 -177.283 397.811C-177.117 400.397 -177.407 403.248 -174.519 404.126C-172.71 404.719 -169.488 412.657 -169.488 412.657C-169.488 412.657 -161.321 431.492 -160.11 435.664C-158.9 439.835 -156.916 439.473 -155.623 439.39C-154.33 439.307 -152.904 439.452 -152.664 437.667C-152.417 435.998 -150.866 436.253 -150.866 436.253C-150.866 436.253 -149.441 436.398 -143.343 435.773C-137.128 435.139 -133.284 425.097 -131.854 423.472C-130.423 421.846 -130.336 421.368 -130.649 418.319C-131.087 415.16 -130.514 414.888 -127.473 414.457C-124.314 414.02 -124.949 411.463 -125.222 405.343C-125.495 399.223 -122.559 397.147 -118.59 392.763C-114.621 388.378 -118.619 371.991 -119.4 365.313C-120.181 358.635 -116.034 355.184 -116.034 355.184C-116.034 355.184 -102.927 333.101 -98.0057 327.003C-93.084 320.905 -101.575 322.864 -101.575 322.864C-101.575 322.864 -109.436 323.602 -113.11 323.365C-116.777 323.245 -121.144 315.852 -123.035 313.966C-124.926 312.081 -129.265 308.817 -130.234 304.748C-131.202 300.679 -132.97 297.015 -132.97 297.015C-133.376 296.214 -137.377 292.693 -138.133 288.256C-139.829 278.332 -135.572 285.85 -135.572 285.85C-135.572 285.85 -133.989 288.464 -128.701 291.785C-123.406 295.223 -119.751 308.091 -116.96 312.988C-114.168 317.885 -114.521 317.907 -106.755 317.529C-98.9818 317.269 -89.1309 305.19 -86.0922 302.872C-83.0536 300.553 -84.2842 297.917 -85.7576 295.178C-87.2309 292.44 -89.897 293.2 -95.1368 292.473C-100.369 291.863 -102.538 285.628 -107.428 282.989C-112.318 280.351 -107.953 280.308 -104.639 280.451C-101.325 280.593 -100.86 282.334 -99.0866 284.227C-97.3057 286.238 -94.6444 287.248 -89.5023 286.447C-84.3526 285.764 -80.816 287.545 -79.5428 288.998C-78.2697 290.451 -74.6606 291.518 -74.6606 291.518C-74.6606 291.518 -65.8443 290.955 -64.7112 292.063C-63.5782 293.171 -63.9631 296.382 -58.1656 296.602C-52.3681 296.822 -48.8183 308.044 -48.8183 308.044C-48.8183 308.044 -46.2412 322.515 -42.0868 324.728C-34.0205 329.052 -37.0479 313.075 -36.8906 309.996C-36.7332 306.918 -28.3349 301.66 -25.3687 300.054C-24.1132 299.383 -23.6156 297.935 -23.5882 296.517C-23.5308 295.569 -24.3713 293.498 -23.711 292.748C-23.1533 292.24 -20.7948 292.208 -20.082 292.28C-18.5388 292.418 -15.7927 291.062 -14.8771 294.308C-13.9615 297.555 -9.46683 301.398 -9.46683 301.398C-8.09113 302.609 -6.40038 303.209 -4.61459 303.449C-3.07138 303.586 -1.23563 302.761 0.227519 303.494C2.301 304.541 1.26329 308.621 1.2584 310.392C1.37858 312.272 1.02858 314.183 1.39132 316.167C1.76164 318.267 3.16738 319.948 3.77275 322.034C4.21556 323.422 4.5333 324.7 4.74099 326.103C4.74099 326.103 10.3867 338.726 17.122 336.997C21.6539 335.881 13.1647 328.634 9.53046 325.325C5.89619 322.016 5.43574 318.505 6.73103 314.763C8.02638 311.021 11.2581 315.418 16.5155 318.269C21.7729 321.12 19.6995 320.072 23.4833 314.637C27.2746 309.319 23.2399 303.44 21.8643 302.229C20.4886 301.019 14.6307 294.311 20.8356 291.672C26.9231 289.041 33.0057 288.18 36.3845 287.492C39.7634 286.804 39.1779 283.182 44.3096 274.828C49.4413 266.474 43.388 256.711 40.7742 252.747C38.0427 248.79 37.4373 246.704 40.7009 242.365C43.9645 238.025 47.8467 245.213 47.8467 245.213C47.8467 245.213 51.7562 250.983 56.8337 256.56C61.9113 262.137 62.4586 254.076 63.1613 252.142C63.8564 250.091 60.6424 247.818 58.7063 245.227C56.7703 242.636 58.4983 238.277 58.8709 236.718C59.2434 235.16 67.5617 230.498 70.1978 229.267C72.8338 228.036 75.3621 223.272 75.8991 213.205C76.4362 203.138 79.4857 213.92 79.4857 213.92C79.4857 213.92 81.273 236.349 81.4183 240.471C81.5636 244.593 81.9114 246.341 77.0596 249.838C72.2077 253.335 71.5749 252.667 68.9088 253.428C66.2427 254.188 65.3624 255.189 65.5404 261.669C65.7184 268.149 68.6669 264.42 68.9219 262.869C69.177 261.318 70.067 256.776 73.4985 256.911C76.93 257.046 82.0894 252.821 85.1131 250.268C88.1367 247.714 86.3205 241.456 85.9701 237.82C85.6197 234.183 85.3346 235.264 88.4935 234.826C91.6523 234.388 90.4618 234.228 90.7443 231.259C91.0267 228.29 89.5935 228.028 86.6473 228.098C83.701 228.168 84.1085 225.309 84.1085 225.309C84.1085 225.309 83.7724 210.813 82.8492 207.449C81.9336 204.203 77.5039 199.529 68.9603 200.665C60.4168 201.801 72.7137 189.212 76.5575 184.717C80.2839 180.23 84.4608 182.796 84.4608 182.796C84.4608 182.796 89.4306 184.839 96.2211 185.822C103.012 186.804 99.4997 181.717 100.097 178.138C100.695 174.559 103.724 175.782 109.489 179.19C115.254 182.599 105.353 190.195 104.195 192.394C103.037 194.592 106.446 199.922 110.253 205.934C114.06 211.947 112.985 204.343 113.297 201.845C113.492 199.354 113.114 197.135 115.462 195.097C117.811 193.058 116.19 189.857 115.867 184.802C115.544 179.748 119.116 180.228 124.64 179.875C130.173 179.639 130.75 177.596 131.991 176.69C133.231 175.785 132.406 173.949 140.567 172.365C148.735 170.899 130.228 150.954 128.72 149.516C127.212 148.078 103.197 150.911 97.3042 151.052C91.4117 151.192 91.4065 147.415 90.1408 146.08C88.8752 144.744 75.6672 146.769 73.1911 146.809C70.715 146.849 67.7984 141.842 65.6675 141.742C63.5365 141.642 62.8489 143.811 60.8532 145.827C58.8575 147.843 58.572 143.376 58.2167 141.51C57.8615 139.644 56.5309 139.139 54.1348 138.584C51.7387 138.029 52.1368 144.259 52.1545 146.383C52.1721 148.506 33.2015 149.01 29.5499 149.125C25.8983 149.24 24.4675 145.319 23.4918 141.132C22.5161 136.945 19.0399 141.653 19.0399 141.653L10.1361 142.694C10.1361 142.694 -4.94036 143.185 -8.89948 144.028C-12.7411 144.864 -9.20749 139.208 -7.2493 136.605C-5.29861 133.883 -15.2956 130.745 -16.5387 129.762C-17.7819 128.78 -25.5751 130.576 -27.2583 130.093C-28.824 129.603 -30.1648 127.092 -30.5824 127.945C-31 128.798 -31.43 131.304 -33.1107 132.71C-34.7913 134.115 -36.467 133.75 -38.7955 134.253C-41.124 134.756 -39.6458 135.724 -47.6693 135.765C-55.6852 135.923 -55.6999 141.235 -57.9806 144.331C-60.3789 147.435 -64.6258 147.471 -66.6166 147.716C-68.6 148.079 -67.6393 152.03 -68.4219 154.559C-69.2046 157.088 -73.3268 151.686 -74.7824 151.07C-76.2456 150.338 -75.4825 154.892 -75.4825 154.892C-75.4825 154.892 -74.7288 168.535 -75.2264 169.984C-75.724 171.432 -80.942 159.962 -81.1147 157.259C-81.1699 154.547 -83.7789 148.813 -84.3167 147.785C-84.7295 146.867 -85.8074 148.47 -87.2003 150.684C-88.5933 152.897 -87.3824 157.069 -87.5473 160.03C-87.7122 162.991 -89.4556 161.568 -94.04 161.861C-98.6245 162.154 -99.3496 163.735 -101.118 165.618C-102.886 167.502 -109.851 167.475 -113.848 167.73C-117.845 167.986 -119.7 170.347 -123.202 172.813C-126.703 175.279 -125.988 171.693 -128.542 168.669C-131.221 165.535 -131.698 170.995 -132.841 173.429C-133.984 175.863 -141.2 170.068 -144.664 167.575C-148.128 165.081 -149.999 167.207 -151.762 167.32C-153.525 167.433 -155.479 168.266 -157.555 165.33C-159.631 162.393 -164.545 163.062 -169.948 161.636C-175.35 160.211 -176.748 164.195 -182.263 166.554C-187.777 168.913 -188.978 172.295 -188.978 172.295C-188.978 172.295 -188.978 172.295 -189.128 175.491C-189.277 178.687 -192.931 182.462 -195.205 185.676C-197.478 188.89 -202.165 189.425 -204.661 191.001C-207.157 192.577 -204.86 200.811 -204.525 204.212C-204.197 207.496 -198.94 204.799 -195.413 204.574C-192.004 204.356 -193.697 207.415 -194.077 208.856C-194.245 209.929 -196.023 209.806 -196.331 210.534C-196.441 210.659 -196.426 210.894 -196.286 211.239C-195.74 212.385 -194.387 213.243 -193.607 214.373C-191.141 217.874 -189.75 213.773 -189.75 213.773C-189.75 213.773 -186.627 209.088 -183.871 204.191C-181.43 199.904 -186.57 197.045 -183.879 192.978C-181.621 189.529 -178.752 186.395 -175.846 183.849C-170.819 179.397 -169.839 181.812 -168.16 184.066C-166.482 186.319 -175.441 190.196 -177.644 196.357C-179.847 202.517 -171.286 197.957 -173.424 203.287C-177.602 215.475 -178.87 217.799 -183.512 219.039ZM-112.693 158.096C-110.965 159.284 -109.127 160.347 -107.178 161.284C-106.568 161.6 -103.759 163.073 -104.585 161.237C-105.137 159.974 -106.278 158.748 -107.168 157.743C-108.949 155.732 -108.804 154.307 -108.985 151.485C-109.165 148.664 -103.673 145.953 -103.673 145.953C-84.8928 135.074 -102.65 141.638 -105.449 142.171C-108.137 142.579 -110.818 143.104 -112.199 143.665C-113.58 144.225 -116.513 148.189 -117.838 151.461C-118.249 152.431 -117.938 153.592 -117.526 154.51C-117.128 155.193 -116.62 155.75 -115.885 156.175C-114.782 156.813 -113.561 157.443 -112.693 158.096ZM-106.838 390.123C-108.291 391.396 -107.705 395.018 -107.425 401.255C-107.312 403.019 -104.283 415.336 -101.622 410.799C-101.629 410.682 -98.1106 404.791 -98.1959 401.61C-98.2887 398.311 -95.7953 394.847 -94.8801 392.546C-93.9648 390.245 -94.7404 387.344 -97.2818 382.667C-99.8232 377.99 -101.891 386.266 -101.891 386.266C-102.514 387.604 -105.385 388.85 -106.838 390.123ZM10.1997 346.882C11.9656 348.657 13.7389 350.551 15.5048 352.326C16.3877 353.214 17.2707 354.102 18.1537 354.99C19.1542 355.87 20.3898 356.735 20.9351 357.881C21.4804 359.026 21.4679 360.679 22.4684 361.56C23.3438 362.33 24.6369 362.247 25.6874 362.062C30.2643 361.652 34.8638 361.594 39.5658 361.293C66.6023 359.566 46.0284 358.992 44.8379 358.832C43.6474 358.672 41.2164 359.418 38.8778 357.915C36.5391 356.412 26.4599 357.528 26.4599 357.528C26.4599 357.528 22.9409 357.871 23.2233 354.902C23.5057 351.933 22.1102 352.258 17.1701 345.138C12.23 338.018 12.7956 343.175 5.2844 336.455C-2.22677 329.735 2.58826 336.745 4.1791 339.476C5.76994 342.207 9.17667 345.649 9.17667 345.649C9.44183 346.104 9.82454 346.552 10.1997 346.882ZM49.0615 347.349C48.6889 348.908 48.7791 350.318 50.5799 350.793C53.9313 351.523 53.276 350.503 56.4322 348.177C56.9974 347.786 58.6931 346.616 58.523 345.801C58.3604 345.103 56.8322 345.2 56.2219 344.885C55.6041 344.453 54.9788 343.902 54.2735 343.948C53.3256 343.89 52.3852 343.95 51.4523 344.128C50.2843 344.32 49.7191 344.711 49.4265 345.674C49.2215 346.159 49.1415 346.754 49.0615 347.349ZM38.5094 346.607C39.5674 346.54 40.7428 346.464 41.7707 345.927C42.6886 345.514 43.2238 344.654 43.8915 344.021C45.117 342.88 45.277 341.69 45.4369 340.499C45.9395 337.28 45.4865 333.886 45.2837 330.712C44.9232 325.07 44.168 326.181 43.0773 323.89C42.5245 322.627 38.6255 324.41 37.0624 325.808C35.4993 327.207 36.5824 329.38 36.57 331.033C36.7052 333.149 34.6118 333.637 33.2688 334.785C31.5882 336.191 30.0326 337.706 28.477 339.222C26.4738 341.121 28.5923 342.874 29.6529 344.694C29.9181 345.15 30.3083 345.715 30.801 346.037C31.6689 346.69 32.7344 346.74 33.6823 346.798C33.7999 346.79 33.7999 346.79 33.9174 346.783C35.4531 346.802 36.9812 346.705 38.5094 346.607ZM55.775 319.419C56.7105 321.13 57.9987 322.818 59.1618 324.396C59.8097 325.299 61.2003 326.745 62.3158 325.729C63.7688 324.456 63.2884 322.48 63.1908 320.952C62.9654 317.426 62.9876 312.231 61.4193 309.852C59.7334 307.481 56.8221 306.251 54.9086 304.013C53.3853 302.34 52.2248 302.65 50.041 296.18C47.7396 289.717 48.8531 297.908 48.7633 302.045C48.6735 306.182 52.6455 309.233 52.6455 309.233C55.5444 312.116 54.0215 315.99 55.775 319.419ZM86.6553 350.141C88.0735 350.168 89.3966 350.556 90.4121 351.671C91.6778 353.006 92.1355 354.63 93.1736 356.098C93.8289 357.118 94.8594 358.469 96.365 358.018C97.7456 357.458 99.0661 355.957 100.339 357.41C102.12 359.421 102.883 358.428 102.883 358.428C103.331 358.045 106.832 355.579 108.685 356.877C119.445 364.57 114.698 358.617 111.902 355.491C109.105 352.365 102.214 347.966 99.0879 345.215C95.9613 342.464 90.1316 345.433 86.8101 345.173C83.4887 344.913 84.3588 341.907 82.4678 340.021C80.5769 338.136 73.6592 340.702 71.9609 339.985C70.2626 339.267 69.4172 338.967 69.2745 336.733C69.2519 336.381 68.3589 333.487 67.6036 334.598C67.281 335.09 67.5987 336.368 67.6363 336.956C67.6964 337.897 67.7565 338.837 67.9341 339.77C68.4294 341.981 70.1326 340.928 73.184 342.503C76.2279 343.961 77.4737 346.832 78.2192 349.263C78.817 351.232 81.2781 350.956 83.1438 350.601C84.3118 350.408 85.4799 350.216 86.6553 350.141ZM108.223 436.459C107.628 436.379 106.445 436.336 106.255 437.057C106.065 437.777 107.41 438.517 107.448 439.105C107.508 440.045 107.46 442.999 110.297 443.054C113.015 443.116 113.38 441.441 113.795 438.699C113.883 438.222 113.853 437.751 113.588 437.296C113.198 436.731 112.367 436.666 111.779 436.704C111.184 436.624 110.596 436.661 109.884 436.589C109.288 436.509 108.818 436.539 108.223 436.459ZM71.9379 371.028C68.7866 371.583 65.9755 373.77 63.3695 375.47C61.6663 376.524 59.8607 377.819 59.1655 379.87C58.5653 381.561 58.8632 384.375 58.7407 386.153C58.5233 388.291 52.8782 386.764 50.7849 387.251C48.6915 387.739 49.532 389.81 48.8717 390.56C48.094 391.318 45.1026 390.683 42.6641 391.311C39.7629 392.087 41.504 397.169 41.3966 399.182C41.2892 401.196 40.7116 403.239 40.3691 405.267C39.669 409.089 41.8799 408.594 43.8208 409.414C45.7617 410.234 44.344 415.754 44.8844 418.67C45.4098 421.351 49.1015 423.712 51.3951 424.51C52.9683 425.118 54.8266 424.645 56.4723 424.54C58.3531 424.419 60.2414 424.417 61.9747 423.834C63.7079 423.251 64.9107 421.758 66.3713 420.602C68.6096 418.689 71.1431 417.701 74.0969 417.748C77.1683 417.788 80.1296 417.953 83.1933 417.875C84.8391 417.77 87.6227 417.002 88.2281 419.088C88.6784 420.593 88.5484 422.254 88.9987 423.76C89.9143 427.006 92.0726 425.688 94.7763 425.515C97.4799 425.342 97.7327 427.451 98.5657 429.404C99.959 432.738 102.413 432.345 105.469 432.15C107.585 432.014 109.701 431.879 111.809 431.626C115.431 431.041 117.431 427.254 117.431 427.254C117.431 427.254 121.725 418.718 123.866 415.276C126.006 411.834 126.474 404.369 126.106 398.609C125.738 392.849 117.226 385.249 117.226 385.249C117.226 385.249 105.68 372.649 103.672 370.771C101.663 368.893 102.681 366.349 101.833 364.161C101.102 361.965 99.572 365.721 97.6112 366.437C95.6504 367.152 97.2191 375.078 97.2942 376.254C97.3693 377.429 94.8857 377.352 93.4875 375.789C92.0893 374.226 91.289 374.631 89.3406 373.693C87.3921 372.755 86.089 370.832 85.6511 367.673C85.3307 364.507 82.1069 365.775 78.3378 365.898C74.5687 366.021 76.172 367.099 75.5944 369.142C75.2068 370.465 73.8037 370.673 72.6357 370.865C72.283 370.888 72.0554 371.02 71.9379 371.028ZM157.797 442.025L157.687 442.15C156.492 443.761 152.943 449.181 155.316 449.384C157.572 449.594 160.476 450.706 161.789 449.088C163.087 447.235 162.527 445.854 166.654 443.938C168.717 442.98 170.067 436.402 170.067 436.402C170.067 436.402 169.211 434.096 167.711 432.776C166.468 431.793 163.902 435.97 162.911 437.095C161.253 438.854 159.22 440.282 157.797 442.025ZM175.957 428.826C176.622 426.305 178.475 427.603 178.362 425.84C178.25 424.076 172.875 421.233 171.014 419.817C167.3 417.104 170.989 423.124 170.271 424.822C169.334 426.771 169.216 426.778 170.182 428.959C170.454 429.532 171.222 432.315 171.825 432.513C175.309 433.471 175.299 431.465 175.957 428.826Z"/>
</mask>
<path d="M-439.486 165.994C-441.074 165.151 -442.655 164.426 -444.441 164.186C-446.814 163.983 -449.503 164.391 -451.812 163.358C-453.392 162.633 -456.719 158.597 -452.935 158.709C-450.334 158.779 -445.287 158.338 -443.651 156.227C-439.507 150.887 -432.738 162.612 -427.766 160.996C-425.108 160.118 -424.745 156.554 -421.819 158.019C-419.988 158.964 -418.002 160.49 -416.604 162.053C-414.573 164.284 -415.783 165.659 -418.457 166.302C-420.903 166.813 -423.387 166.735 -425.973 166.901C-428.324 167.051 -430.66 167.436 -432.996 167.821C-435.332 168.207 -437.413 167.041 -439.486 165.994ZM-413.441 148.749C-413.441 148.749 -411.802 154.074 -409.877 154.659C-408.068 155.252 -407.068 156.132 -406.05 153.588C-405.025 151.162 -407.796 150.277 -409.914 148.524C-412.033 146.771 -415.5 142.389 -413.441 148.749ZM-419.994 181.036C-423.508 179.608 -422.005 177.27 -423.429 173.466C-424.852 169.662 -427.073 173.699 -430.249 177.56C-433.425 181.422 -437.262 174.94 -439.138 173.289C-441.014 171.639 -439.391 171.181 -448.495 170.936C-457.489 170.567 -456.798 170.287 -460.502 175.126C-464.206 179.966 -456.875 178.318 -451.665 178.575C-446.456 178.832 -446.143 181.881 -446.41 185.085C-446.678 188.289 -456.297 187.369 -465.298 186.882C-474.3 186.395 -473.349 188.34 -477.806 190.632C-482.263 192.923 -492.24 188.249 -496.319 187.211C-500.398 186.174 -527.565 189.562 -531.562 189.817C-535.558 190.073 -537.597 193.272 -540.563 194.878C-543.529 196.484 -541.883 201.926 -541.835 204.519C-541.787 207.113 -547.815 205.138 -550.871 205.333C-553.928 205.528 -552.992 207.239 -553.085 209.487C-553.177 211.736 -551.869 211.888 -548.24 211.42C-544.611 210.952 -543.045 211.443 -542.77 213.904C-542.495 216.365 -547.397 215.379 -550.336 215.567C-553.274 215.755 -551.768 220.852 -550.903 225.164C-550.037 229.476 -547.261 228.59 -545.54 229.661C-543.819 230.731 -541.363 232.226 -554.858 238.99C-568.354 245.754 -555.118 242.312 -552.827 241.221C-550.537 240.13 -540.395 236.296 -537.339 236.1C-534.282 235.905 -529.806 232.078 -526.137 228.539C-522.468 224.999 -510.263 225.754 -501.556 225.316C-492.85 224.877 -484.11 243.44 -479.691 246.108C-475.271 248.777 -473.276 272.609 -472.943 279.67C-472.61 286.73 -467.13 291.219 -464.636 293.303C-462.142 295.386 -455.564 307.831 -448.668 316.006C-441.764 324.299 -445.401 313.555 -447.598 308.738C-449.801 303.804 -445.864 308.155 -445.864 308.155C-445.864 308.155 -433.753 320.365 -431.137 326.217C-428.52 332.069 -418.558 336.508 -412.063 336.565C-405.568 336.622 -405.573 338.393 -405.573 338.393C-405.573 338.393 -405.767 340.884 -397.949 341.329C-390.248 341.781 -391.158 347.859 -387.834 350.007C-384.51 352.155 -379.415 354.308 -375.066 354.03C-370.716 353.752 -372.275 353.38 -371.242 356.619C-370.208 359.857 -372.979 364.52 -375.062 367.013C-377.146 369.507 -377.035 374.929 -376.63 381.277C-376.224 387.625 -373.673 388.76 -373.673 388.76C-373.673 388.76 -358.875 409.768 -355.574 411.564C-352.272 413.359 -352.472 417.621 -352.472 417.621C-352.472 417.621 -350.414 449.83 -350.374 452.306C-350.334 454.782 -350.569 454.797 -352.497 457.871C-354.425 460.945 -353.659 467.388 -353.659 467.388C-353.659 467.388 -352.187 495.975 -352.051 498.091C-351.916 500.207 -348.452 502.7 -337.387 507.777C-326.322 512.853 -334.628 504.768 -335.932 502.844C-337.235 500.921 -336.742 495.696 -336.99 491.817C-337.238 487.938 -334.074 485.729 -332.932 483.296C-331.789 480.862 -333.077 479.174 -333.34 475.06C-333.603 470.945 -329.153 468.537 -329.153 468.537C-329.153 468.537 -305.635 441.303 -303.787 438.825C-301.939 436.346 -301.879 431.739 -302.279 429.168C-302.68 426.597 -295.402 418.578 -291.256 415.126C-287.109 411.674 -284.271 402.523 -284.164 400.509C-284.056 398.496 -284.232 393.904 -281.436 391.483C-278.639 389.062 -279.065 384.249 -278.212 379.12C-277.36 373.99 -286.801 374.003 -292.677 370.72C-298.552 367.436 -307.553 366.949 -308.259 366.994C-308.964 367.039 -312.931 367.765 -312.883 364.811C-312.836 361.857 -315.628 356.96 -317.196 354.582C-318.764 352.203 -320.99 352.464 -323.694 352.636C-326.397 352.809 -335.114 345.694 -338.791 343.568C-342.468 341.443 -349.518 343.782 -354.303 342.789C-359.087 341.796 -356.736 341.646 -361.043 340.741C-365.35 339.836 -366.973 345.841 -368.934 346.557C-370.895 347.272 -377.375 347.45 -379.748 347.248C-382.122 347.045 -384.148 343.044 -384.976 339.32C-385.804 335.596 -387.202 334.032 -390.489 332.472C-393.775 330.912 -394.501 326.945 -394.329 324.101C-394.156 321.257 -396.17 321.15 -398.528 321.183C-400.887 321.215 -400.709 322.148 -401.169 324.184C-401.629 326.22 -403.45 327.281 -408.557 326.781C-413.672 326.163 -416.171 320.304 -417.066 315.522C-417.962 310.74 -418.017 308.028 -414.906 304.997C-411.795 301.965 -410.757 303.433 -406.245 303.853C-401.733 304.273 -398.835 301.609 -396.091 298.365C-393.348 295.121 -389.491 300.068 -389.491 300.068C-389.491 300.068 -389.491 300.068 -384.19 307.283C-378.89 314.499 -379.966 306.895 -381.607 299.682C-383.248 292.469 -362.276 267.877 -359.077 264.368C-355.879 260.859 -356.141 262.292 -350.294 261.446C-344.446 260.601 -342.596 254.463 -339.345 251.776C-336.094 249.09 -343.962 249.711 -347.609 248.055C-351.255 246.4 -345.408 245.554 -343.359 244.361C-341.311 243.168 -336.882 242.295 -330.982 242.272C-325.082 242.249 -340.98 222.491 -343.599 220.298C-346.217 218.105 -345.737 214.533 -347.131 211.199C-348.524 207.866 -352.16 213.763 -354.866 217.595C-357.572 221.427 -357.687 217.775 -357.36 215.512C-357.032 213.248 -359.534 211.048 -360.787 208.059C-362.04 205.07 -369.503 206.491 -372.214 206.547C-374.926 206.602 -374.44 206.807 -374.97 211.444C-375.5 216.081 -374.019 218.937 -372.926 223.116C-371.833 227.295 -376.167 233.356 -378.683 236.467C-381.199 239.579 -382.129 236.097 -382.435 233.166C-382.74 230.235 -384.12 230.795 -387.442 230.535C-390.763 230.276 -391.006 230.173 -392.494 227.199C-393.983 224.226 -398.497 221.917 -402.626 221.945C-406.756 221.973 -405.921 214.72 -406.006 211.538C-406.099 208.24 -399.994 207.731 -398.033 207.016C-396.072 206.301 -392.916 203.974 -389.384 207.526C-385.86 210.959 -382.919 207.113 -382.919 207.113C-382.919 207.113 -378.112 202.91 -378.262 200.559C-378.413 198.208 -379.426 198.981 -382.599 199.184C-385.773 199.387 -386.243 199.417 -386.416 196.713C-386.589 194.01 -386.604 193.775 -380.969 193.296C-375.334 192.818 -378.251 187.811 -375.705 185.17C-373.159 182.529 -370.453 184.244 -370.6 189.329C-370.747 194.414 -365.117 190.159 -361.743 191.242C-358.369 192.325 -359.792 194.068 -362.576 194.836C-365.36 195.604 -363.419 196.424 -362.401 199.428C-361.383 202.432 -361.788 201.631 -352.809 201.766C-343.83 201.9 -351.764 197.804 -352.411 196.901C-353.059 195.998 -355.913 193.82 -347.772 193.772C-339.631 193.724 -345.106 187.464 -345.106 187.464C-345.106 187.464 -351.372 178.068 -357.995 176.012C-364.618 173.957 -362.848 173.962 -366.527 169.948C-370.206 165.934 -383.127 168.766 -387.021 168.779C-390.915 168.792 -390.515 171.363 -392.355 173.959C-394.078 176.548 -389.219 178.716 -388.245 186.562C-387.272 194.407 -392.887 187.802 -392.887 187.802C-392.887 187.802 -395.926 184.574 -397.414 181.6C-398.903 178.626 -399.478 177.011 -397.74 174.657C-396.002 172.303 -395.337 169.782 -399.531 165.093C-403.726 160.404 -407.02 158.726 -408.681 158.596C-410.342 158.466 -409.661 161.727 -409.246 164.533C-408.83 167.34 -407.215 166.764 -405.111 168.282C-403.125 169.808 -403.753 172.917 -404.02 176.121C-404.288 179.324 -404.548 177.099 -407.794 172.467C-411.041 167.835 -412.757 170.541 -415.133 173.998C-417.508 177.455 -410.328 179.002 -409.717 184.865C-409.106 190.727 -412.706 186.118 -412.706 186.118C-412.706 186.118 -416.48 182.464 -419.994 181.036ZM-519.717 301.307C-519.717 301.307 -516.312 313.955 -513.058 313.157C-506.55 311.561 -511.758 307.644 -517.953 301.195C-518.469 300.519 -520.61 298.413 -519.717 301.307ZM-376.706 320.969C-375.986 321.159 -375.273 321.231 -374.663 321.546C-373.685 322.074 -372.912 323.087 -371.831 323.372C-370.383 323.87 -367.652 322.279 -366.264 321.836C-360.359 320.042 -376.677 315.891 -379.543 315.366C-382.409 314.841 -383.27 314.306 -389.437 317.533C-395.604 320.76 -383.834 320.244 -383.834 320.244C-381.343 320.439 -378.977 320.524 -376.706 320.969ZM-362.257 323.586C-362.212 324.292 -362.167 324.997 -362.042 325.107C-361.372 326.362 -359.756 325.787 -358.581 325.712C-357.523 325.644 -350.962 324.871 -354.094 323.891C-356.02 323.306 -358.101 322.14 -360.262 321.57C-363.386 320.708 -362.347 322.176 -362.257 323.586ZM-399.947 156.739C-398.879 158.678 -397.491 158.235 -396.278 158.748C-395.065 159.26 -394.622 160.648 -394.052 164.035C-393.481 167.421 -382.749 165.437 -375.351 164.846C-367.953 164.256 -373.02 160.684 -382.409 161.52C-386.516 161.901 -387.031 161.226 -388.35 159.067C-389.668 156.909 -391.556 156.911 -394.327 156.026C-397.099 155.141 -396.954 153.715 -399.712 151.177C-403.472 147.758 -401.133 154.809 -401.133 154.809C-401.133 154.809 -401.015 154.801 -399.947 156.739ZM-370.417 157.095C-365.127 156.757 -362.346 148.553 -362.194 147.245C-362.042 145.937 -359.01 143.501 -354.779 143.231C-350.547 142.96 -348.313 142.818 -346.575 140.464C-344.837 138.11 -346.768 139.296 -340.753 137.377C-334.738 135.458 -334.976 133.585 -335.243 131.242C-335.511 128.898 -345.378 129.647 -348.074 129.937C-350.77 130.227 -350.43 131.858 -353.249 133.927C-356.067 135.995 -373.93 135.366 -379.58 135.609C-380.168 135.647 -380.755 135.684 -381.21 135.949C-380.438 136.962 -377.954 137.039 -376.866 137.442C-375.3 137.932 -374.402 139.055 -373.057 139.795C-371.719 140.418 -370.183 140.438 -368.765 140.465C-353.856 141.047 -365.176 143.069 -366.344 143.261C-367.512 143.454 -369.437 142.869 -369.595 145.948C-369.752 149.027 -373.729 147.746 -375.72 147.992C-377.711 148.237 -377.028 147.839 -377.268 144.077C-377.509 140.316 -386.162 141.577 -389.916 141.935C-393.67 142.293 -391.939 145.369 -391.942 149.028C-391.944 152.687 -391.011 152.51 -387.109 152.614C-383.325 152.727 -384.558 153.75 -383.945 155.953C-383.332 158.156 -377.477 157.428 -377.477 157.428C-377.477 157.428 -375.707 157.433 -370.417 157.095ZM-328.898 134.495C-328.898 134.495 -332.367 133.773 -333.973 136.354C-335.578 138.935 -333.682 139.05 -337.789 139.43C-341.896 139.811 -341.646 140.031 -342.428 142.56C-343.211 145.088 -345.059 147.567 -347.998 147.755C-350.937 147.942 -355.706 147.185 -355.093 149.388C-354.473 151.709 -350.093 157.449 -348.087 157.439C-346.081 157.429 -329.392 154.474 -327.201 161.061C-325.002 167.767 -327.102 179.232 -323.808 180.91C-320.514 182.588 -321.782 184.911 -322.802 185.567C-323.822 186.222 -325.551 185.034 -325.333 188.443C-325.115 191.852 -324.155 190.256 -322.094 192.957C-320.033 195.658 -319.16 194.54 -318.889 198.772C-318.619 203.004 -318.984 204.68 -315.78 204.947C-312.576 205.215 -309.707 207.628 -309.14 209.126C-308.572 210.624 -305.488 209.011 -304.785 207.077C-304.083 205.144 -295.175 191.237 -292.251 190.814C-289.327 190.392 -284.25 190.421 -284.298 187.828C-284.345 185.234 -286.231 181.578 -282.595 181.227C-278.958 180.877 -272.015 180.551 -269.177 176.947C-266.338 173.343 -260.224 169.293 -266.161 168.728C-268.895 168.431 -271.514 166.238 -270.283 163.326C-270.188 162.966 -266.052 163.056 -265.471 162.901C-264.076 162.575 -262.225 161.985 -261.492 160.522C-260.357 157.971 -259.222 155.42 -257.969 152.861C-256.803 150.78 -252.849 146.16 -258.199 145.558C-259.868 145.31 -260.811 143.482 -258.587 141.333C-258.587 141.333 -255.564 133.232 -252.038 133.007C-250.98 132.939 -241.018 131.831 -242.534 130.275C-243.542 129.277 -243.542 129.277 -250.625 129.258C-251.573 129.2 -252.213 128.415 -253.058 128.115C-254.256 127.837 -255.777 128.053 -256.952 128.128C-263.278 128.886 -261.154 128.868 -264.001 126.808C-266.847 124.747 -269.433 124.912 -280.828 125.758C-292.34 126.612 -296.765 125.714 -299.428 128.363C-302.092 131.012 -300.701 132.457 -306.696 132.84C-312.691 133.224 -328.898 134.495 -328.898 134.495ZM-263.468 192.398C-263.446 192.751 -263.416 193.221 -263.393 193.574C-263.333 194.514 -263.221 196.277 -261.928 196.195C-260.047 196.075 -258.173 195.837 -256.3 195.599C-255.367 195.422 -254.279 195.824 -253.612 195.191C-252.041 193.911 -251.433 192.337 -249.222 191.842C-248.289 191.664 -245.673 191.969 -245.646 190.551C-245.683 189.964 -246.764 184.131 -247.75 183.486C-250.213 181.873 -255.873 185.657 -259.87 185.913C-261.28 186.003 -262.721 185.623 -264.234 185.956C-265.512 186.273 -264.944 187.771 -264.649 188.697C-263.971 190.07 -263.669 191.113 -263.468 192.398ZM-231.103 218.657C-231.103 218.657 -235.587 222.367 -235.524 225.196C-235.469 227.907 -235.969 233.014 -232.813 230.688C-229.539 228.354 -227.371 223.494 -227.371 223.494C-227.371 223.494 -227.149 214.038 -231.103 218.657ZM-223.757 217.244C-223.087 218.499 -222.754 220.012 -222.311 221.401C-221.558 223.949 -222.944 226.28 -224.234 228.251C-225.422 229.979 -227.05 232.208 -224.594 233.703C-221.285 235.617 -217.376 230.292 -214.573 227.988C-212.327 226.192 -213.69 223.328 -215.221 221.538C-217.149 219.064 -219.408 216.966 -220.654 214.095C-221.774 211.334 -223.9 209.463 -225.814 207.225C-227.212 205.662 -228.93 206.48 -229.44 209.581C-229.855 212.322 -227.884 213.613 -226.148 214.918C-225.163 215.563 -224.288 216.333 -223.757 217.244ZM-183.512 219.039C-187.809 220.14 -190.1 221.231 -194.399 220.443C-196.788 220.006 -196.143 213.473 -198.642 213.16C-199.48 212.978 -200.825 212.238 -201.36 213.098C-201.683 213.591 -201.365 214.869 -201.328 215.457C-201.135 216.625 -200.242 219.518 -201.99 219.866C-204.319 220.369 -203.358 218.773 -204.453 223.8C-205.549 228.828 -210.468 231.266 -212.054 232.312C-213.639 233.358 -216.075 235.874 -220.072 236.129C-224.076 236.267 -224.581 237.598 -221.265 239.628C-218.683 241.234 -218.166 243.797 -217.75 246.604C-217.75 246.604 -217.75 246.604 -217.743 246.721C-217.55 247.889 -216.699 251.966 -218.44 252.431C-220.533 252.919 -227.609 253.017 -230.548 253.205C-233.487 253.393 -232.018 257.902 -231.955 260.731C-231.893 263.559 -231.127 264.455 -230.172 264.63C-229.209 264.922 -226.908 265.837 -225.567 268.348C-224.226 270.859 -220.43 269.319 -216.418 269.298C-212.406 269.278 -213.412 264.621 -212.937 262.82C-212.462 261.019 -213.94 260.052 -209.951 259.679C-206.079 259.313 -204.834 256.637 -204.552 253.668C-204.277 250.582 -201.158 253.215 -197.436 250.499C-193.715 247.783 -187.136 254.68 -184.305 256.506C-182.952 257.363 -179.37 259.849 -179.56 260.57C-180.278 262.268 -186.636 260.668 -184.537 263.956C-181.768 268.501 -179.317 266.219 -175.974 261.285C-172.505 256.46 -181.459 253.019 -183.187 251.831C-184.923 250.526 -189.085 248.195 -186.482 244.606C-183.871 241.134 -176.777 248.707 -176.777 248.707C-173.688 250.87 -168.941 256.822 -167.2 261.904C-165.349 266.861 -164.731 267.294 -160.124 267.354C-155.517 267.413 -159.427 261.644 -160.282 259.338C-161.248 257.157 -161.285 256.569 -158.339 256.499C-155.393 256.429 -153.496 262.091 -151.716 264.102C-149.935 266.113 -144.077 267.273 -141.786 266.182C-139.378 265.084 -138.732 264.098 -135.731 266.739C-132.73 269.38 -138.752 276.729 -140.727 277.209C-142.703 277.69 -146.197 280.273 -151.057 278.105C-155.924 275.82 -156.717 276.342 -162.067 275.74C-167.417 275.138 -166.421 277.789 -167.511 281.045C-168.602 284.302 -171.338 282.116 -172.603 280.78C-173.869 279.445 -183.926 275.366 -187.618 273.005C-191.31 270.645 -190.887 268.021 -192.345 265.518C-193.804 263.014 -197.768 265.628 -198.421 266.496C-199.073 267.364 -202.475 267.699 -205.649 267.902C-208.822 268.105 -210.035 267.592 -211.759 270.181C-213.482 272.77 -213.454 271.351 -216.83 273.928C-220.207 276.504 -223.786 275.907 -228.913 276.942C-234.04 277.978 -231.881 287.755 -231.768 289.518C-231.656 291.281 -232.351 293.332 -234.497 292.997C-236.643 292.662 -239.611 303.475 -241.937 305.866C-244.263 308.257 -242.416 314.985 -242.149 317.328C-241.881 319.672 -243.759 321.68 -245.022 322.233C-246.285 322.786 -244.136 330.557 -244.949 332.615C-245.761 334.673 -238.861 335.531 -238.861 335.531C-238.221 336.316 -233.656 337.559 -230.439 341.72C-226.45 346.895 -222.946 346.317 -222.946 346.317C-222.946 346.317 -198.856 344.66 -193.331 344.307C-190.98 344.156 -188.694 344.836 -187.045 346.62C-185.515 348.41 -183.909 351.376 -185.059 353.693C-186.099 355.884 -186.447 359.683 -184.556 361.568C-183.548 362.566 -181.975 363.174 -180.746 363.922C-176.842 365.915 -174.926 375.589 -174.603 380.643C-174.392 383.935 -174.527 387.366 -175.257 390.718C-175.425 391.791 -175.71 392.871 -176.355 393.857C-177.205 395.327 -177.505 396.173 -177.283 397.811C-177.117 400.397 -177.407 403.248 -174.519 404.126C-172.71 404.719 -169.488 412.657 -169.488 412.657C-169.488 412.657 -161.321 431.492 -160.11 435.664C-158.9 439.835 -156.916 439.473 -155.623 439.39C-154.33 439.307 -152.904 439.452 -152.664 437.667C-152.417 435.998 -150.866 436.253 -150.866 436.253C-150.866 436.253 -149.441 436.398 -143.343 435.773C-137.128 435.139 -133.284 425.097 -131.854 423.472C-130.423 421.846 -130.336 421.368 -130.649 418.319C-131.087 415.16 -130.514 414.888 -127.473 414.457C-124.314 414.02 -124.949 411.463 -125.222 405.343C-125.495 399.223 -122.559 397.147 -118.59 392.763C-114.621 388.378 -118.619 371.991 -119.4 365.313C-120.181 358.635 -116.034 355.184 -116.034 355.184C-116.034 355.184 -102.927 333.101 -98.0057 327.003C-93.084 320.905 -101.575 322.864 -101.575 322.864C-101.575 322.864 -109.436 323.602 -113.11 323.365C-116.777 323.245 -121.144 315.852 -123.035 313.966C-124.926 312.081 -129.265 308.817 -130.234 304.748C-131.202 300.679 -132.97 297.015 -132.97 297.015C-133.376 296.214 -137.377 292.693 -138.133 288.256C-139.829 278.332 -135.572 285.85 -135.572 285.85C-135.572 285.85 -133.989 288.464 -128.701 291.785C-123.406 295.223 -119.751 308.091 -116.96 312.988C-114.168 317.885 -114.521 317.907 -106.755 317.529C-98.9818 317.269 -89.1309 305.19 -86.0922 302.872C-83.0536 300.553 -84.2842 297.917 -85.7576 295.178C-87.2309 292.44 -89.897 293.2 -95.1368 292.473C-100.369 291.863 -102.538 285.628 -107.428 282.989C-112.318 280.351 -107.953 280.308 -104.639 280.451C-101.325 280.593 -100.86 282.334 -99.0866 284.227C-97.3057 286.238 -94.6444 287.248 -89.5023 286.447C-84.3526 285.764 -80.816 287.545 -79.5428 288.998C-78.2697 290.451 -74.6606 291.518 -74.6606 291.518C-74.6606 291.518 -65.8443 290.955 -64.7112 292.063C-63.5782 293.171 -63.9631 296.382 -58.1656 296.602C-52.3681 296.822 -48.8183 308.044 -48.8183 308.044C-48.8183 308.044 -46.2412 322.515 -42.0868 324.728C-34.0205 329.052 -37.0479 313.075 -36.8906 309.996C-36.7332 306.918 -28.3349 301.66 -25.3687 300.054C-24.1132 299.383 -23.6156 297.935 -23.5882 296.517C-23.5308 295.569 -24.3713 293.498 -23.711 292.748C-23.1533 292.24 -20.7948 292.208 -20.082 292.28C-18.5388 292.418 -15.7927 291.062 -14.8771 294.308C-13.9615 297.555 -9.46683 301.398 -9.46683 301.398C-8.09113 302.609 -6.40038 303.209 -4.61459 303.449C-3.07138 303.586 -1.23563 302.761 0.227519 303.494C2.301 304.541 1.26329 308.621 1.2584 310.392C1.37858 312.272 1.02858 314.183 1.39132 316.167C1.76164 318.267 3.16738 319.948 3.77275 322.034C4.21556 323.422 4.5333 324.7 4.74099 326.103C4.74099 326.103 10.3867 338.726 17.122 336.997C21.6539 335.881 13.1647 328.634 9.53046 325.325C5.89619 322.016 5.43574 318.505 6.73103 314.763C8.02638 311.021 11.2581 315.418 16.5155 318.269C21.7729 321.12 19.6995 320.072 23.4833 314.637C27.2746 309.319 23.2399 303.44 21.8643 302.229C20.4886 301.019 14.6307 294.311 20.8356 291.672C26.9231 289.041 33.0057 288.18 36.3845 287.492C39.7634 286.804 39.1779 283.182 44.3096 274.828C49.4413 266.474 43.388 256.711 40.7742 252.747C38.0427 248.79 37.4373 246.704 40.7009 242.365C43.9645 238.025 47.8467 245.213 47.8467 245.213C47.8467 245.213 51.7562 250.983 56.8337 256.56C61.9113 262.137 62.4586 254.076 63.1613 252.142C63.8564 250.091 60.6424 247.818 58.7063 245.227C56.7703 242.636 58.4983 238.277 58.8709 236.718C59.2434 235.16 67.5617 230.498 70.1978 229.267C72.8338 228.036 75.3621 223.272 75.8991 213.205C76.4362 203.138 79.4857 213.92 79.4857 213.92C79.4857 213.92 81.273 236.349 81.4183 240.471C81.5636 244.593 81.9114 246.341 77.0596 249.838C72.2077 253.335 71.5749 252.667 68.9088 253.428C66.2427 254.188 65.3624 255.189 65.5404 261.669C65.7184 268.149 68.6669 264.42 68.9219 262.869C69.177 261.318 70.067 256.776 73.4985 256.911C76.93 257.046 82.0894 252.821 85.1131 250.268C88.1367 247.714 86.3205 241.456 85.9701 237.82C85.6197 234.183 85.3346 235.264 88.4935 234.826C91.6523 234.388 90.4618 234.228 90.7443 231.259C91.0267 228.29 89.5935 228.028 86.6473 228.098C83.701 228.168 84.1085 225.309 84.1085 225.309C84.1085 225.309 83.7724 210.813 82.8492 207.449C81.9336 204.203 77.5039 199.529 68.9603 200.665C60.4168 201.801 72.7137 189.212 76.5575 184.717C80.2839 180.23 84.4608 182.796 84.4608 182.796C84.4608 182.796 89.4306 184.839 96.2211 185.822C103.012 186.804 99.4997 181.717 100.097 178.138C100.695 174.559 103.724 175.782 109.489 179.19C115.254 182.599 105.353 190.195 104.195 192.394C103.037 194.592 106.446 199.922 110.253 205.934C114.06 211.947 112.985 204.343 113.297 201.845C113.492 199.354 113.114 197.135 115.462 195.097C117.811 193.058 116.19 189.857 115.867 184.802C115.544 179.748 119.116 180.228 124.64 179.875C130.173 179.639 130.75 177.596 131.991 176.69C133.231 175.785 132.406 173.949 140.567 172.365C148.735 170.899 130.228 150.954 128.72 149.516C127.212 148.078 103.197 150.911 97.3042 151.052C91.4117 151.192 91.4065 147.415 90.1408 146.08C88.8752 144.744 75.6672 146.769 73.1911 146.809C70.715 146.849 67.7984 141.842 65.6675 141.742C63.5365 141.642 62.8489 143.811 60.8532 145.827C58.8575 147.843 58.572 143.376 58.2167 141.51C57.8615 139.644 56.5309 139.139 54.1348 138.584C51.7387 138.029 52.1368 144.259 52.1545 146.383C52.1721 148.506 33.2015 149.01 29.5499 149.125C25.8983 149.24 24.4675 145.319 23.4918 141.132C22.5161 136.945 19.0399 141.653 19.0399 141.653L10.1361 142.694C10.1361 142.694 -4.94036 143.185 -8.89948 144.028C-12.7411 144.864 -9.20749 139.208 -7.2493 136.605C-5.29861 133.883 -15.2956 130.745 -16.5387 129.762C-17.7819 128.78 -25.5751 130.576 -27.2583 130.093C-28.824 129.603 -30.1648 127.092 -30.5824 127.945C-31 128.798 -31.43 131.304 -33.1107 132.71C-34.7913 134.115 -36.467 133.75 -38.7955 134.253C-41.124 134.756 -39.6458 135.724 -47.6693 135.765C-55.6852 135.923 -55.6999 141.235 -57.9806 144.331C-60.3789 147.435 -64.6258 147.471 -66.6166 147.716C-68.6 148.079 -67.6393 152.03 -68.4219 154.559C-69.2046 157.088 -73.3268 151.686 -74.7824 151.07C-76.2456 150.338 -75.4825 154.892 -75.4825 154.892C-75.4825 154.892 -74.7288 168.535 -75.2264 169.984C-75.724 171.432 -80.942 159.962 -81.1147 157.259C-81.1699 154.547 -83.7789 148.813 -84.3167 147.785C-84.7295 146.867 -85.8074 148.47 -87.2003 150.684C-88.5933 152.897 -87.3824 157.069 -87.5473 160.03C-87.7122 162.991 -89.4556 161.568 -94.04 161.861C-98.6245 162.154 -99.3496 163.735 -101.118 165.618C-102.886 167.502 -109.851 167.475 -113.848 167.73C-117.845 167.986 -119.7 170.347 -123.202 172.813C-126.703 175.279 -125.988 171.693 -128.542 168.669C-131.221 165.535 -131.698 170.995 -132.841 173.429C-133.984 175.863 -141.2 170.068 -144.664 167.575C-148.128 165.081 -149.999 167.207 -151.762 167.32C-153.525 167.433 -155.479 168.266 -157.555 165.33C-159.631 162.393 -164.545 163.062 -169.948 161.636C-175.35 160.211 -176.748 164.195 -182.263 166.554C-187.777 168.913 -188.978 172.295 -188.978 172.295C-188.978 172.295 -188.978 172.295 -189.128 175.491C-189.277 178.687 -192.931 182.462 -195.205 185.676C-197.478 188.89 -202.165 189.425 -204.661 191.001C-207.157 192.577 -204.86 200.811 -204.525 204.212C-204.197 207.496 -198.94 204.799 -195.413 204.574C-192.004 204.356 -193.697 207.415 -194.077 208.856C-194.245 209.929 -196.023 209.806 -196.331 210.534C-196.441 210.659 -196.426 210.894 -196.286 211.239C-195.74 212.385 -194.387 213.243 -193.607 214.373C-191.141 217.874 -189.75 213.773 -189.75 213.773C-189.75 213.773 -186.627 209.088 -183.871 204.191C-181.43 199.904 -186.57 197.045 -183.879 192.978C-181.621 189.529 -178.752 186.395 -175.846 183.849C-170.819 179.397 -169.839 181.812 -168.16 184.066C-166.482 186.319 -175.441 190.196 -177.644 196.357C-179.847 202.517 -171.286 197.957 -173.424 203.287C-177.602 215.475 -178.87 217.799 -183.512 219.039ZM-112.693 158.096C-110.965 159.284 -109.127 160.347 -107.178 161.284C-106.568 161.6 -103.759 163.073 -104.585 161.237C-105.137 159.974 -106.278 158.748 -107.168 157.743C-108.949 155.732 -108.804 154.307 -108.985 151.485C-109.165 148.664 -103.673 145.953 -103.673 145.953C-84.8928 135.074 -102.65 141.638 -105.449 142.171C-108.137 142.579 -110.818 143.104 -112.199 143.665C-113.58 144.225 -116.513 148.189 -117.838 151.461C-118.249 152.431 -117.938 153.592 -117.526 154.51C-117.128 155.193 -116.62 155.75 -115.885 156.175C-114.782 156.813 -113.561 157.443 -112.693 158.096ZM-106.838 390.123C-108.291 391.396 -107.705 395.018 -107.425 401.255C-107.312 403.019 -104.283 415.336 -101.622 410.799C-101.629 410.682 -98.1106 404.791 -98.1959 401.61C-98.2887 398.311 -95.7953 394.847 -94.8801 392.546C-93.9648 390.245 -94.7404 387.344 -97.2818 382.667C-99.8232 377.99 -101.891 386.266 -101.891 386.266C-102.514 387.604 -105.385 388.85 -106.838 390.123ZM10.1997 346.882C11.9656 348.657 13.7389 350.551 15.5048 352.326C16.3877 353.214 17.2707 354.102 18.1537 354.99C19.1542 355.87 20.3898 356.735 20.9351 357.881C21.4804 359.026 21.4679 360.679 22.4684 361.56C23.3438 362.33 24.6369 362.247 25.6874 362.062C30.2643 361.652 34.8638 361.594 39.5658 361.293C66.6023 359.566 46.0284 358.992 44.8379 358.832C43.6474 358.672 41.2164 359.418 38.8778 357.915C36.5391 356.412 26.4599 357.528 26.4599 357.528C26.4599 357.528 22.9409 357.871 23.2233 354.902C23.5057 351.933 22.1102 352.258 17.1701 345.138C12.23 338.018 12.7956 343.175 5.2844 336.455C-2.22677 329.735 2.58826 336.745 4.1791 339.476C5.76994 342.207 9.17667 345.649 9.17667 345.649C9.44183 346.104 9.82454 346.552 10.1997 346.882ZM49.0615 347.349C48.6889 348.908 48.7791 350.318 50.5799 350.793C53.9313 351.523 53.276 350.503 56.4322 348.177C56.9974 347.786 58.6931 346.616 58.523 345.801C58.3604 345.103 56.8322 345.2 56.2219 344.885C55.6041 344.453 54.9788 343.902 54.2735 343.948C53.3256 343.89 52.3852 343.95 51.4523 344.128C50.2843 344.32 49.7191 344.711 49.4265 345.674C49.2215 346.159 49.1415 346.754 49.0615 347.349ZM38.5094 346.607C39.5674 346.54 40.7428 346.464 41.7707 345.927C42.6886 345.514 43.2238 344.654 43.8915 344.021C45.117 342.88 45.277 341.69 45.4369 340.499C45.9395 337.28 45.4865 333.886 45.2837 330.712C44.9232 325.07 44.168 326.181 43.0773 323.89C42.5245 322.627 38.6255 324.41 37.0624 325.808C35.4993 327.207 36.5824 329.38 36.57 331.033C36.7052 333.149 34.6118 333.637 33.2688 334.785C31.5882 336.191 30.0326 337.706 28.477 339.222C26.4738 341.121 28.5923 342.874 29.6529 344.694C29.9181 345.15 30.3083 345.715 30.801 346.037C31.6689 346.69 32.7344 346.74 33.6823 346.798C33.7999 346.79 33.7999 346.79 33.9174 346.783C35.4531 346.802 36.9812 346.705 38.5094 346.607ZM55.775 319.419C56.7105 321.13 57.9987 322.818 59.1618 324.396C59.8097 325.299 61.2003 326.745 62.3158 325.729C63.7688 324.456 63.2884 322.48 63.1908 320.952C62.9654 317.426 62.9876 312.231 61.4193 309.852C59.7334 307.481 56.8221 306.251 54.9086 304.013C53.3853 302.34 52.2248 302.65 50.041 296.18C47.7396 289.717 48.8531 297.908 48.7633 302.045C48.6735 306.182 52.6455 309.233 52.6455 309.233C55.5444 312.116 54.0215 315.99 55.775 319.419ZM86.6553 350.141C88.0735 350.168 89.3966 350.556 90.4121 351.671C91.6778 353.006 92.1355 354.63 93.1736 356.098C93.8289 357.118 94.8594 358.469 96.365 358.018C97.7456 357.458 99.0661 355.957 100.339 357.41C102.12 359.421 102.883 358.428 102.883 358.428C103.331 358.045 106.832 355.579 108.685 356.877C119.445 364.57 114.698 358.617 111.902 355.491C109.105 352.365 102.214 347.966 99.0879 345.215C95.9613 342.464 90.1316 345.433 86.8101 345.173C83.4887 344.913 84.3588 341.907 82.4678 340.021C80.5769 338.136 73.6592 340.702 71.9609 339.985C70.2626 339.267 69.4172 338.967 69.2745 336.733C69.2519 336.381 68.3589 333.487 67.6036 334.598C67.281 335.09 67.5987 336.368 67.6363 336.956C67.6964 337.897 67.7565 338.837 67.9341 339.77C68.4294 341.981 70.1326 340.928 73.184 342.503C76.2279 343.961 77.4737 346.832 78.2192 349.263C78.817 351.232 81.2781 350.956 83.1438 350.601C84.3118 350.408 85.4799 350.216 86.6553 350.141ZM108.223 436.459C107.628 436.379 106.445 436.336 106.255 437.057C106.065 437.777 107.41 438.517 107.448 439.105C107.508 440.045 107.46 442.999 110.297 443.054C113.015 443.116 113.38 441.441 113.795 438.699C113.883 438.222 113.853 437.751 113.588 437.296C113.198 436.731 112.367 436.666 111.779 436.704C111.184 436.624 110.596 436.661 109.884 436.589C109.288 436.509 108.818 436.539 108.223 436.459ZM71.9379 371.028C68.7866 371.583 65.9755 373.77 63.3695 375.47C61.6663 376.524 59.8607 377.819 59.1655 379.87C58.5653 381.561 58.8632 384.375 58.7407 386.153C58.5233 388.291 52.8782 386.764 50.7849 387.251C48.6915 387.739 49.532 389.81 48.8717 390.56C48.094 391.318 45.1026 390.683 42.6641 391.311C39.7629 392.087 41.504 397.169 41.3966 399.182C41.2892 401.196 40.7116 403.239 40.3691 405.267C39.669 409.089 41.8799 408.594 43.8208 409.414C45.7617 410.234 44.344 415.754 44.8844 418.67C45.4098 421.351 49.1015 423.712 51.3951 424.51C52.9683 425.118 54.8266 424.645 56.4723 424.54C58.3531 424.419 60.2414 424.417 61.9747 423.834C63.7079 423.251 64.9107 421.758 66.3713 420.602C68.6096 418.689 71.1431 417.701 74.0969 417.748C77.1683 417.788 80.1296 417.953 83.1933 417.875C84.8391 417.77 87.6227 417.002 88.2281 419.088C88.6784 420.593 88.5484 422.254 88.9987 423.76C89.9143 427.006 92.0726 425.688 94.7763 425.515C97.4799 425.342 97.7327 427.451 98.5657 429.404C99.959 432.738 102.413 432.345 105.469 432.15C107.585 432.014 109.701 431.879 111.809 431.626C115.431 431.041 117.431 427.254 117.431 427.254C117.431 427.254 121.725 418.718 123.866 415.276C126.006 411.834 126.474 404.369 126.106 398.609C125.738 392.849 117.226 385.249 117.226 385.249C117.226 385.249 105.68 372.649 103.672 370.771C101.663 368.893 102.681 366.349 101.833 364.161C101.102 361.965 99.572 365.721 97.6112 366.437C95.6504 367.152 97.2191 375.078 97.2942 376.254C97.3693 377.429 94.8857 377.352 93.4875 375.789C92.0893 374.226 91.289 374.631 89.3406 373.693C87.3921 372.755 86.089 370.832 85.6511 367.673C85.3307 364.507 82.1069 365.775 78.3378 365.898C74.5687 366.021 76.172 367.099 75.5944 369.142C75.2068 370.465 73.8037 370.673 72.6357 370.865C72.283 370.888 72.0554 371.02 71.9379 371.028ZM157.797 442.025L157.687 442.15C156.492 443.761 152.943 449.181 155.316 449.384C157.572 449.594 160.476 450.706 161.789 449.088C163.087 447.235 162.527 445.854 166.654 443.938C168.717 442.98 170.067 436.402 170.067 436.402C170.067 436.402 169.211 434.096 167.711 432.776C166.468 431.793 163.902 435.97 162.911 437.095C161.253 438.854 159.22 440.282 157.797 442.025ZM175.957 428.826C176.622 426.305 178.475 427.603 178.362 425.84C178.25 424.076 172.875 421.233 171.014 419.817C167.3 417.104 170.989 423.124 170.271 424.822C169.334 426.771 169.216 426.778 170.182 428.959C170.454 429.532 171.222 432.315 171.825 432.513C175.309 433.471 175.299 431.465 175.957 428.826Z" stroke="#475566" stroke-opacity="0.3" stroke-width="2" mask="url(#path-1-inside-1_405_5369)"/>
<mask id="path-2-inside-2_405_5369" fill="white">
<path d="M-354.924 323.826C-351.792 324.806 -358.353 325.58 -359.41 325.647C-360.586 325.722 -362.202 326.298 -362.872 325.042C-362.88 324.925 -363.042 324.227 -363.087 323.521C-363.185 321.993 -364.215 320.643 -361.217 321.395C-358.93 322.076 -356.732 323.233 -354.924 323.826ZM170.309 419.863C166.595 417.149 170.284 423.169 169.567 424.867C168.629 426.816 168.511 426.823 169.477 429.004C169.749 429.577 170.517 432.36 171.12 432.558C174.487 433.523 174.587 431.392 175.252 428.871C175.917 426.35 177.77 427.648 177.658 425.885C177.545 424.121 172.287 421.271 170.309 419.863ZM-520.429 301.235C-520.429 301.235 -516.907 313.875 -513.77 313.084C-507.263 311.488 -512.47 307.572 -518.666 301.122C-519.173 300.564 -521.322 298.341 -520.429 301.235ZM-260.34 185.943C-261.75 186.033 -263.191 185.653 -264.704 185.986C-265.982 186.303 -265.414 187.801 -265.119 188.727C-264.684 189.997 -264.381 191.04 -264.181 192.326C-264.158 192.678 -264.128 193.149 -264.106 193.501C-264.046 194.442 -263.933 196.205 -262.64 196.122C-260.759 196.002 -258.886 195.764 -257.012 195.527C-256.08 195.349 -254.992 195.752 -254.324 195.119C-252.753 193.838 -252.146 192.265 -249.935 191.77C-249.002 191.592 -246.386 191.897 -246.358 190.479C-246.396 189.891 -247.477 184.059 -248.462 183.413C-250.676 182.02 -256.453 185.813 -260.34 185.943ZM-233.415 230.49C-230.141 228.157 -227.973 223.297 -227.973 223.297C-227.973 223.297 -227.861 213.965 -231.815 218.585C-231.815 218.585 -236.299 222.294 -236.244 225.006C-236.064 227.827 -236.681 232.942 -233.415 230.49ZM-116.479 156.095C-115.487 156.858 -114.266 157.488 -113.398 158.141C-111.67 159.329 -109.831 160.392 -107.883 161.33C-107.273 161.645 -104.464 163.118 -105.289 161.282C-105.842 160.019 -106.983 158.793 -107.873 157.788C-109.654 155.777 -109.509 154.352 -109.689 151.531C-109.87 148.709 -104.377 145.998 -104.377 145.998C-85.5976 135.119 -103.355 141.683 -106.153 142.216C-108.842 142.624 -111.523 143.15 -112.904 143.71C-114.284 144.27 -117.218 148.235 -118.543 151.506C-118.953 152.477 -118.643 153.637 -118.23 154.555C-117.73 154.995 -117.105 155.545 -116.479 156.095ZM-226.743 214.838C-225.875 215.491 -225 216.261 -224.47 217.171C-223.799 218.427 -223.466 219.94 -223.024 221.328C-222.271 223.877 -223.656 226.208 -224.947 228.179C-226.134 229.907 -227.762 232.136 -225.306 233.631C-221.997 235.544 -218.206 230.227 -215.285 227.915C-213.039 226.12 -214.402 223.256 -215.933 221.465C-217.862 218.992 -220.12 216.893 -221.366 214.022C-222.487 211.261 -224.613 209.391 -226.526 207.152C-227.924 205.589 -229.642 206.407 -230.152 209.508C-230.575 212.132 -228.604 213.423 -226.743 214.838ZM-390.142 317.578C-396.309 320.805 -384.539 320.289 -384.539 320.289C-382.173 320.374 -379.807 320.459 -377.536 320.904C-376.816 321.094 -376.103 321.166 -375.493 321.481C-374.515 322.009 -373.742 323.022 -372.661 323.307C-371.213 323.805 -368.482 322.214 -367.094 321.771C-361.189 319.977 -377.506 315.827 -380.373 315.302C-383.239 314.776 -383.974 314.351 -390.142 317.578ZM48.7142 345.601C48.5167 346.204 48.4367 346.799 48.2317 347.284C47.8591 348.843 47.9492 350.253 49.75 350.728C53.1016 351.458 52.4462 350.438 55.6024 348.112C56.1676 347.722 57.8633 346.551 57.6931 345.736C57.5305 345.038 56.0024 345.135 55.3921 344.82C54.7743 344.388 54.149 343.838 53.4437 343.883C52.4958 343.825 51.5554 343.885 50.6225 344.063C49.5645 344.13 48.9993 344.521 48.7142 345.601ZM162.089 437.148C160.549 438.899 158.508 440.21 157.085 441.953L156.975 442.078C155.779 443.689 152.231 449.109 154.604 449.311C156.86 449.521 159.764 450.634 161.077 449.016C162.375 447.162 161.815 445.782 165.941 443.866C168.005 442.908 169.355 436.33 169.355 436.33C169.355 436.33 168.499 434.024 166.998 432.703C165.528 431.853 162.969 436.148 162.089 437.148ZM72.5968 342.541C75.6407 343.999 76.8865 346.87 77.6319 349.301C78.2299 351.269 80.6909 350.994 82.5567 350.639C83.7246 350.446 84.8851 350.136 85.9506 350.186C87.3687 350.213 88.6917 350.601 89.7073 351.716C90.9729 353.052 91.4307 354.675 92.4688 356.143C93.1242 357.163 94.1546 358.514 95.6602 358.063C97.0408 357.503 98.3613 356.002 99.6344 357.455C101.415 359.466 102.178 358.473 102.178 358.473C102.626 358.09 106.127 355.624 107.981 356.922C118.741 364.615 113.993 358.662 111.197 355.536C108.4 352.41 101.51 348.011 98.3831 345.26C95.2566 342.509 89.4268 345.478 86.1054 345.218C82.7839 344.959 83.6541 341.952 81.7631 340.067C79.8722 338.181 72.9544 340.747 71.2561 340.03C69.5578 339.312 68.7125 339.012 68.5698 336.779C68.5472 336.426 67.6541 333.532 66.8989 334.643C66.5762 335.135 66.894 336.413 66.9315 337.001C66.9916 337.942 67.0517 338.882 67.2293 339.815C67.8422 342.018 69.5454 340.965 72.5968 342.541ZM2.2219 310.684C1.75167 310.714 1.16394 310.752 0.693765 310.782C0.701276 310.899 0.701276 310.899 0.708787 311.017C0.828963 312.898 0.478908 314.809 0.841711 316.792C1.21203 318.893 2.61771 320.573 3.22314 322.659C3.66588 324.047 3.98362 325.325 4.19131 326.728C4.19131 326.728 9.83711 339.351 16.5724 337.622C21.1043 336.507 12.6151 329.259 8.98079 325.95C5.34651 322.642 4.88613 319.13 6.18142 315.388C7.47671 311.647 10.7084 316.043 15.9658 318.894C21.2233 321.745 19.1499 320.697 22.9337 315.262C25.9622 310.938 24.016 306.341 22.3376 304.087C16.0751 307.674 9.26739 310.116 2.2219 310.684ZM60.707 309.78C59.0212 307.409 56.1098 306.179 54.1963 303.94C52.673 302.267 51.5126 302.577 49.3287 296.107C47.0273 289.645 48.1408 297.836 48.0511 301.972C47.9613 306.109 51.9332 309.16 51.9332 309.16C54.8397 312.161 53.3168 316.036 55.1878 319.457C56.1233 321.168 57.4115 322.856 58.5746 324.434C59.2224 325.337 60.6131 326.782 61.7285 325.767C63.1816 324.494 62.7013 322.518 62.6036 320.99C62.3633 317.228 62.2679 312.041 60.707 309.78ZM32.5566 334.713C30.8759 336.118 29.3204 337.634 27.7648 339.15C25.7615 341.048 27.8801 342.801 28.9407 344.622C29.2058 345.077 29.596 345.642 30.0888 345.965C30.9567 346.618 32.0222 346.668 32.97 346.725C33.0876 346.718 33.0876 346.718 33.2051 346.71C34.7408 346.73 36.269 346.632 37.7971 346.535C38.8551 346.467 40.0306 346.392 41.0584 345.854C41.9763 345.442 42.5115 344.581 43.1793 343.948C44.4047 342.808 44.5647 341.617 44.7247 340.427C45.2272 337.208 44.7743 333.814 44.5715 330.64C44.211 324.998 43.4557 326.108 42.3651 323.817C41.8122 322.554 37.9132 324.338 36.3501 325.736C34.787 327.134 35.8701 329.307 35.8577 330.961C35.9929 333.077 33.8995 333.564 32.5566 334.713ZM44.1332 358.877C42.9501 358.835 40.5116 359.463 38.173 357.96C35.8344 356.457 25.7551 357.573 25.7551 357.573C25.7551 357.573 22.2361 357.916 22.5186 354.947C22.801 351.978 21.4054 352.303 16.4653 345.183C11.5252 338.063 12.0908 343.22 4.57961 336.5C-2.93156 329.78 1.88347 336.79 3.47437 339.522C5.06521 342.253 8.47188 345.694 8.47188 345.694C8.8546 346.142 9.2298 346.472 9.61252 346.919C11.3784 348.695 13.1518 350.588 14.9176 352.364C15.8006 353.252 16.6835 354.139 17.5664 355.027C18.5669 355.908 19.8025 356.773 20.3478 357.918C20.8932 359.064 20.8808 360.717 21.8813 361.597C22.7567 362.368 24.0497 362.285 25.1001 362.1C29.6771 361.689 34.2766 361.632 38.9786 361.331C65.7725 359.501 45.3161 358.92 44.1332 358.877ZM-102.728 386.084C-103.218 387.649 -106.097 388.777 -107.55 390.051C-109.003 391.324 -108.418 394.945 -108.137 401.183C-108.024 402.946 -104.995 415.264 -102.334 410.727C-102.342 410.609 -98.8229 404.719 -98.9082 401.538C-99.0009 398.239 -96.5076 394.774 -95.5923 392.473C-94.6771 390.172 -95.4526 387.271 -97.994 382.594C-100.535 377.917 -102.728 386.084 -102.728 386.084Z"/>
</mask>
<path d="M-354.924 323.826C-351.792 324.806 -358.353 325.58 -359.41 325.647C-360.586 325.722 -362.202 326.298 -362.872 325.042C-362.88 324.925 -363.042 324.227 -363.087 323.521C-363.185 321.993 -364.215 320.643 -361.217 321.395C-358.93 322.076 -356.732 323.233 -354.924 323.826ZM170.309 419.863C166.595 417.149 170.284 423.169 169.567 424.867C168.629 426.816 168.511 426.823 169.477 429.004C169.749 429.577 170.517 432.36 171.12 432.558C174.487 433.523 174.587 431.392 175.252 428.871C175.917 426.35 177.77 427.648 177.658 425.885C177.545 424.121 172.287 421.271 170.309 419.863ZM-520.429 301.235C-520.429 301.235 -516.907 313.875 -513.77 313.084C-507.263 311.488 -512.47 307.572 -518.666 301.122C-519.173 300.564 -521.322 298.341 -520.429 301.235ZM-260.34 185.943C-261.75 186.033 -263.191 185.653 -264.704 185.986C-265.982 186.303 -265.414 187.801 -265.119 188.727C-264.684 189.997 -264.381 191.04 -264.181 192.326C-264.158 192.678 -264.128 193.149 -264.106 193.501C-264.046 194.442 -263.933 196.205 -262.64 196.122C-260.759 196.002 -258.886 195.764 -257.012 195.527C-256.08 195.349 -254.992 195.752 -254.324 195.119C-252.753 193.838 -252.146 192.265 -249.935 191.77C-249.002 191.592 -246.386 191.897 -246.358 190.479C-246.396 189.891 -247.477 184.059 -248.462 183.413C-250.676 182.02 -256.453 185.813 -260.34 185.943ZM-233.415 230.49C-230.141 228.157 -227.973 223.297 -227.973 223.297C-227.973 223.297 -227.861 213.965 -231.815 218.585C-231.815 218.585 -236.299 222.294 -236.244 225.006C-236.064 227.827 -236.681 232.942 -233.415 230.49ZM-116.479 156.095C-115.487 156.858 -114.266 157.488 -113.398 158.141C-111.67 159.329 -109.831 160.392 -107.883 161.33C-107.273 161.645 -104.464 163.118 -105.289 161.282C-105.842 160.019 -106.983 158.793 -107.873 157.788C-109.654 155.777 -109.509 154.352 -109.689 151.531C-109.87 148.709 -104.377 145.998 -104.377 145.998C-85.5976 135.119 -103.355 141.683 -106.153 142.216C-108.842 142.624 -111.523 143.15 -112.904 143.71C-114.284 144.27 -117.218 148.235 -118.543 151.506C-118.953 152.477 -118.643 153.637 -118.23 154.555C-117.73 154.995 -117.105 155.545 -116.479 156.095ZM-226.743 214.838C-225.875 215.491 -225 216.261 -224.47 217.171C-223.799 218.427 -223.466 219.94 -223.024 221.328C-222.271 223.877 -223.656 226.208 -224.947 228.179C-226.134 229.907 -227.762 232.136 -225.306 233.631C-221.997 235.544 -218.206 230.227 -215.285 227.915C-213.039 226.12 -214.402 223.256 -215.933 221.465C-217.862 218.992 -220.12 216.893 -221.366 214.022C-222.487 211.261 -224.613 209.391 -226.526 207.152C-227.924 205.589 -229.642 206.407 -230.152 209.508C-230.575 212.132 -228.604 213.423 -226.743 214.838ZM-390.142 317.578C-396.309 320.805 -384.539 320.289 -384.539 320.289C-382.173 320.374 -379.807 320.459 -377.536 320.904C-376.816 321.094 -376.103 321.166 -375.493 321.481C-374.515 322.009 -373.742 323.022 -372.661 323.307C-371.213 323.805 -368.482 322.214 -367.094 321.771C-361.189 319.977 -377.506 315.827 -380.373 315.302C-383.239 314.776 -383.974 314.351 -390.142 317.578ZM48.7142 345.601C48.5167 346.204 48.4367 346.799 48.2317 347.284C47.8591 348.843 47.9492 350.253 49.75 350.728C53.1016 351.458 52.4462 350.438 55.6024 348.112C56.1676 347.722 57.8633 346.551 57.6931 345.736C57.5305 345.038 56.0024 345.135 55.3921 344.82C54.7743 344.388 54.149 343.838 53.4437 343.883C52.4958 343.825 51.5554 343.885 50.6225 344.063C49.5645 344.13 48.9993 344.521 48.7142 345.601ZM162.089 437.148C160.549 438.899 158.508 440.21 157.085 441.953L156.975 442.078C155.779 443.689 152.231 449.109 154.604 449.311C156.86 449.521 159.764 450.634 161.077 449.016C162.375 447.162 161.815 445.782 165.941 443.866C168.005 442.908 169.355 436.33 169.355 436.33C169.355 436.33 168.499 434.024 166.998 432.703C165.528 431.853 162.969 436.148 162.089 437.148ZM72.5968 342.541C75.6407 343.999 76.8865 346.87 77.6319 349.301C78.2299 351.269 80.6909 350.994 82.5567 350.639C83.7246 350.446 84.8851 350.136 85.9506 350.186C87.3687 350.213 88.6917 350.601 89.7073 351.716C90.9729 353.052 91.4307 354.675 92.4688 356.143C93.1242 357.163 94.1546 358.514 95.6602 358.063C97.0408 357.503 98.3613 356.002 99.6344 357.455C101.415 359.466 102.178 358.473 102.178 358.473C102.626 358.09 106.127 355.624 107.981 356.922C118.741 364.615 113.993 358.662 111.197 355.536C108.4 352.41 101.51 348.011 98.3831 345.26C95.2566 342.509 89.4268 345.478 86.1054 345.218C82.7839 344.959 83.6541 341.952 81.7631 340.067C79.8722 338.181 72.9544 340.747 71.2561 340.03C69.5578 339.312 68.7125 339.012 68.5698 336.779C68.5472 336.426 67.6541 333.532 66.8989 334.643C66.5762 335.135 66.894 336.413 66.9315 337.001C66.9916 337.942 67.0517 338.882 67.2293 339.815C67.8422 342.018 69.5454 340.965 72.5968 342.541ZM2.2219 310.684C1.75167 310.714 1.16394 310.752 0.693765 310.782C0.701276 310.899 0.701276 310.899 0.708787 311.017C0.828963 312.898 0.478908 314.809 0.841711 316.792C1.21203 318.893 2.61771 320.573 3.22314 322.659C3.66588 324.047 3.98362 325.325 4.19131 326.728C4.19131 326.728 9.83711 339.351 16.5724 337.622C21.1043 336.507 12.6151 329.259 8.98079 325.95C5.34651 322.642 4.88613 319.13 6.18142 315.388C7.47671 311.647 10.7084 316.043 15.9658 318.894C21.2233 321.745 19.1499 320.697 22.9337 315.262C25.9622 310.938 24.016 306.341 22.3376 304.087C16.0751 307.674 9.26739 310.116 2.2219 310.684ZM60.707 309.78C59.0212 307.409 56.1098 306.179 54.1963 303.94C52.673 302.267 51.5126 302.577 49.3287 296.107C47.0273 289.645 48.1408 297.836 48.0511 301.972C47.9613 306.109 51.9332 309.16 51.9332 309.16C54.8397 312.161 53.3168 316.036 55.1878 319.457C56.1233 321.168 57.4115 322.856 58.5746 324.434C59.2224 325.337 60.6131 326.782 61.7285 325.767C63.1816 324.494 62.7013 322.518 62.6036 320.99C62.3633 317.228 62.2679 312.041 60.707 309.78ZM32.5566 334.713C30.8759 336.118 29.3204 337.634 27.7648 339.15C25.7615 341.048 27.8801 342.801 28.9407 344.622C29.2058 345.077 29.596 345.642 30.0888 345.965C30.9567 346.618 32.0222 346.668 32.97 346.725C33.0876 346.718 33.0876 346.718 33.2051 346.71C34.7408 346.73 36.269 346.632 37.7971 346.535C38.8551 346.467 40.0306 346.392 41.0584 345.854C41.9763 345.442 42.5115 344.581 43.1793 343.948C44.4047 342.808 44.5647 341.617 44.7247 340.427C45.2272 337.208 44.7743 333.814 44.5715 330.64C44.211 324.998 43.4557 326.108 42.3651 323.817C41.8122 322.554 37.9132 324.338 36.3501 325.736C34.787 327.134 35.8701 329.307 35.8577 330.961C35.9929 333.077 33.8995 333.564 32.5566 334.713ZM44.1332 358.877C42.9501 358.835 40.5116 359.463 38.173 357.96C35.8344 356.457 25.7551 357.573 25.7551 357.573C25.7551 357.573 22.2361 357.916 22.5186 354.947C22.801 351.978 21.4054 352.303 16.4653 345.183C11.5252 338.063 12.0908 343.22 4.57961 336.5C-2.93156 329.78 1.88347 336.79 3.47437 339.522C5.06521 342.253 8.47188 345.694 8.47188 345.694C8.8546 346.142 9.2298 346.472 9.61252 346.919C11.3784 348.695 13.1518 350.588 14.9176 352.364C15.8006 353.252 16.6835 354.139 17.5664 355.027C18.5669 355.908 19.8025 356.773 20.3478 357.918C20.8932 359.064 20.8808 360.717 21.8813 361.597C22.7567 362.368 24.0497 362.285 25.1001 362.1C29.6771 361.689 34.2766 361.632 38.9786 361.331C65.7725 359.501 45.3161 358.92 44.1332 358.877ZM-102.728 386.084C-103.218 387.649 -106.097 388.777 -107.55 390.051C-109.003 391.324 -108.418 394.945 -108.137 401.183C-108.024 402.946 -104.995 415.264 -102.334 410.727C-102.342 410.609 -98.8229 404.719 -98.9082 401.538C-99.0009 398.239 -96.5076 394.774 -95.5923 392.473C-94.6771 390.172 -95.4526 387.271 -97.994 382.594C-100.535 377.917 -102.728 386.084 -102.728 386.084Z" stroke="#475566" stroke-opacity="0.5" stroke-width="2" mask="url(#path-2-inside-2_405_5369)"/>
</g>
<defs>
<clipPath id="clip0_405_5369">
<rect width="754" height="436" fill="white" transform="translate(-377.095 107.641) rotate(-8.14916)"/>
</clipPath>
</defs>
</svg>
