<svg width="880" height="558" viewBox="0 0 880 558" fill="none" xmlns="http://www.w3.org/2000/svg">
<mask id="path-1-inside-1_405_5379" fill="white">
<path d="M-18.6328 -50.6192C-21.5943 -52.4457 -24.5561 -54.0442 -27.9747 -54.7313C-32.533 -55.4196 -37.7762 -54.9688 -42.105 -57.2524C-45.0668 -58.8509 -50.9855 -67.0628 -43.6918 -66.3719C-38.6774 -65.9112 -28.8754 -66.1296 -25.4525 -70.0014C-16.781 -79.7948 -5.17831 -56.3049 4.6259 -58.8029C9.87001 -60.1655 11.0164 -67.0029 16.484 -63.8063C19.9013 -61.7515 23.5453 -58.5567 26.0497 -55.363C29.6924 -50.8005 27.1826 -48.2955 21.9389 -47.3887C17.1513 -46.7095 12.3649 -47.17 7.35004 -47.1749C2.79108 -47.1793 -1.76835 -46.7278 -6.32775 -46.2763C-10.8871 -45.8248 -14.7598 -48.336 -18.6328 -50.6192ZM33.8244 -80.6577C33.8244 -80.6577 36.3217 -70.1697 39.9675 -68.7985C43.3854 -67.4275 45.2073 -65.6021 47.4914 -70.3868C49.7752 -74.9436 44.5344 -77.0002 40.6628 -80.6511C36.7912 -84.302 30.6452 -93.1979 33.8244 -80.6577ZM17.1247 -19.1278C10.5173 -22.3255 13.7127 -26.6534 11.4405 -34.1779C9.16832 -41.7024 4.37413 -34.1847 -2.2432 -27.1247C-8.86052 -20.0647 -15.4584 -33.0642 -18.8744 -36.4867C-22.2903 -39.9092 -19.0983 -40.59 -36.6488 -42.2026C-53.9711 -44.0429 -52.603 -44.4975 -60.3618 -35.615C-68.1206 -26.7325 -53.7577 -28.9981 -43.7291 -27.8487C-33.7005 -26.6992 -33.4783 -20.7724 -34.396 -14.6186C-35.3137 -8.46492 -53.7747 -11.4461 -71.0967 -13.5144C-88.4188 -15.5827 -86.8269 -11.706 -95.7206 -7.83948C-104.614 -3.97296 -123.296 -14.2487 -131.044 -16.7636C-138.792 -19.2785 -191.679 -16.1384 -199.429 -16.1459C-207.179 -16.1534 -211.516 -10.2309 -217.445 -7.50127C-223.375 -4.77162 -220.878 5.94436 -221.11 10.959C-221.343 15.9736 -232.736 11.4037 -238.663 11.3979C-244.589 11.3922 -242.997 14.813 -243.457 19.1435C-243.917 23.4741 -241.41 23.9324 -234.344 23.4834C-227.277 23.0343 -224.314 24.1769 -224.091 28.964C-223.868 33.7512 -233.211 31.2347 -238.91 31.2292C-244.609 31.2237 -242.339 41.2556 -241.207 49.6908C-240.076 58.126 -234.604 56.7636 -231.415 59.0462C-228.225 61.3287 -223.67 64.5244 -250.579 75.8958C-277.487 87.2672 -251.496 82.2775 -246.936 80.4583C-242.375 78.6391 -222.31 72.5039 -216.383 72.5096C-210.456 72.5154 -201.332 65.6857 -193.803 59.3105C-186.275 52.9352 -162.799 55.9212 -145.931 56.1655C-129.063 56.4097 -114.51 93.3514 -106.31 99.0581C-98.109 104.765 -97.2419 151.039 -97.4831 164.716C-97.7243 178.392 -87.7036 187.748 -83.1488 192.083C-78.594 196.419 -67.4486 221.276 -55.1555 237.928C-42.8626 254.808 -48.5408 233.603 -52.1787 224.026C-55.8164 214.221 -48.7586 223.118 -48.7586 223.118C-48.7586 223.118 -26.8999 248.213 -22.5801 259.843C-18.2603 271.472 0.421964 281.292 12.9582 282.216C25.4945 283.14 25.2632 286.559 25.2632 286.559C25.2632 286.559 24.5748 291.345 39.6176 293.183C54.4324 295.021 51.9138 306.644 58.064 311.209C64.2142 315.774 73.7833 320.57 82.2174 320.578C90.6515 320.586 87.6891 319.672 89.2785 326.056C90.868 332.44 84.933 341.096 80.5975 345.651C76.2621 350.206 75.7961 360.691 75.7842 373C75.7723 385.309 80.5568 387.821 80.5568 387.821C80.5568 387.821 106.502 430.245 112.653 434.126C118.804 438.007 117.884 446.212 117.884 446.212C117.884 446.212 117.823 508.67 117.591 513.457C117.358 518.243 116.902 518.243 112.794 523.938C108.685 529.632 109.357 542.17 109.357 542.17C109.357 542.17 108.62 597.561 108.616 601.664C108.612 605.767 114.989 611.016 135.722 622.206C156.454 633.395 141.426 616.74 139.15 612.863C136.874 608.986 138.479 598.957 138.487 591.435C138.494 583.913 144.88 580.044 147.392 575.487C149.904 570.931 147.628 567.509 147.636 559.531C147.643 551.553 156.537 547.459 156.537 547.459C156.537 547.459 205.366 497.813 209.246 493.258C213.125 488.703 213.818 479.813 213.367 474.798C212.916 469.783 227.974 455.209 236.414 449.062C244.854 442.916 251.481 425.598 251.941 421.723C252.401 417.849 252.637 408.959 258.34 404.633C264.043 400.308 263.824 390.962 266.113 381.162C268.402 371.363 250.167 370.205 239.233 363.128C228.298 356.051 210.976 353.983 209.608 353.982C208.241 353.98 200.489 354.885 200.951 349.187C201.412 343.488 196.635 333.682 193.904 328.892C191.173 324.103 186.842 324.327 181.599 324.321C176.356 324.316 160.414 309.484 153.58 304.919C146.746 300.353 132.838 303.987 123.722 301.471C114.607 298.954 119.166 298.959 110.962 296.671C102.758 294.384 98.872 305.778 94.9957 306.914C91.1195 308.05 78.5828 307.582 74.0245 306.893C69.4662 306.205 66.0547 298.224 64.922 290.928C63.7893 283.633 61.285 280.439 55.1337 277.014C48.9824 273.589 48.0781 265.838 48.7672 260.367C49.4564 254.897 45.5817 254.438 41.0229 254.205C36.4642 253.973 36.6904 255.797 35.5469 259.671C34.4034 263.545 30.7545 265.365 20.9542 263.76C11.1543 261.927 7.06244 250.297 5.93173 240.95C4.80103 231.603 5.03403 226.361 11.4219 220.896C17.8097 215.432 19.6304 218.397 28.2911 219.773C36.9518 221.149 42.8831 216.368 48.5876 210.447C54.292 204.525 61.1208 214.562 61.1208 214.562C61.1208 214.562 61.1207 214.562 70.4525 229.16C79.7842 243.757 78.6589 228.94 76.393 214.805C74.1272 200.67 117.709 155.806 124.325 149.43C130.942 143.054 130.256 145.788 141.654 144.887C153.052 143.987 157.394 132.366 164.009 127.585C170.625 122.804 155.352 123.018 148.517 119.364C141.682 115.71 153.08 114.809 157.185 112.762C161.29 110.714 169.954 109.583 181.35 110.278C192.747 110.973 164.52 70.8264 159.738 66.2628C154.955 61.6992 156.33 54.8621 154.056 48.2494C151.783 41.6367 144.023 52.5707 138.317 59.6315C132.611 66.6924 132.846 59.6263 133.762 55.2961C134.678 50.966 130.124 46.4026 128.078 40.474C126.032 34.5454 111.442 36.3548 106.199 36.1218C100.956 35.8888 101.868 36.3456 100.264 45.234C98.6594 54.1224 101.161 59.8236 102.749 68.0312C104.337 76.2389 95.208 87.3996 89.9596 93.0932C84.7113 98.7868 83.3502 91.9471 83.1278 86.2481C82.9054 80.5492 80.1691 81.4584 73.7875 80.5404C67.4058 79.6224 66.9501 79.3941 64.4484 73.465C61.9467 67.5359 53.5175 62.5129 45.5397 62.0493C37.562 61.5857 40.0829 47.6833 40.3168 41.5289C40.5509 35.1466 52.4044 34.9301 56.2806 33.7941C60.1568 32.6581 66.5434 28.5612 72.9189 35.8617C79.2946 42.9343 85.456 35.8738 85.456 35.8738C85.456 35.8738 95.2651 28.361 95.2695 23.802C95.2739 19.2431 93.221 20.6088 87.0664 20.6028C80.9118 20.5969 80 20.596 80.0051 15.3532C80.0102 10.1104 80.0106 9.65449 90.9523 9.43712C101.894 9.21975 96.8889 -0.814812 102.136 -5.59665C107.384 -10.3785 112.395 -6.72648 111.474 3.07441C110.553 12.8753 121.957 5.36402 128.337 7.87762C134.717 10.3912 131.751 13.5796 126.279 14.7141C120.807 15.8485 124.453 17.6757 126.043 23.6038C127.633 29.532 126.95 27.9357 144.273 29.3202C161.596 30.7046 146.788 21.8003 145.65 19.9756C144.512 18.1509 139.273 13.5869 155.001 14.5139C170.728 15.4409 160.939 2.66633 160.939 2.66633C160.939 2.66633 150.016 -16.2639 137.483 -21.063C124.951 -25.862 128.37 -25.6307 121.767 -33.8433C115.165 -42.0558 89.8586 -38.2051 82.3368 -38.6683C74.8149 -39.1315 75.266 -34.1162 71.3863 -29.333C67.7344 -24.5496 76.8478 -19.7539 77.7448 -4.48049C78.6418 10.7929 68.6251 -2.66572 68.6251 -2.66572C68.6251 -2.66572 63.1607 -9.28151 60.659 -15.2106C58.1573 -21.1397 57.2486 -24.3318 60.9 -28.6593C64.5513 -32.9868 66.1516 -37.7722 58.6386 -47.3533C51.1255 -56.9343 44.9745 -60.5875 41.7836 -61.0465C38.5928 -61.5054 39.4984 -55.122 39.949 -49.6508C40.3996 -44.1796 43.5918 -45.0883 47.4638 -41.8933C51.1079 -38.6985 49.5065 -32.7734 48.5888 -26.6197C47.6711 -20.466 47.4473 -24.7972 41.7576 -34.1486C36.068 -43.5 32.4159 -38.4886 27.3949 -32.1109C22.3739 -25.7332 36.047 -21.8449 36.4919 -10.447C36.9368 0.950805 30.5633 -8.40123 30.5633 -8.40123C30.5633 -8.40123 23.7321 -15.9301 17.1247 -19.1278ZM-190.521 200.642C-190.521 200.642 -185.53 225.493 -179.146 224.359C-166.379 222.092 -175.945 213.877 -187.102 200.645C-188.012 199.276 -191.883 194.942 -190.521 200.642ZM83.1912 256.526C84.5584 256.983 85.9258 257.212 87.0649 257.897C88.8874 259.039 90.2531 261.091 92.304 261.777C95.0383 262.92 100.512 260.19 103.248 259.508C114.876 256.784 83.8845 246.725 78.415 245.352C72.9456 243.979 71.3511 242.837 59.0366 248.296C46.7221 253.755 69.5165 254.233 69.5165 254.233C74.3027 254.921 78.8612 255.382 83.1912 256.526ZM110.766 263.391C110.765 264.758 110.764 266.126 110.991 266.354C112.129 268.863 115.321 267.954 117.6 267.956C119.652 267.958 132.418 267.287 126.493 265.002C122.847 263.63 118.975 261.119 114.873 259.748C108.948 257.69 110.769 260.655 110.766 263.391ZM58.8822 -63.5374C60.702 -59.6605 63.438 -60.3417 65.7164 -59.1997C67.9948 -58.0578 68.676 -55.3217 69.3535 -48.7106C70.0309 -42.0994 91.0046 -44.5866 105.365 -44.8006C119.726 -45.0147 110.388 -52.546 92.1516 -52.1078C84.1732 -51.8875 83.2627 -53.2561 80.9874 -57.5893C78.7121 -61.9225 75.0652 -62.154 69.8243 -64.2106C64.5835 -66.2672 65.0421 -69.0022 60.0323 -74.2498C53.2006 -81.3228 56.8344 -67.4145 56.8344 -67.4145C56.8344 -67.4145 57.0623 -67.4142 58.8822 -63.5374ZM115.865 -59.1512C126.123 -59.1413 132.52 -74.6356 132.979 -77.1426C133.437 -79.6496 139.596 -83.9747 147.802 -83.9667C156.008 -83.9588 160.339 -83.9546 163.99 -88.2821C167.642 -92.6096 163.765 -90.5618 175.621 -93.5137C187.477 -96.4655 187.252 -100.113 187.029 -104.672C186.805 -109.231 167.657 -109.022 162.414 -108.799C157.171 -108.576 157.624 -105.384 151.922 -101.743C146.22 -98.1011 111.803 -101.554 100.862 -101.792C99.7219 -101.793 98.5821 -101.794 97.6699 -101.339C99.0356 -99.2864 103.822 -98.8259 105.873 -97.9121C108.835 -96.7695 110.428 -94.4885 112.934 -92.8904C115.44 -91.5203 118.404 -91.2895 121.139 -91.0589C149.857 -88.0678 127.744 -85.5818 125.464 -85.356C123.184 -85.1303 119.539 -86.5015 118.849 -80.5755C118.159 -74.6495 110.64 -77.6201 106.765 -77.3959C102.889 -77.1717 104.258 -77.8542 104.265 -85.1486C104.272 -92.4429 87.4024 -91.0915 80.1078 -90.8706C72.8132 -90.6497 75.7706 -84.4923 75.3079 -77.4263C74.8451 -70.3604 76.669 -70.5866 84.1906 -69.8954C91.4843 -69.2045 88.9751 -67.3834 89.8827 -63.0515C90.7903 -58.7196 102.188 -59.3924 102.188 -59.3924C102.188 -59.3924 105.607 -59.1612 115.865 -59.1512ZM198.875 -97.5943C198.875 -97.5943 192.267 -99.4242 188.843 -94.6406C185.419 -89.857 189.066 -89.3976 181.087 -89.1774C173.109 -88.9571 173.564 -88.5008 171.736 -83.7156C169.908 -78.9305 166.028 -74.3753 160.33 -74.3808C154.631 -74.3863 145.515 -76.4467 146.423 -72.1148C147.33 -67.5549 155.069 -55.9221 158.944 -55.6904C162.819 -55.4587 195.419 -59.0743 198.826 -46.078C202.232 -32.8537 196.74 -10.976 202.891 -7.32283C209.042 -3.66972 206.303 0.658655 204.25 1.79641C202.197 2.93417 199.009 0.423659 199.002 7.03415C198.996 13.6447 201.05 10.6833 204.692 16.1576C208.334 21.6319 210.159 19.5821 210.152 27.7882C210.144 35.9944 209.229 39.1848 215.382 40.1025C221.536 41.0203 226.774 46.0402 227.683 49.0044C228.592 51.9686 234.749 49.2392 236.348 45.5935C237.948 41.9479 256.892 16.2081 262.591 15.7577C268.29 15.3073 278.092 16.0006 278.324 10.986C278.557 5.97132 275.373 -1.3261 282.44 -1.54722C289.506 -1.76834 302.955 -1.52738 308.888 -8.13215C314.821 -14.7369 327.137 -21.7914 315.741 -23.626C310.499 -24.5429 305.717 -29.1065 308.458 -34.5746C308.686 -35.2582 316.664 -34.5666 317.804 -34.7935C320.539 -35.2467 324.188 -36.155 325.786 -38.8888C328.298 -43.6733 330.81 -48.4578 333.55 -53.2421C336.061 -57.1148 344.275 -65.5409 334.019 -67.3744C330.829 -68.0613 329.237 -71.7101 333.799 -75.5808C333.799 -75.5808 340.653 -90.8467 347.491 -90.8401C349.543 -90.8381 368.919 -91.7312 366.187 -94.9251C364.365 -96.9784 364.365 -96.9784 350.689 -97.9034C348.866 -98.1331 347.728 -99.7298 346.133 -100.415C343.854 -101.101 340.89 -100.876 338.611 -100.878C326.301 -100.206 330.404 -99.9745 325.165 -104.311C319.927 -108.647 314.912 -108.652 292.801 -108.445C270.461 -108.239 262.03 -110.526 256.554 -105.745C251.079 -100.963 253.583 -97.9973 241.958 -98.0085C230.333 -98.0197 198.875 -97.5943 198.875 -97.5943ZM317.976 22.4217C317.976 23.1056 317.975 24.0174 317.974 24.7012C317.972 26.5248 317.969 29.944 320.476 29.9464C324.124 29.95 327.771 29.7255 331.418 29.5011C333.242 29.2749 335.293 30.1887 336.662 29.0503C339.855 26.7739 341.226 23.8119 345.557 23.1322C347.381 22.906 352.395 23.8227 352.626 21.0875C352.627 19.9478 351.27 8.54906 349.448 7.17961C344.892 3.75598 333.488 10.3555 325.738 10.348C323.003 10.3453 320.268 9.43088 317.305 9.8839C314.797 10.3374 315.706 13.3016 316.16 15.1256C317.297 17.8621 317.751 19.9141 317.976 22.4217ZM377.19 77.1866C377.19 77.1866 368.066 83.7883 367.832 89.2588C367.599 94.5014 365.994 104.302 372.381 100.205C378.995 96.108 383.791 86.9947 383.791 86.9947C383.791 86.9947 385.404 68.7604 377.19 77.1866ZM391.552 75.3769C392.69 77.8854 393.143 80.8492 393.824 83.5852C394.959 88.6012 391.991 92.9293 389.252 96.5739C386.742 99.7627 383.319 103.862 387.875 107.058C394.025 111.167 402.241 101.373 407.944 97.2758C412.506 94.0889 410.232 88.388 407.5 84.7382C404.085 79.72 399.986 75.385 397.94 69.6843C396.122 64.2118 392.251 60.333 388.836 55.7707C386.332 52.577 382.911 53.9414 381.538 59.8667C380.393 65.1084 384.037 67.8473 387.226 70.5858C389.048 71.9552 390.642 73.5524 391.552 75.3769ZM469.047 83.8859C460.611 85.4734 456.05 87.2925 447.846 85.2331C443.288 84.0889 445.352 71.5538 440.566 70.6373C438.971 70.1799 436.465 68.5818 435.323 70.1764C434.639 71.0875 435.092 73.5954 435.091 74.7351C435.317 77.0148 436.679 82.7149 433.259 83.1674C428.7 83.8469 430.754 80.8855 428.009 90.4567C425.265 100.028 415.459 104.121 412.266 105.942C409.073 107.762 404.054 112.317 396.304 112.309C388.554 112.074 387.411 114.58 393.562 118.917C398.345 122.341 399.024 127.356 399.475 132.828C399.475 132.828 399.475 132.828 399.475 133.055C399.701 135.335 400.833 143.314 397.413 143.995C393.309 144.675 379.633 143.978 373.934 143.972C368.235 143.967 370.506 152.859 370.273 158.33C370.04 163.8 371.406 165.625 373.229 166.083C375.052 166.768 379.381 168.824 381.655 173.841C383.93 178.858 391.455 176.358 399.205 176.821C406.954 177.285 405.595 168.165 406.739 164.747C407.882 161.329 405.148 159.275 412.899 159.055C420.421 158.834 423.161 153.822 424.079 148.124C424.996 142.198 430.69 147.674 438.216 142.895C445.743 138.115 457.583 152.259 462.822 156.139C465.328 157.965 471.933 163.215 471.476 164.582C469.877 167.772 457.8 163.885 461.441 170.499C466.219 179.621 471.237 175.523 478.313 166.412C485.616 157.529 468.755 149.763 465.566 147.252C462.377 144.514 454.632 139.491 460.109 132.886C465.586 126.509 478.336 142.022 478.336 142.022C484.031 146.586 492.453 158.676 495.179 168.708C498.132 178.513 499.271 179.425 508.161 180.118C517.05 180.81 510.223 169.178 508.859 164.618C507.268 160.286 507.269 159.146 512.968 159.379C518.666 159.613 521.619 170.785 524.806 174.891C527.993 178.997 539.16 181.971 543.72 180.152C548.509 178.333 549.879 176.511 555.344 181.987C560.81 187.463 548.259 200.9 544.384 201.58C540.508 202.26 533.437 206.812 524.324 202.017C515.211 196.993 513.614 197.903 503.358 196.07C493.102 194.236 494.693 199.48 492.18 205.633C489.666 211.785 484.656 207.221 482.379 204.483C480.102 201.746 461.191 192.61 454.358 187.588C447.524 182.567 448.669 177.553 446.166 172.536C443.663 167.518 435.681 172.07 434.312 173.664C432.942 175.258 426.332 175.48 420.177 175.474C414.023 175.468 411.744 174.326 408.092 179.109C404.441 183.893 404.671 181.158 397.828 185.71C390.985 190.262 384.148 188.66 374.117 190.018C364.086 191.376 367.031 210.527 367.028 213.946C367.025 217.365 365.425 221.239 361.323 220.323C357.221 219.407 350.135 239.916 345.344 244.242C340.552 248.568 343.275 261.792 343.499 266.351C343.722 270.91 339.843 274.554 337.335 275.463C334.827 276.372 338.003 291.648 336.176 295.521C334.349 299.395 347.567 301.915 347.567 301.915C348.705 303.512 357.365 306.483 363.055 314.923C370.111 325.415 376.951 324.738 376.951 324.738C376.951 324.738 423.68 324.555 434.394 324.566C438.953 324.57 443.282 326.17 446.242 329.82C448.974 333.47 451.703 339.399 449.192 343.728C446.908 347.829 445.762 355.122 449.177 359C450.999 361.054 453.961 362.424 456.239 364.022C463.529 368.36 466.018 387.282 466.008 397.084C466.002 403.467 465.312 410.076 463.482 416.457C463.024 418.508 462.339 420.559 460.969 422.381C459.143 425.115 458.457 426.71 458.682 429.901C458.677 434.916 457.76 440.386 463.229 442.443C466.647 443.814 471.875 459.547 471.875 459.547C471.875 459.547 485.287 496.944 487.103 505.152C488.919 513.36 492.794 512.908 495.302 512.91C497.809 512.912 500.544 513.371 501.231 509.952C501.918 506.762 504.881 507.448 504.881 507.448C504.881 507.448 507.616 507.907 519.469 507.463C531.551 507.018 540.232 488.107 543.198 485.147C546.164 482.186 546.393 481.275 546.171 475.348C545.721 469.193 546.861 468.738 552.788 468.288C558.943 467.838 558.036 462.822 558.275 450.969C558.515 439.116 564.445 435.474 572.659 427.504C580.873 419.534 575.205 387.388 574.534 374.394C573.862 361.4 582.302 355.254 582.302 355.254C582.302 355.254 610.38 314.25 620.648 303.091C630.917 291.931 614.274 294.651 614.274 294.651C614.274 294.651 599.001 295.092 591.935 294.173C584.87 293.482 577.362 278.658 573.946 274.78C570.531 270.902 562.559 264.055 561.199 256.076C559.839 248.096 556.883 240.799 556.883 240.799C556.201 239.203 548.913 231.902 548.01 223.239C545.977 203.861 553.257 218.913 553.257 218.913C553.257 218.913 555.987 224.158 565.782 231.234C575.577 238.538 581.023 263.845 585.801 273.652C590.578 283.458 589.894 283.458 604.939 283.7C619.983 284.17 640.519 262.079 646.678 257.982C652.837 253.885 650.79 248.64 648.288 243.167C645.786 237.694 640.542 238.829 630.514 236.767C620.486 234.934 617.079 222.622 607.966 216.914C598.854 211.207 607.288 211.671 613.67 212.361C620.051 213.051 620.732 216.471 623.919 220.349C627.107 224.455 632.119 226.739 642.15 225.837C652.18 225.163 658.787 229.044 661.064 232.01C663.34 234.976 670.176 237.49 670.176 237.49C670.176 237.49 687.273 237.506 689.322 239.788C691.371 242.069 690.225 248.223 701.394 249.373C712.562 250.524 718.012 272.64 718.012 272.64C718.012 272.64 721.176 300.909 728.921 305.703C743.957 315.063 740.112 283.831 740.801 277.905C741.491 271.979 758.368 262.877 764.297 260.147C766.806 259.01 767.948 256.276 768.179 253.541C768.408 251.717 767.045 247.613 768.414 246.247C769.554 245.336 774.113 245.568 775.481 245.798C778.443 246.256 783.916 243.982 785.278 250.366C786.639 256.75 794.838 264.736 794.838 264.736C797.343 267.246 800.533 268.617 803.951 269.304C806.914 269.762 810.563 268.398 813.297 269.997C817.17 272.28 814.655 280.028 814.423 283.447C814.42 287.094 813.504 290.74 813.957 294.616C814.408 298.719 816.913 302.141 817.821 306.245C818.502 308.981 818.955 311.489 819.18 314.224C819.18 314.224 828.502 339.308 841.726 336.813C850.617 335.226 835.131 320.166 828.527 313.322C821.923 306.477 821.474 299.638 824.444 292.574C827.414 285.511 833.104 294.406 842.9 300.57C852.696 306.734 848.823 304.451 856.811 294.429C864.799 284.635 857.744 272.775 855.239 270.265C852.734 267.755 842.261 254.068 854.575 249.749C866.66 245.43 878.514 244.529 885.126 243.624C891.737 242.719 891.06 235.652 902.017 220.162C912.973 204.672 902.506 185.058 897.955 177.076C893.176 169.093 892.268 164.989 899.114 157.017C905.961 149.046 912.557 163.413 912.557 163.413C912.557 163.413 919.384 175.045 928.491 186.451C937.598 197.857 939.665 182.359 941.264 178.713C942.863 174.839 936.941 170.047 933.527 164.801C930.113 159.555 933.996 151.352 934.911 148.39C935.825 145.427 952.473 137.465 957.718 135.419C962.963 133.372 968.442 124.488 970.74 105.114C973.038 85.7408 977.577 106.944 977.577 106.944C977.577 106.944 978.219 150.483 977.983 158.461C977.747 166.439 978.2 169.859 968.392 176.004C958.584 182.149 957.446 180.78 952.202 181.915C946.958 183.05 945.133 184.871 944.665 197.408C944.197 209.945 950.358 203.112 951.045 200.15C951.732 197.187 954.019 188.527 960.629 189.217C967.239 189.908 977.732 182.395 983.891 177.842C990.05 173.289 987.327 160.978 987.105 153.911C986.884 146.844 986.198 148.895 992.353 148.445C998.509 147.995 996.23 147.537 997.147 141.839C998.064 136.142 995.329 135.455 989.631 135.222C983.932 134.988 985.078 129.519 985.078 129.519C985.078 129.519 986.244 101.482 984.883 94.8702C983.521 88.4864 975.553 78.9048 958.911 80.0285C942.27 81.1521 967.594 58.3818 975.58 50.1834C983.339 41.9847 991.083 47.463 991.083 47.463C991.083 47.463 1000.42 52.031 1013.42 54.7789C1026.41 57.5268 1020.26 47.2632 1021.86 40.4263C1023.47 33.5894 1029.16 36.3303 1039.87 43.635C1050.57 50.9397 1030.5 64.3692 1027.99 68.4699C1025.48 72.5705 1031.4 83.2898 1037.99 95.3775C1044.59 107.465 1043.47 92.6474 1044.38 87.8613C1045.07 83.0751 1044.62 78.7437 1049.41 75.1011C1054.2 71.4586 1051.47 65.0734 1051.48 55.2716C1051.49 45.4698 1058.33 46.8441 1069.04 46.8545C1079.76 47.0928 1081.13 43.219 1083.64 41.6258C1086.15 40.0326 1084.78 36.3841 1100.74 34.348C1116.7 32.5398 1083.46 -8.29508 1080.72 -11.261C1077.99 -14.227 1031.26 -11.7648 1019.86 -12.2317C1008.47 -12.6986 1008.93 -19.9925 1006.65 -22.7301C1004.37 -25.4677 978.615 -23.2131 973.828 -23.4457C969.041 -23.6782 964.036 -33.7128 959.933 -34.1727C955.831 -34.6325 954.231 -30.531 950.125 -26.8878C946.018 -23.2446 946.026 -31.9066 945.574 -35.5542C945.122 -39.2018 942.615 -40.344 938.058 -41.7161C933.5 -43.0882 933.488 -31.007 933.256 -26.9041C933.024 -22.8013 896.326 -24.2044 889.26 -24.4392C882.194 -24.674 879.922 -32.4264 878.562 -40.6339C877.202 -48.8413 869.9 -40.1864 869.9 -40.1864L852.575 -39.2913C852.575 -39.2913 823.398 -40.2313 815.647 -39.0991C808.124 -37.9666 815.656 -48.4449 819.764 -53.2279C823.872 -58.2388 804.959 -65.5514 802.681 -67.6052C800.404 -69.6589 785.129 -67.1662 781.939 -68.3091C778.977 -69.4517 776.702 -74.4687 775.789 -72.874C774.875 -71.2792 773.731 -66.4934 770.309 -63.9893C766.888 -61.4852 763.697 -62.4 759.138 -61.7206C754.578 -61.0412 757.311 -58.987 741.812 -59.9138C726.312 -60.6126 725.618 -50.3556 720.826 -44.6615C715.805 -38.9677 707.6 -39.4315 703.724 -39.2073C699.849 -38.7551 701.209 -31.0036 699.381 -26.2184C697.553 -21.4333 690.269 -32.3818 687.535 -33.7522C684.801 -35.3505 685.704 -26.4596 685.704 -26.4596C685.704 -26.4596 685.451 -0.0178403 684.308 2.71644C683.166 5.45071 674.526 -17.3525 674.531 -22.5953C674.764 -27.8379 670.444 -39.2395 669.534 -41.2919C668.852 -43.1161 666.57 -40.155 663.602 -36.0548C660.635 -31.9546 662.451 -23.7467 661.761 -18.0487C661.072 -12.3506 657.884 -15.317 648.994 -15.3256C640.104 -15.3342 638.505 -12.3724 634.855 -8.95674C631.204 -5.54105 617.756 -6.46584 610.006 -6.47334C602.256 -6.48083 598.376 -2.15356 591.306 2.17062C584.235 6.4948 586.065 -0.341878 581.512 -6.50088C576.732 -12.8881 575.126 -2.40399 572.614 2.15255C570.102 6.70909 556.893 -5.38494 550.516 -10.6339C544.138 -15.8829 540.259 -12.0115 536.84 -12.0148C533.421 -12.0181 529.544 -10.6542 525.903 -16.5844C522.261 -22.5145 512.687 -21.84 502.433 -25.2691C492.178 -28.6982 488.98 -21.179 478.034 -17.3145C467.089 -13.45 464.348 -7.07006 464.348 -7.07006C464.348 -7.07006 464.348 -7.07006 463.658 -0.916118C462.968 5.23782 455.439 12.069 450.646 17.991C445.854 23.913 436.735 24.3601 431.718 27.0906C426.7 29.8212 430.104 46.0088 430.326 52.6195C430.547 59.0023 441.037 54.4535 447.876 54.4601C454.486 54.4665 450.834 60.1617 449.919 62.8962C449.461 64.9472 446.043 64.488 445.357 65.8551C445.129 66.0828 445.129 66.5387 445.356 67.2227C446.266 69.5031 448.771 71.3291 450.137 73.6099C454.461 80.6805 457.66 72.9334 457.66 72.9334C457.66 72.9334 464.279 64.2777 470.214 55.1655C475.465 47.1924 465.897 41.0285 471.603 33.5118C476.396 27.1339 482.328 21.4409 488.259 16.8876C498.524 8.91937 500.115 13.7078 503.074 18.2697C506.033 22.8315 488.247 29.1968 483.221 40.8174C478.195 52.4379 495.299 44.7041 490.502 54.7292C480.906 77.7427 478.166 82.0711 469.047 83.8859ZM613.443 -24.9338C616.632 -22.4233 620.049 -20.1405 623.694 -18.0855C624.833 -17.4005 630.073 -14.2042 628.709 -17.8527C627.799 -20.361 625.75 -22.8704 624.157 -24.9235C620.969 -29.0296 621.428 -31.7646 621.433 -37.2353C621.438 -42.7061 632.384 -47.2545 632.384 -47.2545C670.014 -65.9098 634.9 -55.4582 629.428 -54.7796C624.185 -54.3288 618.942 -53.65 616.205 -52.7409C613.469 -51.8317 607.307 -44.5433 604.338 -38.3916C603.425 -36.5689 603.878 -34.289 604.56 -32.4647C605.243 -31.0964 606.154 -29.9557 607.52 -29.0426C609.571 -27.6729 611.849 -26.3031 613.443 -24.9338ZM595.685 423.879C592.72 426.156 593.397 433.223 593.157 445.304C593.154 448.723 597.461 472.89 603.168 464.461C603.168 464.233 610.701 453.299 610.935 447.145C611.169 440.762 616.418 434.385 618.474 430.056C620.53 425.727 619.395 420.027 615.073 410.677C610.752 401.327 605.721 417.051 605.721 417.051C604.351 419.557 598.651 421.603 595.685 423.879ZM827.119 355.035C830.307 358.685 833.494 362.563 836.682 366.213C838.276 368.039 839.87 369.864 841.464 371.689C843.286 373.514 845.563 375.34 846.473 377.62C847.383 379.901 847.152 383.092 848.973 384.917C850.567 386.514 853.075 386.517 855.127 386.291C864.017 386.071 872.906 386.536 882.024 386.545C934.452 386.595 894.793 382.91 892.514 382.452C890.235 381.994 885.447 383.129 881.119 379.933C876.791 376.738 857.186 377.631 857.186 377.631C857.186 377.631 850.348 377.852 851.265 372.154C852.182 366.456 849.447 366.91 840.798 352.54C832.15 338.171 832.597 348.202 818.933 334.283C805.27 320.365 813.69 334.506 816.42 339.98C819.15 345.453 825.298 352.525 825.298 352.525C825.753 353.438 826.436 354.35 827.119 355.035ZM902.109 360.806C901.194 363.768 901.191 366.504 904.609 367.647C910.99 369.477 909.852 367.424 916.239 363.327C917.379 362.644 920.801 360.596 920.574 359C920.348 357.632 917.384 357.629 916.245 356.944C915.106 356.032 913.968 354.891 912.6 354.889C910.777 354.66 908.953 354.658 907.129 354.884C904.849 355.11 903.709 355.793 903.023 357.616C902.567 358.527 902.338 359.666 902.109 360.806ZM881.824 358.051C883.875 358.053 886.155 358.055 888.207 357.145C890.032 356.463 891.173 354.869 892.542 353.73C895.051 351.681 895.509 349.402 895.967 347.123C897.341 340.97 896.891 334.359 896.897 328.204C896.908 317.263 895.31 319.313 893.491 314.752C892.582 312.244 884.829 315.2 881.635 317.704C878.441 320.208 880.261 324.541 880.03 327.732C880.026 331.835 875.922 332.515 873.185 334.564C869.763 337.068 866.569 339.8 863.375 342.533C859.269 345.948 863.14 349.599 864.96 353.248C865.415 354.16 866.098 355.3 867.009 355.985C868.604 357.354 870.655 357.584 872.478 357.814C872.706 357.814 872.706 357.814 872.934 357.814C875.897 358.045 878.861 358.048 881.824 358.051ZM918.572 307.71C920.164 311.131 922.441 314.552 924.489 317.745C925.627 319.57 928.132 322.536 930.413 320.714C933.378 318.438 932.698 314.562 932.701 311.599C932.708 304.76 933.401 294.731 930.671 289.942C927.712 285.152 922.244 282.411 918.829 277.849C916.097 274.427 913.817 274.881 910.41 262.112C906.775 249.344 907.9 265.301 907.208 273.279C906.516 281.256 913.805 287.646 913.805 287.646C919.042 293.578 915.615 300.869 918.572 307.71ZM974.358 370.905C977.094 371.136 979.6 372.05 981.422 374.332C983.698 377.069 984.379 380.261 986.2 383.226C987.338 385.279 989.159 388.016 992.122 387.335C994.859 386.426 997.597 383.693 999.873 386.659C1003.06 390.765 1004.66 388.943 1004.66 388.943C1005.57 388.26 1012.64 383.936 1016.06 386.674C1035.87 402.878 1027.45 390.788 1022.44 384.401C1017.43 378.014 1004.68 368.655 998.985 362.951C993.291 357.247 981.661 362.251 975.28 361.333C968.898 360.415 970.955 354.718 967.539 350.839C964.124 346.961 950.443 351.051 947.253 349.452C944.064 347.853 942.469 347.168 942.473 342.837C942.473 342.153 941.111 336.453 939.514 338.503C938.829 339.414 939.283 341.922 939.281 343.062C939.28 344.885 939.278 346.709 939.504 348.533C940.184 352.865 943.605 351.044 949.3 354.469C954.996 357.666 957.042 363.366 958.177 368.154C959.085 372.03 963.872 371.807 967.519 371.355C969.799 371.129 972.079 370.903 974.358 370.905ZM1005.2 540.301C1004.06 540.072 1001.78 539.842 1001.32 541.209C1000.86 542.576 1003.37 544.174 1003.37 545.314C1003.37 547.138 1002.9 552.836 1008.37 553.297C1013.62 553.758 1014.53 550.568 1015.68 545.326C1015.91 544.414 1015.91 543.502 1015.45 542.59C1014.77 541.45 1013.17 541.22 1012.03 541.219C1010.89 540.99 1009.75 540.989 1008.39 540.76C1007.25 540.531 1006.34 540.53 1005.2 540.301ZM943.32 409.399C937.165 410.077 931.463 413.946 926.217 416.904C922.796 418.725 919.147 421.001 917.547 424.874C916.176 428.064 916.399 433.535 915.94 436.954C915.252 441.056 904.542 437.399 900.438 438.079C896.335 438.759 897.698 442.863 896.329 444.229C894.732 445.596 889.035 443.994 884.247 444.902C878.547 446.036 881.273 456.068 880.814 459.943C880.354 463.818 878.982 467.691 878.067 471.566C876.236 478.858 880.568 478.178 884.213 480.006C887.859 481.833 884.429 492.315 885.108 498.014C885.787 503.258 892.62 508.279 896.949 510.107C899.911 511.478 903.559 510.797 906.75 510.8C910.398 510.804 914.045 511.035 917.465 510.127C920.885 509.218 923.395 506.485 926.36 504.437C930.922 501.022 935.939 499.431 941.637 499.893C947.563 500.354 953.261 501.044 959.188 501.277C962.379 501.28 967.851 500.146 968.759 504.25C969.44 507.214 968.981 510.405 969.662 513.369C971.023 519.753 975.356 517.477 980.599 517.482C985.842 517.487 986.066 521.591 987.43 525.467C989.703 532.08 994.49 531.629 1000.42 531.634C1004.52 531.638 1008.62 531.642 1012.73 531.418C1019.79 530.741 1024.13 523.679 1024.13 523.679C1024.13 523.679 1033.49 507.732 1038.06 501.353C1042.62 494.975 1044.46 480.616 1044.47 469.447C1044.48 458.277 1029 442.534 1029 442.534C1029 442.534 1008.28 416.756 1004.63 412.877C1000.99 408.999 1003.28 404.214 1001.91 399.882C1000.78 395.549 997.351 402.613 993.474 403.749C989.598 404.885 991.635 420.387 991.632 422.666C991.63 424.946 986.844 424.485 984.339 421.292C981.835 418.098 980.239 418.78 976.594 416.725C972.948 414.67 970.673 410.793 970.223 404.638C970.001 398.483 963.616 400.528 956.322 400.293C949.028 400.058 951.989 402.341 950.618 406.215C949.704 408.721 946.968 408.946 944.688 409.172C944.004 409.171 943.548 409.399 943.32 409.399ZM1100.23 557.261L1100.01 557.489C1097.5 560.45 1089.96 570.472 1094.52 571.16C1098.85 571.848 1104.32 574.361 1107.06 571.4C1109.8 567.984 1108.89 565.247 1117.1 562.064C1121.2 560.472 1124.63 547.939 1124.63 547.939C1124.63 547.939 1123.27 543.378 1120.54 540.64C1118.26 538.587 1112.78 546.332 1110.73 548.381C1107.31 551.569 1103.2 554.073 1100.23 557.261ZM1136.96 534.046C1138.56 529.26 1141.97 531.999 1141.98 528.58C1141.98 525.161 1131.96 518.996 1128.54 516.03C1121.71 510.324 1128.08 522.412 1126.48 525.602C1124.42 529.247 1124.2 529.246 1125.79 533.579C1126.24 534.719 1127.38 540.191 1128.52 540.648C1135.12 542.934 1135.36 539.059 1136.96 534.046Z"/>
</mask>
<path d="M-18.6328 -50.6192C-21.5943 -52.4457 -24.5561 -54.0442 -27.9747 -54.7313C-32.533 -55.4196 -37.7762 -54.9688 -42.105 -57.2524C-45.0668 -58.8509 -50.9855 -67.0628 -43.6918 -66.3719C-38.6774 -65.9112 -28.8754 -66.1296 -25.4525 -70.0014C-16.781 -79.7948 -5.17831 -56.3049 4.6259 -58.8029C9.87001 -60.1655 11.0164 -67.0029 16.484 -63.8063C19.9013 -61.7515 23.5453 -58.5567 26.0497 -55.363C29.6924 -50.8005 27.1826 -48.2955 21.9389 -47.3887C17.1513 -46.7095 12.3649 -47.17 7.35004 -47.1749C2.79108 -47.1793 -1.76835 -46.7278 -6.32775 -46.2763C-10.8871 -45.8248 -14.7598 -48.336 -18.6328 -50.6192ZM33.8244 -80.6577C33.8244 -80.6577 36.3217 -70.1697 39.9675 -68.7985C43.3854 -67.4275 45.2073 -65.6021 47.4914 -70.3868C49.7752 -74.9436 44.5344 -77.0002 40.6628 -80.6511C36.7912 -84.302 30.6452 -93.1979 33.8244 -80.6577ZM17.1247 -19.1278C10.5173 -22.3255 13.7127 -26.6534 11.4405 -34.1779C9.16832 -41.7024 4.37413 -34.1847 -2.2432 -27.1247C-8.86052 -20.0647 -15.4584 -33.0642 -18.8744 -36.4867C-22.2903 -39.9092 -19.0983 -40.59 -36.6488 -42.2026C-53.9711 -44.0429 -52.603 -44.4975 -60.3618 -35.615C-68.1206 -26.7325 -53.7577 -28.9981 -43.7291 -27.8487C-33.7005 -26.6992 -33.4783 -20.7724 -34.396 -14.6186C-35.3137 -8.46492 -53.7747 -11.4461 -71.0967 -13.5144C-88.4188 -15.5827 -86.8269 -11.706 -95.7206 -7.83948C-104.614 -3.97296 -123.296 -14.2487 -131.044 -16.7636C-138.792 -19.2785 -191.679 -16.1384 -199.429 -16.1459C-207.179 -16.1534 -211.516 -10.2309 -217.445 -7.50127C-223.375 -4.77162 -220.878 5.94436 -221.11 10.959C-221.343 15.9736 -232.736 11.4037 -238.663 11.3979C-244.589 11.3922 -242.997 14.813 -243.457 19.1435C-243.917 23.4741 -241.41 23.9324 -234.344 23.4834C-227.277 23.0343 -224.314 24.1769 -224.091 28.964C-223.868 33.7512 -233.211 31.2347 -238.91 31.2292C-244.609 31.2237 -242.339 41.2556 -241.207 49.6908C-240.076 58.126 -234.604 56.7636 -231.415 59.0462C-228.225 61.3287 -223.67 64.5244 -250.579 75.8958C-277.487 87.2672 -251.496 82.2775 -246.936 80.4583C-242.375 78.6391 -222.31 72.5039 -216.383 72.5096C-210.456 72.5154 -201.332 65.6857 -193.803 59.3105C-186.275 52.9352 -162.799 55.9212 -145.931 56.1655C-129.063 56.4097 -114.51 93.3514 -106.31 99.0581C-98.109 104.765 -97.2419 151.039 -97.4831 164.716C-97.7243 178.392 -87.7036 187.748 -83.1488 192.083C-78.594 196.419 -67.4486 221.276 -55.1555 237.928C-42.8626 254.808 -48.5408 233.603 -52.1787 224.026C-55.8164 214.221 -48.7586 223.118 -48.7586 223.118C-48.7586 223.118 -26.8999 248.213 -22.5801 259.843C-18.2603 271.472 0.421964 281.292 12.9582 282.216C25.4945 283.14 25.2632 286.559 25.2632 286.559C25.2632 286.559 24.5748 291.345 39.6176 293.183C54.4324 295.021 51.9138 306.644 58.064 311.209C64.2142 315.774 73.7833 320.57 82.2174 320.578C90.6515 320.586 87.6891 319.672 89.2785 326.056C90.868 332.44 84.933 341.096 80.5975 345.651C76.2621 350.206 75.7961 360.691 75.7842 373C75.7723 385.309 80.5568 387.821 80.5568 387.821C80.5568 387.821 106.502 430.245 112.653 434.126C118.804 438.007 117.884 446.212 117.884 446.212C117.884 446.212 117.823 508.67 117.591 513.457C117.358 518.243 116.902 518.243 112.794 523.938C108.685 529.632 109.357 542.17 109.357 542.17C109.357 542.17 108.62 597.561 108.616 601.664C108.612 605.767 114.989 611.016 135.722 622.206C156.454 633.395 141.426 616.74 139.15 612.863C136.874 608.986 138.479 598.957 138.487 591.435C138.494 583.913 144.88 580.044 147.392 575.487C149.904 570.931 147.628 567.509 147.636 559.531C147.643 551.553 156.537 547.459 156.537 547.459C156.537 547.459 205.366 497.813 209.246 493.258C213.125 488.703 213.818 479.813 213.367 474.798C212.916 469.783 227.974 455.209 236.414 449.062C244.854 442.916 251.481 425.598 251.941 421.723C252.401 417.849 252.637 408.959 258.34 404.633C264.043 400.308 263.824 390.962 266.113 381.162C268.402 371.363 250.167 370.205 239.233 363.128C228.298 356.051 210.976 353.983 209.608 353.982C208.241 353.98 200.489 354.885 200.951 349.187C201.412 343.488 196.635 333.682 193.904 328.892C191.173 324.103 186.842 324.327 181.599 324.321C176.356 324.316 160.414 309.484 153.58 304.919C146.746 300.353 132.838 303.987 123.722 301.471C114.607 298.954 119.166 298.959 110.962 296.671C102.758 294.384 98.872 305.778 94.9957 306.914C91.1195 308.05 78.5828 307.582 74.0245 306.893C69.4662 306.205 66.0547 298.224 64.922 290.928C63.7893 283.633 61.285 280.439 55.1337 277.014C48.9824 273.589 48.0781 265.838 48.7672 260.367C49.4564 254.897 45.5817 254.438 41.0229 254.205C36.4642 253.973 36.6904 255.797 35.5469 259.671C34.4034 263.545 30.7545 265.365 20.9542 263.76C11.1543 261.927 7.06244 250.297 5.93173 240.95C4.80103 231.603 5.03403 226.361 11.4219 220.896C17.8097 215.432 19.6304 218.397 28.2911 219.773C36.9518 221.149 42.8831 216.368 48.5876 210.447C54.292 204.525 61.1208 214.562 61.1208 214.562C61.1208 214.562 61.1207 214.562 70.4525 229.16C79.7842 243.757 78.6589 228.94 76.393 214.805C74.1272 200.67 117.709 155.806 124.325 149.43C130.942 143.054 130.256 145.788 141.654 144.887C153.052 143.987 157.394 132.366 164.009 127.585C170.625 122.804 155.352 123.018 148.517 119.364C141.682 115.71 153.08 114.809 157.185 112.762C161.29 110.714 169.954 109.583 181.35 110.278C192.747 110.973 164.52 70.8264 159.738 66.2628C154.955 61.6992 156.33 54.8621 154.056 48.2494C151.783 41.6367 144.023 52.5707 138.317 59.6315C132.611 66.6924 132.846 59.6263 133.762 55.2961C134.678 50.966 130.124 46.4026 128.078 40.474C126.032 34.5454 111.442 36.3548 106.199 36.1218C100.956 35.8888 101.868 36.3456 100.264 45.234C98.6594 54.1224 101.161 59.8236 102.749 68.0312C104.337 76.2389 95.208 87.3996 89.9596 93.0932C84.7113 98.7868 83.3502 91.9471 83.1278 86.2481C82.9054 80.5492 80.1691 81.4584 73.7875 80.5404C67.4058 79.6224 66.9501 79.3941 64.4484 73.465C61.9467 67.5359 53.5175 62.5129 45.5397 62.0493C37.562 61.5857 40.0829 47.6833 40.3168 41.5289C40.5509 35.1466 52.4044 34.9301 56.2806 33.7941C60.1568 32.6581 66.5434 28.5612 72.9189 35.8617C79.2946 42.9343 85.456 35.8738 85.456 35.8738C85.456 35.8738 95.2651 28.361 95.2695 23.802C95.2739 19.2431 93.221 20.6088 87.0664 20.6028C80.9118 20.5969 80 20.596 80.0051 15.3532C80.0102 10.1104 80.0106 9.65449 90.9523 9.43712C101.894 9.21975 96.8889 -0.814812 102.136 -5.59665C107.384 -10.3785 112.395 -6.72648 111.474 3.07441C110.553 12.8753 121.957 5.36402 128.337 7.87762C134.717 10.3912 131.751 13.5796 126.279 14.7141C120.807 15.8485 124.453 17.6757 126.043 23.6038C127.633 29.532 126.95 27.9357 144.273 29.3202C161.596 30.7046 146.788 21.8003 145.65 19.9756C144.512 18.1509 139.273 13.5869 155.001 14.5139C170.728 15.4409 160.939 2.66633 160.939 2.66633C160.939 2.66633 150.016 -16.2639 137.483 -21.063C124.951 -25.862 128.37 -25.6307 121.767 -33.8433C115.165 -42.0558 89.8586 -38.2051 82.3368 -38.6683C74.8149 -39.1315 75.266 -34.1162 71.3863 -29.333C67.7344 -24.5496 76.8478 -19.7539 77.7448 -4.48049C78.6418 10.7929 68.6251 -2.66572 68.6251 -2.66572C68.6251 -2.66572 63.1607 -9.28151 60.659 -15.2106C58.1573 -21.1397 57.2486 -24.3318 60.9 -28.6593C64.5513 -32.9868 66.1516 -37.7722 58.6386 -47.3533C51.1255 -56.9343 44.9745 -60.5875 41.7836 -61.0465C38.5928 -61.5054 39.4984 -55.122 39.949 -49.6508C40.3996 -44.1796 43.5918 -45.0883 47.4638 -41.8933C51.1079 -38.6985 49.5065 -32.7734 48.5888 -26.6197C47.6711 -20.466 47.4473 -24.7972 41.7576 -34.1486C36.068 -43.5 32.4159 -38.4886 27.3949 -32.1109C22.3739 -25.7332 36.047 -21.8449 36.4919 -10.447C36.9368 0.950805 30.5633 -8.40123 30.5633 -8.40123C30.5633 -8.40123 23.7321 -15.9301 17.1247 -19.1278ZM-190.521 200.642C-190.521 200.642 -185.53 225.493 -179.146 224.359C-166.379 222.092 -175.945 213.877 -187.102 200.645C-188.012 199.276 -191.883 194.942 -190.521 200.642ZM83.1912 256.526C84.5584 256.983 85.9258 257.212 87.0649 257.897C88.8874 259.039 90.2531 261.091 92.304 261.777C95.0383 262.92 100.512 260.19 103.248 259.508C114.876 256.784 83.8845 246.725 78.415 245.352C72.9456 243.979 71.3511 242.837 59.0366 248.296C46.7221 253.755 69.5165 254.233 69.5165 254.233C74.3027 254.921 78.8612 255.382 83.1912 256.526ZM110.766 263.391C110.765 264.758 110.764 266.126 110.991 266.354C112.129 268.863 115.321 267.954 117.6 267.956C119.652 267.958 132.418 267.287 126.493 265.002C122.847 263.63 118.975 261.119 114.873 259.748C108.948 257.69 110.769 260.655 110.766 263.391ZM58.8822 -63.5374C60.702 -59.6605 63.438 -60.3417 65.7164 -59.1997C67.9948 -58.0578 68.676 -55.3217 69.3535 -48.7106C70.0309 -42.0994 91.0046 -44.5866 105.365 -44.8006C119.726 -45.0147 110.388 -52.546 92.1516 -52.1078C84.1732 -51.8875 83.2627 -53.2561 80.9874 -57.5893C78.7121 -61.9225 75.0652 -62.154 69.8243 -64.2106C64.5835 -66.2672 65.0421 -69.0022 60.0323 -74.2498C53.2006 -81.3228 56.8344 -67.4145 56.8344 -67.4145C56.8344 -67.4145 57.0623 -67.4142 58.8822 -63.5374ZM115.865 -59.1512C126.123 -59.1413 132.52 -74.6356 132.979 -77.1426C133.437 -79.6496 139.596 -83.9747 147.802 -83.9667C156.008 -83.9588 160.339 -83.9546 163.99 -88.2821C167.642 -92.6096 163.765 -90.5618 175.621 -93.5137C187.477 -96.4655 187.252 -100.113 187.029 -104.672C186.805 -109.231 167.657 -109.022 162.414 -108.799C157.171 -108.576 157.624 -105.384 151.922 -101.743C146.22 -98.1011 111.803 -101.554 100.862 -101.792C99.7219 -101.793 98.5821 -101.794 97.6699 -101.339C99.0356 -99.2864 103.822 -98.8259 105.873 -97.9121C108.835 -96.7695 110.428 -94.4885 112.934 -92.8904C115.44 -91.5203 118.404 -91.2895 121.139 -91.0589C149.857 -88.0678 127.744 -85.5818 125.464 -85.356C123.184 -85.1303 119.539 -86.5015 118.849 -80.5755C118.159 -74.6495 110.64 -77.6201 106.765 -77.3959C102.889 -77.1717 104.258 -77.8542 104.265 -85.1486C104.272 -92.4429 87.4024 -91.0915 80.1078 -90.8706C72.8132 -90.6497 75.7706 -84.4923 75.3079 -77.4263C74.8451 -70.3604 76.669 -70.5866 84.1906 -69.8954C91.4843 -69.2045 88.9751 -67.3834 89.8827 -63.0515C90.7903 -58.7196 102.188 -59.3924 102.188 -59.3924C102.188 -59.3924 105.607 -59.1612 115.865 -59.1512ZM198.875 -97.5943C198.875 -97.5943 192.267 -99.4242 188.843 -94.6406C185.419 -89.857 189.066 -89.3976 181.087 -89.1774C173.109 -88.9571 173.564 -88.5008 171.736 -83.7156C169.908 -78.9305 166.028 -74.3753 160.33 -74.3808C154.631 -74.3863 145.515 -76.4467 146.423 -72.1148C147.33 -67.5549 155.069 -55.9221 158.944 -55.6904C162.819 -55.4587 195.419 -59.0743 198.826 -46.078C202.232 -32.8537 196.74 -10.976 202.891 -7.32283C209.042 -3.66972 206.303 0.658655 204.25 1.79641C202.197 2.93417 199.009 0.423659 199.002 7.03415C198.996 13.6447 201.05 10.6833 204.692 16.1576C208.334 21.6319 210.159 19.5821 210.152 27.7882C210.144 35.9944 209.229 39.1848 215.382 40.1025C221.536 41.0203 226.774 46.0402 227.683 49.0044C228.592 51.9686 234.749 49.2392 236.348 45.5935C237.948 41.9479 256.892 16.2081 262.591 15.7577C268.29 15.3073 278.092 16.0006 278.324 10.986C278.557 5.97132 275.373 -1.3261 282.44 -1.54722C289.506 -1.76834 302.955 -1.52738 308.888 -8.13215C314.821 -14.7369 327.137 -21.7914 315.741 -23.626C310.499 -24.5429 305.717 -29.1065 308.458 -34.5746C308.686 -35.2582 316.664 -34.5666 317.804 -34.7935C320.539 -35.2467 324.188 -36.155 325.786 -38.8888C328.298 -43.6733 330.81 -48.4578 333.55 -53.2421C336.061 -57.1148 344.275 -65.5409 334.019 -67.3744C330.829 -68.0613 329.237 -71.7101 333.799 -75.5808C333.799 -75.5808 340.653 -90.8467 347.491 -90.8401C349.543 -90.8381 368.919 -91.7312 366.187 -94.9251C364.365 -96.9784 364.365 -96.9784 350.689 -97.9034C348.866 -98.1331 347.728 -99.7298 346.133 -100.415C343.854 -101.101 340.89 -100.876 338.611 -100.878C326.301 -100.206 330.404 -99.9745 325.165 -104.311C319.927 -108.647 314.912 -108.652 292.801 -108.445C270.461 -108.239 262.03 -110.526 256.554 -105.745C251.079 -100.963 253.583 -97.9973 241.958 -98.0085C230.333 -98.0197 198.875 -97.5943 198.875 -97.5943ZM317.976 22.4217C317.976 23.1056 317.975 24.0174 317.974 24.7012C317.972 26.5248 317.969 29.944 320.476 29.9464C324.124 29.95 327.771 29.7255 331.418 29.5011C333.242 29.2749 335.293 30.1887 336.662 29.0503C339.855 26.7739 341.226 23.8119 345.557 23.1322C347.381 22.906 352.395 23.8227 352.626 21.0875C352.627 19.9478 351.27 8.54906 349.448 7.17961C344.892 3.75598 333.488 10.3555 325.738 10.348C323.003 10.3453 320.268 9.43088 317.305 9.8839C314.797 10.3374 315.706 13.3016 316.16 15.1256C317.297 17.8621 317.751 19.9141 317.976 22.4217ZM377.19 77.1866C377.19 77.1866 368.066 83.7883 367.832 89.2588C367.599 94.5014 365.994 104.302 372.381 100.205C378.995 96.108 383.791 86.9947 383.791 86.9947C383.791 86.9947 385.404 68.7604 377.19 77.1866ZM391.552 75.3769C392.69 77.8854 393.143 80.8492 393.824 83.5852C394.959 88.6012 391.991 92.9293 389.252 96.5739C386.742 99.7627 383.319 103.862 387.875 107.058C394.025 111.167 402.241 101.373 407.944 97.2758C412.506 94.0889 410.232 88.388 407.5 84.7382C404.085 79.72 399.986 75.385 397.94 69.6843C396.122 64.2118 392.251 60.333 388.836 55.7707C386.332 52.577 382.911 53.9414 381.538 59.8667C380.393 65.1084 384.037 67.8473 387.226 70.5858C389.048 71.9552 390.642 73.5524 391.552 75.3769ZM469.047 83.8859C460.611 85.4734 456.05 87.2925 447.846 85.2331C443.288 84.0889 445.352 71.5538 440.566 70.6373C438.971 70.1799 436.465 68.5818 435.323 70.1764C434.639 71.0875 435.092 73.5954 435.091 74.7351C435.317 77.0148 436.679 82.7149 433.259 83.1674C428.7 83.8469 430.754 80.8855 428.009 90.4567C425.265 100.028 415.459 104.121 412.266 105.942C409.073 107.762 404.054 112.317 396.304 112.309C388.554 112.074 387.411 114.58 393.562 118.917C398.345 122.341 399.024 127.356 399.475 132.828C399.475 132.828 399.475 132.828 399.475 133.055C399.701 135.335 400.833 143.314 397.413 143.995C393.309 144.675 379.633 143.978 373.934 143.972C368.235 143.967 370.506 152.859 370.273 158.33C370.04 163.8 371.406 165.625 373.229 166.083C375.052 166.768 379.381 168.824 381.655 173.841C383.93 178.858 391.455 176.358 399.205 176.821C406.954 177.285 405.595 168.165 406.739 164.747C407.882 161.329 405.148 159.275 412.899 159.055C420.421 158.834 423.161 153.822 424.079 148.124C424.996 142.198 430.69 147.674 438.216 142.895C445.743 138.115 457.583 152.259 462.822 156.139C465.328 157.965 471.933 163.215 471.476 164.582C469.877 167.772 457.8 163.885 461.441 170.499C466.219 179.621 471.237 175.523 478.313 166.412C485.616 157.529 468.755 149.763 465.566 147.252C462.377 144.514 454.632 139.491 460.109 132.886C465.586 126.509 478.336 142.022 478.336 142.022C484.031 146.586 492.453 158.676 495.179 168.708C498.132 178.513 499.271 179.425 508.161 180.118C517.05 180.81 510.223 169.178 508.859 164.618C507.268 160.286 507.269 159.146 512.968 159.379C518.666 159.613 521.619 170.785 524.806 174.891C527.993 178.997 539.16 181.971 543.72 180.152C548.509 178.333 549.879 176.511 555.344 181.987C560.81 187.463 548.259 200.9 544.384 201.58C540.508 202.26 533.437 206.812 524.324 202.017C515.211 196.993 513.614 197.903 503.358 196.07C493.102 194.236 494.693 199.48 492.18 205.633C489.666 211.785 484.656 207.221 482.379 204.483C480.102 201.746 461.191 192.61 454.358 187.588C447.524 182.567 448.669 177.553 446.166 172.536C443.663 167.518 435.681 172.07 434.312 173.664C432.942 175.258 426.332 175.48 420.177 175.474C414.023 175.468 411.744 174.326 408.092 179.109C404.441 183.893 404.671 181.158 397.828 185.71C390.985 190.262 384.148 188.66 374.117 190.018C364.086 191.376 367.031 210.527 367.028 213.946C367.025 217.365 365.425 221.239 361.323 220.323C357.221 219.407 350.135 239.916 345.344 244.242C340.552 248.568 343.275 261.792 343.499 266.351C343.722 270.91 339.843 274.554 337.335 275.463C334.827 276.372 338.003 291.648 336.176 295.521C334.349 299.395 347.567 301.915 347.567 301.915C348.705 303.512 357.365 306.483 363.055 314.923C370.111 325.415 376.951 324.738 376.951 324.738C376.951 324.738 423.68 324.555 434.394 324.566C438.953 324.57 443.282 326.17 446.242 329.82C448.974 333.47 451.703 339.399 449.192 343.728C446.908 347.829 445.762 355.122 449.177 359C450.999 361.054 453.961 362.424 456.239 364.022C463.529 368.36 466.018 387.282 466.008 397.084C466.002 403.467 465.312 410.076 463.482 416.457C463.024 418.508 462.339 420.559 460.969 422.381C459.143 425.115 458.457 426.71 458.682 429.901C458.677 434.916 457.76 440.386 463.229 442.443C466.647 443.814 471.875 459.547 471.875 459.547C471.875 459.547 485.287 496.944 487.103 505.152C488.919 513.36 492.794 512.908 495.302 512.91C497.809 512.912 500.544 513.371 501.231 509.952C501.918 506.762 504.881 507.448 504.881 507.448C504.881 507.448 507.616 507.907 519.469 507.463C531.551 507.018 540.232 488.107 543.198 485.147C546.164 482.186 546.393 481.275 546.171 475.348C545.721 469.193 546.861 468.738 552.788 468.288C558.943 467.838 558.036 462.822 558.275 450.969C558.515 439.116 564.445 435.474 572.659 427.504C580.873 419.534 575.205 387.388 574.534 374.394C573.862 361.4 582.302 355.254 582.302 355.254C582.302 355.254 610.38 314.25 620.648 303.091C630.917 291.931 614.274 294.651 614.274 294.651C614.274 294.651 599.001 295.092 591.935 294.173C584.87 293.482 577.362 278.658 573.946 274.78C570.531 270.902 562.559 264.055 561.199 256.076C559.839 248.096 556.883 240.799 556.883 240.799C556.201 239.203 548.913 231.902 548.01 223.239C545.977 203.861 553.257 218.913 553.257 218.913C553.257 218.913 555.987 224.158 565.782 231.234C575.577 238.538 581.023 263.845 585.801 273.652C590.578 283.458 589.894 283.458 604.939 283.7C619.983 284.17 640.519 262.079 646.678 257.982C652.837 253.885 650.79 248.64 648.288 243.167C645.786 237.694 640.542 238.829 630.514 236.767C620.486 234.934 617.079 222.622 607.966 216.914C598.854 211.207 607.288 211.671 613.67 212.361C620.051 213.051 620.732 216.471 623.919 220.349C627.107 224.455 632.119 226.739 642.15 225.837C652.18 225.163 658.787 229.044 661.064 232.01C663.34 234.976 670.176 237.49 670.176 237.49C670.176 237.49 687.273 237.506 689.322 239.788C691.371 242.069 690.225 248.223 701.394 249.373C712.562 250.524 718.012 272.64 718.012 272.64C718.012 272.64 721.176 300.909 728.921 305.703C743.957 315.063 740.112 283.831 740.801 277.905C741.491 271.979 758.368 262.877 764.297 260.147C766.806 259.01 767.948 256.276 768.179 253.541C768.408 251.717 767.045 247.613 768.414 246.247C769.554 245.336 774.113 245.568 775.481 245.798C778.443 246.256 783.916 243.982 785.278 250.366C786.639 256.75 794.838 264.736 794.838 264.736C797.343 267.246 800.533 268.617 803.951 269.304C806.914 269.762 810.563 268.398 813.297 269.997C817.17 272.28 814.655 280.028 814.423 283.447C814.42 287.094 813.504 290.74 813.957 294.616C814.408 298.719 816.913 302.141 817.821 306.245C818.502 308.981 818.955 311.489 819.18 314.224C819.18 314.224 828.502 339.308 841.726 336.813C850.617 335.226 835.131 320.166 828.527 313.322C821.923 306.477 821.474 299.638 824.444 292.574C827.414 285.511 833.104 294.406 842.9 300.57C852.696 306.734 848.823 304.451 856.811 294.429C864.799 284.635 857.744 272.775 855.239 270.265C852.734 267.755 842.261 254.068 854.575 249.749C866.66 245.43 878.514 244.529 885.126 243.624C891.737 242.719 891.06 235.652 902.017 220.162C912.973 204.672 902.506 185.058 897.955 177.076C893.176 169.093 892.268 164.989 899.114 157.017C905.961 149.046 912.557 163.413 912.557 163.413C912.557 163.413 919.384 175.045 928.491 186.451C937.598 197.857 939.665 182.359 941.264 178.713C942.863 174.839 936.941 170.047 933.527 164.801C930.113 159.555 933.996 151.352 934.911 148.39C935.825 145.427 952.473 137.465 957.718 135.419C962.963 133.372 968.442 124.488 970.74 105.114C973.038 85.7408 977.577 106.944 977.577 106.944C977.577 106.944 978.219 150.483 977.983 158.461C977.747 166.439 978.2 169.859 968.392 176.004C958.584 182.149 957.446 180.78 952.202 181.915C946.958 183.05 945.133 184.871 944.665 197.408C944.197 209.945 950.358 203.112 951.045 200.15C951.732 197.187 954.019 188.527 960.629 189.217C967.239 189.908 977.732 182.395 983.891 177.842C990.05 173.289 987.327 160.978 987.105 153.911C986.884 146.844 986.198 148.895 992.353 148.445C998.509 147.995 996.23 147.537 997.147 141.839C998.064 136.142 995.329 135.455 989.631 135.222C983.932 134.988 985.078 129.519 985.078 129.519C985.078 129.519 986.244 101.482 984.883 94.8702C983.521 88.4864 975.553 78.9048 958.911 80.0285C942.27 81.1521 967.594 58.3818 975.58 50.1834C983.339 41.9847 991.083 47.463 991.083 47.463C991.083 47.463 1000.42 52.031 1013.42 54.7789C1026.41 57.5268 1020.26 47.2632 1021.86 40.4263C1023.47 33.5894 1029.16 36.3303 1039.87 43.635C1050.57 50.9397 1030.5 64.3692 1027.99 68.4699C1025.48 72.5705 1031.4 83.2898 1037.99 95.3775C1044.59 107.465 1043.47 92.6474 1044.38 87.8613C1045.07 83.0751 1044.62 78.7437 1049.41 75.1011C1054.2 71.4586 1051.47 65.0734 1051.48 55.2716C1051.49 45.4698 1058.33 46.8441 1069.04 46.8545C1079.76 47.0928 1081.13 43.219 1083.64 41.6258C1086.15 40.0326 1084.78 36.3841 1100.74 34.348C1116.7 32.5398 1083.46 -8.29508 1080.72 -11.261C1077.99 -14.227 1031.26 -11.7648 1019.86 -12.2317C1008.47 -12.6986 1008.93 -19.9925 1006.65 -22.7301C1004.37 -25.4677 978.615 -23.2131 973.828 -23.4457C969.041 -23.6782 964.036 -33.7128 959.933 -34.1727C955.831 -34.6325 954.231 -30.531 950.125 -26.8878C946.018 -23.2446 946.026 -31.9066 945.574 -35.5542C945.122 -39.2018 942.615 -40.344 938.058 -41.7161C933.5 -43.0882 933.488 -31.007 933.256 -26.9041C933.024 -22.8013 896.326 -24.2044 889.26 -24.4392C882.194 -24.674 879.922 -32.4264 878.562 -40.6339C877.202 -48.8413 869.9 -40.1864 869.9 -40.1864L852.575 -39.2913C852.575 -39.2913 823.398 -40.2313 815.647 -39.0991C808.124 -37.9666 815.656 -48.4449 819.764 -53.2279C823.872 -58.2388 804.959 -65.5514 802.681 -67.6052C800.404 -69.6589 785.129 -67.1662 781.939 -68.3091C778.977 -69.4517 776.702 -74.4687 775.789 -72.874C774.875 -71.2792 773.731 -66.4934 770.309 -63.9893C766.888 -61.4852 763.697 -62.4 759.138 -61.7206C754.578 -61.0412 757.311 -58.987 741.812 -59.9138C726.312 -60.6126 725.618 -50.3556 720.826 -44.6615C715.805 -38.9677 707.6 -39.4315 703.724 -39.2073C699.849 -38.7551 701.209 -31.0036 699.381 -26.2184C697.553 -21.4333 690.269 -32.3818 687.535 -33.7522C684.801 -35.3505 685.704 -26.4596 685.704 -26.4596C685.704 -26.4596 685.451 -0.0178403 684.308 2.71644C683.166 5.45071 674.526 -17.3525 674.531 -22.5953C674.764 -27.8379 670.444 -39.2395 669.534 -41.2919C668.852 -43.1161 666.57 -40.155 663.602 -36.0548C660.635 -31.9546 662.451 -23.7467 661.761 -18.0487C661.072 -12.3506 657.884 -15.317 648.994 -15.3256C640.104 -15.3342 638.505 -12.3724 634.855 -8.95674C631.204 -5.54105 617.756 -6.46584 610.006 -6.47334C602.256 -6.48083 598.376 -2.15356 591.306 2.17062C584.235 6.4948 586.065 -0.341878 581.512 -6.50088C576.732 -12.8881 575.126 -2.40399 572.614 2.15255C570.102 6.70909 556.893 -5.38494 550.516 -10.6339C544.138 -15.8829 540.259 -12.0115 536.84 -12.0148C533.421 -12.0181 529.544 -10.6542 525.903 -16.5844C522.261 -22.5145 512.687 -21.84 502.433 -25.2691C492.178 -28.6982 488.98 -21.179 478.034 -17.3145C467.089 -13.45 464.348 -7.07006 464.348 -7.07006C464.348 -7.07006 464.348 -7.07006 463.658 -0.916118C462.968 5.23782 455.439 12.069 450.646 17.991C445.854 23.913 436.735 24.3601 431.718 27.0906C426.7 29.8212 430.104 46.0088 430.326 52.6195C430.547 59.0023 441.037 54.4535 447.876 54.4601C454.486 54.4665 450.834 60.1617 449.919 62.8962C449.461 64.9472 446.043 64.488 445.357 65.8551C445.129 66.0828 445.129 66.5387 445.356 67.2227C446.266 69.5031 448.771 71.3291 450.137 73.6099C454.461 80.6805 457.66 72.9334 457.66 72.9334C457.66 72.9334 464.279 64.2777 470.214 55.1655C475.465 47.1924 465.897 41.0285 471.603 33.5118C476.396 27.1339 482.328 21.4409 488.259 16.8876C498.524 8.91937 500.115 13.7078 503.074 18.2697C506.033 22.8315 488.247 29.1968 483.221 40.8174C478.195 52.4379 495.299 44.7041 490.502 54.7292C480.906 77.7427 478.166 82.0711 469.047 83.8859ZM613.443 -24.9338C616.632 -22.4233 620.049 -20.1405 623.694 -18.0855C624.833 -17.4005 630.073 -14.2042 628.709 -17.8527C627.799 -20.361 625.75 -22.8704 624.157 -24.9235C620.969 -29.0296 621.428 -31.7646 621.433 -37.2353C621.438 -42.7061 632.384 -47.2545 632.384 -47.2545C670.014 -65.9098 634.9 -55.4582 629.428 -54.7796C624.185 -54.3288 618.942 -53.65 616.205 -52.7409C613.469 -51.8317 607.307 -44.5433 604.338 -38.3916C603.425 -36.5689 603.878 -34.289 604.56 -32.4647C605.243 -31.0964 606.154 -29.9557 607.52 -29.0426C609.571 -27.6729 611.849 -26.3031 613.443 -24.9338ZM595.685 423.879C592.72 426.156 593.397 433.223 593.157 445.304C593.154 448.723 597.461 472.89 603.168 464.461C603.168 464.233 610.701 453.299 610.935 447.145C611.169 440.762 616.418 434.385 618.474 430.056C620.53 425.727 619.395 420.027 615.073 410.677C610.752 401.327 605.721 417.051 605.721 417.051C604.351 419.557 598.651 421.603 595.685 423.879ZM827.119 355.035C830.307 358.685 833.494 362.563 836.682 366.213C838.276 368.039 839.87 369.864 841.464 371.689C843.286 373.514 845.563 375.34 846.473 377.62C847.383 379.901 847.152 383.092 848.973 384.917C850.567 386.514 853.075 386.517 855.127 386.291C864.017 386.071 872.906 386.536 882.024 386.545C934.452 386.595 894.793 382.91 892.514 382.452C890.235 381.994 885.447 383.129 881.119 379.933C876.791 376.738 857.186 377.631 857.186 377.631C857.186 377.631 850.348 377.852 851.265 372.154C852.182 366.456 849.447 366.91 840.798 352.54C832.15 338.171 832.597 348.202 818.933 334.283C805.27 320.365 813.69 334.506 816.42 339.98C819.15 345.453 825.298 352.525 825.298 352.525C825.753 353.438 826.436 354.35 827.119 355.035ZM902.109 360.806C901.194 363.768 901.191 366.504 904.609 367.647C910.99 369.477 909.852 367.424 916.239 363.327C917.379 362.644 920.801 360.596 920.574 359C920.348 357.632 917.384 357.629 916.245 356.944C915.106 356.032 913.968 354.891 912.6 354.889C910.777 354.66 908.953 354.658 907.129 354.884C904.849 355.11 903.709 355.793 903.023 357.616C902.567 358.527 902.338 359.666 902.109 360.806ZM881.824 358.051C883.875 358.053 886.155 358.055 888.207 357.145C890.032 356.463 891.173 354.869 892.542 353.73C895.051 351.681 895.509 349.402 895.967 347.123C897.341 340.97 896.891 334.359 896.897 328.204C896.908 317.263 895.31 319.313 893.491 314.752C892.582 312.244 884.829 315.2 881.635 317.704C878.441 320.208 880.261 324.541 880.03 327.732C880.026 331.835 875.922 332.515 873.185 334.564C869.763 337.068 866.569 339.8 863.375 342.533C859.269 345.948 863.14 349.599 864.96 353.248C865.415 354.16 866.098 355.3 867.009 355.985C868.604 357.354 870.655 357.584 872.478 357.814C872.706 357.814 872.706 357.814 872.934 357.814C875.897 358.045 878.861 358.048 881.824 358.051ZM918.572 307.71C920.164 311.131 922.441 314.552 924.489 317.745C925.627 319.57 928.132 322.536 930.413 320.714C933.378 318.438 932.698 314.562 932.701 311.599C932.708 304.76 933.401 294.731 930.671 289.942C927.712 285.152 922.244 282.411 918.829 277.849C916.097 274.427 913.817 274.881 910.41 262.112C906.775 249.344 907.9 265.301 907.208 273.279C906.516 281.256 913.805 287.646 913.805 287.646C919.042 293.578 915.615 300.869 918.572 307.71ZM974.358 370.905C977.094 371.136 979.6 372.05 981.422 374.332C983.698 377.069 984.379 380.261 986.2 383.226C987.338 385.279 989.159 388.016 992.122 387.335C994.859 386.426 997.597 383.693 999.873 386.659C1003.06 390.765 1004.66 388.943 1004.66 388.943C1005.57 388.26 1012.64 383.936 1016.06 386.674C1035.87 402.878 1027.45 390.788 1022.44 384.401C1017.43 378.014 1004.68 368.655 998.985 362.951C993.291 357.247 981.661 362.251 975.28 361.333C968.898 360.415 970.955 354.718 967.539 350.839C964.124 346.961 950.443 351.051 947.253 349.452C944.064 347.853 942.469 347.168 942.473 342.837C942.473 342.153 941.111 336.453 939.514 338.503C938.829 339.414 939.283 341.922 939.281 343.062C939.28 344.885 939.278 346.709 939.504 348.533C940.184 352.865 943.605 351.044 949.3 354.469C954.996 357.666 957.042 363.366 958.177 368.154C959.085 372.03 963.872 371.807 967.519 371.355C969.799 371.129 972.079 370.903 974.358 370.905ZM1005.2 540.301C1004.06 540.072 1001.78 539.842 1001.32 541.209C1000.86 542.576 1003.37 544.174 1003.37 545.314C1003.37 547.138 1002.9 552.836 1008.37 553.297C1013.62 553.758 1014.53 550.568 1015.68 545.326C1015.91 544.414 1015.91 543.502 1015.45 542.59C1014.77 541.45 1013.17 541.22 1012.03 541.219C1010.89 540.99 1009.75 540.989 1008.39 540.76C1007.25 540.531 1006.34 540.53 1005.2 540.301ZM943.32 409.399C937.165 410.077 931.463 413.946 926.217 416.904C922.796 418.725 919.147 421.001 917.547 424.874C916.176 428.064 916.399 433.535 915.94 436.954C915.252 441.056 904.542 437.399 900.438 438.079C896.335 438.759 897.698 442.863 896.329 444.229C894.732 445.596 889.035 443.994 884.247 444.902C878.547 446.036 881.273 456.068 880.814 459.943C880.354 463.818 878.982 467.691 878.067 471.566C876.236 478.858 880.568 478.178 884.213 480.006C887.859 481.833 884.429 492.315 885.108 498.014C885.787 503.258 892.62 508.279 896.949 510.107C899.911 511.478 903.559 510.797 906.75 510.8C910.398 510.804 914.045 511.035 917.465 510.127C920.885 509.218 923.395 506.485 926.36 504.437C930.922 501.022 935.939 499.431 941.637 499.893C947.563 500.354 953.261 501.044 959.188 501.277C962.379 501.28 967.851 500.146 968.759 504.25C969.44 507.214 968.981 510.405 969.662 513.369C971.023 519.753 975.356 517.477 980.599 517.482C985.842 517.487 986.066 521.591 987.43 525.467C989.703 532.08 994.49 531.629 1000.42 531.634C1004.52 531.638 1008.62 531.642 1012.73 531.418C1019.79 530.741 1024.13 523.679 1024.13 523.679C1024.13 523.679 1033.49 507.732 1038.06 501.353C1042.62 494.975 1044.46 480.616 1044.47 469.447C1044.48 458.277 1029 442.534 1029 442.534C1029 442.534 1008.28 416.756 1004.63 412.877C1000.99 408.999 1003.28 404.214 1001.91 399.882C1000.78 395.549 997.351 402.613 993.474 403.749C989.598 404.885 991.635 420.387 991.632 422.666C991.63 424.946 986.844 424.485 984.339 421.292C981.835 418.098 980.239 418.78 976.594 416.725C972.948 414.67 970.673 410.793 970.223 404.638C970.001 398.483 963.616 400.528 956.322 400.293C949.028 400.058 951.989 402.341 950.618 406.215C949.704 408.721 946.968 408.946 944.688 409.172C944.004 409.171 943.548 409.399 943.32 409.399ZM1100.23 557.261L1100.01 557.489C1097.5 560.45 1089.96 570.472 1094.52 571.16C1098.85 571.848 1104.32 574.361 1107.06 571.4C1109.8 567.984 1108.89 565.247 1117.1 562.064C1121.2 560.472 1124.63 547.939 1124.63 547.939C1124.63 547.939 1123.27 543.378 1120.54 540.64C1118.26 538.587 1112.78 546.332 1110.73 548.381C1107.31 551.569 1103.2 554.073 1100.23 557.261ZM1136.96 534.046C1138.56 529.26 1141.97 531.999 1141.98 528.58C1141.98 525.161 1131.96 518.996 1128.54 516.03C1121.71 510.324 1128.08 522.412 1126.48 525.602C1124.42 529.247 1124.2 529.246 1125.79 533.579C1126.24 534.719 1127.38 540.191 1128.52 540.648C1135.12 542.934 1135.36 539.059 1136.96 534.046Z" stroke="#475566" stroke-opacity="0.22" stroke-width="2" mask="url(#path-1-inside-1_405_5379)"/>
</svg>
