<svg width="30" height="23" viewBox="0 0 30 23" fill="none" xmlns="http://www.w3.org/2000/svg">
<g clip-path="url(#clip0_405_5403)">
<path d="M9.3 22.5854C9.1 22.5854 9 22.4854 8.9 22.3854C8.8 22.2854 8.8 22.0854 8.8 21.8854L11.4 14.7854H4.3C1.9 14.7854 0 12.7854 0 10.2854V3.08545C0 2.38545 0.5 1.88545 1.2 1.88545C2.5 1.88545 3.7 2.78545 4.1 4.08545L5.2 7.88545C5.3 8.18545 5.6 8.38545 5.9 8.38545H11.4L8.8 1.28545C8.7 1.08545 8.8 0.885449 8.9 0.785449C9 0.685449 9.2 0.585449 9.3 0.585449H11.7C12.8 0.585449 13.7 1.18545 14.3 2.08545L18.1 8.38545H23.7C26.2 8.38545 28.5 9.68545 29.8 11.8854C30 12.1854 30.1 12.4854 30.1 12.8854C30.1 13.8854 29.3 14.7854 28.3 14.7854H18.3L14.4 21.1854C13.8 22.0854 12.9 22.6854 11.8 22.6854H9.3V22.5854ZM13.1 11.0854C13.2 11.0854 13.2 11.0854 13.3 11.0854C13.4 11.1854 13.5 11.2854 13.6 11.3854C13.7 11.4854 13.7 11.6854 13.6 11.7854L10.1 21.4854H11.7C12.4 21.4854 13 21.0854 13.4 20.4854L19 11.2854C19.1 11.0854 19.3 10.9854 19.4 10.9854C19.5 10.9854 19.6 10.9854 19.7 11.0854C19.8 11.1854 19.9 11.2854 19.9 11.3854C19.9 11.4854 19.9 11.6854 19.8 11.7854L18.7 13.5854H28.1C28.6 13.5854 28.8 13.1854 28.8 12.7854C28.8 12.6854 28.8 12.4854 28.7 12.3854C27.6 10.4854 25.6 9.38545 23.5 9.38545H5.9C5.1 9.38545 4.4 8.88545 4.2 8.08545L3.1 4.38545C2.8 3.58545 2.1 2.98545 1.2 2.98545H1.1V3.08545V10.2854C1.1 12.1854 2.6 13.6854 4.3 13.6854H11.8L12.6 11.3854C12.7 11.1854 12.9 11.0854 13.1 11.0854ZM12.5 8.38545H16.8L13.3 2.58545C12.9 1.98545 12.3 1.58545 11.6 1.58545H10L12.5 8.38545Z" fill="#9FCCFF"/>
</g>
<defs>
<clipPath id="clip0_405_5403">
<rect width="30" height="22" fill="white" transform="translate(0 0.585449)"/>
</clipPath>
</defs>
</svg>
