<svg width="422" height="540" viewBox="0 0 422 540" fill="none" xmlns="http://www.w3.org/2000/svg">
<g clip-path="url(#clip0_405_5199)">
<path d="M122.779 283.747C122.803 283.652 122.792 283.497 122.852 283.461L134.291 267.553L132.263 267.541C130.27 267.589 128.28 267.231 126.422 266.552L119.645 270.808C119.585 270.843 119.525 270.879 119.43 270.854L117.617 270.796C117.462 270.807 117.331 270.723 117.225 270.543C117.154 270.424 117.203 270.233 117.287 270.102L122.972 264.958L120.796 263.74C120.344 263.523 120 263.079 119.967 262.614C119.91 262.243 119.912 261.838 120.045 261.516L114.891 257.454C114.76 257.37 114.714 257.155 114.798 257.024C114.787 256.869 114.967 256.762 115.122 256.751L120.193 256.578C120.253 256.543 120.288 256.602 120.384 256.627L126.108 259.058L126.285 255.397C126.298 255.146 126.478 255.04 126.693 254.993L128.255 255.038C128.41 255.027 128.541 255.111 128.612 255.231L130.603 259.55C133.001 259.504 135.901 259.485 138.955 259.455L142.685 247.868C142.769 247.738 142.854 247.607 143.009 247.596C144.275 247.412 145.427 248.266 145.67 249.496L146.573 254.298L149.829 254.472C150.175 254.51 150.567 254.762 150.875 255.146C151.088 255.505 151.216 255.995 151.284 256.52C151.258 257.021 151.171 257.558 150.918 257.95C150.81 258.176 150.606 258.378 150.426 258.484C150.246 258.59 150.031 258.637 149.876 258.648L147.336 258.454L147.498 259.409C150.802 259.393 153.702 259.374 155.539 259.337C157.567 259.349 159.604 259.921 161.209 260.993C161.767 261.389 162.325 261.786 162.764 262.254C163.369 262.866 163.615 263.691 163.36 264.489C163.248 265.12 162.876 265.584 162.337 265.903C162.158 266.009 161.978 266.115 161.763 266.162C160.293 266.547 158.753 266.812 157.332 267.007C155.816 267.177 154.3 267.347 152.832 267.327L144.576 267.446L139.731 271.688L141.198 271.709C141.604 271.711 141.996 271.964 142.244 272.383C142.457 272.742 142.585 273.232 142.654 273.758C142.685 274.629 142.299 275.342 141.76 275.661C141.58 275.768 141.365 275.814 141.21 275.825L135.474 275.422L126.024 283.766C125.904 283.837 125.76 284.003 125.64 284.074C124.862 284.535 123.836 284.576 122.992 284.106C122.825 283.962 122.755 283.842 122.779 283.747ZM118.564 270.074L119.315 270.114L127.494 264.948C126.647 264.883 125.335 264.852 124.153 264.905L118.564 270.074ZM120.093 257.365L116.203 257.485L121.523 261.692L129.448 261.285L120.093 257.365ZM126.998 255.783L126.786 259.384L127.429 259.651C128.085 259.666 128.861 259.611 129.672 259.616L127.905 255.812L126.998 255.783ZM149.726 257.848C149.941 257.801 150.061 257.73 150.205 257.564C150.373 257.303 150.411 256.957 150.449 256.611C150.451 256.205 150.334 255.871 150.192 255.631C150.086 255.452 149.92 255.308 149.764 255.319C149.704 255.354 149.669 255.294 149.609 255.33C149.549 255.365 149.43 255.436 149.345 255.567C149.177 255.828 149.139 256.174 149.101 256.52C149.156 257.295 149.44 257.774 149.726 257.848ZM148.629 257.77C148.451 257.47 148.358 257.04 148.361 256.635C148.388 256.134 148.51 255.657 148.703 255.3L146.699 255.193L147.126 257.689L148.629 257.77ZM144.87 249.647C144.755 248.907 144.09 248.33 143.315 248.385L139.766 259.46C142.105 259.45 144.443 259.439 146.686 259.405L144.87 249.647ZM162.584 264.544C162.608 264.449 162.668 264.413 162.633 264.353C162.779 263.781 162.651 263.292 162.247 262.884C162.057 262.835 161.937 262.906 161.817 262.977C161.398 263.225 161.276 263.701 161.524 264.12C161.737 264.479 162.189 264.697 162.584 264.544ZM152.777 266.551C154.244 266.571 155.761 266.401 157.217 266.266C158.638 266.072 160.178 265.806 161.588 265.457C161.648 265.421 161.803 265.41 161.863 265.375C161.482 265.277 161.149 264.989 160.901 264.57C160.441 263.792 160.649 262.779 161.427 262.318C161.487 262.283 161.487 262.283 161.547 262.247C161.25 262.019 160.989 261.85 160.727 261.682C160.692 261.622 160.632 261.657 160.597 261.597C160.485 262.229 159.909 262.894 158.891 263.496C158.652 263.638 158.353 263.815 158.018 263.933C157.838 264.039 157.612 263.93 157.506 263.751C157.4 263.571 157.508 263.345 157.688 263.239C159.47 262.426 159.796 261.748 159.87 261.462C159.859 261.307 159.847 261.152 159.752 261.127C158.456 260.44 157.002 260.169 155.439 260.124C150.202 260.153 136.552 260.312 129.262 260.425L131.285 261.248C131.476 261.297 131.522 261.512 131.533 261.667C131.509 261.762 131.425 261.893 131.365 261.928C131.305 261.964 131.245 261.999 131.15 261.975L121.388 262.419C121.293 262.395 121.197 262.37 121.102 262.346L120.639 261.973C120.615 262.069 120.626 262.224 120.637 262.379C120.719 262.654 120.86 262.893 121.086 263.002L123.489 264.328L123.573 264.197C123.633 264.162 123.752 264.091 123.812 264.056C124.433 264.012 127.667 263.875 128.547 264.405C128.677 264.49 128.748 264.609 128.724 264.705C128.735 264.86 128.651 264.991 128.531 265.061L127.13 265.972C128.725 266.482 130.394 266.707 132.077 266.681L134.726 266.649L134.894 266.387C134.919 266.292 135.038 266.221 135.134 266.245C135.408 266.163 141.453 264.767 145.206 265.779C145.301 265.803 145.467 265.947 145.478 266.103C145.489 266.258 145.465 266.353 145.381 266.484L145.321 266.519L152.777 266.551ZM141.095 275.085C141.501 275.087 141.802 274.504 141.783 273.788C141.785 273.383 141.668 273.048 141.526 272.808C141.42 272.629 141.253 272.485 141.098 272.496C141.038 272.531 141.003 272.471 140.943 272.507C140.704 272.649 140.426 273.136 140.471 273.757C140.49 274.473 140.809 275.011 141.095 275.085ZM139.963 274.947C139.785 274.648 139.692 274.218 139.695 273.812C139.721 273.311 139.844 272.834 140.037 272.478L138.82 272.471L136.206 274.746L139.963 274.947ZM125.479 283.118L144.354 266.526C141.101 265.946 136.43 266.933 135.57 267.119L123.734 283.586C124.366 283.697 125.011 283.557 125.479 283.118Z" fill="#475566" fill-opacity="0.6"/>
<mask id="path-2-inside-1_405_5199" fill="white">
<path d="M-449.486 165.994C-451.074 165.151 -452.655 164.426 -454.441 164.186C-456.814 163.983 -459.503 164.391 -461.812 163.358C-463.392 162.633 -466.719 158.597 -462.935 158.709C-460.334 158.779 -455.287 158.338 -453.651 156.227C-449.507 150.887 -442.738 162.612 -437.766 160.996C-435.108 160.118 -434.745 156.554 -431.819 158.019C-429.988 158.964 -428.002 160.49 -426.604 162.053C-424.573 164.284 -425.783 165.659 -428.457 166.302C-430.903 166.813 -433.387 166.735 -435.973 166.901C-438.324 167.051 -440.66 167.436 -442.996 167.821C-445.332 168.207 -447.413 167.041 -449.486 165.994ZM-423.441 148.749C-423.441 148.749 -421.802 154.074 -419.877 154.659C-418.068 155.252 -417.068 156.132 -416.05 153.588C-415.025 151.162 -417.796 150.277 -419.914 148.524C-422.033 146.771 -425.5 142.389 -423.441 148.749ZM-429.994 181.036C-433.508 179.608 -432.005 177.27 -433.429 173.466C-434.852 169.662 -437.073 173.699 -440.249 177.56C-443.425 181.422 -447.262 174.94 -449.138 173.289C-451.014 171.639 -449.391 171.181 -458.495 170.936C-467.489 170.567 -466.798 170.287 -470.502 175.126C-474.206 179.966 -466.875 178.318 -461.665 178.575C-456.456 178.832 -456.143 181.881 -456.41 185.085C-456.678 188.289 -466.297 187.369 -475.298 186.882C-484.3 186.395 -483.349 188.34 -487.806 190.632C-492.263 192.923 -502.24 188.249 -506.319 187.211C-510.398 186.174 -537.565 189.562 -541.562 189.817C-545.558 190.073 -547.597 193.272 -550.563 194.878C-553.529 196.484 -551.883 201.926 -551.835 204.519C-551.787 207.113 -557.815 205.138 -560.871 205.333C-563.928 205.528 -562.992 207.239 -563.085 209.487C-563.177 211.736 -561.869 211.888 -558.24 211.42C-554.611 210.952 -553.045 211.443 -552.77 213.904C-552.495 216.365 -557.397 215.379 -560.336 215.567C-563.274 215.755 -561.768 220.852 -560.903 225.164C-560.037 229.476 -557.261 228.59 -555.54 229.661C-553.819 230.731 -551.363 232.226 -564.858 238.99C-578.354 245.754 -565.118 242.312 -562.827 241.221C-560.537 240.13 -550.395 236.296 -547.339 236.1C-544.282 235.905 -539.806 232.078 -536.137 228.539C-532.468 224.999 -520.263 225.754 -511.556 225.316C-502.85 224.877 -494.11 243.44 -489.691 246.108C-485.271 248.777 -483.276 272.609 -482.943 279.67C-482.61 286.73 -477.13 291.219 -474.636 293.303C-472.142 295.386 -465.564 307.831 -458.668 316.006C-451.764 324.299 -455.401 313.555 -457.598 308.738C-459.801 303.804 -455.864 308.155 -455.864 308.155C-455.864 308.155 -443.753 320.365 -441.137 326.217C-438.52 332.069 -428.558 336.508 -422.063 336.565C-415.568 336.622 -415.573 338.393 -415.573 338.393C-415.573 338.393 -415.767 340.884 -407.949 341.329C-400.248 341.781 -401.158 347.859 -397.834 350.007C-394.51 352.155 -389.415 354.308 -385.066 354.03C-380.716 353.752 -382.275 353.38 -381.242 356.619C-380.208 359.857 -382.979 364.52 -385.062 367.013C-387.146 369.507 -387.035 374.929 -386.63 381.277C-386.224 387.625 -383.673 388.76 -383.673 388.76C-383.673 388.76 -368.875 409.768 -365.574 411.564C-362.272 413.359 -362.472 417.621 -362.472 417.621C-362.472 417.621 -360.414 449.83 -360.374 452.306C-360.334 454.782 -360.569 454.797 -362.497 457.871C-364.425 460.945 -363.659 467.388 -363.659 467.388C-363.659 467.388 -362.187 495.975 -362.051 498.091C-361.916 500.207 -358.452 502.7 -347.387 507.777C-336.322 512.853 -344.628 504.768 -345.932 502.844C-347.235 500.921 -346.742 495.696 -346.99 491.817C-347.238 487.938 -344.074 485.729 -342.932 483.296C-341.789 480.862 -343.077 479.174 -343.34 475.06C-343.603 470.945 -339.153 468.537 -339.153 468.537C-339.153 468.537 -315.635 441.303 -313.787 438.825C-311.939 436.346 -311.879 431.739 -312.279 429.168C-312.68 426.597 -305.402 418.578 -301.256 415.126C-297.109 411.674 -294.271 402.523 -294.164 400.509C-294.056 398.496 -294.232 393.904 -291.436 391.483C-288.639 389.062 -289.065 384.249 -288.212 379.12C-287.36 373.99 -296.801 374.003 -302.677 370.72C-308.552 367.436 -317.553 366.949 -318.259 366.994C-318.964 367.039 -322.931 367.765 -322.883 364.811C-322.836 361.857 -325.628 356.96 -327.196 354.582C-328.764 352.203 -330.99 352.464 -333.694 352.636C-336.397 352.809 -345.114 345.694 -348.791 343.568C-352.468 341.443 -359.518 343.782 -364.303 342.789C-369.087 341.796 -366.736 341.646 -371.043 340.741C-375.35 339.836 -376.973 345.841 -378.934 346.557C-380.895 347.272 -387.375 347.45 -389.748 347.248C-392.122 347.045 -394.148 343.044 -394.976 339.32C-395.804 335.596 -397.202 334.032 -400.489 332.472C-403.775 330.912 -404.501 326.945 -404.329 324.101C-404.156 321.257 -406.17 321.15 -408.528 321.183C-410.887 321.215 -410.709 322.148 -411.169 324.184C-411.629 326.22 -413.45 327.281 -418.557 326.781C-423.672 326.163 -426.171 320.304 -427.066 315.522C-427.962 310.74 -428.017 308.028 -424.906 304.997C-421.795 301.965 -420.757 303.433 -416.245 303.853C-411.733 304.273 -408.835 301.609 -406.091 298.365C-403.348 295.121 -399.491 300.068 -399.491 300.068C-399.491 300.068 -399.491 300.068 -394.19 307.283C-388.89 314.499 -389.966 306.895 -391.607 299.682C-393.248 292.469 -372.276 267.877 -369.077 264.368C-365.879 260.859 -366.141 262.292 -360.294 261.446C-354.446 260.601 -352.596 254.463 -349.345 251.776C-346.094 249.09 -353.962 249.711 -357.609 248.055C-361.255 246.4 -355.408 245.554 -353.359 244.361C-351.311 243.168 -346.882 242.295 -340.982 242.272C-335.082 242.249 -350.98 222.491 -353.599 220.298C-356.217 218.105 -355.737 214.533 -357.131 211.199C-358.524 207.866 -362.16 213.763 -364.866 217.595C-367.572 221.427 -367.687 217.775 -367.36 215.512C-367.032 213.248 -369.534 211.048 -370.787 208.059C-372.04 205.07 -379.503 206.491 -382.214 206.547C-384.926 206.602 -384.44 206.807 -384.97 211.444C-385.5 216.081 -384.019 218.937 -382.926 223.116C-381.833 227.295 -386.167 233.356 -388.683 236.467C-391.199 239.579 -392.129 236.097 -392.435 233.166C-392.74 230.235 -394.12 230.795 -397.442 230.535C-400.763 230.276 -401.006 230.173 -402.494 227.199C-403.983 224.226 -408.497 221.917 -412.626 221.945C-416.756 221.973 -415.921 214.72 -416.006 211.538C-416.099 208.24 -409.994 207.731 -408.033 207.016C-406.072 206.301 -402.916 203.974 -399.384 207.526C-395.86 210.959 -392.919 207.113 -392.919 207.113C-392.919 207.113 -388.112 202.91 -388.262 200.559C-388.413 198.208 -389.426 198.981 -392.599 199.184C-395.773 199.387 -396.243 199.417 -396.416 196.713C-396.589 194.01 -396.604 193.775 -390.969 193.296C-385.334 192.818 -388.251 187.811 -385.705 185.17C-383.159 182.529 -380.453 184.244 -380.6 189.329C-380.747 194.414 -375.117 190.159 -371.743 191.242C-368.369 192.325 -369.792 194.068 -372.576 194.836C-375.36 195.604 -373.419 196.424 -372.401 199.428C-371.383 202.432 -371.788 201.631 -362.809 201.766C-353.83 201.9 -361.764 197.804 -362.411 196.901C-363.059 195.998 -365.913 193.82 -357.772 193.772C-349.631 193.724 -355.106 187.464 -355.106 187.464C-355.106 187.464 -361.372 178.068 -367.995 176.012C-374.618 173.957 -372.848 173.962 -376.527 169.948C-380.206 165.934 -393.127 168.766 -397.021 168.779C-400.915 168.792 -400.515 171.363 -402.355 173.959C-404.078 176.548 -399.219 178.716 -398.245 186.562C-397.272 194.407 -402.887 187.802 -402.887 187.802C-402.887 187.802 -405.926 184.574 -407.414 181.6C-408.903 178.626 -409.478 177.011 -407.74 174.657C-406.002 172.303 -405.337 169.782 -409.531 165.093C-413.726 160.404 -417.02 158.726 -418.681 158.596C-420.342 158.466 -419.661 161.727 -419.246 164.533C-418.83 167.34 -417.215 166.764 -415.111 168.282C-413.125 169.808 -413.753 172.917 -414.02 176.121C-414.288 179.324 -414.548 177.099 -417.794 172.467C-421.041 167.835 -422.757 170.541 -425.133 173.998C-427.508 177.455 -420.328 179.002 -419.717 184.865C-419.106 190.727 -422.706 186.118 -422.706 186.118C-422.706 186.118 -426.48 182.464 -429.994 181.036ZM-529.717 301.307C-529.717 301.307 -526.312 313.955 -523.058 313.157C-516.55 311.561 -521.758 307.644 -527.953 301.195C-528.469 300.519 -530.61 298.413 -529.717 301.307ZM-386.706 320.969C-385.986 321.159 -385.273 321.231 -384.663 321.546C-383.685 322.074 -382.912 323.087 -381.831 323.372C-380.383 323.87 -377.652 322.279 -376.264 321.836C-370.359 320.042 -386.677 315.891 -389.543 315.366C-392.409 314.841 -393.27 314.306 -399.437 317.533C-405.604 320.76 -393.834 320.244 -393.834 320.244C-391.343 320.439 -388.977 320.524 -386.706 320.969ZM-372.257 323.586C-372.212 324.292 -372.167 324.997 -372.042 325.107C-371.372 326.362 -369.756 325.787 -368.581 325.712C-367.523 325.644 -360.962 324.871 -364.094 323.891C-366.02 323.306 -368.101 322.14 -370.262 321.57C-373.386 320.708 -372.347 322.176 -372.257 323.586ZM-409.947 156.739C-408.879 158.678 -407.491 158.235 -406.278 158.748C-405.065 159.26 -404.622 160.648 -404.052 164.035C-403.481 167.421 -392.749 165.437 -385.351 164.846C-377.953 164.256 -383.02 160.684 -392.409 161.52C-396.516 161.901 -397.031 161.226 -398.35 159.067C-399.668 156.909 -401.556 156.911 -404.327 156.026C-407.099 155.141 -406.954 153.715 -409.712 151.177C-413.472 147.758 -411.133 154.809 -411.133 154.809C-411.133 154.809 -411.015 154.801 -409.947 156.739ZM-380.417 157.095C-375.127 156.757 -372.346 148.553 -372.194 147.245C-372.042 145.937 -369.01 143.501 -364.779 143.231C-360.547 142.96 -358.313 142.818 -356.575 140.464C-354.837 138.11 -356.768 139.296 -350.753 137.377C-344.738 135.458 -344.976 133.585 -345.243 131.242C-345.511 128.898 -355.378 129.647 -358.074 129.937C-360.77 130.227 -360.43 131.858 -363.249 133.927C-366.067 135.995 -383.93 135.366 -389.58 135.609C-390.168 135.647 -390.755 135.684 -391.21 135.949C-390.438 136.962 -387.954 137.039 -386.866 137.442C-385.3 137.932 -384.402 139.055 -383.057 139.795C-381.719 140.418 -380.183 140.438 -378.765 140.465C-363.856 141.047 -375.176 143.069 -376.344 143.261C-377.512 143.454 -379.437 142.869 -379.595 145.948C-379.752 149.027 -383.729 147.746 -385.72 147.992C-387.711 148.237 -387.028 147.839 -387.268 144.077C-387.509 140.316 -396.162 141.577 -399.916 141.935C-403.67 142.293 -401.939 145.369 -401.942 149.028C-401.944 152.687 -401.011 152.51 -397.109 152.614C-393.325 152.727 -394.558 153.75 -393.945 155.953C-393.332 158.156 -387.477 157.428 -387.477 157.428C-387.477 157.428 -385.707 157.433 -380.417 157.095ZM-338.898 134.495C-338.898 134.495 -342.367 133.773 -343.973 136.354C-345.578 138.935 -343.682 139.05 -347.789 139.43C-351.896 139.811 -351.646 140.031 -352.428 142.56C-353.211 145.088 -355.059 147.567 -357.998 147.755C-360.937 147.942 -365.706 147.185 -365.093 149.388C-364.473 151.709 -360.093 157.449 -358.087 157.439C-356.081 157.429 -339.392 154.474 -337.201 161.061C-335.002 167.767 -337.102 179.232 -333.808 180.91C-330.514 182.588 -331.782 184.911 -332.802 185.567C-333.822 186.222 -335.551 185.034 -335.333 188.443C-335.115 191.852 -334.155 190.256 -332.094 192.957C-330.033 195.658 -329.16 194.54 -328.889 198.772C-328.619 203.004 -328.984 204.68 -325.78 204.947C-322.576 205.215 -319.707 207.628 -319.14 209.126C-318.572 210.624 -315.488 209.011 -314.785 207.077C-314.083 205.144 -305.175 191.237 -302.251 190.814C-299.327 190.392 -294.25 190.421 -294.298 187.828C-294.345 185.234 -296.231 181.578 -292.595 181.227C-288.958 180.877 -282.015 180.551 -279.177 176.947C-276.338 173.343 -270.224 169.293 -276.161 168.728C-278.895 168.431 -281.514 166.238 -280.283 163.326C-280.188 162.966 -276.052 163.056 -275.471 162.901C-274.076 162.575 -272.225 161.985 -271.492 160.522C-270.357 157.971 -269.222 155.42 -267.969 152.861C-266.803 150.78 -262.849 146.16 -268.199 145.558C-269.868 145.31 -270.811 143.482 -268.587 141.333C-268.587 141.333 -265.564 133.232 -262.038 133.007C-260.98 132.939 -251.018 131.831 -252.534 130.275C-253.542 129.277 -253.542 129.277 -260.625 129.258C-261.573 129.2 -262.213 128.415 -263.058 128.115C-264.256 127.837 -265.777 128.053 -266.952 128.128C-273.278 128.886 -271.154 128.868 -274.001 126.808C-276.847 124.747 -279.433 124.912 -290.828 125.758C-302.34 126.612 -306.765 125.714 -309.428 128.363C-312.092 131.012 -310.701 132.457 -316.696 132.84C-322.691 133.224 -338.898 134.495 -338.898 134.495ZM-273.468 192.398C-273.446 192.751 -273.416 193.221 -273.393 193.574C-273.333 194.514 -273.221 196.277 -271.928 196.195C-270.047 196.075 -268.173 195.837 -266.3 195.599C-265.367 195.422 -264.279 195.824 -263.612 195.191C-262.041 193.911 -261.433 192.337 -259.222 191.842C-258.289 191.664 -255.673 191.969 -255.646 190.551C-255.683 189.964 -256.764 184.131 -257.75 183.486C-260.213 181.873 -265.873 185.657 -269.87 185.913C-271.28 186.003 -272.721 185.623 -274.234 185.956C-275.512 186.273 -274.944 187.771 -274.649 188.697C-273.971 190.07 -273.669 191.113 -273.468 192.398ZM-241.103 218.657C-241.103 218.657 -245.587 222.367 -245.524 225.196C-245.469 227.907 -245.969 233.014 -242.813 230.688C-239.539 228.354 -237.371 223.494 -237.371 223.494C-237.371 223.494 -237.149 214.038 -241.103 218.657ZM-233.757 217.244C-233.087 218.499 -232.754 220.012 -232.311 221.401C-231.558 223.949 -232.944 226.28 -234.234 228.251C-235.422 229.979 -237.05 232.208 -234.594 233.703C-231.285 235.617 -227.376 230.292 -224.573 227.988C-222.327 226.192 -223.69 223.328 -225.221 221.538C-227.149 219.064 -229.408 216.966 -230.654 214.095C-231.774 211.334 -233.9 209.463 -235.814 207.225C-237.212 205.662 -238.93 206.48 -239.44 209.581C-239.855 212.322 -237.884 213.613 -236.148 214.918C-235.163 215.563 -234.288 216.333 -233.757 217.244ZM-193.512 219.039C-197.809 220.14 -200.1 221.231 -204.399 220.443C-206.788 220.006 -206.143 213.473 -208.642 213.16C-209.48 212.978 -210.825 212.238 -211.36 213.098C-211.683 213.591 -211.365 214.869 -211.328 215.457C-211.135 216.625 -210.242 219.518 -211.99 219.866C-214.319 220.369 -213.358 218.773 -214.453 223.8C-215.549 228.828 -220.468 231.266 -222.054 232.312C-223.639 233.358 -226.075 235.874 -230.072 236.129C-234.076 236.267 -234.581 237.598 -231.265 239.628C-228.683 241.234 -228.166 243.797 -227.75 246.604C-227.75 246.604 -227.75 246.604 -227.743 246.721C-227.55 247.889 -226.699 251.966 -228.44 252.431C-230.533 252.919 -237.609 253.017 -240.548 253.205C-243.487 253.393 -242.018 257.902 -241.955 260.731C-241.893 263.559 -241.127 264.455 -240.172 264.63C-239.209 264.922 -236.908 265.837 -235.567 268.348C-234.226 270.859 -230.43 269.319 -226.418 269.298C-222.406 269.278 -223.412 264.621 -222.937 262.82C-222.462 261.019 -223.94 260.052 -219.951 259.679C-216.079 259.313 -214.834 256.637 -214.552 253.668C-214.277 250.582 -211.158 253.215 -207.436 250.499C-203.715 247.783 -197.136 254.68 -194.305 256.506C-192.952 257.363 -189.37 259.849 -189.56 260.57C-190.278 262.268 -196.636 260.668 -194.537 263.956C-191.768 268.501 -189.317 266.219 -185.974 261.285C-182.505 256.46 -191.459 253.019 -193.187 251.831C-194.923 250.526 -199.085 248.195 -196.482 244.606C-193.871 241.134 -186.777 248.707 -186.777 248.707C-183.688 250.87 -178.941 256.822 -177.2 261.904C-175.349 266.861 -174.731 267.294 -170.124 267.354C-165.517 267.413 -169.427 261.644 -170.282 259.338C-171.248 257.157 -171.285 256.569 -168.339 256.499C-165.393 256.429 -163.496 262.091 -161.716 264.102C-159.935 266.113 -154.077 267.273 -151.786 266.182C-149.378 265.084 -148.732 264.098 -145.731 266.739C-142.73 269.38 -148.752 276.729 -150.727 277.209C-152.703 277.69 -156.197 280.273 -161.057 278.105C-165.924 275.82 -166.717 276.342 -172.067 275.74C-177.417 275.138 -176.421 277.789 -177.511 281.045C-178.602 284.302 -181.338 282.116 -182.603 280.78C-183.869 279.445 -193.926 275.366 -197.618 273.005C-201.31 270.645 -200.887 268.021 -202.345 265.518C-203.804 263.014 -207.768 265.628 -208.421 266.496C-209.073 267.364 -212.475 267.699 -215.649 267.902C-218.822 268.105 -220.035 267.592 -221.759 270.181C-223.482 272.77 -223.454 271.351 -226.83 273.928C-230.207 276.504 -233.786 275.907 -238.913 276.942C-244.04 277.978 -241.881 287.755 -241.768 289.518C-241.656 291.281 -242.351 293.332 -244.497 292.997C-246.643 292.662 -249.611 303.475 -251.937 305.866C-254.263 308.257 -252.416 314.985 -252.149 317.328C-251.881 319.672 -253.759 321.68 -255.022 322.233C-256.285 322.786 -254.136 330.557 -254.949 332.615C-255.761 334.673 -248.861 335.531 -248.861 335.531C-248.221 336.316 -243.656 337.559 -240.439 341.72C-236.45 346.895 -232.946 346.317 -232.946 346.317C-232.946 346.317 -208.856 344.66 -203.331 344.307C-200.98 344.156 -198.694 344.836 -197.045 346.62C-195.515 348.41 -193.909 351.376 -195.059 353.693C-196.099 355.884 -196.447 359.683 -194.556 361.568C-193.548 362.566 -191.975 363.174 -190.746 363.922C-186.842 365.915 -184.926 375.589 -184.603 380.643C-184.392 383.935 -184.527 387.366 -185.257 390.718C-185.425 391.791 -185.71 392.871 -186.355 393.857C-187.205 395.327 -187.505 396.173 -187.283 397.811C-187.117 400.397 -187.407 403.248 -184.519 404.126C-182.71 404.719 -179.488 412.657 -179.488 412.657C-179.488 412.657 -171.321 431.492 -170.11 435.664C-168.9 439.835 -166.916 439.473 -165.623 439.39C-164.33 439.307 -162.904 439.452 -162.664 437.667C-162.417 435.998 -160.866 436.253 -160.866 436.253C-160.866 436.253 -159.441 436.398 -153.343 435.773C-147.128 435.139 -143.284 425.097 -141.854 423.472C-140.423 421.846 -140.336 421.368 -140.649 418.319C-141.087 415.16 -140.514 414.888 -137.473 414.457C-134.314 414.02 -134.949 411.463 -135.222 405.343C-135.495 399.223 -132.559 397.147 -128.59 392.763C-124.621 388.378 -128.619 371.991 -129.4 365.313C-130.181 358.635 -126.034 355.184 -126.034 355.184C-126.034 355.184 -112.927 333.101 -108.006 327.003C-103.084 320.905 -111.575 322.864 -111.575 322.864C-111.575 322.864 -119.436 323.602 -123.11 323.365C-126.777 323.245 -131.144 315.852 -133.035 313.966C-134.926 312.081 -139.265 308.817 -140.234 304.748C-141.202 300.679 -142.97 297.015 -142.97 297.015C-143.376 296.214 -147.377 292.693 -148.133 288.256C-149.829 278.332 -145.572 285.85 -145.572 285.85C-145.572 285.85 -143.989 288.464 -138.701 291.785C-133.406 295.223 -129.751 308.091 -126.96 312.988C-124.168 317.885 -124.521 317.907 -116.755 317.529C-108.982 317.269 -99.1309 305.19 -96.0922 302.872C-93.0536 300.553 -94.2842 297.917 -95.7576 295.178C-97.2309 292.44 -99.897 293.2 -105.137 292.473C-110.369 291.863 -112.538 285.628 -117.428 282.989C-122.318 280.351 -117.953 280.308 -114.639 280.451C-111.325 280.593 -110.86 282.334 -109.087 284.227C-107.306 286.238 -104.644 287.248 -99.5023 286.447C-94.3526 285.764 -90.816 287.545 -89.5428 288.998C-88.2697 290.451 -84.6606 291.518 -84.6606 291.518C-84.6606 291.518 -75.8443 290.955 -74.7112 292.063C-73.5782 293.171 -73.9631 296.382 -68.1656 296.602C-62.3681 296.822 -58.8183 308.044 -58.8183 308.044C-58.8183 308.044 -56.2412 322.515 -52.0868 324.728C-44.0205 329.052 -47.0479 313.075 -46.8906 309.996C-46.7332 306.918 -38.3349 301.66 -35.3687 300.054C-34.1132 299.383 -33.6156 297.935 -33.5882 296.517C-33.5308 295.569 -34.3713 293.498 -33.711 292.748C-33.1533 292.24 -30.7948 292.208 -30.082 292.28C-28.5388 292.418 -25.7927 291.062 -24.8771 294.308C-23.9615 297.555 -19.4668 301.398 -19.4668 301.398C-18.0911 302.609 -16.4004 303.209 -14.6146 303.449C-13.0714 303.586 -11.2356 302.761 -9.77248 303.494C-7.699 304.541 -8.73671 308.621 -8.7416 310.392C-8.62142 312.272 -8.97142 314.183 -8.60868 316.167C-8.23836 318.267 -6.83262 319.948 -6.22725 322.034C-5.78444 323.422 -5.4667 324.7 -5.25901 326.103C-5.25901 326.103 0.386719 338.726 7.12204 336.997C11.6539 335.881 3.16473 328.634 -0.469539 325.325C-4.10381 322.016 -4.56426 318.505 -3.26897 314.763C-1.97362 311.021 1.25809 315.418 6.51552 318.269C11.7729 321.12 9.69953 320.072 13.4833 314.637C17.2746 309.319 13.2399 303.44 11.8643 302.229C10.4886 301.019 4.63065 294.311 10.8356 291.672C16.9231 289.041 23.0057 288.18 26.3845 287.492C29.7634 286.804 29.1779 283.182 34.3096 274.828C39.4413 266.474 33.388 256.711 30.7742 252.747C28.0427 248.79 27.4373 246.704 30.7009 242.365C33.9645 238.025 37.8467 245.213 37.8467 245.213C37.8467 245.213 41.7562 250.983 46.8337 256.56C51.9113 262.137 52.4586 254.076 53.1613 252.142C53.8564 250.091 50.6424 247.818 48.7063 245.227C46.7703 242.636 48.4983 238.277 48.8709 236.718C49.2434 235.16 57.5617 230.498 60.1978 229.267C62.8338 228.036 65.3621 223.272 65.8991 213.205C66.4362 203.138 69.4857 213.92 69.4857 213.92C69.4857 213.92 71.273 236.349 71.4183 240.471C71.5636 244.593 71.9114 246.341 67.0596 249.838C62.2077 253.335 61.5749 252.667 58.9088 253.428C56.2427 254.188 55.3624 255.189 55.5404 261.669C55.7184 268.149 58.6669 264.42 58.9219 262.869C59.177 261.318 60.067 256.776 63.4985 256.911C66.93 257.046 72.0894 252.821 75.1131 250.268C78.1367 247.714 76.3205 241.456 75.9701 237.82C75.6197 234.183 75.3346 235.264 78.4935 234.826C81.6523 234.388 80.4618 234.228 80.7443 231.259C81.0267 228.29 79.5935 228.028 76.6473 228.098C73.701 228.168 74.1085 225.309 74.1085 225.309C74.1085 225.309 73.7724 210.813 72.8492 207.449C71.9336 204.203 67.5039 199.529 58.9603 200.665C50.4168 201.801 62.7137 189.212 66.5575 184.717C70.2839 180.23 74.4608 182.796 74.4608 182.796C74.4608 182.796 79.4306 184.839 86.2211 185.822C93.0116 186.804 89.4997 181.717 90.0972 178.138C90.6948 174.559 93.7237 175.782 99.4889 179.19C105.254 182.599 95.3528 190.195 94.195 192.394C93.0371 194.592 96.4464 199.922 100.253 205.934C104.06 211.947 102.985 204.343 103.297 201.845C103.492 199.354 103.114 197.135 105.462 195.097C107.811 193.058 106.19 189.857 105.867 184.802C105.544 179.748 109.116 180.228 114.64 179.875C120.173 179.639 120.75 177.596 121.991 176.69C123.231 175.785 122.406 173.949 130.567 172.365C138.735 170.899 120.228 150.954 118.72 149.516C117.212 148.078 93.1968 150.911 87.3042 151.052C81.4117 151.192 81.4065 147.415 80.1408 146.08C78.8752 144.744 65.6672 146.769 63.1911 146.809C60.715 146.849 57.7984 141.842 55.6675 141.742C53.5365 141.642 52.8489 143.811 50.8532 145.827C48.8575 147.843 48.572 143.376 48.2167 141.51C47.8615 139.644 46.5309 139.139 44.1348 138.584C41.7387 138.029 42.1368 144.259 42.1545 146.383C42.1721 148.506 23.2015 149.01 19.5499 149.125C15.8983 149.24 14.4675 145.319 13.4918 141.132C12.5161 136.945 9.03985 141.653 9.03985 141.653L0.136149 142.694C0.136149 142.694 -14.9404 143.185 -18.8995 144.028C-22.7411 144.864 -19.2075 139.208 -17.2493 136.605C-15.2986 133.883 -25.2956 130.745 -26.5387 129.762C-27.7819 128.78 -35.5751 130.576 -37.2583 130.093C-38.824 129.603 -40.1648 127.092 -40.5824 127.945C-41 128.798 -41.43 131.304 -43.1107 132.71C-44.7913 134.115 -46.467 133.75 -48.7955 134.253C-51.124 134.756 -49.6458 135.724 -57.6693 135.765C-65.6852 135.923 -65.6999 141.235 -67.9806 144.331C-70.3789 147.435 -74.6258 147.471 -76.6166 147.716C-78.6 148.079 -77.6393 152.03 -78.4219 154.559C-79.2046 157.088 -83.3268 151.686 -84.7824 151.07C-86.2456 150.338 -85.4825 154.892 -85.4825 154.892C-85.4825 154.892 -84.7288 168.535 -85.2264 169.984C-85.724 171.432 -90.942 159.962 -91.1147 157.259C-91.1699 154.547 -93.7789 148.813 -94.3167 147.785C-94.7295 146.867 -95.8074 148.47 -97.2003 150.684C-98.5933 152.897 -97.3824 157.069 -97.5473 160.03C-97.7122 162.991 -99.4556 161.568 -104.04 161.861C-108.624 162.154 -109.35 163.735 -111.118 165.618C-112.886 167.502 -119.851 167.475 -123.848 167.73C-127.845 167.986 -129.7 170.347 -133.202 172.813C-136.703 175.279 -135.988 171.693 -138.542 168.669C-141.221 165.535 -141.698 170.995 -142.841 173.429C-143.984 175.863 -151.2 170.068 -154.664 167.575C-158.128 165.081 -159.999 167.207 -161.762 167.32C-163.525 167.433 -165.479 168.266 -167.555 165.33C-169.631 162.393 -174.545 163.062 -179.948 161.636C-185.35 160.211 -186.748 164.195 -192.263 166.554C-197.777 168.913 -198.978 172.295 -198.978 172.295C-198.978 172.295 -198.978 172.295 -199.128 175.491C-199.277 178.687 -202.931 182.462 -205.205 185.676C-207.478 188.89 -212.165 189.425 -214.661 191.001C-217.157 192.577 -214.86 200.811 -214.525 204.212C-214.197 207.496 -208.94 204.799 -205.413 204.574C-202.004 204.356 -203.697 207.415 -204.077 208.856C-204.245 209.929 -206.023 209.806 -206.331 210.534C-206.441 210.659 -206.426 210.894 -206.286 211.239C-205.74 212.385 -204.387 213.243 -203.607 214.373C-201.141 217.874 -199.75 213.773 -199.75 213.773C-199.75 213.773 -196.627 209.088 -193.871 204.191C-191.43 199.904 -196.57 197.045 -193.879 192.978C-191.621 189.529 -188.752 186.395 -185.846 183.849C-180.819 179.397 -179.839 181.812 -178.16 184.066C-176.482 186.319 -185.441 190.196 -187.644 196.357C-189.847 202.517 -181.286 197.957 -183.424 203.287C-187.602 215.475 -188.87 217.799 -193.512 219.039ZM-122.693 158.096C-120.965 159.284 -119.127 160.347 -117.178 161.284C-116.568 161.6 -113.759 163.073 -114.585 161.237C-115.137 159.974 -116.278 158.748 -117.168 157.743C-118.949 155.732 -118.804 154.307 -118.985 151.485C-119.165 148.664 -113.673 145.953 -113.673 145.953C-94.8928 135.074 -112.65 141.638 -115.449 142.171C-118.137 142.579 -120.818 143.104 -122.199 143.665C-123.58 144.225 -126.513 148.189 -127.838 151.461C-128.249 152.431 -127.938 153.592 -127.526 154.51C-127.128 155.193 -126.62 155.75 -125.885 156.175C-124.782 156.813 -123.561 157.443 -122.693 158.096ZM-116.838 390.123C-118.291 391.396 -117.705 395.018 -117.425 401.255C-117.312 403.019 -114.283 415.336 -111.622 410.799C-111.629 410.682 -108.111 404.791 -108.196 401.61C-108.289 398.311 -105.795 394.847 -104.88 392.546C-103.965 390.245 -104.74 387.344 -107.282 382.667C-109.823 377.99 -111.891 386.266 -111.891 386.266C-112.514 387.604 -115.385 388.85 -116.838 390.123ZM0.199691 346.882C1.96556 348.657 3.73894 350.551 5.50481 352.326C6.38774 353.214 7.27074 354.102 8.15367 354.99C9.15416 355.87 10.3898 356.735 10.9351 357.881C11.4804 359.026 11.4679 360.679 12.4684 361.56C13.3438 362.33 14.6369 362.247 15.6874 362.062C20.2643 361.652 24.8638 361.594 29.5658 361.293C56.6023 359.566 36.0284 358.992 34.8379 358.832C33.6474 358.672 31.2164 359.418 28.8778 357.915C26.5391 356.412 16.4599 357.528 16.4599 357.528C16.4599 357.528 12.9409 357.871 13.2233 354.902C13.5057 351.933 12.1102 352.258 7.17007 345.138C2.22997 338.018 2.79557 343.175 -4.7156 336.455C-12.2268 329.735 -7.41174 336.745 -5.8209 339.476C-4.23006 342.207 -0.823334 345.649 -0.823334 345.649C-0.558174 346.104 -0.175455 346.552 0.199691 346.882ZM39.0615 347.349C38.6889 348.908 38.7791 350.318 40.5799 350.793C43.9313 351.523 43.276 350.503 46.4322 348.177C46.9974 347.786 48.6931 346.616 48.523 345.801C48.3604 345.103 46.8322 345.2 46.2219 344.885C45.6041 344.453 44.9788 343.902 44.2735 343.948C43.3256 343.89 42.3852 343.95 41.4523 344.128C40.2843 344.32 39.7191 344.711 39.4265 345.674C39.2215 346.159 39.1415 346.754 39.0615 347.349ZM28.5094 346.607C29.5674 346.54 30.7428 346.464 31.7707 345.927C32.6886 345.514 33.2238 344.654 33.8915 344.021C35.117 342.88 35.277 341.69 35.4369 340.499C35.9395 337.28 35.4865 333.886 35.2837 330.712C34.9232 325.07 34.168 326.181 33.0773 323.89C32.5245 322.627 28.6255 324.41 27.0624 325.808C25.4993 327.207 26.5824 329.38 26.57 331.033C26.7052 333.149 24.6118 333.637 23.2688 334.785C21.5882 336.191 20.0326 337.706 18.477 339.222C16.4738 341.121 18.5923 342.874 19.6529 344.694C19.9181 345.15 20.3083 345.715 20.801 346.037C21.6689 346.69 22.7344 346.74 23.6823 346.798C23.7999 346.79 23.7999 346.79 23.9174 346.783C25.4531 346.802 26.9812 346.705 28.5094 346.607ZM45.775 319.419C46.7105 321.13 47.9987 322.818 49.1618 324.396C49.8097 325.299 51.2003 326.745 52.3158 325.729C53.7688 324.456 53.2884 322.48 53.1908 320.952C52.9654 317.426 52.9876 312.231 51.4193 309.852C49.7334 307.481 46.8221 306.251 44.9086 304.013C43.3853 302.34 42.2248 302.65 40.041 296.18C37.7396 289.717 38.8531 297.908 38.7633 302.045C38.6735 306.182 42.6455 309.233 42.6455 309.233C45.5444 312.116 44.0215 315.99 45.775 319.419ZM76.6553 350.141C78.0735 350.168 79.3966 350.556 80.4121 351.671C81.6778 353.006 82.1355 354.63 83.1736 356.098C83.8289 357.118 84.8594 358.469 86.365 358.018C87.7456 357.458 89.0661 355.957 90.3392 357.41C92.1201 359.421 92.8829 358.428 92.8829 358.428C93.3305 358.045 96.8319 355.579 98.6853 356.877C109.445 364.57 104.698 358.617 101.902 355.491C99.1052 352.365 92.2144 347.966 89.0879 345.215C85.9613 342.464 80.1316 345.433 76.8101 345.173C73.4887 344.913 74.3588 341.907 72.4678 340.021C70.5769 338.136 63.6592 340.702 61.9609 339.985C60.2626 339.267 59.4172 338.967 59.2745 336.733C59.2519 336.381 58.3589 333.487 57.6036 334.598C57.281 335.09 57.5987 336.368 57.6363 336.956C57.6964 337.897 57.7565 338.837 57.9341 339.77C58.4294 341.981 60.1326 340.928 63.184 342.503C66.2279 343.961 67.4737 346.832 68.2192 349.263C68.817 351.232 71.2781 350.956 73.1438 350.601C74.3118 350.408 75.4799 350.216 76.6553 350.141ZM98.2229 436.459C97.6276 436.379 96.4446 436.336 96.2546 437.057C96.0645 437.777 97.4101 438.517 97.4477 439.105C97.5077 440.045 97.4605 442.999 100.297 443.054C103.015 443.116 103.38 441.441 103.795 438.699C103.883 438.222 103.853 437.751 103.588 437.296C103.198 436.731 102.367 436.666 101.779 436.704C101.184 436.624 100.596 436.661 99.8836 436.589C99.2883 436.509 98.8182 436.539 98.2229 436.459ZM61.9379 371.028C58.7866 371.583 55.9755 373.77 53.3695 375.47C51.6663 376.524 49.8607 377.819 49.1655 379.87C48.5653 381.561 48.8632 384.375 48.7407 386.153C48.5233 388.291 42.8782 386.764 40.7849 387.251C38.6915 387.739 39.532 389.81 38.8717 390.56C38.094 391.318 35.1026 390.683 32.6641 391.311C29.7629 392.087 31.504 397.169 31.3966 399.182C31.2892 401.196 30.7116 403.239 30.3691 405.267C29.669 409.089 31.8799 408.594 33.8208 409.414C35.7617 410.234 34.344 415.754 34.8844 418.67C35.4098 421.351 39.1015 423.712 41.3951 424.51C42.9683 425.118 44.8266 424.645 46.4723 424.54C48.3531 424.419 50.2414 424.417 51.9747 423.834C53.7079 423.251 54.9107 421.758 56.3713 420.602C58.6096 418.689 61.1431 417.701 64.0969 417.748C67.1683 417.788 70.1296 417.953 73.1933 417.875C74.8391 417.77 77.6227 417.002 78.2281 419.088C78.6784 420.593 78.5484 422.254 78.9987 423.76C79.9143 427.006 82.0726 425.688 84.7763 425.515C87.4799 425.342 87.7327 427.451 88.5657 429.404C89.959 432.738 92.4126 432.345 95.4689 432.15C97.5848 432.014 99.7007 431.879 101.809 431.626C105.431 431.041 107.431 427.254 107.431 427.254C107.431 427.254 111.725 418.718 113.866 415.276C116.006 411.834 116.474 404.369 116.106 398.609C115.738 392.849 107.226 385.249 107.226 385.249C107.226 385.249 95.68 372.649 93.6715 370.771C91.663 368.893 92.6808 366.349 91.8328 364.161C91.1024 361.965 89.572 365.721 87.6112 366.437C85.6504 367.152 87.2191 375.078 87.2942 376.254C87.3693 377.429 84.8857 377.352 83.4875 375.789C82.0893 374.226 81.289 374.631 79.3406 373.693C77.3921 372.755 76.089 370.832 75.6511 367.673C75.3307 364.507 72.1069 365.775 68.3378 365.898C64.5687 366.021 66.172 367.099 65.5944 369.142C65.2068 370.465 63.8037 370.673 62.6357 370.865C62.283 370.888 62.0554 371.02 61.9379 371.028ZM147.797 442.025L147.687 442.15C146.492 443.761 142.943 449.181 145.316 449.384C147.572 449.594 150.476 450.706 151.789 449.088C153.087 447.235 152.527 445.854 156.654 443.938C158.717 442.98 160.067 436.402 160.067 436.402C160.067 436.402 159.211 434.096 157.711 432.776C156.468 431.793 153.902 435.97 152.911 437.095C151.253 438.854 149.22 440.282 147.797 442.025ZM165.957 428.826C166.622 426.305 168.475 427.603 168.362 425.84C168.25 424.076 162.875 421.233 161.014 419.817C157.3 417.104 160.989 423.124 160.271 424.822C159.334 426.771 159.216 426.778 160.182 428.959C160.454 429.532 161.222 432.315 161.825 432.513C165.309 433.471 165.299 431.465 165.957 428.826Z"/>
</mask>
<path d="M-449.486 165.994C-451.074 165.151 -452.655 164.426 -454.441 164.186C-456.814 163.983 -459.503 164.391 -461.812 163.358C-463.392 162.633 -466.719 158.597 -462.935 158.709C-460.334 158.779 -455.287 158.338 -453.651 156.227C-449.507 150.887 -442.738 162.612 -437.766 160.996C-435.108 160.118 -434.745 156.554 -431.819 158.019C-429.988 158.964 -428.002 160.49 -426.604 162.053C-424.573 164.284 -425.783 165.659 -428.457 166.302C-430.903 166.813 -433.387 166.735 -435.973 166.901C-438.324 167.051 -440.66 167.436 -442.996 167.821C-445.332 168.207 -447.413 167.041 -449.486 165.994ZM-423.441 148.749C-423.441 148.749 -421.802 154.074 -419.877 154.659C-418.068 155.252 -417.068 156.132 -416.05 153.588C-415.025 151.162 -417.796 150.277 -419.914 148.524C-422.033 146.771 -425.5 142.389 -423.441 148.749ZM-429.994 181.036C-433.508 179.608 -432.005 177.27 -433.429 173.466C-434.852 169.662 -437.073 173.699 -440.249 177.56C-443.425 181.422 -447.262 174.94 -449.138 173.289C-451.014 171.639 -449.391 171.181 -458.495 170.936C-467.489 170.567 -466.798 170.287 -470.502 175.126C-474.206 179.966 -466.875 178.318 -461.665 178.575C-456.456 178.832 -456.143 181.881 -456.41 185.085C-456.678 188.289 -466.297 187.369 -475.298 186.882C-484.3 186.395 -483.349 188.34 -487.806 190.632C-492.263 192.923 -502.24 188.249 -506.319 187.211C-510.398 186.174 -537.565 189.562 -541.562 189.817C-545.558 190.073 -547.597 193.272 -550.563 194.878C-553.529 196.484 -551.883 201.926 -551.835 204.519C-551.787 207.113 -557.815 205.138 -560.871 205.333C-563.928 205.528 -562.992 207.239 -563.085 209.487C-563.177 211.736 -561.869 211.888 -558.24 211.42C-554.611 210.952 -553.045 211.443 -552.77 213.904C-552.495 216.365 -557.397 215.379 -560.336 215.567C-563.274 215.755 -561.768 220.852 -560.903 225.164C-560.037 229.476 -557.261 228.59 -555.54 229.661C-553.819 230.731 -551.363 232.226 -564.858 238.99C-578.354 245.754 -565.118 242.312 -562.827 241.221C-560.537 240.13 -550.395 236.296 -547.339 236.1C-544.282 235.905 -539.806 232.078 -536.137 228.539C-532.468 224.999 -520.263 225.754 -511.556 225.316C-502.85 224.877 -494.11 243.44 -489.691 246.108C-485.271 248.777 -483.276 272.609 -482.943 279.67C-482.61 286.73 -477.13 291.219 -474.636 293.303C-472.142 295.386 -465.564 307.831 -458.668 316.006C-451.764 324.299 -455.401 313.555 -457.598 308.738C-459.801 303.804 -455.864 308.155 -455.864 308.155C-455.864 308.155 -443.753 320.365 -441.137 326.217C-438.52 332.069 -428.558 336.508 -422.063 336.565C-415.568 336.622 -415.573 338.393 -415.573 338.393C-415.573 338.393 -415.767 340.884 -407.949 341.329C-400.248 341.781 -401.158 347.859 -397.834 350.007C-394.51 352.155 -389.415 354.308 -385.066 354.03C-380.716 353.752 -382.275 353.38 -381.242 356.619C-380.208 359.857 -382.979 364.52 -385.062 367.013C-387.146 369.507 -387.035 374.929 -386.63 381.277C-386.224 387.625 -383.673 388.76 -383.673 388.76C-383.673 388.76 -368.875 409.768 -365.574 411.564C-362.272 413.359 -362.472 417.621 -362.472 417.621C-362.472 417.621 -360.414 449.83 -360.374 452.306C-360.334 454.782 -360.569 454.797 -362.497 457.871C-364.425 460.945 -363.659 467.388 -363.659 467.388C-363.659 467.388 -362.187 495.975 -362.051 498.091C-361.916 500.207 -358.452 502.7 -347.387 507.777C-336.322 512.853 -344.628 504.768 -345.932 502.844C-347.235 500.921 -346.742 495.696 -346.99 491.817C-347.238 487.938 -344.074 485.729 -342.932 483.296C-341.789 480.862 -343.077 479.174 -343.34 475.06C-343.603 470.945 -339.153 468.537 -339.153 468.537C-339.153 468.537 -315.635 441.303 -313.787 438.825C-311.939 436.346 -311.879 431.739 -312.279 429.168C-312.68 426.597 -305.402 418.578 -301.256 415.126C-297.109 411.674 -294.271 402.523 -294.164 400.509C-294.056 398.496 -294.232 393.904 -291.436 391.483C-288.639 389.062 -289.065 384.249 -288.212 379.12C-287.36 373.99 -296.801 374.003 -302.677 370.72C-308.552 367.436 -317.553 366.949 -318.259 366.994C-318.964 367.039 -322.931 367.765 -322.883 364.811C-322.836 361.857 -325.628 356.96 -327.196 354.582C-328.764 352.203 -330.99 352.464 -333.694 352.636C-336.397 352.809 -345.114 345.694 -348.791 343.568C-352.468 341.443 -359.518 343.782 -364.303 342.789C-369.087 341.796 -366.736 341.646 -371.043 340.741C-375.35 339.836 -376.973 345.841 -378.934 346.557C-380.895 347.272 -387.375 347.45 -389.748 347.248C-392.122 347.045 -394.148 343.044 -394.976 339.32C-395.804 335.596 -397.202 334.032 -400.489 332.472C-403.775 330.912 -404.501 326.945 -404.329 324.101C-404.156 321.257 -406.17 321.15 -408.528 321.183C-410.887 321.215 -410.709 322.148 -411.169 324.184C-411.629 326.22 -413.45 327.281 -418.557 326.781C-423.672 326.163 -426.171 320.304 -427.066 315.522C-427.962 310.74 -428.017 308.028 -424.906 304.997C-421.795 301.965 -420.757 303.433 -416.245 303.853C-411.733 304.273 -408.835 301.609 -406.091 298.365C-403.348 295.121 -399.491 300.068 -399.491 300.068C-399.491 300.068 -399.491 300.068 -394.19 307.283C-388.89 314.499 -389.966 306.895 -391.607 299.682C-393.248 292.469 -372.276 267.877 -369.077 264.368C-365.879 260.859 -366.141 262.292 -360.294 261.446C-354.446 260.601 -352.596 254.463 -349.345 251.776C-346.094 249.09 -353.962 249.711 -357.609 248.055C-361.255 246.4 -355.408 245.554 -353.359 244.361C-351.311 243.168 -346.882 242.295 -340.982 242.272C-335.082 242.249 -350.98 222.491 -353.599 220.298C-356.217 218.105 -355.737 214.533 -357.131 211.199C-358.524 207.866 -362.16 213.763 -364.866 217.595C-367.572 221.427 -367.687 217.775 -367.36 215.512C-367.032 213.248 -369.534 211.048 -370.787 208.059C-372.04 205.07 -379.503 206.491 -382.214 206.547C-384.926 206.602 -384.44 206.807 -384.97 211.444C-385.5 216.081 -384.019 218.937 -382.926 223.116C-381.833 227.295 -386.167 233.356 -388.683 236.467C-391.199 239.579 -392.129 236.097 -392.435 233.166C-392.74 230.235 -394.12 230.795 -397.442 230.535C-400.763 230.276 -401.006 230.173 -402.494 227.199C-403.983 224.226 -408.497 221.917 -412.626 221.945C-416.756 221.973 -415.921 214.72 -416.006 211.538C-416.099 208.24 -409.994 207.731 -408.033 207.016C-406.072 206.301 -402.916 203.974 -399.384 207.526C-395.86 210.959 -392.919 207.113 -392.919 207.113C-392.919 207.113 -388.112 202.91 -388.262 200.559C-388.413 198.208 -389.426 198.981 -392.599 199.184C-395.773 199.387 -396.243 199.417 -396.416 196.713C-396.589 194.01 -396.604 193.775 -390.969 193.296C-385.334 192.818 -388.251 187.811 -385.705 185.17C-383.159 182.529 -380.453 184.244 -380.6 189.329C-380.747 194.414 -375.117 190.159 -371.743 191.242C-368.369 192.325 -369.792 194.068 -372.576 194.836C-375.36 195.604 -373.419 196.424 -372.401 199.428C-371.383 202.432 -371.788 201.631 -362.809 201.766C-353.83 201.9 -361.764 197.804 -362.411 196.901C-363.059 195.998 -365.913 193.82 -357.772 193.772C-349.631 193.724 -355.106 187.464 -355.106 187.464C-355.106 187.464 -361.372 178.068 -367.995 176.012C-374.618 173.957 -372.848 173.962 -376.527 169.948C-380.206 165.934 -393.127 168.766 -397.021 168.779C-400.915 168.792 -400.515 171.363 -402.355 173.959C-404.078 176.548 -399.219 178.716 -398.245 186.562C-397.272 194.407 -402.887 187.802 -402.887 187.802C-402.887 187.802 -405.926 184.574 -407.414 181.6C-408.903 178.626 -409.478 177.011 -407.74 174.657C-406.002 172.303 -405.337 169.782 -409.531 165.093C-413.726 160.404 -417.02 158.726 -418.681 158.596C-420.342 158.466 -419.661 161.727 -419.246 164.533C-418.83 167.34 -417.215 166.764 -415.111 168.282C-413.125 169.808 -413.753 172.917 -414.02 176.121C-414.288 179.324 -414.548 177.099 -417.794 172.467C-421.041 167.835 -422.757 170.541 -425.133 173.998C-427.508 177.455 -420.328 179.002 -419.717 184.865C-419.106 190.727 -422.706 186.118 -422.706 186.118C-422.706 186.118 -426.48 182.464 -429.994 181.036ZM-529.717 301.307C-529.717 301.307 -526.312 313.955 -523.058 313.157C-516.55 311.561 -521.758 307.644 -527.953 301.195C-528.469 300.519 -530.61 298.413 -529.717 301.307ZM-386.706 320.969C-385.986 321.159 -385.273 321.231 -384.663 321.546C-383.685 322.074 -382.912 323.087 -381.831 323.372C-380.383 323.87 -377.652 322.279 -376.264 321.836C-370.359 320.042 -386.677 315.891 -389.543 315.366C-392.409 314.841 -393.27 314.306 -399.437 317.533C-405.604 320.76 -393.834 320.244 -393.834 320.244C-391.343 320.439 -388.977 320.524 -386.706 320.969ZM-372.257 323.586C-372.212 324.292 -372.167 324.997 -372.042 325.107C-371.372 326.362 -369.756 325.787 -368.581 325.712C-367.523 325.644 -360.962 324.871 -364.094 323.891C-366.02 323.306 -368.101 322.14 -370.262 321.57C-373.386 320.708 -372.347 322.176 -372.257 323.586ZM-409.947 156.739C-408.879 158.678 -407.491 158.235 -406.278 158.748C-405.065 159.26 -404.622 160.648 -404.052 164.035C-403.481 167.421 -392.749 165.437 -385.351 164.846C-377.953 164.256 -383.02 160.684 -392.409 161.52C-396.516 161.901 -397.031 161.226 -398.35 159.067C-399.668 156.909 -401.556 156.911 -404.327 156.026C-407.099 155.141 -406.954 153.715 -409.712 151.177C-413.472 147.758 -411.133 154.809 -411.133 154.809C-411.133 154.809 -411.015 154.801 -409.947 156.739ZM-380.417 157.095C-375.127 156.757 -372.346 148.553 -372.194 147.245C-372.042 145.937 -369.01 143.501 -364.779 143.231C-360.547 142.96 -358.313 142.818 -356.575 140.464C-354.837 138.11 -356.768 139.296 -350.753 137.377C-344.738 135.458 -344.976 133.585 -345.243 131.242C-345.511 128.898 -355.378 129.647 -358.074 129.937C-360.77 130.227 -360.43 131.858 -363.249 133.927C-366.067 135.995 -383.93 135.366 -389.58 135.609C-390.168 135.647 -390.755 135.684 -391.21 135.949C-390.438 136.962 -387.954 137.039 -386.866 137.442C-385.3 137.932 -384.402 139.055 -383.057 139.795C-381.719 140.418 -380.183 140.438 -378.765 140.465C-363.856 141.047 -375.176 143.069 -376.344 143.261C-377.512 143.454 -379.437 142.869 -379.595 145.948C-379.752 149.027 -383.729 147.746 -385.72 147.992C-387.711 148.237 -387.028 147.839 -387.268 144.077C-387.509 140.316 -396.162 141.577 -399.916 141.935C-403.67 142.293 -401.939 145.369 -401.942 149.028C-401.944 152.687 -401.011 152.51 -397.109 152.614C-393.325 152.727 -394.558 153.75 -393.945 155.953C-393.332 158.156 -387.477 157.428 -387.477 157.428C-387.477 157.428 -385.707 157.433 -380.417 157.095ZM-338.898 134.495C-338.898 134.495 -342.367 133.773 -343.973 136.354C-345.578 138.935 -343.682 139.05 -347.789 139.43C-351.896 139.811 -351.646 140.031 -352.428 142.56C-353.211 145.088 -355.059 147.567 -357.998 147.755C-360.937 147.942 -365.706 147.185 -365.093 149.388C-364.473 151.709 -360.093 157.449 -358.087 157.439C-356.081 157.429 -339.392 154.474 -337.201 161.061C-335.002 167.767 -337.102 179.232 -333.808 180.91C-330.514 182.588 -331.782 184.911 -332.802 185.567C-333.822 186.222 -335.551 185.034 -335.333 188.443C-335.115 191.852 -334.155 190.256 -332.094 192.957C-330.033 195.658 -329.16 194.54 -328.889 198.772C-328.619 203.004 -328.984 204.68 -325.78 204.947C-322.576 205.215 -319.707 207.628 -319.14 209.126C-318.572 210.624 -315.488 209.011 -314.785 207.077C-314.083 205.144 -305.175 191.237 -302.251 190.814C-299.327 190.392 -294.25 190.421 -294.298 187.828C-294.345 185.234 -296.231 181.578 -292.595 181.227C-288.958 180.877 -282.015 180.551 -279.177 176.947C-276.338 173.343 -270.224 169.293 -276.161 168.728C-278.895 168.431 -281.514 166.238 -280.283 163.326C-280.188 162.966 -276.052 163.056 -275.471 162.901C-274.076 162.575 -272.225 161.985 -271.492 160.522C-270.357 157.971 -269.222 155.42 -267.969 152.861C-266.803 150.78 -262.849 146.16 -268.199 145.558C-269.868 145.31 -270.811 143.482 -268.587 141.333C-268.587 141.333 -265.564 133.232 -262.038 133.007C-260.98 132.939 -251.018 131.831 -252.534 130.275C-253.542 129.277 -253.542 129.277 -260.625 129.258C-261.573 129.2 -262.213 128.415 -263.058 128.115C-264.256 127.837 -265.777 128.053 -266.952 128.128C-273.278 128.886 -271.154 128.868 -274.001 126.808C-276.847 124.747 -279.433 124.912 -290.828 125.758C-302.34 126.612 -306.765 125.714 -309.428 128.363C-312.092 131.012 -310.701 132.457 -316.696 132.84C-322.691 133.224 -338.898 134.495 -338.898 134.495ZM-273.468 192.398C-273.446 192.751 -273.416 193.221 -273.393 193.574C-273.333 194.514 -273.221 196.277 -271.928 196.195C-270.047 196.075 -268.173 195.837 -266.3 195.599C-265.367 195.422 -264.279 195.824 -263.612 195.191C-262.041 193.911 -261.433 192.337 -259.222 191.842C-258.289 191.664 -255.673 191.969 -255.646 190.551C-255.683 189.964 -256.764 184.131 -257.75 183.486C-260.213 181.873 -265.873 185.657 -269.87 185.913C-271.28 186.003 -272.721 185.623 -274.234 185.956C-275.512 186.273 -274.944 187.771 -274.649 188.697C-273.971 190.07 -273.669 191.113 -273.468 192.398ZM-241.103 218.657C-241.103 218.657 -245.587 222.367 -245.524 225.196C-245.469 227.907 -245.969 233.014 -242.813 230.688C-239.539 228.354 -237.371 223.494 -237.371 223.494C-237.371 223.494 -237.149 214.038 -241.103 218.657ZM-233.757 217.244C-233.087 218.499 -232.754 220.012 -232.311 221.401C-231.558 223.949 -232.944 226.28 -234.234 228.251C-235.422 229.979 -237.05 232.208 -234.594 233.703C-231.285 235.617 -227.376 230.292 -224.573 227.988C-222.327 226.192 -223.69 223.328 -225.221 221.538C-227.149 219.064 -229.408 216.966 -230.654 214.095C-231.774 211.334 -233.9 209.463 -235.814 207.225C-237.212 205.662 -238.93 206.48 -239.44 209.581C-239.855 212.322 -237.884 213.613 -236.148 214.918C-235.163 215.563 -234.288 216.333 -233.757 217.244ZM-193.512 219.039C-197.809 220.14 -200.1 221.231 -204.399 220.443C-206.788 220.006 -206.143 213.473 -208.642 213.16C-209.48 212.978 -210.825 212.238 -211.36 213.098C-211.683 213.591 -211.365 214.869 -211.328 215.457C-211.135 216.625 -210.242 219.518 -211.99 219.866C-214.319 220.369 -213.358 218.773 -214.453 223.8C-215.549 228.828 -220.468 231.266 -222.054 232.312C-223.639 233.358 -226.075 235.874 -230.072 236.129C-234.076 236.267 -234.581 237.598 -231.265 239.628C-228.683 241.234 -228.166 243.797 -227.75 246.604C-227.75 246.604 -227.75 246.604 -227.743 246.721C-227.55 247.889 -226.699 251.966 -228.44 252.431C-230.533 252.919 -237.609 253.017 -240.548 253.205C-243.487 253.393 -242.018 257.902 -241.955 260.731C-241.893 263.559 -241.127 264.455 -240.172 264.63C-239.209 264.922 -236.908 265.837 -235.567 268.348C-234.226 270.859 -230.43 269.319 -226.418 269.298C-222.406 269.278 -223.412 264.621 -222.937 262.82C-222.462 261.019 -223.94 260.052 -219.951 259.679C-216.079 259.313 -214.834 256.637 -214.552 253.668C-214.277 250.582 -211.158 253.215 -207.436 250.499C-203.715 247.783 -197.136 254.68 -194.305 256.506C-192.952 257.363 -189.37 259.849 -189.56 260.57C-190.278 262.268 -196.636 260.668 -194.537 263.956C-191.768 268.501 -189.317 266.219 -185.974 261.285C-182.505 256.46 -191.459 253.019 -193.187 251.831C-194.923 250.526 -199.085 248.195 -196.482 244.606C-193.871 241.134 -186.777 248.707 -186.777 248.707C-183.688 250.87 -178.941 256.822 -177.2 261.904C-175.349 266.861 -174.731 267.294 -170.124 267.354C-165.517 267.413 -169.427 261.644 -170.282 259.338C-171.248 257.157 -171.285 256.569 -168.339 256.499C-165.393 256.429 -163.496 262.091 -161.716 264.102C-159.935 266.113 -154.077 267.273 -151.786 266.182C-149.378 265.084 -148.732 264.098 -145.731 266.739C-142.73 269.38 -148.752 276.729 -150.727 277.209C-152.703 277.69 -156.197 280.273 -161.057 278.105C-165.924 275.82 -166.717 276.342 -172.067 275.74C-177.417 275.138 -176.421 277.789 -177.511 281.045C-178.602 284.302 -181.338 282.116 -182.603 280.78C-183.869 279.445 -193.926 275.366 -197.618 273.005C-201.31 270.645 -200.887 268.021 -202.345 265.518C-203.804 263.014 -207.768 265.628 -208.421 266.496C-209.073 267.364 -212.475 267.699 -215.649 267.902C-218.822 268.105 -220.035 267.592 -221.759 270.181C-223.482 272.77 -223.454 271.351 -226.83 273.928C-230.207 276.504 -233.786 275.907 -238.913 276.942C-244.04 277.978 -241.881 287.755 -241.768 289.518C-241.656 291.281 -242.351 293.332 -244.497 292.997C-246.643 292.662 -249.611 303.475 -251.937 305.866C-254.263 308.257 -252.416 314.985 -252.149 317.328C-251.881 319.672 -253.759 321.68 -255.022 322.233C-256.285 322.786 -254.136 330.557 -254.949 332.615C-255.761 334.673 -248.861 335.531 -248.861 335.531C-248.221 336.316 -243.656 337.559 -240.439 341.72C-236.45 346.895 -232.946 346.317 -232.946 346.317C-232.946 346.317 -208.856 344.66 -203.331 344.307C-200.98 344.156 -198.694 344.836 -197.045 346.62C-195.515 348.41 -193.909 351.376 -195.059 353.693C-196.099 355.884 -196.447 359.683 -194.556 361.568C-193.548 362.566 -191.975 363.174 -190.746 363.922C-186.842 365.915 -184.926 375.589 -184.603 380.643C-184.392 383.935 -184.527 387.366 -185.257 390.718C-185.425 391.791 -185.71 392.871 -186.355 393.857C-187.205 395.327 -187.505 396.173 -187.283 397.811C-187.117 400.397 -187.407 403.248 -184.519 404.126C-182.71 404.719 -179.488 412.657 -179.488 412.657C-179.488 412.657 -171.321 431.492 -170.11 435.664C-168.9 439.835 -166.916 439.473 -165.623 439.39C-164.33 439.307 -162.904 439.452 -162.664 437.667C-162.417 435.998 -160.866 436.253 -160.866 436.253C-160.866 436.253 -159.441 436.398 -153.343 435.773C-147.128 435.139 -143.284 425.097 -141.854 423.472C-140.423 421.846 -140.336 421.368 -140.649 418.319C-141.087 415.16 -140.514 414.888 -137.473 414.457C-134.314 414.02 -134.949 411.463 -135.222 405.343C-135.495 399.223 -132.559 397.147 -128.59 392.763C-124.621 388.378 -128.619 371.991 -129.4 365.313C-130.181 358.635 -126.034 355.184 -126.034 355.184C-126.034 355.184 -112.927 333.101 -108.006 327.003C-103.084 320.905 -111.575 322.864 -111.575 322.864C-111.575 322.864 -119.436 323.602 -123.11 323.365C-126.777 323.245 -131.144 315.852 -133.035 313.966C-134.926 312.081 -139.265 308.817 -140.234 304.748C-141.202 300.679 -142.97 297.015 -142.97 297.015C-143.376 296.214 -147.377 292.693 -148.133 288.256C-149.829 278.332 -145.572 285.85 -145.572 285.85C-145.572 285.85 -143.989 288.464 -138.701 291.785C-133.406 295.223 -129.751 308.091 -126.96 312.988C-124.168 317.885 -124.521 317.907 -116.755 317.529C-108.982 317.269 -99.1309 305.19 -96.0922 302.872C-93.0536 300.553 -94.2842 297.917 -95.7576 295.178C-97.2309 292.44 -99.897 293.2 -105.137 292.473C-110.369 291.863 -112.538 285.628 -117.428 282.989C-122.318 280.351 -117.953 280.308 -114.639 280.451C-111.325 280.593 -110.86 282.334 -109.087 284.227C-107.306 286.238 -104.644 287.248 -99.5023 286.447C-94.3526 285.764 -90.816 287.545 -89.5428 288.998C-88.2697 290.451 -84.6606 291.518 -84.6606 291.518C-84.6606 291.518 -75.8443 290.955 -74.7112 292.063C-73.5782 293.171 -73.9631 296.382 -68.1656 296.602C-62.3681 296.822 -58.8183 308.044 -58.8183 308.044C-58.8183 308.044 -56.2412 322.515 -52.0868 324.728C-44.0205 329.052 -47.0479 313.075 -46.8906 309.996C-46.7332 306.918 -38.3349 301.66 -35.3687 300.054C-34.1132 299.383 -33.6156 297.935 -33.5882 296.517C-33.5308 295.569 -34.3713 293.498 -33.711 292.748C-33.1533 292.24 -30.7948 292.208 -30.082 292.28C-28.5388 292.418 -25.7927 291.062 -24.8771 294.308C-23.9615 297.555 -19.4668 301.398 -19.4668 301.398C-18.0911 302.609 -16.4004 303.209 -14.6146 303.449C-13.0714 303.586 -11.2356 302.761 -9.77248 303.494C-7.699 304.541 -8.73671 308.621 -8.7416 310.392C-8.62142 312.272 -8.97142 314.183 -8.60868 316.167C-8.23836 318.267 -6.83262 319.948 -6.22725 322.034C-5.78444 323.422 -5.4667 324.7 -5.25901 326.103C-5.25901 326.103 0.386719 338.726 7.12204 336.997C11.6539 335.881 3.16473 328.634 -0.469539 325.325C-4.10381 322.016 -4.56426 318.505 -3.26897 314.763C-1.97362 311.021 1.25809 315.418 6.51552 318.269C11.7729 321.12 9.69953 320.072 13.4833 314.637C17.2746 309.319 13.2399 303.44 11.8643 302.229C10.4886 301.019 4.63065 294.311 10.8356 291.672C16.9231 289.041 23.0057 288.18 26.3845 287.492C29.7634 286.804 29.1779 283.182 34.3096 274.828C39.4413 266.474 33.388 256.711 30.7742 252.747C28.0427 248.79 27.4373 246.704 30.7009 242.365C33.9645 238.025 37.8467 245.213 37.8467 245.213C37.8467 245.213 41.7562 250.983 46.8337 256.56C51.9113 262.137 52.4586 254.076 53.1613 252.142C53.8564 250.091 50.6424 247.818 48.7063 245.227C46.7703 242.636 48.4983 238.277 48.8709 236.718C49.2434 235.16 57.5617 230.498 60.1978 229.267C62.8338 228.036 65.3621 223.272 65.8991 213.205C66.4362 203.138 69.4857 213.92 69.4857 213.92C69.4857 213.92 71.273 236.349 71.4183 240.471C71.5636 244.593 71.9114 246.341 67.0596 249.838C62.2077 253.335 61.5749 252.667 58.9088 253.428C56.2427 254.188 55.3624 255.189 55.5404 261.669C55.7184 268.149 58.6669 264.42 58.9219 262.869C59.177 261.318 60.067 256.776 63.4985 256.911C66.93 257.046 72.0894 252.821 75.1131 250.268C78.1367 247.714 76.3205 241.456 75.9701 237.82C75.6197 234.183 75.3346 235.264 78.4935 234.826C81.6523 234.388 80.4618 234.228 80.7443 231.259C81.0267 228.29 79.5935 228.028 76.6473 228.098C73.701 228.168 74.1085 225.309 74.1085 225.309C74.1085 225.309 73.7724 210.813 72.8492 207.449C71.9336 204.203 67.5039 199.529 58.9603 200.665C50.4168 201.801 62.7137 189.212 66.5575 184.717C70.2839 180.23 74.4608 182.796 74.4608 182.796C74.4608 182.796 79.4306 184.839 86.2211 185.822C93.0116 186.804 89.4997 181.717 90.0972 178.138C90.6948 174.559 93.7237 175.782 99.4889 179.19C105.254 182.599 95.3528 190.195 94.195 192.394C93.0371 194.592 96.4464 199.922 100.253 205.934C104.06 211.947 102.985 204.343 103.297 201.845C103.492 199.354 103.114 197.135 105.462 195.097C107.811 193.058 106.19 189.857 105.867 184.802C105.544 179.748 109.116 180.228 114.64 179.875C120.173 179.639 120.75 177.596 121.991 176.69C123.231 175.785 122.406 173.949 130.567 172.365C138.735 170.899 120.228 150.954 118.72 149.516C117.212 148.078 93.1968 150.911 87.3042 151.052C81.4117 151.192 81.4065 147.415 80.1408 146.08C78.8752 144.744 65.6672 146.769 63.1911 146.809C60.715 146.849 57.7984 141.842 55.6675 141.742C53.5365 141.642 52.8489 143.811 50.8532 145.827C48.8575 147.843 48.572 143.376 48.2167 141.51C47.8615 139.644 46.5309 139.139 44.1348 138.584C41.7387 138.029 42.1368 144.259 42.1545 146.383C42.1721 148.506 23.2015 149.01 19.5499 149.125C15.8983 149.24 14.4675 145.319 13.4918 141.132C12.5161 136.945 9.03985 141.653 9.03985 141.653L0.136149 142.694C0.136149 142.694 -14.9404 143.185 -18.8995 144.028C-22.7411 144.864 -19.2075 139.208 -17.2493 136.605C-15.2986 133.883 -25.2956 130.745 -26.5387 129.762C-27.7819 128.78 -35.5751 130.576 -37.2583 130.093C-38.824 129.603 -40.1648 127.092 -40.5824 127.945C-41 128.798 -41.43 131.304 -43.1107 132.71C-44.7913 134.115 -46.467 133.75 -48.7955 134.253C-51.124 134.756 -49.6458 135.724 -57.6693 135.765C-65.6852 135.923 -65.6999 141.235 -67.9806 144.331C-70.3789 147.435 -74.6258 147.471 -76.6166 147.716C-78.6 148.079 -77.6393 152.03 -78.4219 154.559C-79.2046 157.088 -83.3268 151.686 -84.7824 151.07C-86.2456 150.338 -85.4825 154.892 -85.4825 154.892C-85.4825 154.892 -84.7288 168.535 -85.2264 169.984C-85.724 171.432 -90.942 159.962 -91.1147 157.259C-91.1699 154.547 -93.7789 148.813 -94.3167 147.785C-94.7295 146.867 -95.8074 148.47 -97.2003 150.684C-98.5933 152.897 -97.3824 157.069 -97.5473 160.03C-97.7122 162.991 -99.4556 161.568 -104.04 161.861C-108.624 162.154 -109.35 163.735 -111.118 165.618C-112.886 167.502 -119.851 167.475 -123.848 167.73C-127.845 167.986 -129.7 170.347 -133.202 172.813C-136.703 175.279 -135.988 171.693 -138.542 168.669C-141.221 165.535 -141.698 170.995 -142.841 173.429C-143.984 175.863 -151.2 170.068 -154.664 167.575C-158.128 165.081 -159.999 167.207 -161.762 167.32C-163.525 167.433 -165.479 168.266 -167.555 165.33C-169.631 162.393 -174.545 163.062 -179.948 161.636C-185.35 160.211 -186.748 164.195 -192.263 166.554C-197.777 168.913 -198.978 172.295 -198.978 172.295C-198.978 172.295 -198.978 172.295 -199.128 175.491C-199.277 178.687 -202.931 182.462 -205.205 185.676C-207.478 188.89 -212.165 189.425 -214.661 191.001C-217.157 192.577 -214.86 200.811 -214.525 204.212C-214.197 207.496 -208.94 204.799 -205.413 204.574C-202.004 204.356 -203.697 207.415 -204.077 208.856C-204.245 209.929 -206.023 209.806 -206.331 210.534C-206.441 210.659 -206.426 210.894 -206.286 211.239C-205.74 212.385 -204.387 213.243 -203.607 214.373C-201.141 217.874 -199.75 213.773 -199.75 213.773C-199.75 213.773 -196.627 209.088 -193.871 204.191C-191.43 199.904 -196.57 197.045 -193.879 192.978C-191.621 189.529 -188.752 186.395 -185.846 183.849C-180.819 179.397 -179.839 181.812 -178.16 184.066C-176.482 186.319 -185.441 190.196 -187.644 196.357C-189.847 202.517 -181.286 197.957 -183.424 203.287C-187.602 215.475 -188.87 217.799 -193.512 219.039ZM-122.693 158.096C-120.965 159.284 -119.127 160.347 -117.178 161.284C-116.568 161.6 -113.759 163.073 -114.585 161.237C-115.137 159.974 -116.278 158.748 -117.168 157.743C-118.949 155.732 -118.804 154.307 -118.985 151.485C-119.165 148.664 -113.673 145.953 -113.673 145.953C-94.8928 135.074 -112.65 141.638 -115.449 142.171C-118.137 142.579 -120.818 143.104 -122.199 143.665C-123.58 144.225 -126.513 148.189 -127.838 151.461C-128.249 152.431 -127.938 153.592 -127.526 154.51C-127.128 155.193 -126.62 155.75 -125.885 156.175C-124.782 156.813 -123.561 157.443 -122.693 158.096ZM-116.838 390.123C-118.291 391.396 -117.705 395.018 -117.425 401.255C-117.312 403.019 -114.283 415.336 -111.622 410.799C-111.629 410.682 -108.111 404.791 -108.196 401.61C-108.289 398.311 -105.795 394.847 -104.88 392.546C-103.965 390.245 -104.74 387.344 -107.282 382.667C-109.823 377.99 -111.891 386.266 -111.891 386.266C-112.514 387.604 -115.385 388.85 -116.838 390.123ZM0.199691 346.882C1.96556 348.657 3.73894 350.551 5.50481 352.326C6.38774 353.214 7.27074 354.102 8.15367 354.99C9.15416 355.87 10.3898 356.735 10.9351 357.881C11.4804 359.026 11.4679 360.679 12.4684 361.56C13.3438 362.33 14.6369 362.247 15.6874 362.062C20.2643 361.652 24.8638 361.594 29.5658 361.293C56.6023 359.566 36.0284 358.992 34.8379 358.832C33.6474 358.672 31.2164 359.418 28.8778 357.915C26.5391 356.412 16.4599 357.528 16.4599 357.528C16.4599 357.528 12.9409 357.871 13.2233 354.902C13.5057 351.933 12.1102 352.258 7.17007 345.138C2.22997 338.018 2.79557 343.175 -4.7156 336.455C-12.2268 329.735 -7.41174 336.745 -5.8209 339.476C-4.23006 342.207 -0.823334 345.649 -0.823334 345.649C-0.558174 346.104 -0.175455 346.552 0.199691 346.882ZM39.0615 347.349C38.6889 348.908 38.7791 350.318 40.5799 350.793C43.9313 351.523 43.276 350.503 46.4322 348.177C46.9974 347.786 48.6931 346.616 48.523 345.801C48.3604 345.103 46.8322 345.2 46.2219 344.885C45.6041 344.453 44.9788 343.902 44.2735 343.948C43.3256 343.89 42.3852 343.95 41.4523 344.128C40.2843 344.32 39.7191 344.711 39.4265 345.674C39.2215 346.159 39.1415 346.754 39.0615 347.349ZM28.5094 346.607C29.5674 346.54 30.7428 346.464 31.7707 345.927C32.6886 345.514 33.2238 344.654 33.8915 344.021C35.117 342.88 35.277 341.69 35.4369 340.499C35.9395 337.28 35.4865 333.886 35.2837 330.712C34.9232 325.07 34.168 326.181 33.0773 323.89C32.5245 322.627 28.6255 324.41 27.0624 325.808C25.4993 327.207 26.5824 329.38 26.57 331.033C26.7052 333.149 24.6118 333.637 23.2688 334.785C21.5882 336.191 20.0326 337.706 18.477 339.222C16.4738 341.121 18.5923 342.874 19.6529 344.694C19.9181 345.15 20.3083 345.715 20.801 346.037C21.6689 346.69 22.7344 346.74 23.6823 346.798C23.7999 346.79 23.7999 346.79 23.9174 346.783C25.4531 346.802 26.9812 346.705 28.5094 346.607ZM45.775 319.419C46.7105 321.13 47.9987 322.818 49.1618 324.396C49.8097 325.299 51.2003 326.745 52.3158 325.729C53.7688 324.456 53.2884 322.48 53.1908 320.952C52.9654 317.426 52.9876 312.231 51.4193 309.852C49.7334 307.481 46.8221 306.251 44.9086 304.013C43.3853 302.34 42.2248 302.65 40.041 296.18C37.7396 289.717 38.8531 297.908 38.7633 302.045C38.6735 306.182 42.6455 309.233 42.6455 309.233C45.5444 312.116 44.0215 315.99 45.775 319.419ZM76.6553 350.141C78.0735 350.168 79.3966 350.556 80.4121 351.671C81.6778 353.006 82.1355 354.63 83.1736 356.098C83.8289 357.118 84.8594 358.469 86.365 358.018C87.7456 357.458 89.0661 355.957 90.3392 357.41C92.1201 359.421 92.8829 358.428 92.8829 358.428C93.3305 358.045 96.8319 355.579 98.6853 356.877C109.445 364.57 104.698 358.617 101.902 355.491C99.1052 352.365 92.2144 347.966 89.0879 345.215C85.9613 342.464 80.1316 345.433 76.8101 345.173C73.4887 344.913 74.3588 341.907 72.4678 340.021C70.5769 338.136 63.6592 340.702 61.9609 339.985C60.2626 339.267 59.4172 338.967 59.2745 336.733C59.2519 336.381 58.3589 333.487 57.6036 334.598C57.281 335.09 57.5987 336.368 57.6363 336.956C57.6964 337.897 57.7565 338.837 57.9341 339.77C58.4294 341.981 60.1326 340.928 63.184 342.503C66.2279 343.961 67.4737 346.832 68.2192 349.263C68.817 351.232 71.2781 350.956 73.1438 350.601C74.3118 350.408 75.4799 350.216 76.6553 350.141ZM98.2229 436.459C97.6276 436.379 96.4446 436.336 96.2546 437.057C96.0645 437.777 97.4101 438.517 97.4477 439.105C97.5077 440.045 97.4605 442.999 100.297 443.054C103.015 443.116 103.38 441.441 103.795 438.699C103.883 438.222 103.853 437.751 103.588 437.296C103.198 436.731 102.367 436.666 101.779 436.704C101.184 436.624 100.596 436.661 99.8836 436.589C99.2883 436.509 98.8182 436.539 98.2229 436.459ZM61.9379 371.028C58.7866 371.583 55.9755 373.77 53.3695 375.47C51.6663 376.524 49.8607 377.819 49.1655 379.87C48.5653 381.561 48.8632 384.375 48.7407 386.153C48.5233 388.291 42.8782 386.764 40.7849 387.251C38.6915 387.739 39.532 389.81 38.8717 390.56C38.094 391.318 35.1026 390.683 32.6641 391.311C29.7629 392.087 31.504 397.169 31.3966 399.182C31.2892 401.196 30.7116 403.239 30.3691 405.267C29.669 409.089 31.8799 408.594 33.8208 409.414C35.7617 410.234 34.344 415.754 34.8844 418.67C35.4098 421.351 39.1015 423.712 41.3951 424.51C42.9683 425.118 44.8266 424.645 46.4723 424.54C48.3531 424.419 50.2414 424.417 51.9747 423.834C53.7079 423.251 54.9107 421.758 56.3713 420.602C58.6096 418.689 61.1431 417.701 64.0969 417.748C67.1683 417.788 70.1296 417.953 73.1933 417.875C74.8391 417.77 77.6227 417.002 78.2281 419.088C78.6784 420.593 78.5484 422.254 78.9987 423.76C79.9143 427.006 82.0726 425.688 84.7763 425.515C87.4799 425.342 87.7327 427.451 88.5657 429.404C89.959 432.738 92.4126 432.345 95.4689 432.15C97.5848 432.014 99.7007 431.879 101.809 431.626C105.431 431.041 107.431 427.254 107.431 427.254C107.431 427.254 111.725 418.718 113.866 415.276C116.006 411.834 116.474 404.369 116.106 398.609C115.738 392.849 107.226 385.249 107.226 385.249C107.226 385.249 95.68 372.649 93.6715 370.771C91.663 368.893 92.6808 366.349 91.8328 364.161C91.1024 361.965 89.572 365.721 87.6112 366.437C85.6504 367.152 87.2191 375.078 87.2942 376.254C87.3693 377.429 84.8857 377.352 83.4875 375.789C82.0893 374.226 81.289 374.631 79.3406 373.693C77.3921 372.755 76.089 370.832 75.6511 367.673C75.3307 364.507 72.1069 365.775 68.3378 365.898C64.5687 366.021 66.172 367.099 65.5944 369.142C65.2068 370.465 63.8037 370.673 62.6357 370.865C62.283 370.888 62.0554 371.02 61.9379 371.028ZM147.797 442.025L147.687 442.15C146.492 443.761 142.943 449.181 145.316 449.384C147.572 449.594 150.476 450.706 151.789 449.088C153.087 447.235 152.527 445.854 156.654 443.938C158.717 442.98 160.067 436.402 160.067 436.402C160.067 436.402 159.211 434.096 157.711 432.776C156.468 431.793 153.902 435.97 152.911 437.095C151.253 438.854 149.22 440.282 147.797 442.025ZM165.957 428.826C166.622 426.305 168.475 427.603 168.362 425.84C168.25 424.076 162.875 421.233 161.014 419.817C157.3 417.104 160.989 423.124 160.271 424.822C159.334 426.771 159.216 426.778 160.182 428.959C160.454 429.532 161.222 432.315 161.825 432.513C165.309 433.471 165.299 431.465 165.957 428.826Z" stroke="#475566" stroke-opacity="0.3" stroke-width="2" mask="url(#path-2-inside-1_405_5199)"/>
<mask id="path-3-inside-2_405_5199" fill="white">
<path d="M-364.924 323.826C-361.792 324.806 -368.353 325.58 -369.41 325.647C-370.586 325.722 -372.202 326.298 -372.872 325.042C-372.88 324.925 -373.042 324.227 -373.087 323.521C-373.185 321.993 -374.215 320.643 -371.217 321.395C-368.93 322.076 -366.732 323.233 -364.924 323.826ZM160.309 419.863C156.595 417.149 160.284 423.169 159.567 424.867C158.629 426.816 158.511 426.823 159.477 429.004C159.749 429.577 160.517 432.36 161.12 432.558C164.487 433.523 164.587 431.392 165.252 428.871C165.917 426.35 167.77 427.648 167.658 425.885C167.545 424.121 162.287 421.271 160.309 419.863ZM-530.429 301.235C-530.429 301.235 -526.907 313.875 -523.77 313.084C-517.263 311.488 -522.47 307.572 -528.666 301.122C-529.173 300.564 -531.322 298.341 -530.429 301.235ZM-270.34 185.943C-271.75 186.033 -273.191 185.653 -274.704 185.986C-275.982 186.303 -275.414 187.801 -275.119 188.727C-274.684 189.997 -274.381 191.04 -274.181 192.326C-274.158 192.678 -274.128 193.149 -274.106 193.501C-274.046 194.442 -273.933 196.205 -272.64 196.122C-270.759 196.002 -268.886 195.764 -267.012 195.527C-266.08 195.349 -264.992 195.752 -264.324 195.119C-262.753 193.838 -262.146 192.265 -259.935 191.77C-259.002 191.592 -256.386 191.897 -256.358 190.479C-256.396 189.891 -257.477 184.059 -258.462 183.413C-260.676 182.02 -266.453 185.813 -270.34 185.943ZM-243.415 230.49C-240.141 228.157 -237.973 223.297 -237.973 223.297C-237.973 223.297 -237.861 213.965 -241.815 218.585C-241.815 218.585 -246.299 222.294 -246.244 225.006C-246.064 227.827 -246.681 232.942 -243.415 230.49ZM-126.479 156.095C-125.487 156.858 -124.266 157.488 -123.398 158.141C-121.67 159.329 -119.831 160.392 -117.883 161.33C-117.273 161.645 -114.464 163.118 -115.289 161.282C-115.842 160.019 -116.983 158.793 -117.873 157.788C-119.654 155.777 -119.509 154.352 -119.689 151.531C-119.87 148.709 -114.377 145.998 -114.377 145.998C-95.5976 135.119 -113.355 141.683 -116.153 142.216C-118.842 142.624 -121.523 143.15 -122.904 143.71C-124.284 144.27 -127.218 148.235 -128.543 151.506C-128.953 152.477 -128.643 153.637 -128.23 154.555C-127.73 154.995 -127.105 155.545 -126.479 156.095ZM-236.743 214.838C-235.875 215.491 -235 216.261 -234.47 217.171C-233.799 218.427 -233.466 219.94 -233.024 221.328C-232.271 223.877 -233.656 226.208 -234.947 228.179C-236.134 229.907 -237.762 232.136 -235.306 233.631C-231.997 235.544 -228.206 230.227 -225.285 227.915C-223.039 226.12 -224.402 223.256 -225.933 221.465C-227.862 218.992 -230.12 216.893 -231.366 214.022C-232.487 211.261 -234.613 209.391 -236.526 207.152C-237.924 205.589 -239.642 206.407 -240.152 209.508C-240.575 212.132 -238.604 213.423 -236.743 214.838ZM-400.142 317.578C-406.309 320.805 -394.539 320.289 -394.539 320.289C-392.173 320.374 -389.807 320.459 -387.536 320.904C-386.816 321.094 -386.103 321.166 -385.493 321.481C-384.515 322.009 -383.742 323.022 -382.661 323.307C-381.213 323.805 -378.482 322.214 -377.094 321.771C-371.189 319.977 -387.506 315.827 -390.373 315.302C-393.239 314.776 -393.974 314.351 -400.142 317.578ZM38.7142 345.601C38.5167 346.204 38.4367 346.799 38.2317 347.284C37.8591 348.843 37.9492 350.253 39.75 350.728C43.1016 351.458 42.4462 350.438 45.6024 348.112C46.1676 347.722 47.8633 346.551 47.6931 345.736C47.5305 345.038 46.0024 345.135 45.3921 344.82C44.7743 344.388 44.149 343.838 43.4437 343.883C42.4958 343.825 41.5554 343.885 40.6225 344.063C39.5645 344.13 38.9993 344.521 38.7142 345.601ZM152.089 437.148C150.549 438.899 148.508 440.21 147.085 441.953L146.975 442.078C145.779 443.689 142.231 449.109 144.604 449.311C146.86 449.521 149.764 450.634 151.077 449.016C152.375 447.162 151.815 445.782 155.941 443.866C158.005 442.908 159.355 436.33 159.355 436.33C159.355 436.33 158.499 434.024 156.998 432.703C155.528 431.853 152.969 436.148 152.089 437.148ZM62.5968 342.541C65.6407 343.999 66.8865 346.87 67.6319 349.301C68.2299 351.269 70.6909 350.994 72.5567 350.639C73.7246 350.446 74.8851 350.136 75.9506 350.186C77.3687 350.213 78.6917 350.601 79.7073 351.716C80.9729 353.052 81.4307 354.675 82.4688 356.143C83.1242 357.163 84.1546 358.514 85.6602 358.063C87.0408 357.503 88.3613 356.002 89.6344 357.455C91.4154 359.466 92.1781 358.473 92.1781 358.473C92.6258 358.09 96.1271 355.624 97.9805 356.922C108.741 364.615 103.993 358.662 101.197 355.536C98.4004 352.41 91.5096 348.011 88.3831 345.26C85.2566 342.509 79.4268 345.478 76.1054 345.218C72.7839 344.959 73.6541 341.952 71.7631 340.067C69.8722 338.181 62.9544 340.747 61.2561 340.03C59.5578 339.312 58.7125 339.012 58.5698 336.779C58.5472 336.426 57.6541 333.532 56.8989 334.643C56.5762 335.135 56.894 336.413 56.9315 337.001C56.9916 337.942 57.0517 338.882 57.2293 339.815C57.8422 342.018 59.5454 340.965 62.5968 342.541ZM-7.7781 310.684C-8.24833 310.714 -8.83606 310.752 -9.30624 310.782C-9.29872 310.899 -9.29872 310.899 -9.29121 311.017C-9.17104 312.898 -9.52109 314.809 -9.15829 316.792C-8.78797 318.893 -7.38229 320.573 -6.77686 322.659C-6.33412 324.047 -6.01638 325.325 -5.80869 326.728C-5.80869 326.728 -0.162894 339.351 6.57237 337.622C11.1043 336.507 2.61512 329.259 -1.01921 325.95C-4.65349 322.642 -5.11387 319.13 -3.81858 315.388C-2.52329 311.647 0.708412 316.043 5.96584 318.894C11.2233 321.745 9.14986 320.697 12.9337 315.262C15.9622 310.938 14.016 306.341 12.3376 304.087C6.07514 307.674 -0.732613 310.116 -7.7781 310.684ZM50.707 309.78C49.0212 307.409 46.1098 306.179 44.1963 303.94C42.673 302.267 41.5126 302.577 39.3287 296.107C37.0273 289.645 38.1408 297.836 38.0511 301.972C37.9613 306.109 41.9332 309.16 41.9332 309.16C44.8397 312.161 43.3168 316.036 45.1878 319.457C46.1233 321.168 47.4115 322.856 48.5746 324.434C49.2224 325.337 50.6131 326.782 51.7285 325.767C53.1816 324.494 52.7013 322.518 52.6036 320.99C52.3633 317.228 52.2679 312.041 50.707 309.78ZM22.5566 334.713C20.8759 336.118 19.3204 337.634 17.7648 339.15C15.7615 341.048 17.8801 342.801 18.9407 344.622C19.2058 345.077 19.596 345.642 20.0888 345.965C20.9567 346.618 22.0222 346.668 22.97 346.725C23.0876 346.718 23.0876 346.718 23.2051 346.71C24.7408 346.73 26.269 346.632 27.7971 346.535C28.8551 346.467 30.0306 346.392 31.0584 345.854C31.9763 345.442 32.5115 344.581 33.1793 343.948C34.4047 342.808 34.5647 341.617 34.7247 340.427C35.2272 337.208 34.7743 333.814 34.5715 330.64C34.211 324.998 33.4557 326.108 32.3651 323.817C31.8122 322.554 27.9132 324.338 26.3501 325.736C24.787 327.134 25.8701 329.307 25.8577 330.961C25.9929 333.077 23.8995 333.564 22.5566 334.713ZM34.1332 358.877C32.9501 358.835 30.5116 359.463 28.173 357.96C25.8344 356.457 15.7551 357.573 15.7551 357.573C15.7551 357.573 12.2361 357.916 12.5186 354.947C12.801 351.978 11.4054 352.303 6.46534 345.183C1.52524 338.063 2.09078 343.22 -5.42039 336.5C-12.9316 329.78 -8.11653 336.79 -6.52563 339.522C-4.93479 342.253 -1.52812 345.694 -1.52812 345.694C-1.1454 346.142 -0.770195 346.472 -0.387476 346.919C1.37839 348.695 3.15177 350.588 4.91764 352.364C5.80057 353.252 6.68351 354.139 7.56644 355.027C8.56693 355.908 9.80254 356.773 10.3478 357.918C10.8932 359.064 10.8808 360.717 11.8813 361.597C12.7567 362.368 14.0497 362.285 15.1001 362.1C19.6771 361.689 24.2766 361.632 28.9786 361.331C55.7725 359.501 35.3161 358.92 34.1332 358.877ZM-112.728 386.084C-113.218 387.649 -116.097 388.777 -117.55 390.051C-119.003 391.324 -118.418 394.945 -118.137 401.183C-118.024 402.946 -114.995 415.264 -112.334 410.727C-112.342 410.609 -108.823 404.719 -108.908 401.538C-109.001 398.239 -106.508 394.774 -105.592 392.473C-104.677 390.172 -105.453 387.271 -107.994 382.594C-110.535 377.917 -112.728 386.084 -112.728 386.084Z"/>
</mask>
<path d="M-364.924 323.826C-361.792 324.806 -368.353 325.58 -369.41 325.647C-370.586 325.722 -372.202 326.298 -372.872 325.042C-372.88 324.925 -373.042 324.227 -373.087 323.521C-373.185 321.993 -374.215 320.643 -371.217 321.395C-368.93 322.076 -366.732 323.233 -364.924 323.826ZM160.309 419.863C156.595 417.149 160.284 423.169 159.567 424.867C158.629 426.816 158.511 426.823 159.477 429.004C159.749 429.577 160.517 432.36 161.12 432.558C164.487 433.523 164.587 431.392 165.252 428.871C165.917 426.35 167.77 427.648 167.658 425.885C167.545 424.121 162.287 421.271 160.309 419.863ZM-530.429 301.235C-530.429 301.235 -526.907 313.875 -523.77 313.084C-517.263 311.488 -522.47 307.572 -528.666 301.122C-529.173 300.564 -531.322 298.341 -530.429 301.235ZM-270.34 185.943C-271.75 186.033 -273.191 185.653 -274.704 185.986C-275.982 186.303 -275.414 187.801 -275.119 188.727C-274.684 189.997 -274.381 191.04 -274.181 192.326C-274.158 192.678 -274.128 193.149 -274.106 193.501C-274.046 194.442 -273.933 196.205 -272.64 196.122C-270.759 196.002 -268.886 195.764 -267.012 195.527C-266.08 195.349 -264.992 195.752 -264.324 195.119C-262.753 193.838 -262.146 192.265 -259.935 191.77C-259.002 191.592 -256.386 191.897 -256.358 190.479C-256.396 189.891 -257.477 184.059 -258.462 183.413C-260.676 182.02 -266.453 185.813 -270.34 185.943ZM-243.415 230.49C-240.141 228.157 -237.973 223.297 -237.973 223.297C-237.973 223.297 -237.861 213.965 -241.815 218.585C-241.815 218.585 -246.299 222.294 -246.244 225.006C-246.064 227.827 -246.681 232.942 -243.415 230.49ZM-126.479 156.095C-125.487 156.858 -124.266 157.488 -123.398 158.141C-121.67 159.329 -119.831 160.392 -117.883 161.33C-117.273 161.645 -114.464 163.118 -115.289 161.282C-115.842 160.019 -116.983 158.793 -117.873 157.788C-119.654 155.777 -119.509 154.352 -119.689 151.531C-119.87 148.709 -114.377 145.998 -114.377 145.998C-95.5976 135.119 -113.355 141.683 -116.153 142.216C-118.842 142.624 -121.523 143.15 -122.904 143.71C-124.284 144.27 -127.218 148.235 -128.543 151.506C-128.953 152.477 -128.643 153.637 -128.23 154.555C-127.73 154.995 -127.105 155.545 -126.479 156.095ZM-236.743 214.838C-235.875 215.491 -235 216.261 -234.47 217.171C-233.799 218.427 -233.466 219.94 -233.024 221.328C-232.271 223.877 -233.656 226.208 -234.947 228.179C-236.134 229.907 -237.762 232.136 -235.306 233.631C-231.997 235.544 -228.206 230.227 -225.285 227.915C-223.039 226.12 -224.402 223.256 -225.933 221.465C-227.862 218.992 -230.12 216.893 -231.366 214.022C-232.487 211.261 -234.613 209.391 -236.526 207.152C-237.924 205.589 -239.642 206.407 -240.152 209.508C-240.575 212.132 -238.604 213.423 -236.743 214.838ZM-400.142 317.578C-406.309 320.805 -394.539 320.289 -394.539 320.289C-392.173 320.374 -389.807 320.459 -387.536 320.904C-386.816 321.094 -386.103 321.166 -385.493 321.481C-384.515 322.009 -383.742 323.022 -382.661 323.307C-381.213 323.805 -378.482 322.214 -377.094 321.771C-371.189 319.977 -387.506 315.827 -390.373 315.302C-393.239 314.776 -393.974 314.351 -400.142 317.578ZM38.7142 345.601C38.5167 346.204 38.4367 346.799 38.2317 347.284C37.8591 348.843 37.9492 350.253 39.75 350.728C43.1016 351.458 42.4462 350.438 45.6024 348.112C46.1676 347.722 47.8633 346.551 47.6931 345.736C47.5305 345.038 46.0024 345.135 45.3921 344.82C44.7743 344.388 44.149 343.838 43.4437 343.883C42.4958 343.825 41.5554 343.885 40.6225 344.063C39.5645 344.13 38.9993 344.521 38.7142 345.601ZM152.089 437.148C150.549 438.899 148.508 440.21 147.085 441.953L146.975 442.078C145.779 443.689 142.231 449.109 144.604 449.311C146.86 449.521 149.764 450.634 151.077 449.016C152.375 447.162 151.815 445.782 155.941 443.866C158.005 442.908 159.355 436.33 159.355 436.33C159.355 436.33 158.499 434.024 156.998 432.703C155.528 431.853 152.969 436.148 152.089 437.148ZM62.5968 342.541C65.6407 343.999 66.8865 346.87 67.6319 349.301C68.2299 351.269 70.6909 350.994 72.5567 350.639C73.7246 350.446 74.8851 350.136 75.9506 350.186C77.3687 350.213 78.6917 350.601 79.7073 351.716C80.9729 353.052 81.4307 354.675 82.4688 356.143C83.1242 357.163 84.1546 358.514 85.6602 358.063C87.0408 357.503 88.3613 356.002 89.6344 357.455C91.4154 359.466 92.1781 358.473 92.1781 358.473C92.6258 358.09 96.1271 355.624 97.9805 356.922C108.741 364.615 103.993 358.662 101.197 355.536C98.4004 352.41 91.5096 348.011 88.3831 345.26C85.2566 342.509 79.4268 345.478 76.1054 345.218C72.7839 344.959 73.6541 341.952 71.7631 340.067C69.8722 338.181 62.9544 340.747 61.2561 340.03C59.5578 339.312 58.7125 339.012 58.5698 336.779C58.5472 336.426 57.6541 333.532 56.8989 334.643C56.5762 335.135 56.894 336.413 56.9315 337.001C56.9916 337.942 57.0517 338.882 57.2293 339.815C57.8422 342.018 59.5454 340.965 62.5968 342.541ZM-7.7781 310.684C-8.24833 310.714 -8.83606 310.752 -9.30624 310.782C-9.29872 310.899 -9.29872 310.899 -9.29121 311.017C-9.17104 312.898 -9.52109 314.809 -9.15829 316.792C-8.78797 318.893 -7.38229 320.573 -6.77686 322.659C-6.33412 324.047 -6.01638 325.325 -5.80869 326.728C-5.80869 326.728 -0.162894 339.351 6.57237 337.622C11.1043 336.507 2.61512 329.259 -1.01921 325.95C-4.65349 322.642 -5.11387 319.13 -3.81858 315.388C-2.52329 311.647 0.708412 316.043 5.96584 318.894C11.2233 321.745 9.14986 320.697 12.9337 315.262C15.9622 310.938 14.016 306.341 12.3376 304.087C6.07514 307.674 -0.732613 310.116 -7.7781 310.684ZM50.707 309.78C49.0212 307.409 46.1098 306.179 44.1963 303.94C42.673 302.267 41.5126 302.577 39.3287 296.107C37.0273 289.645 38.1408 297.836 38.0511 301.972C37.9613 306.109 41.9332 309.16 41.9332 309.16C44.8397 312.161 43.3168 316.036 45.1878 319.457C46.1233 321.168 47.4115 322.856 48.5746 324.434C49.2224 325.337 50.6131 326.782 51.7285 325.767C53.1816 324.494 52.7013 322.518 52.6036 320.99C52.3633 317.228 52.2679 312.041 50.707 309.78ZM22.5566 334.713C20.8759 336.118 19.3204 337.634 17.7648 339.15C15.7615 341.048 17.8801 342.801 18.9407 344.622C19.2058 345.077 19.596 345.642 20.0888 345.965C20.9567 346.618 22.0222 346.668 22.97 346.725C23.0876 346.718 23.0876 346.718 23.2051 346.71C24.7408 346.73 26.269 346.632 27.7971 346.535C28.8551 346.467 30.0306 346.392 31.0584 345.854C31.9763 345.442 32.5115 344.581 33.1793 343.948C34.4047 342.808 34.5647 341.617 34.7247 340.427C35.2272 337.208 34.7743 333.814 34.5715 330.64C34.211 324.998 33.4557 326.108 32.3651 323.817C31.8122 322.554 27.9132 324.338 26.3501 325.736C24.787 327.134 25.8701 329.307 25.8577 330.961C25.9929 333.077 23.8995 333.564 22.5566 334.713ZM34.1332 358.877C32.9501 358.835 30.5116 359.463 28.173 357.96C25.8344 356.457 15.7551 357.573 15.7551 357.573C15.7551 357.573 12.2361 357.916 12.5186 354.947C12.801 351.978 11.4054 352.303 6.46534 345.183C1.52524 338.063 2.09078 343.22 -5.42039 336.5C-12.9316 329.78 -8.11653 336.79 -6.52563 339.522C-4.93479 342.253 -1.52812 345.694 -1.52812 345.694C-1.1454 346.142 -0.770195 346.472 -0.387476 346.919C1.37839 348.695 3.15177 350.588 4.91764 352.364C5.80057 353.252 6.68351 354.139 7.56644 355.027C8.56693 355.908 9.80254 356.773 10.3478 357.918C10.8932 359.064 10.8808 360.717 11.8813 361.597C12.7567 362.368 14.0497 362.285 15.1001 362.1C19.6771 361.689 24.2766 361.632 28.9786 361.331C55.7725 359.501 35.3161 358.92 34.1332 358.877ZM-112.728 386.084C-113.218 387.649 -116.097 388.777 -117.55 390.051C-119.003 391.324 -118.418 394.945 -118.137 401.183C-118.024 402.946 -114.995 415.264 -112.334 410.727C-112.342 410.609 -108.823 404.719 -108.908 401.538C-109.001 398.239 -106.508 394.774 -105.592 392.473C-104.677 390.172 -105.453 387.271 -107.994 382.594C-110.535 377.917 -112.728 386.084 -112.728 386.084Z" stroke="#475566" stroke-opacity="0.5" stroke-width="2" mask="url(#path-3-inside-2_405_5199)"/>
</g>
<defs>
<clipPath id="clip0_405_5199">
<rect width="754" height="436" fill="white" transform="translate(-387.095 107.641) rotate(-8.14916)"/>
</clipPath>
</defs>
</svg>
