<svg width="15" height="17" viewBox="0 0 15 17" fill="none" xmlns="http://www.w3.org/2000/svg">
<g clip-path="url(#clip0_405_5934)">
<path d="M8.8 0H5.6C2.52308 0 0 2.52308 0 5.6V8C0 10.1538 1.23077 12.1231 3.2 13.0462V15.7538C3.2 16 3.50769 16.1231 3.63077 15.9385L5.96923 13.6H8.8C11.8769 13.6 14.4 11.0769 14.4 8V5.6C14.4 2.52308 11.8769 0 8.8 0ZM10.8923 10.5231L10.0923 11.3231C9.23077 12.1846 7.01538 11.2 5.04615 9.23077C3.07692 7.26154 2.21538 4.92308 3.01538 4.12308L3.81538 3.32308C4.12308 3.01538 4.61538 3.01538 4.98462 3.32308L6.15385 4.49231C6.58461 4.92308 6.4 5.66154 5.84615 5.78462C5.47692 5.90769 5.23077 6.33846 5.35385 6.70769C5.53846 7.56923 6.64615 8.67692 7.50769 8.92308C7.87692 8.98462 8.30769 8.8 8.43077 8.43077C8.61538 7.87692 9.35385 7.75385 9.72308 8.12308L10.8923 9.29231C11.2 9.66154 11.2 10.1538 10.8923 10.5231ZM7.93846 3.81538C7.87692 3.81538 7.75385 3.81538 7.69231 3.81538C7.50769 3.81538 7.38461 3.69231 7.38461 3.56923C7.38461 3.44615 7.50769 3.26154 7.63077 3.26154C7.75385 3.26154 7.81538 3.26154 7.93846 3.26154C9.41538 3.26154 10.5846 4.43077 10.5846 5.90769C10.5846 6.03077 10.5846 6.09231 10.5846 6.21538C10.5846 6.33846 10.4 6.46154 10.2769 6.46154C10.1538 6.46154 10.0308 6.27692 10.0308 6.15385C10.0308 6.09231 10.0308 5.96923 10.0308 5.90769C10.0308 4.73846 9.10769 3.81538 7.93846 3.81538ZM9.53846 5.90769C9.53846 6.03077 9.41538 6.15385 9.29231 6.15385C9.16923 6.15385 9.04615 6.03077 9.04615 5.90769C9.04615 5.35385 8.55385 4.86154 8 4.86154C7.87692 4.86154 7.75385 4.73846 7.75385 4.61538C7.75385 4.49231 7.87692 4.36923 8 4.36923C8.8 4.30769 9.53846 5.04615 9.53846 5.90769ZM11.5692 6.76923C11.5077 6.89231 11.3846 7.01539 11.2 6.95385C11.0769 6.89231 10.9538 6.76923 11.0154 6.64615C11.0769 6.4 11.0769 6.15385 11.0769 5.90769C11.0769 4.12308 9.66154 2.70769 7.87692 2.70769C7.81538 2.70769 7.69231 2.70769 7.63077 2.70769C7.50769 2.70769 7.32308 2.58462 7.32308 2.46154C7.32308 2.33846 7.44615 2.15385 7.56923 2.15385C7.69231 2.15385 7.75385 2.15385 7.87692 2.15385C9.90769 2.15385 11.6308 3.81538 11.6308 5.90769C11.6308 6.21538 11.6308 6.52308 11.5692 6.76923Z" fill="#9FCCFF"/>
</g>
<defs>
<clipPath id="clip0_405_5934">
<rect width="15" height="17" fill="white"/>
</clipPath>
</defs>
</svg>
