<svg width="34" height="38" viewBox="0 0 34 38" fill="none" xmlns="http://www.w3.org/2000/svg">
<g clip-path="url(#clip0_405_5887)">
<path fill-rule="evenodd" clip-rule="evenodd" d="M0.452381 38C0.180952 38 0 37.819 0 37.5476V0.452381C0 0.180952 0.180952 0 0.452381 0H20.9905C21.2619 0 21.4429 0.180952 21.4429 0.452381V16.3762H33.2952C33.5667 16.3762 33.7476 16.5571 33.7476 16.8286V37.3667C33.7476 37.6381 33.5667 37.819 33.2952 37.819H0.452381V38ZM21.5333 37.0048H32.9333V17.4619H21.5333V37.0048ZM10.7667 30.8524C11.0381 30.8524 11.219 31.0333 11.219 31.3048V37.0048H20.5381V0.995238H0.995238V37.0048H10.3143V31.3048C10.3143 31.0333 10.4952 30.8524 10.7667 30.8524Z" fill="#F3F3F3"/>
<path fill-rule="evenodd" clip-rule="evenodd" d="M8.68571 17.8237C8.23333 17.8237 7.78094 17.4618 7.78094 16.9189C7.78094 16.3761 8.14285 16.0142 8.68571 16.0142H12.7571C13.2095 16.0142 13.6619 16.3761 13.6619 16.9189C13.6619 17.4618 13.3 17.8237 12.7571 17.8237H8.68571Z" fill="#9FCCFF"/>
<path fill-rule="evenodd" clip-rule="evenodd" d="M8.68571 9.59029C8.23333 9.59029 7.78094 9.22838 7.78094 8.68552C7.78094 8.14267 8.14285 7.78076 8.68571 7.78076H12.7571C13.2095 7.78076 13.6619 8.14267 13.6619 8.68552C13.6619 9.22838 13.3 9.59029 12.7571 9.59029H8.68571Z" fill="#9FCCFF"/>
</g>
<defs>
<clipPath id="clip0_405_5887">
<rect width="33.9286" height="38" fill="white"/>
</clipPath>
</defs>
</svg>
