<svg width="27" height="38" viewBox="0 0 27 38" fill="none" xmlns="http://www.w3.org/2000/svg">
<g clip-path="url(#clip0_405_5893)">
<path d="M5.46829 38C2.50244 38 0 35.4976 0 32.5317V24.6537C0 19.0927 5.28293 16.961 7.6 16.2195L8.43415 15.9415L7.78537 15.3854C4.3561 12.5122 4.26341 8.52683 5.28293 5.74634C6.30244 2.96585 8.99024 0 13.439 0C17.9805 0 21.6878 3.33659 22.1512 7.87805V9.73171C21.9659 11.8634 20.8537 13.9024 19.1854 15.3854L18.5366 15.8488L19.3707 16.0341C24.0976 17.3317 26.878 20.4829 26.878 24.3756V32.439C26.878 35.4976 24.3756 37.9073 21.4098 37.9073H5.46829V38ZM9.54634 16.6829C6.95122 17.239 0.926829 19.0927 0.926829 24.6537V32.5317C0.926829 35.0341 2.96585 37.0732 5.46829 37.0732H21.3171C23.8195 37.0732 25.8585 35.0341 25.8585 32.5317V24.4683C25.8585 20.5756 22.7073 17.6098 17.4244 16.6829H17.239H17.0537L16.8683 16.8683L15.9415 20.3902H15.7561C15.478 20.2976 15.2927 20.1122 15.1073 20.0195L15.8488 17.239L15.1073 17.4244C14.5512 17.5171 13.9951 17.6098 13.439 17.6098C12.8829 17.6098 12.3268 17.5171 11.7707 17.4244L11.0293 17.239L11.7707 20.2049C11.678 20.2976 11.4927 20.2976 11.2146 20.3902C11.122 20.3902 10.9366 20.4829 10.8439 20.4829L9.82439 16.5902L9.54634 16.6829ZM13.439 1.01951C9.82439 1.01951 5.83902 3.42927 5.65366 8.80488C5.65366 13.161 9.17561 16.6829 13.439 16.6829C17.7024 16.6829 21.2244 13.161 21.2244 8.89756C21.039 3.42927 17.0537 1.01951 13.439 1.01951Z" fill="#F3F3F3"/>
<path d="M13.439 26.5072C14.1556 26.5072 14.7366 25.9263 14.7366 25.2097C14.7366 24.493 14.1556 23.9121 13.439 23.9121C12.7224 23.9121 12.1414 24.493 12.1414 25.2097C12.1414 25.9263 12.7224 26.5072 13.439 26.5072Z" fill="#9FCCFF"/>
<path d="M13.439 31.1415C14.1556 31.1415 14.7366 30.5606 14.7366 29.844C14.7366 29.1273 14.1556 28.5464 13.439 28.5464C12.7224 28.5464 12.1414 29.1273 12.1414 29.844C12.1414 30.5606 12.7224 31.1415 13.439 31.1415Z" fill="#9FCCFF"/>
</g>
<defs>
<clipPath id="clip0_405_5893">
<rect width="26.878" height="38" fill="white"/>
</clipPath>
</defs>
</svg>
