<svg width="27" height="38" viewBox="0 0 27 38" fill="none" xmlns="http://www.w3.org/2000/svg">
<g clip-path="url(#clip0_405_5882)">
<path d="M13.4388 34.1074C12.8827 34.1074 12.3266 33.922 11.9559 33.5513L9.45343 31.3269C8.71197 30.6781 8.43392 29.7513 8.71196 28.8245L11.1217 21.3171C11.2144 21.3171 11.3998 21.2245 11.5851 21.1318C11.9559 21.0391 12.3266 20.8537 12.6046 20.5757L14.551 20.6684C14.7364 20.8537 15.0144 21.0391 15.3851 21.1318C15.5705 21.2245 15.7559 21.3171 15.9412 21.4098L18.2583 28.8245C18.5364 29.7513 18.2583 30.6781 17.5168 31.3269L15.0144 33.5513C14.551 33.922 13.9949 34.1074 13.4388 34.1074ZM9.54611 29.1952C9.36075 29.7513 9.54611 30.3074 10.0095 30.6781L12.512 32.9025C12.79 33.0879 13.0681 33.2732 13.4388 33.2732C13.8095 33.2732 14.0876 33.1806 14.3656 32.9025L16.8681 30.6781C17.3315 30.3074 17.4242 29.7513 17.3315 29.1952L14.9217 21.6879H11.9559L9.54611 29.1952Z" fill="#9FCCFF"/>
<path d="M5.46829 38C2.50244 38 0 35.4976 0 32.5317V24.6537C0 19.0927 5.28293 16.961 7.6 16.2195L8.43415 15.9415L7.78537 15.3854C4.3561 12.5122 4.26341 8.52683 5.28293 5.74634C6.30244 2.96585 8.99024 0 13.439 0C17.9805 0 21.6878 3.33659 22.1512 7.87805V9.73171C21.9659 11.8634 20.8537 13.9024 19.1854 15.3854L18.5366 15.8488L19.3707 16.0341C24.0976 17.3317 26.878 20.4829 26.878 24.3756V32.439C26.878 35.4976 24.3756 37.9073 21.4098 37.9073H5.46829V38ZM9.54634 16.6829C6.95122 17.239 0.926829 19.0927 0.926829 24.6537V32.5317C0.926829 35.0341 2.96585 37.0732 5.46829 37.0732H21.3171C23.8195 37.0732 25.8585 35.0341 25.8585 32.5317V24.4683C25.8585 20.5756 22.7073 17.6098 17.4244 16.6829H17.239H17.0537L16.8683 16.8683L15.9415 20.3902H15.7561C15.478 20.2976 15.2927 20.1122 15.1073 20.0195L15.8488 17.239L15.1073 17.4244C14.5512 17.5171 13.9951 17.6098 13.439 17.6098C12.8829 17.6098 12.3268 17.5171 11.7707 17.4244L11.0293 17.239L11.7707 20.2049C11.678 20.2976 11.4927 20.2976 11.2146 20.3902C11.122 20.3902 10.9366 20.4829 10.8439 20.4829L9.82439 16.5902L9.54634 16.6829ZM13.439 1.01951C9.82439 1.01951 5.83902 3.42927 5.65366 8.80488C5.65366 13.161 9.17561 16.6829 13.439 16.6829C17.7024 16.6829 21.2244 13.161 21.2244 8.89756C21.039 3.42927 17.0537 1.01951 13.439 1.01951Z" fill="#F3F3F3"/>
</g>
<defs>
<clipPath id="clip0_405_5882">
<rect width="26.878" height="38" fill="white"/>
</clipPath>
</defs>
</svg>
