<svg width="395" height="464" viewBox="0 0 395 464" fill="none" xmlns="http://www.w3.org/2000/svg">
<g opacity="0.4">
<path d="M142.489 93.8135L147.596 88.0577C147.814 87.8175 148.062 87.7331 148.314 87.7611C148.537 87.6333 148.834 87.6358 149.092 87.7762L155.873 91.15C156.106 91.2469 156.23 91.4639 156.285 91.6631L156.704 93.844C156.799 94.4237 156.206 94.9373 155.556 94.7332L149.438 93.862L144.03 97.0232C143.545 97.4167 142.782 97.2203 142.662 96.5972L142.242 94.4163C142.257 94.235 142.291 93.9847 142.489 93.8135Z" fill="#475566"/>
<path d="M145.513 70.4569C145.811 70.4593 146.296 70.5843 146.599 70.6991L162.969 77.392C163.271 77.5068 163.514 77.8285 163.619 78.1145L164.002 79.5088C164.107 79.7948 163.889 80.035 163.592 80.0325L147.164 80.58C146.867 80.5775 146.391 80.6773 146.099 80.7872L130.809 86.7358C130.517 86.8457 130.259 86.7053 130.244 86.3682L130.123 85.2267C130.063 84.9151 130.251 84.5192 130.468 84.279L144.103 71.0933C144.32 70.8531 144.696 70.5797 144.988 70.4698L145.513 70.4569Z" fill="#475566"/>
<path d="M158.245 78.0271L160.804 77.5383L160.345 74.977C160.245 74.2849 159.631 74.3489 158.927 74.4641C158.224 74.5793 157.685 74.7736 157.785 75.4657L158.245 78.0271Z" fill="#475566"/>
<path d="M152.981 75.8582L155.541 75.3695L155.081 72.8081C154.981 72.116 154.367 72.18 153.664 72.2952C152.961 72.4104 152.421 72.6047 152.521 73.2968L152.981 75.8582Z" fill="#475566"/>
<path d="M135.691 82.5507L133.131 83.0394L132.671 80.478C132.571 79.786 133.111 79.5917 133.814 79.4765C134.517 79.3613 135.106 79.2538 135.231 79.9893L135.691 82.5507Z" fill="#475566"/>
<path d="M139.77 78.3072L137.21 78.7959L136.751 76.2345C136.651 75.5424 137.195 75.4605 137.898 75.3453C138.602 75.2301 139.141 75.0358 139.311 75.7457L139.77 78.3072Z" fill="#475566"/>
<path d="M147.357 90.3282L149.522 96.6968C149.607 97.0518 149.959 97.2535 150.345 97.2048C150.706 97.1127 150.988 96.778 150.903 96.4231L150.709 89.6732C150.555 88.7819 149.297 89.2727 148.936 89.3648C148.505 89.439 147.158 89.4625 147.357 90.3282Z" fill="#475566"/>
<path d="M140.868 67.2994L146.81 91.8531C146.985 92.6754 147.738 93.1654 148.486 93.0247L150.501 92.6179C151.249 92.4771 151.763 91.721 151.677 90.8476C151.677 90.8476 148.647 66.0068 148.612 65.7386C148.431 64.2855 147.953 62.83 147.278 61.5456C146.905 60.8945 146.488 60.2689 146.007 59.7379C145.138 58.7371 143.724 56.7813 142.329 58.2733C141.306 59.3795 140.893 61.3462 140.682 62.7356C140.432 64.2629 140.479 65.7927 140.868 67.2994Z" fill="#475566"/>
<path d="M314.992 417.165C315.275 417.349 315.661 417.3 315.854 417.016C316.046 416.733 316.006 416.352 315.723 416.168C315.084 415.671 314.399 415.198 313.76 414.701C313.477 414.517 313.091 414.566 312.898 414.849C312.705 415.133 312.746 415.513 312.984 415.723C313.643 416.151 314.327 416.624 314.992 417.165ZM319.053 420.024C319.737 420.496 320.421 420.968 321.106 421.44C321.388 421.624 321.775 421.575 321.967 421.292C322.16 421.008 322.095 420.584 321.837 420.444C321.153 419.972 320.493 419.543 319.809 419.071C319.527 418.887 319.14 418.936 318.948 419.219C318.661 419.441 318.745 419.796 319.053 420.024ZM309.14 412.623C309.423 412.807 309.765 412.784 310.002 412.475C310.22 412.235 310.199 411.785 309.916 411.602C309.277 411.104 308.612 410.563 308.017 410.039C307.754 409.787 307.368 409.835 307.131 410.144C306.913 410.385 306.909 410.791 307.216 411.018C307.811 411.541 308.476 412.082 309.14 412.623ZM325.226 424.092C325.955 424.539 326.639 425.011 327.343 425.414C327.625 425.598 328.031 425.481 328.224 425.197C328.417 424.913 328.352 424.49 328.025 424.331C327.321 423.928 326.636 423.456 325.932 423.053C325.65 422.869 325.244 422.986 325.051 423.27C324.858 423.554 324.943 423.909 325.226 424.092ZM331.572 427.946C331.572 427.946 331.596 427.99 331.641 427.964C332.345 428.367 333.074 428.814 333.822 429.192C334.105 429.376 334.511 429.258 334.679 428.931C334.871 428.647 334.762 428.249 334.435 428.091C333.731 427.688 333.027 427.284 332.298 426.838C332.015 426.654 331.609 426.772 331.417 427.055C331.204 427.408 331.289 427.763 331.572 427.946ZM303.506 407.842C303.789 408.026 304.131 408.003 304.348 407.763C304.566 407.522 304.57 407.116 304.307 406.864C303.687 406.297 303.092 405.774 302.472 405.207C302.234 404.997 301.823 405.003 301.605 405.243C301.343 405.509 301.383 405.889 301.621 406.098C302.241 406.665 302.837 407.189 303.457 407.755C303.437 407.824 303.481 407.799 303.506 407.842ZM298.11 402.752C298.323 402.917 298.709 402.869 298.907 402.698C299.169 402.432 299.129 402.051 298.935 401.817C298.36 401.224 297.784 400.632 297.234 400.083C297.04 399.848 296.604 399.81 296.342 400.076C296.08 400.341 296.051 400.704 296.314 400.957C296.889 401.549 297.465 402.141 298.04 402.734C298.04 402.734 298.04 402.734 298.11 402.752ZM292.975 397.395C293.188 397.561 293.53 397.538 293.772 397.341C294.059 397.119 294.063 396.713 293.8 396.46C293.27 395.842 292.694 395.25 292.163 394.632C291.945 394.354 291.534 394.359 291.291 394.556C291.004 394.778 291 395.184 291.194 395.419C291.725 396.037 292.255 396.655 292.831 397.247C292.905 397.377 292.975 397.395 292.975 397.395ZM288.216 391.766C288.429 391.932 288.727 391.934 288.969 391.737C289.256 391.515 289.285 391.152 289.067 390.874C288.58 390.231 288.049 389.613 287.538 388.926C287.32 388.648 286.953 388.627 286.641 388.806C286.354 389.029 286.325 389.391 286.499 389.695C286.986 390.339 287.497 391.025 288.028 391.643C288.122 391.704 288.147 391.748 288.216 391.766ZM283.789 385.888C284.002 386.054 284.299 386.057 284.497 385.885C284.784 385.663 284.858 385.275 284.664 385.04C284.222 384.371 283.711 383.684 283.269 383.015C283.051 382.737 282.704 382.648 282.417 382.87C282.105 383.049 282.032 383.437 282.25 383.715C282.692 384.384 283.159 385.097 283.645 385.74C283.67 385.784 283.695 385.827 283.789 385.888ZM279.713 379.694C279.901 379.816 280.154 379.844 280.376 379.717C280.688 379.538 280.762 379.15 280.588 378.846L280.464 378.629C280.091 377.978 279.699 377.395 279.327 376.744C279.153 376.44 278.762 376.377 278.494 376.53C278.183 376.709 278.109 377.097 278.258 377.358C278.63 378.009 278.978 378.616 279.395 379.242L279.519 379.459C279.594 379.589 279.643 379.676 279.713 379.694ZM276.107 373.288C276.295 373.41 276.548 373.438 276.771 373.31C277.082 373.131 277.225 372.761 277.052 372.457C276.699 371.737 276.321 370.974 275.968 370.254C275.795 369.95 275.423 369.817 275.156 369.97C274.844 370.149 274.701 370.52 274.85 370.78C275.203 371.5 275.58 372.264 275.933 372.984C275.963 373.139 276.057 373.201 276.107 373.288ZM272.966 366.557C273.154 366.679 273.363 366.733 273.585 366.605C273.922 366.469 274.065 366.099 273.936 365.77C273.627 365.024 273.319 364.278 272.986 363.489C272.857 363.16 272.485 363.027 272.193 363.137C271.856 363.273 271.713 363.643 271.818 363.929C272.126 364.675 272.459 365.464 272.767 366.209C272.822 366.408 272.872 366.495 272.966 366.557ZM270.365 359.631C270.553 359.754 270.737 359.764 270.939 359.705C271.276 359.57 271.444 359.243 271.315 358.913C271.051 358.142 270.787 357.371 270.568 356.574C270.483 356.219 270.112 356.087 269.795 356.153C269.458 356.289 269.29 356.616 269.35 356.927C269.569 357.724 269.833 358.495 270.122 359.31C270.176 359.509 270.271 359.57 270.365 359.631ZM268.214 352.563C268.333 352.668 268.541 352.721 268.744 352.662C269.106 352.57 269.274 352.243 269.189 351.888C268.97 351.092 268.82 350.313 268.601 349.516C268.516 349.161 268.189 349.003 267.872 349.069C267.51 349.161 267.343 349.488 267.402 349.8C267.577 350.622 267.796 351.419 268.015 352.216C268.045 352.371 268.12 352.502 268.214 352.563ZM266.672 345.318C266.791 345.423 266.975 345.433 267.158 345.443C267.475 345.376 267.712 345.067 267.672 344.687C267.522 343.908 267.392 343.06 267.287 342.256C267.227 341.944 266.919 341.717 266.578 341.74C266.261 341.807 266.023 342.116 266.039 342.453C266.144 343.257 266.319 344.079 266.449 344.927C266.434 345.109 266.578 345.257 266.672 345.318ZM237.331 323.294C237.614 323.477 238 323.429 238.193 323.145C238.385 322.862 238.345 322.481 238.063 322.297C237.378 321.825 236.739 321.327 236.099 320.83C235.816 320.646 235.43 320.694 235.212 320.935C235.02 321.218 235.06 321.599 235.298 321.808C235.982 322.28 236.647 322.821 237.331 323.294ZM241.367 326.109C242.051 326.581 242.78 327.028 243.464 327.5C243.747 327.684 244.153 327.566 244.346 327.283C244.538 326.999 244.454 326.644 244.146 326.417C243.487 325.988 242.758 325.542 242.074 325.069C241.791 324.886 241.405 324.934 241.212 325.218C241.044 325.545 241.085 325.925 241.367 326.109ZM231.479 318.752C231.762 318.936 232.104 318.913 232.321 318.673C232.539 318.433 232.543 318.027 232.236 317.799C231.641 317.276 230.976 316.735 230.381 316.212C230.118 315.959 229.732 316.008 229.47 316.273C229.252 316.513 229.248 316.919 229.511 317.172C230.195 317.644 230.79 318.168 231.479 318.752C231.455 318.709 231.455 318.709 231.479 318.752ZM247.693 330.032C247.693 330.032 247.718 330.076 247.763 330.05C248.467 330.453 249.24 330.874 249.944 331.278C250.227 331.461 250.632 331.344 250.8 331.017C250.993 330.733 250.884 330.335 250.556 330.177C249.852 329.773 249.104 329.396 248.4 328.992C248.117 328.809 247.711 328.926 247.519 329.21C247.37 329.468 247.411 329.848 247.693 330.032ZM225.974 313.782C226.187 313.948 226.573 313.899 226.816 313.702C227.078 313.437 227.038 313.056 226.8 312.847C226.224 312.255 225.629 311.731 225.053 311.139C224.791 310.886 224.424 310.866 224.162 311.132C223.9 311.397 223.871 311.76 224.134 312.013C224.709 312.605 225.285 313.197 225.905 313.764L225.974 313.782ZM254.252 333.534C254.276 333.577 254.321 333.552 254.346 333.595C255.094 333.973 255.843 334.35 256.611 334.659C256.938 334.817 257.319 334.656 257.443 334.355C257.61 334.028 257.456 333.655 257.154 333.54C256.43 333.206 255.682 332.828 254.933 332.451C254.606 332.292 254.27 332.428 254.077 332.711C253.909 333.038 254.014 333.324 254.252 333.534ZM220.864 308.469C221.077 308.635 221.419 308.612 221.661 308.415C221.948 308.193 221.953 307.787 221.734 307.508C221.203 306.891 220.672 306.273 220.141 305.655C219.923 305.377 219.512 305.382 219.27 305.579C218.983 305.801 218.978 306.207 219.172 306.442C219.703 307.06 220.259 307.721 220.79 308.339C220.77 308.408 220.839 308.426 220.864 308.469ZM261.017 336.57C261.042 336.614 261.111 336.632 261.111 336.632C261.88 336.94 262.648 337.249 263.416 337.558C263.718 337.673 264.099 337.512 264.223 337.21C264.346 336.909 264.192 336.536 263.89 336.421C263.121 336.112 262.353 335.804 261.585 335.495C261.283 335.38 260.902 335.541 260.778 335.843C260.699 336.118 260.804 336.404 261.017 336.57ZM216.17 302.745C216.383 302.911 216.68 302.913 216.922 302.717C217.209 302.494 217.283 302.106 217.065 301.828C216.578 301.184 216.092 300.541 215.625 299.829C215.407 299.55 215.015 299.487 214.773 299.683C214.486 299.906 214.412 300.294 214.606 300.529C215.092 301.172 215.559 301.884 216.045 302.528C216.075 302.684 216.145 302.702 216.17 302.745ZM265.675 337.991C265.794 338.096 265.933 338.132 266.091 338.098C266.433 338.075 266.67 337.766 266.655 337.429C266.594 336.599 266.489 335.795 266.453 335.008C266.438 334.671 266.13 334.444 265.789 334.467C265.447 334.49 265.165 334.825 265.225 335.136C265.286 335.966 265.346 336.796 265.407 337.626C265.457 337.713 265.556 337.886 265.675 337.991ZM268.059 339.16C268.084 339.203 268.154 339.221 268.223 339.239C269.011 339.479 269.824 339.762 270.611 340.002C270.958 340.091 271.27 339.912 271.393 339.611C271.492 339.266 271.318 338.962 271.016 338.847C270.228 338.608 269.44 338.368 268.652 338.128C268.35 338.013 267.969 338.174 267.87 338.519C267.742 338.708 267.802 339.02 268.059 339.16ZM211.985 296.671C212.173 296.793 212.47 296.796 212.693 296.668C213.005 296.489 213.078 296.101 212.905 295.797C212.463 295.128 212.041 294.39 211.643 293.696C211.469 293.392 211.078 293.328 210.811 293.481C210.499 293.66 210.425 294.048 210.574 294.309C210.997 295.047 211.438 295.716 211.861 296.454C211.866 296.566 211.935 296.584 211.985 296.671ZM275.24 341.267C275.309 341.285 275.359 341.372 275.472 341.364C276.305 341.578 277.113 341.749 277.945 341.963C278.292 342.052 278.623 341.805 278.702 341.529C278.801 341.184 278.557 340.862 278.235 340.816C277.428 340.645 276.595 340.431 275.832 340.235C275.485 340.146 275.129 340.35 275.075 340.669C274.947 340.858 275.026 341.101 275.24 341.267ZM208.354 290.221C208.542 290.343 208.795 290.371 209.018 290.244C209.329 290.065 209.473 289.694 209.299 289.391C208.946 288.67 208.568 287.907 208.215 287.187C208.086 286.857 207.67 286.75 207.403 286.904C207.066 287.039 206.948 287.453 207.097 287.713C207.45 288.433 207.827 289.197 208.18 289.917C208.21 290.073 208.26 290.16 208.354 290.221ZM265.337 330.575C265.431 330.636 265.57 330.672 265.708 330.707C266.05 330.684 266.312 330.419 266.341 330.056C266.35 329.244 266.359 328.432 266.342 327.576C266.327 327.239 266.109 326.961 265.742 326.94C265.4 326.963 265.138 327.229 265.084 327.548C265.076 328.361 265.047 329.242 265.083 330.028C265.049 330.279 265.148 330.452 265.337 330.575ZM282.533 342.848C282.627 342.909 282.696 342.927 282.766 342.945C283.618 343.09 284.401 343.217 285.253 343.363C285.575 343.408 285.931 343.204 285.96 342.841C286.014 342.522 285.816 342.175 285.449 342.154C284.622 342.053 283.814 341.882 283.006 341.711C282.684 341.665 282.328 341.87 282.274 342.189C282.265 342.483 282.344 342.725 282.533 342.848ZM205.327 283.482C205.515 283.605 205.724 283.658 205.902 283.556C206.238 283.421 206.381 283.05 206.277 282.764C205.969 282.019 205.705 281.247 205.441 280.476C205.312 280.147 204.985 279.989 204.648 280.124C204.312 280.26 204.144 280.587 204.273 280.916C204.537 281.687 204.825 282.502 205.134 283.247C205.183 283.334 205.233 283.421 205.327 283.482ZM289.964 343.946C290.058 344.007 290.152 344.068 290.266 344.06C291.094 344.162 291.965 344.239 292.768 344.297C293.134 344.317 293.421 344.095 293.45 343.732C293.48 343.37 293.217 343.117 292.895 343.071C292.092 343.013 291.265 342.911 290.393 342.835C290.071 342.789 289.74 343.037 289.71 343.399C289.696 343.581 289.82 343.798 289.964 343.946ZM265.568 323.12C265.662 323.181 265.756 323.242 265.87 323.235C266.237 323.255 266.499 322.989 266.553 322.67C266.606 321.832 266.684 321.038 266.806 320.218C266.86 319.899 266.617 319.577 266.251 319.557C265.884 319.537 265.597 319.759 265.568 320.121C265.445 320.941 265.392 321.779 265.339 322.617C265.324 322.798 265.449 323.015 265.568 323.12ZM297.459 344.431C297.553 344.492 297.691 344.528 297.805 344.52C298.652 344.553 299.499 344.586 300.322 344.575C300.688 344.595 300.95 344.33 300.979 343.967C300.964 343.63 300.701 343.377 300.379 343.331C299.557 343.342 298.71 343.309 297.907 343.251C297.541 343.23 297.279 343.496 297.25 343.859C297.171 344.135 297.295 344.352 297.459 344.431ZM202.993 276.404C203.112 276.508 203.32 276.562 203.523 276.503C203.885 276.411 204.077 276.127 203.993 275.772L203.963 275.617C203.793 274.907 203.599 274.153 203.404 273.4C203.344 273.089 202.992 272.887 202.676 272.953C202.314 273.045 202.146 273.372 202.206 273.684C202.401 274.437 202.595 275.191 202.789 275.944C202.8 276.169 202.874 276.299 202.993 276.404ZM304.977 344.441C305.071 344.502 305.235 344.581 305.349 344.573C306.216 344.537 307.013 344.483 307.88 344.447C308.221 344.424 308.483 344.158 308.488 343.752C308.472 343.415 308.165 343.188 307.823 343.211C306.981 343.291 306.159 343.301 305.362 343.355C305.02 343.378 304.758 343.644 304.729 344.007C304.734 344.119 304.833 344.293 304.977 344.441ZM201.432 269.228C201.551 269.332 201.734 269.343 201.917 269.353C202.234 269.286 202.471 268.977 202.456 268.64C202.351 267.836 202.245 267.031 202.14 266.227C202.125 265.889 201.792 265.619 201.431 265.711C201.089 265.734 200.852 266.043 200.892 266.424C200.997 267.228 201.128 268.076 201.233 268.88C201.193 269.018 201.313 269.123 201.432 269.228ZM266.557 315.749C266.651 315.81 266.72 315.828 266.814 315.889C267.136 315.935 267.468 315.687 267.522 315.368C267.644 314.548 267.836 313.746 267.984 312.97C268.038 312.65 267.839 312.303 267.517 312.257C267.195 312.211 266.839 312.416 266.785 312.735C266.618 313.581 266.47 314.357 266.303 315.202C266.244 315.409 266.368 315.626 266.557 315.749ZM312.465 343.776C312.584 343.881 312.723 343.917 312.881 343.884C313.723 343.804 314.54 343.681 315.402 343.533C315.719 343.466 315.956 343.157 315.941 342.82C315.881 342.508 315.573 342.281 315.231 342.304C314.414 342.427 313.597 342.55 312.755 342.63C312.414 342.653 312.176 342.962 312.192 343.299C312.271 343.542 312.346 343.672 312.465 343.776ZM200.707 261.86C200.826 261.965 200.965 262 201.123 261.967C201.465 261.944 201.727 261.678 201.756 261.316C201.695 260.486 201.704 259.673 201.712 258.861C201.697 258.524 201.434 258.271 201.068 258.251C200.726 258.274 200.464 258.54 200.435 258.903C200.451 259.758 200.442 260.57 200.503 261.4C200.444 261.607 200.543 261.781 200.707 261.86ZM268.19 308.47C268.259 308.487 268.309 308.574 268.423 308.567C268.769 308.656 269.126 308.451 269.18 308.132L269.318 307.649C269.495 307.029 269.717 306.382 269.894 305.762C269.993 305.417 269.819 305.113 269.472 305.024C269.125 304.935 268.813 305.114 268.715 305.458C268.493 306.105 268.316 306.725 268.119 307.415L267.981 307.898C267.897 308.061 267.976 308.304 268.19 308.47ZM319.902 342.507C320.021 342.612 320.23 342.665 320.388 342.632C321.225 342.44 322.017 342.274 322.854 342.082C323.215 341.99 323.383 341.663 323.323 341.351C323.263 341.04 322.911 340.838 322.594 340.905C321.782 341.14 320.99 341.306 320.153 341.498C319.837 341.565 319.599 341.874 319.684 342.229C319.709 342.272 319.808 342.446 319.902 342.507ZM200.779 254.438C200.874 254.499 200.968 254.561 201.126 254.527C201.493 254.548 201.755 254.282 201.784 253.919C201.837 253.082 201.915 252.287 201.968 251.45C201.997 251.087 201.735 250.834 201.413 250.788C201.046 250.768 200.784 251.034 200.73 251.353C200.677 252.191 200.554 253.011 200.501 253.848C200.492 254.142 200.591 254.316 200.779 254.438ZM270.561 301.343C270.586 301.387 270.655 301.405 270.724 301.422C271.027 301.537 271.408 301.376 271.531 301.075C271.862 300.308 272.148 299.568 272.479 298.801C272.602 298.5 272.492 298.102 272.146 298.012C271.843 297.898 271.462 298.059 271.339 298.36C271.008 299.126 270.677 299.893 270.372 300.702C270.243 300.891 270.348 301.177 270.561 301.343ZM327.195 340.571C327.359 340.65 327.567 340.704 327.77 340.645C328.582 340.41 329.369 340.131 330.2 339.827C330.537 339.691 330.705 339.364 330.576 339.035C330.446 338.705 330.119 338.547 329.783 338.683C328.995 338.961 328.208 339.24 327.396 339.475C327.06 339.611 326.892 339.938 326.952 340.249C327.026 340.38 327.101 340.51 327.195 340.571ZM201.63 247.032C201.724 247.093 201.793 247.111 201.932 247.146C202.254 247.192 202.585 246.944 202.639 246.625C202.762 245.805 202.954 245.003 203.076 244.183C203.13 243.864 202.932 243.517 202.61 243.471C202.288 243.425 201.931 243.63 201.877 243.949C201.71 244.794 201.563 245.571 201.396 246.416C201.362 246.666 201.441 246.909 201.63 247.032ZM334.293 337.882C334.482 338.004 334.69 338.058 334.913 337.93C335.675 337.608 336.457 337.217 337.194 336.851C337.506 336.672 337.649 336.302 337.5 336.042C337.371 335.712 336.955 335.605 336.687 335.758C335.95 336.124 335.188 336.446 334.45 336.812C334.114 336.947 333.971 337.317 334.1 337.647C334.15 337.734 334.199 337.82 334.293 337.882ZM273.675 294.482C273.7 294.526 273.745 294.5 273.77 294.544C274.097 294.702 274.433 294.566 274.601 294.239C275.001 293.491 275.357 292.768 275.782 292.063C275.95 291.736 275.82 291.407 275.538 291.223C275.21 291.065 274.849 291.157 274.681 291.484C274.281 292.232 273.881 292.981 273.481 293.729C273.358 294.03 273.462 294.316 273.675 294.482ZM203.263 239.752C203.332 239.77 203.382 239.857 203.496 239.849C203.842 239.939 204.199 239.734 204.253 239.415C204.445 238.613 204.706 237.829 204.967 237.045C205.066 236.7 204.892 236.396 204.589 236.281C204.243 236.192 203.931 236.371 203.808 236.672C203.546 237.456 203.31 238.284 203.073 239.111C202.97 239.344 203.049 239.586 203.263 239.752ZM341.014 334.429C341.203 334.551 341.455 334.579 341.678 334.452C342.435 334.017 343.123 333.565 343.88 333.13C344.192 332.952 344.265 332.563 344.092 332.259C343.873 331.981 343.526 331.892 343.215 332.071C342.527 332.523 341.814 332.932 341.057 333.366C340.745 333.545 340.672 333.934 340.821 334.194C340.895 334.324 340.92 334.368 341.014 334.429ZM277.469 287.981C277.494 288.025 277.494 288.025 277.469 287.981C277.777 288.208 278.183 288.091 278.375 287.807C278.8 287.102 279.294 286.415 279.789 285.728C279.981 285.444 279.941 285.064 279.658 284.88C279.376 284.696 278.99 284.745 278.797 285.028C278.303 285.716 277.833 286.446 277.384 287.108C277.171 287.46 277.256 287.815 277.469 287.981ZM205.703 232.644C205.728 232.687 205.797 232.705 205.867 232.723C206.169 232.838 206.55 232.677 206.674 232.375C207.004 231.609 207.335 230.843 207.665 230.077C207.789 229.775 207.679 229.377 207.377 229.262C207.075 229.147 206.669 229.265 206.545 229.566C206.215 230.332 205.884 231.099 205.553 231.865C205.385 232.192 205.49 232.478 205.703 232.644ZM347.288 330.195C347.501 330.361 347.798 330.363 348.041 330.166C348.704 329.671 349.386 329.106 350.024 328.567C350.311 328.345 350.316 327.939 350.122 327.704C349.904 327.425 349.493 327.431 349.25 327.627C348.612 328.166 347.949 328.662 347.311 329.201C347.024 329.424 346.995 329.786 347.169 330.09C347.194 330.133 347.263 330.151 347.288 330.195ZM281.922 281.909C282.205 282.093 282.591 282.044 282.784 281.761C283.303 281.117 283.822 280.473 284.41 279.847C284.628 279.607 284.632 279.201 284.325 278.974C284.062 278.721 283.676 278.77 283.438 279.079C282.875 279.748 282.356 280.392 281.837 281.036C281.619 281.276 281.659 281.656 281.922 281.909ZM208.912 225.844C208.937 225.888 208.981 225.862 209.006 225.905C209.333 226.064 209.695 225.972 209.863 225.645C210.263 224.896 210.687 224.191 211.112 223.486C211.305 223.203 211.195 222.804 210.913 222.62C210.63 222.437 210.224 222.554 210.032 222.838C209.607 223.543 209.162 224.317 208.762 225.065C208.569 225.349 208.674 225.635 208.912 225.844ZM353.026 325.23C353.239 325.396 353.625 325.348 353.823 325.176C354.436 324.594 355.025 323.968 355.613 323.342C355.831 323.102 355.835 322.696 355.597 322.487C355.359 322.277 354.948 322.282 354.73 322.523C354.142 323.149 353.573 323.705 352.985 324.331C352.722 324.597 352.763 324.978 352.956 325.213C353.001 325.187 353.026 325.23 353.026 325.23ZM286.965 276.248C287.179 276.414 287.565 276.365 287.807 276.168C288.421 275.586 288.964 274.985 289.578 274.403C289.84 274.137 289.869 273.774 289.606 273.522C289.343 273.269 288.977 273.249 288.715 273.514C288.101 274.097 287.488 274.679 286.9 275.305C286.637 275.571 286.678 275.951 286.916 276.161C286.941 276.204 286.941 276.204 286.965 276.248ZM212.939 219.44C213.221 219.624 213.607 219.575 213.8 219.292C213.993 219.008 214.186 218.725 214.403 218.484C214.705 218.081 215.006 217.677 215.333 217.317C215.525 217.033 215.485 216.653 215.247 216.443C214.964 216.26 214.578 216.308 214.385 216.592C214.084 216.996 213.782 217.399 213.481 217.803C213.288 218.086 213.095 218.37 212.878 218.61C212.616 218.876 212.656 219.256 212.939 219.44ZM358.094 319.612C358.376 319.796 358.762 319.748 358.955 319.464L359.43 318.846C359.795 318.348 360.117 317.875 360.482 317.377C360.675 317.093 360.59 316.738 360.352 316.529C360.07 316.345 359.683 316.394 359.491 316.677C359.169 317.15 358.848 317.623 358.458 318.077L358.028 318.67C357.746 319.005 357.786 319.385 358.094 319.612C358.069 319.569 358.069 319.569 358.094 319.612ZM292.559 271.135C292.772 271.301 293.114 271.278 293.312 271.107C293.95 270.568 294.613 270.072 295.276 269.576C295.563 269.354 295.592 268.991 295.418 268.687C295.2 268.409 294.833 268.389 294.522 268.568C293.859 269.064 293.176 269.628 292.538 270.167C292.251 270.39 292.222 270.752 292.44 271.031C292.465 271.074 292.49 271.117 292.559 271.135ZM221.195 219.085C221.785 219.496 222.375 219.907 222.965 220.317C223.247 220.501 223.653 220.384 223.846 220.1C224.039 219.817 223.999 219.436 223.647 219.234C223.081 218.867 222.491 218.456 221.901 218.045L221.619 217.861C221.336 217.677 220.95 217.726 220.757 218.01C220.564 218.293 220.605 218.674 220.843 218.883L221.195 219.085ZM217.069 215.802C217.351 215.986 217.693 215.962 217.911 215.722C218.128 215.482 218.132 215.076 217.869 214.823C217.274 214.3 216.654 213.733 216.034 213.167C215.796 212.957 215.385 212.962 215.168 213.203C214.905 213.468 214.946 213.849 215.184 214.058C215.804 214.625 216.424 215.192 217.019 215.715C217.044 215.758 217.069 215.802 217.069 215.802ZM227.322 222.66C227.347 222.704 227.391 222.678 227.416 222.722C228.209 223.074 228.978 223.383 229.79 223.666C230.093 223.781 230.474 223.619 230.572 223.275C230.696 222.973 230.541 222.6 230.195 222.511C229.451 222.246 228.683 221.937 227.915 221.628C227.588 221.47 227.207 221.631 227.083 221.933C226.98 222.165 227.084 222.451 227.322 222.66ZM211.761 210.66C211.974 210.826 212.316 210.803 212.558 210.606C212.82 210.341 212.849 209.978 212.587 209.725L210.905 207.923C210.711 207.688 210.275 207.65 210.013 207.915C209.726 208.138 209.722 208.544 209.985 208.796L211.667 210.599C211.711 210.573 211.736 210.617 211.761 210.66ZM217.699 213.595C217.982 213.779 218.323 213.756 218.541 213.515C219.129 212.89 219.698 212.333 220.287 211.707C220.549 211.441 220.533 211.104 220.315 210.826C220.052 210.573 219.685 210.553 219.423 210.818C218.81 211.401 218.222 212.027 217.633 212.653C217.371 212.918 217.411 213.299 217.65 213.508C217.699 213.595 217.699 213.595 217.699 213.595ZM206.76 205.227C206.973 205.393 207.315 205.37 207.557 205.173C207.844 204.951 207.848 204.545 207.63 204.267C207.099 203.649 206.524 203.057 205.993 202.439C205.774 202.16 205.363 202.166 205.121 202.362C204.834 202.585 204.83 202.991 205.023 203.226C205.554 203.844 206.085 204.461 206.66 205.054C206.71 205.14 206.735 205.184 206.76 205.227ZM234.472 224.611C234.567 224.673 234.661 224.734 234.775 224.726C235.646 224.803 236.493 224.835 237.385 224.843C237.727 224.82 237.989 224.554 238.018 224.191C238.003 223.854 237.74 223.602 237.373 223.581C236.551 223.592 235.773 223.577 234.946 223.475C234.624 223.429 234.293 223.677 234.263 224.039C234.229 224.29 234.328 224.463 234.472 224.611ZM201.932 199.58C202.145 199.746 202.487 199.723 202.685 199.551C202.971 199.329 202.976 198.923 202.782 198.688C202.251 198.07 201.72 197.452 201.234 196.809C201.016 196.531 200.649 196.51 200.362 196.733C200.075 196.955 200.046 197.318 200.264 197.596C200.795 198.214 201.282 198.857 201.838 199.519C201.862 199.562 201.887 199.605 201.932 199.58ZM362.17 313.295C362.195 313.339 362.239 313.313 362.264 313.356C362.591 313.515 362.953 313.423 363.121 313.096C363.521 312.347 363.921 311.599 364.321 310.85C364.489 310.523 364.334 310.15 364.032 310.036C363.705 309.877 363.324 310.038 363.2 310.34C362.845 311.063 362.445 311.811 362.045 312.56C361.872 312.774 361.957 313.129 362.17 313.295ZM298.684 266.641C298.897 266.807 299.194 266.809 299.392 266.638C300.08 266.185 300.768 265.733 301.525 265.299C301.837 265.12 301.91 264.732 301.737 264.428C301.563 264.124 301.171 264.06 300.86 264.239C300.102 264.674 299.415 265.126 298.682 265.604C298.371 265.783 298.297 266.171 298.471 266.475C298.565 266.536 298.615 266.623 298.684 266.641ZM197.262 193.899C197.475 194.065 197.773 194.067 198.015 193.871C198.302 193.648 198.331 193.286 198.113 193.007C197.626 192.364 197.095 191.746 196.584 191.059C196.366 190.781 195.999 190.761 195.687 190.94C195.4 191.162 195.371 191.525 195.545 191.828C196.032 192.472 196.587 193.133 197.074 193.777C197.168 193.838 197.237 193.856 197.262 193.899ZM241.905 223.748C242.094 223.871 242.302 223.924 242.48 223.822C243.287 223.474 244.069 223.083 244.826 222.649C245.138 222.47 245.211 222.082 245.038 221.778C244.864 221.474 244.472 221.41 244.161 221.589C243.448 221.998 242.711 222.364 241.993 222.66C241.656 222.796 241.513 223.166 241.618 223.452C241.761 223.6 241.811 223.687 241.905 223.748ZM192.765 188.004C192.979 188.17 193.276 188.172 193.518 187.975C193.805 187.753 193.879 187.365 193.661 187.087C193.174 186.443 192.663 185.756 192.221 185.087C192.003 184.809 191.611 184.745 191.324 184.968C191.037 185.19 190.964 185.578 191.182 185.856C191.669 186.5 192.18 187.187 192.666 187.83C192.671 187.942 192.696 187.986 192.765 188.004ZM223.268 208.439C223.481 208.605 223.823 208.582 224.021 208.411C224.659 207.872 225.322 207.376 225.985 206.88C226.272 206.658 226.345 206.27 226.127 205.991C225.909 205.713 225.517 205.649 225.23 205.872C224.523 206.393 223.86 206.889 223.222 207.428C222.935 207.65 222.906 208.013 223.124 208.291C223.174 208.378 223.199 208.421 223.268 208.439ZM188.402 182.032C188.616 182.198 188.913 182.2 189.111 182.029C189.398 181.807 189.471 181.418 189.278 181.184C188.836 180.515 188.325 179.828 187.883 179.159C187.709 178.855 187.318 178.791 187.031 179.014C186.744 179.236 186.645 179.581 186.864 179.859C187.306 180.528 187.817 181.215 188.259 181.884C188.308 181.97 188.378 181.988 188.402 182.032ZM365.354 306.452C365.379 306.495 365.448 306.513 365.517 306.531C365.82 306.646 366.201 306.485 366.299 306.14C366.605 305.33 366.866 304.546 367.128 303.762C367.226 303.417 367.052 303.113 366.75 302.999C366.403 302.909 366.092 303.088 365.993 303.433C365.732 304.217 365.47 305.001 365.184 305.742C365.036 306 365.096 306.312 365.354 306.452ZM305.231 262.884C305.419 263.006 305.672 263.034 305.895 262.907C306.632 262.541 307.369 262.176 308.176 261.828C308.513 261.693 308.656 261.322 308.527 260.993C308.397 260.663 308.026 260.531 307.714 260.71C306.952 261.032 306.17 261.423 305.388 261.814C305.076 261.993 304.933 262.363 305.107 262.667C305.087 262.736 305.137 262.823 305.231 262.884ZM184.262 175.932C184.475 176.098 184.773 176.1 184.97 175.929C185.282 175.75 185.356 175.362 185.182 175.058L183.832 173.008C183.658 172.704 183.266 172.64 182.955 172.819C182.643 172.998 182.569 173.386 182.743 173.69L184.093 175.74C184.143 175.827 184.237 175.889 184.262 175.932ZM248.06 219.409C248.343 219.593 248.684 219.57 248.902 219.33C249.337 218.85 249.747 218.326 250.158 217.802C250.286 217.613 250.439 217.467 250.523 217.304C250.716 217.02 250.676 216.64 250.393 216.456C250.111 216.272 249.724 216.321 249.532 216.605C249.448 216.768 249.294 216.914 249.166 217.103C248.8 217.601 248.41 218.056 248.019 218.51C247.801 218.75 247.797 219.157 248.06 219.409C248.016 219.435 248.016 219.435 248.06 219.409ZM180.3 169.73C180.488 169.852 180.741 169.88 181.008 169.727C181.32 169.548 181.394 169.16 181.22 168.856C180.778 168.187 180.356 167.449 179.959 166.755C179.785 166.451 179.393 166.387 179.082 166.566C178.77 166.745 178.696 167.133 178.87 167.437C179.267 168.132 179.734 168.844 180.131 169.538C180.181 169.625 180.25 169.643 180.3 169.73ZM229.492 204.118C229.681 204.241 229.933 204.269 230.111 204.166L230.2 204.115C230.869 203.732 231.581 203.323 232.274 202.983C232.586 202.804 232.729 202.434 232.555 202.13C232.381 201.826 232.009 201.694 231.698 201.872C230.96 202.238 230.203 202.672 229.491 203.081C229.179 203.26 229.061 203.674 229.21 203.934C229.373 204.014 229.467 204.075 229.492 204.118ZM176.491 163.382C176.68 163.505 176.932 163.533 177.155 163.405C177.467 163.226 177.54 162.838 177.391 162.578C176.994 161.883 176.572 161.145 176.175 160.451C176.001 160.147 175.654 160.057 175.342 160.236C175.03 160.415 174.932 160.76 175.106 161.064C175.503 161.758 175.925 162.496 176.322 163.191C176.372 163.278 176.441 163.296 176.491 163.382ZM312.225 259.909C312.413 260.031 312.596 260.041 312.799 259.982C313.587 259.704 314.374 259.425 315.186 259.19C315.547 259.098 315.69 258.727 315.63 258.416C315.545 258.061 315.174 257.928 314.857 257.995C314.045 258.23 313.258 258.509 312.426 258.813C312.09 258.948 311.922 259.275 312.051 259.605C312.012 259.743 312.131 259.847 312.225 259.909ZM367.403 299.28C367.497 299.341 367.567 299.359 367.636 299.377C367.958 299.423 368.314 299.218 368.368 298.899C368.535 298.054 368.683 297.277 368.825 296.388C368.879 296.069 368.636 295.747 368.314 295.702C367.992 295.656 367.66 295.904 367.606 296.223C367.484 297.043 367.336 297.819 367.169 298.664C367.135 298.915 367.215 299.157 367.403 299.28ZM172.905 156.907C173.093 157.029 173.346 157.057 173.569 156.93C173.88 156.751 173.979 156.406 173.85 156.077C173.452 155.382 173.075 154.619 172.677 153.924C172.504 153.62 172.157 153.531 171.82 153.666C171.508 153.845 171.365 154.216 171.539 154.52C171.892 155.24 172.314 155.978 172.711 156.672C172.786 156.802 172.836 156.889 172.905 156.907ZM251.834 212.977C251.903 212.995 251.928 213.038 252.022 213.1C252.369 213.189 252.726 212.984 252.78 212.665C253.061 211.812 253.228 210.967 253.325 210.103C253.355 209.741 253.136 209.462 252.77 209.442C252.403 209.422 252.116 209.644 252.087 210.007C251.984 210.758 251.837 211.534 251.62 212.293C251.541 212.569 251.646 212.855 251.834 212.977ZM236.367 201.038C236.486 201.143 236.694 201.196 236.897 201.138C237.709 200.902 238.546 200.71 239.294 200.57C239.61 200.503 239.848 200.194 239.832 199.857C239.772 199.545 239.465 199.318 239.123 199.341C238.306 199.464 237.469 199.656 236.613 199.917C236.252 200.009 236.084 200.336 236.168 200.691C236.198 200.847 236.273 200.977 236.367 201.038ZM319.512 257.86C319.631 257.965 319.84 258.018 319.998 257.985C320.201 257.926 320.359 257.893 320.587 257.878C321.221 257.745 321.81 257.637 322.469 257.548C322.786 257.481 323.023 257.172 323.008 256.835C322.948 256.523 322.64 256.296 322.298 256.319C321.665 256.452 321.006 256.542 320.417 256.649C320.214 256.708 319.986 256.724 319.783 256.782C319.422 256.874 319.229 257.158 319.314 257.513C319.274 257.651 319.349 257.781 319.512 257.86ZM169.477 150.398C169.666 150.521 169.918 150.549 170.141 150.421C170.453 150.242 170.596 149.872 170.422 149.568C170.069 148.848 169.692 148.084 169.339 147.364C169.165 147.06 168.793 146.928 168.481 147.107C168.17 147.286 168.027 147.656 168.2 147.96C168.553 148.68 168.931 149.443 169.284 150.163C169.333 150.25 169.383 150.337 169.477 150.398ZM368.323 291.891C368.417 291.952 368.556 291.988 368.694 292.024C369.061 292.044 369.323 291.778 369.352 291.416C369.405 290.578 369.389 289.722 369.353 288.936C369.338 288.599 369.075 288.346 368.708 288.326C368.367 288.349 368.105 288.614 368.075 288.977C368.111 289.764 368.103 290.576 368.05 291.414C368.035 291.595 368.134 291.769 368.323 291.891ZM243.83 200.331C243.924 200.392 243.994 200.41 244.132 200.445C244.96 200.547 245.723 200.744 246.397 200.991C246.699 201.106 247.08 200.945 247.204 200.643C247.327 200.342 247.173 199.969 246.87 199.854C246.058 199.571 245.225 199.357 244.329 199.237C244.007 199.191 243.675 199.439 243.621 199.759C243.562 199.965 243.642 200.208 243.83 200.331ZM251.639 205.709C251.828 205.831 252.08 205.859 252.259 205.757C252.595 205.622 252.738 205.251 252.564 204.947C252.231 204.158 251.74 203.403 251.14 202.767C250.921 202.489 250.51 202.494 250.268 202.691C249.981 202.913 249.976 203.319 250.17 203.554C250.676 204.128 251.093 204.754 251.377 205.456C251.496 205.561 251.545 205.648 251.639 205.709ZM166.247 143.718C166.436 143.841 166.688 143.869 166.867 143.767C167.203 143.631 167.321 143.217 167.172 142.957C166.82 142.237 166.486 141.448 166.134 140.728C166.004 140.398 165.633 140.266 165.321 140.445C164.984 140.58 164.841 140.95 165.015 141.254C165.368 141.974 165.701 142.763 166.054 143.484C166.059 143.596 166.178 143.701 166.247 143.718ZM326.935 256.772C327.054 256.877 327.193 256.913 327.351 256.879C328.193 256.8 329.015 256.789 329.838 256.779C330.179 256.756 330.441 256.49 330.471 256.127C330.455 255.79 330.192 255.537 329.826 255.517C329.004 255.528 328.137 255.564 327.295 255.643C326.953 255.666 326.647 255.958 326.687 256.338C326.717 256.494 326.816 256.667 326.935 256.772ZM367.87 284.482C367.989 284.587 368.173 284.597 368.356 284.607C368.673 284.541 368.91 284.232 368.895 283.895C368.764 283.047 368.59 282.224 368.415 281.402C368.33 281.047 368.003 280.889 367.686 280.955C367.325 281.048 367.157 281.375 367.217 281.686C367.367 282.465 367.541 283.287 367.691 284.066C367.632 284.273 367.751 284.378 367.87 284.482ZM163.176 137.005C163.364 137.128 163.572 137.181 163.795 137.054C164.132 136.918 164.275 136.548 164.145 136.218C163.837 135.473 163.504 134.684 163.151 133.964C163.022 133.634 162.65 133.502 162.314 133.637C161.977 133.773 161.834 134.143 161.963 134.472C162.272 135.218 162.605 136.007 162.958 136.727C163.032 136.857 163.082 136.944 163.176 137.005ZM334.479 256.826C334.573 256.887 334.667 256.948 334.781 256.94C335.583 256.999 336.411 257.101 337.238 257.203C337.56 257.248 337.891 257 337.945 256.681C337.999 256.362 337.756 256.04 337.434 255.994C336.607 255.893 335.78 255.791 334.908 255.714C334.541 255.694 334.254 255.916 334.225 256.279C334.211 256.46 334.29 256.703 334.479 256.826ZM365.922 277.355C366.111 277.478 366.319 277.531 366.542 277.403C366.878 277.268 367.021 276.898 366.892 276.568C366.559 275.779 366.251 275.033 365.873 274.27C365.744 273.941 365.328 273.833 365.016 274.012C364.704 274.191 364.561 274.562 364.735 274.865C365.088 275.586 365.44 276.306 365.704 277.077C365.734 277.233 365.828 277.294 365.922 277.355ZM160.352 130.208C160.54 130.33 160.748 130.384 160.971 130.256C161.308 130.121 161.451 129.75 161.321 129.421C161.013 128.675 160.705 127.93 160.416 127.115C160.287 126.786 159.915 126.653 159.623 126.763C159.287 126.898 159.144 127.269 159.248 127.555C159.556 128.3 159.845 129.115 160.153 129.861C160.183 130.016 160.258 130.147 160.352 130.208ZM341.865 257.949C341.935 257.967 342.029 258.028 342.098 258.046C342.906 258.217 343.694 258.457 344.482 258.696C344.828 258.786 345.14 258.607 345.264 258.305C345.362 257.961 345.188 257.657 344.886 257.542C344.098 257.302 343.266 257.088 342.433 256.874C342.086 256.784 341.73 256.989 341.676 257.308C341.572 257.541 341.677 257.827 341.865 257.949ZM362.361 270.923C362.574 271.089 362.872 271.091 363.069 270.92C363.356 270.698 363.43 270.31 363.236 270.075C362.968 269.71 362.7 269.345 362.432 268.98C362.189 268.658 361.971 268.38 361.683 268.083C361.465 267.805 361.054 267.81 360.811 268.007C360.524 268.229 360.52 268.635 360.714 268.87C360.932 269.149 361.22 269.445 361.438 269.723C361.681 270.045 361.949 270.41 362.217 270.775C362.267 270.862 362.336 270.88 362.361 270.923ZM348.967 260.332C348.991 260.375 349.036 260.35 349.061 260.393C349.784 260.727 350.533 261.105 351.257 261.439C351.584 261.598 351.945 261.506 352.113 261.179C352.281 260.852 352.152 260.522 351.869 260.338C351.121 259.961 350.372 259.583 349.579 259.231C349.252 259.073 348.871 259.234 348.747 259.535C348.624 259.837 348.709 260.191 348.967 260.332ZM157.706 123.308C157.895 123.431 158.078 123.441 158.281 123.382C158.617 123.247 158.785 122.92 158.656 122.59C158.392 121.819 158.084 121.073 157.82 120.302C157.691 119.973 157.364 119.814 157.027 119.95C156.691 120.085 156.523 120.412 156.652 120.742C156.916 121.513 157.18 122.284 157.513 123.073C157.537 123.117 157.612 123.247 157.706 123.308ZM357.316 265.516C357.598 265.7 357.94 265.676 358.157 265.436C358.375 265.196 358.379 264.79 358.072 264.563C357.407 264.022 356.768 263.524 356.058 263.008C355.776 262.825 355.39 262.873 355.197 263.157C355.004 263.44 355.044 263.821 355.327 264.005C356.056 264.451 356.695 264.949 357.316 265.516ZM155.239 116.306C155.427 116.429 155.61 116.439 155.813 116.38C156.15 116.245 156.318 115.918 156.188 115.588C155.925 114.817 155.661 114.046 155.442 113.249C155.312 112.92 154.985 112.761 154.624 112.854C154.287 112.989 154.119 113.316 154.204 113.671C154.468 114.442 154.732 115.213 154.951 116.01C155.07 116.115 155.144 116.245 155.239 116.306ZM152.999 109.289C153.162 109.368 153.37 109.422 153.573 109.363C153.91 109.227 154.078 108.9 154.018 108.589C153.799 107.792 153.535 107.021 153.316 106.224C153.231 105.869 152.859 105.736 152.543 105.803C152.181 105.895 152.038 106.265 152.098 106.577C152.317 107.374 152.581 108.145 152.8 108.942C152.83 109.097 152.88 109.184 152.999 109.289ZM150.982 102.144C151.101 102.248 151.309 102.302 151.512 102.243C151.873 102.151 152.041 101.824 151.956 101.469L151.513 99.7633C151.428 99.4084 151.101 99.2501 150.739 99.3422C150.378 99.4343 150.21 99.7613 150.295 100.116L150.738 101.822C150.768 101.978 150.843 102.108 150.982 102.144Z" fill="#475566"/>
</g>
</svg>
