<svg width="21" height="32" viewBox="0 0 21 32" fill="none" xmlns="http://www.w3.org/2000/svg">
<path d="M11.9135 30.1134C11.9135 29.0414 11.0594 28.1839 9.93544 28.1839C8.81152 28.1839 7.91239 28.9985 7.91239 30.0705C7.91239 31.1424 8.76657 32 9.89048 32C10.9694 32 11.8686 31.1424 11.9135 30.1134Z" fill="white"/>
<path d="M17.3083 2.84284C14.4311 0.141517 10.0703 -0.887559 6.02418 0.870442C3.102 2.15678 0.899132 4.72947 0.269739 7.77382C0.0899132 8.50274 0 9.27455 0 10.0035C0 12.7905 1.07896 15.5776 2.87722 17.7644L9.98036 26.2971L17.3083 17.9359C21.0846 13.6481 21.6691 6.95913 17.3083 2.84284ZM6.78844 6.05869C8.72158 4.25781 11.8685 4.30069 13.7567 6.14445C15.6449 7.9882 15.5999 10.9897 13.6668 12.7906C11.7337 14.5914 8.58671 14.5486 6.69853 12.7048C5.75444 11.7615 5.30488 10.5609 5.30488 9.3603C5.30488 8.15972 5.7994 6.95913 6.78844 6.05869Z" fill="white"/>
</svg>
