<svg width="14" height="20" viewBox="0 0 14 20" fill="none" xmlns="http://www.w3.org/2000/svg">
<path d="M7.93228 18.8213C7.93228 18.1514 7.39842 17.6154 6.69598 17.6154C5.99353 17.6154 5.43157 18.1246 5.43157 18.7945C5.43157 19.4645 5.96543 20.0005 6.66788 20.0005C7.34223 20.0005 7.90419 19.4645 7.93228 18.8213Z" fill="#9FCCFF"/>
<path d="M11.304 1.77726C9.50574 0.0889363 6.78025 -0.554236 4.25144 0.544514C2.42508 1.34848 1.04829 2.95641 0.654915 4.85912C0.542524 5.3147 0.486328 5.79708 0.486328 6.25266C0.486328 7.99458 1.16068 9.7365 2.28459 11.1032L6.72405 16.4362L11.304 11.2104C13.6642 8.53056 14.0295 4.34995 11.304 1.77726ZM4.72911 3.78717C5.93731 2.66162 7.90416 2.68842 9.08427 3.84077C10.2644 4.99312 10.2363 6.86903 9.02808 7.99458C7.81987 9.12013 5.85302 9.09333 4.67291 7.94098C4.08285 7.35141 3.80188 6.60104 3.80188 5.85068C3.80188 5.10031 4.11095 4.34995 4.72911 3.78717Z" fill="#9FCCFF"/>
</svg>
