<svg width="25" height="18" viewBox="0 0 25 18" fill="none" xmlns="http://www.w3.org/2000/svg">
<path d="M1.21008 10.1253L4.56376 11.3961L3.87764 11.7401C3.69205 11.8742 3.63582 12.0671 3.70654 12.2551L4.73588 14.25C4.80418 14.3745 4.87007 14.4356 4.99701 14.4307C5.12637 14.4894 5.18985 14.487 5.31438 14.4187L12.4223 10.7794L12.4495 9.82489L12.5282 8.55061C12.5209 8.3602 12.7065 8.22601 12.8359 8.28465C12.9628 8.27982 13.0287 8.34088 13.097 8.46541C13.0994 8.52888 13.1653 8.58994 13.1677 8.65341L12.6806 17.5709C12.8759 17.6906 13.1322 17.7445 13.3202 17.6737C13.6351 17.5982 13.938 17.2053 14.1043 16.5633L17.0868 6.40672L17.2041 6.148C17.2603 5.95517 17.4484 5.88445 17.5777 5.9431C17.7705 5.99933 17.8413 6.18733 17.7826 6.31669L17.5015 7.28085L17.1617 8.37437L22.7093 5.49365C24.3306 4.6692 25.0954 3.05101 24.4783 1.86676C24.1368 1.24411 23.4852 0.823944 22.7846 0.787029C22.0181 0.689057 21.1977 0.847388 20.514 1.25478L14.2803 4.47942L7.25795 2.01327C6.35726 1.72971 5.65906 1.75626 5.22924 2.154C4.86048 2.48585 4.62591 3.00328 4.64522 3.51106C4.65005 3.63801 4.71835 3.76254 4.84771 3.82118L9.60191 6.81856L6.98436 8.18941L2.49783 7.21591C2.30741 7.22315 2.11941 7.29387 1.99971 7.48911L0.995521 9.4978C0.875819 9.69305 0.948949 9.94452 1.21008 10.1253C1.20767 10.0618 1.20767 10.0618 1.21008 10.1253Z" fill="white"/>
</svg>
